<svg xmlns="http://www.w3.org/2000/svg" width="566" height="500" viewBox="0 0 566 500" fill="none">
<g id="agriculture">
<path d="M228.786 0.353874C236.882 -0.341701 247.615 0.202911 255.858 0.201624L344.172 0.19644C350.797 0.198135 360.332 -0.264341 366.49 0.718551C376.076 2.24877 380.448 16.6935 380.268 24.9319C380.065 34.3494 376.764 34.0289 368.692 33.9557C370.905 41.4709 372.281 52.1632 373.657 60.0688L381.562 104.419C383.114 113.143 385.453 122.092 386.659 131.034C387.177 134.87 388.36 138.901 388.543 142.837C399.184 142.134 413.911 142.785 425.002 142.604C425.181 121.86 424.727 101.078 425.046 80.3274C425.198 70.3992 428.438 71.5252 436.893 71.8661C436.801 60.4056 435.937 46.3765 438.072 35.0891C438.862 30.9198 443.192 25.1426 446.76 22.8594C450.63 20.383 459.485 18.1127 459.099 25.7075C458.773 34.5788 448.021 30.358 446.825 39.7352C446.225 44.4406 446.354 48.2443 446.361 52.9809L446.418 72.0457C446.747 71.9922 447.076 71.9467 447.408 71.9105C453.196 71.2575 457.526 71.3792 457.852 78.1462C458.882 99.5132 457.279 121.518 458.306 142.834C458.899 142.758 459.746 142.64 460.346 142.658C474.764 143.087 490.871 141.682 505.008 143.503C518.034 146.473 526.387 157.955 528.912 170.535C529.83 175.107 529.719 178.52 529.8 182.755C530.383 212.203 528.987 242.179 529.868 271.568C550.45 299.004 549.268 342.169 526.249 367.688C524.405 369.728 520.362 372.774 518.085 374.682L545.686 374.689C550.728 374.668 555.828 374.563 560.86 374.77C561.83 374.885 563.026 374.895 563.798 375.509C565.761 377.064 565.957 382.042 564.466 383.872C563.48 385.082 560.572 385.671 558.99 385.675C553.1 385.691 547.201 385.59 541.304 385.61C526.333 385.691 511.359 385.698 496.384 385.627L81.1272 385.715C63.9572 385.437 46.7573 385.651 29.5842 385.675C21.9383 385.688 14.0986 386.054 6.47173 385.637C5.11897 385.563 3.21691 385.569 2.10136 384.726C1.06036 383.94 0.526984 382.604 0.382288 381.344C0.176934 379.551 0.675408 377.281 1.96276 375.953C3.90549 373.947 28.4757 374.76 32.6946 374.702C30.9261 372.662 27.9373 370.036 26.2897 368.044C20.5052 361.046 9.51002 344.707 7.03052 336.293C7.43717 334.954 7.82178 333.362 8.75095 332.287C11.6849 328.899 25.2738 330.386 29.9708 330.186C29.5222 323.362 29.8017 310.014 29.9559 303.007C24.3439 302.774 18.8272 303.149 13.2481 303.032C10.3474 302.967 7.62591 299.9 7.67471 297.001C7.79332 289.982 6.97156 280.425 8.02747 273.634C9.40836 271.717 9.72147 271.535 11.5852 270.119C17.8753 269.629 41.0806 270.928 44.7132 269.467C51.9111 266.572 74.2309 253.136 81.054 249.246L106.153 235.113C116.09 229.407 122.466 225.262 133.032 220.17C133.693 215.607 131.615 205.18 138.15 205.17C143.998 205.161 142.75 214.227 142.631 218.166L172.433 218.296C175.635 209.783 186.413 197.497 193.545 191.486C252.408 141.98 322.535 192.388 330.675 259.611C332.481 274.548 331.827 283.84 330.638 298.826C336.147 298.708 341.661 298.68 347.171 298.742C346.646 292.452 347.296 282.387 347.103 275.557C346.398 256.158 342.084 237.06 334.382 219.241C303.403 148.608 221.767 128.453 171.401 191.449C167.781 195.977 161.42 205.959 158.143 194.415C158.477 193.141 159.33 190.456 160.015 189.413C170.688 173.163 191.55 154.804 210.031 149.261C210.365 139.073 212.224 129.934 213.275 119.996C214.435 109.025 215.696 98.3336 217.01 87.3851L221.468 48.8942C222.054 44.0729 222.397 38.8606 223.254 34.1302C218.895 33.8672 213.431 34.6208 213.022 28.7318C212.169 16.4533 214.437 2.53405 228.786 0.353874ZM248.976 374.516C299.075 369.955 327.676 312.393 322.027 266.82C318.889 241.506 308.445 216.025 288.062 199.835C274.505 188.842 257.328 181.5 239.64 183.389C220.733 185.123 203.278 194.264 191.085 208.818C155.083 251.351 157.836 320.82 200.588 357.739C212.745 368.237 232.741 376.261 248.976 374.516ZM387.865 230.85C383.975 231.6 377.459 231.374 373.281 231.366C365.202 231.284 357.123 231.306 349.045 231.431C351.217 236.649 353.192 246.133 353.968 251.783C358.306 251.739 386.459 250.981 388.269 252.87C389.211 253.85 389.458 256.366 389.583 257.699C390.088 263.186 389.76 268.902 389.76 274.414C389.763 282.537 389.899 290.665 389.831 298.789L412.84 298.735C416.703 264.377 445.964 227.295 482.386 225.572C487.692 225.321 493.521 224.926 491.63 233.01C490.674 237.09 484.49 236.55 481.328 237.052C441.996 241.527 419.715 282.68 420 319.167C420.031 322.986 412.969 324.843 411.579 320.793C410.322 317.883 410.82 313.05 410.922 309.826C404.321 309.472 396.361 309.676 389.648 309.708C389.756 312.999 390.776 320.631 388.116 323.152C386.337 324.839 354.677 324.606 351.01 323.884C349.912 323.67 348.838 323.423 348.004 322.644C346.605 320.099 346.954 313.117 346.934 309.865C341.095 309.459 334.497 310.06 328.177 309.772C323.986 325.741 320.39 333.189 311.664 347.102C305.504 355.642 300.265 361.832 291.716 368.271C288.787 370.477 284.923 372.551 282.316 374.651C316.571 375.261 352.586 374.729 386.93 374.736L431.45 374.743C439.458 374.743 448.865 374.977 456.744 374.58C441.857 363.557 433.626 347.417 430.942 329.255C427.787 308.733 432.955 287.803 445.3 271.111C461.494 249.418 488.316 241.972 511.989 255.306C515.096 257.057 517.906 259.586 520.969 261.375C520.613 258.334 520.623 254.76 520.664 251.667C520.81 240.813 520.376 229.757 520.803 218.924C516.079 218.888 505.9 219.535 502.829 215.853C496.954 208.806 496.598 185.686 503.46 179.002C507.17 175.384 515.534 176.122 520.332 176.122C517.702 165.072 513.307 155.908 500.332 153.887C496.025 153.215 490.257 153.653 485.818 153.682L462.931 153.733C438.699 153.727 413.599 153.368 389.438 153.747C390.173 175.314 389.384 197.091 389.705 218.683C389.773 223.412 389.855 226.509 387.865 230.85ZM488.353 374.699C500.332 374.546 511.013 368.186 519.065 359.647C541.159 336.215 539.871 293.839 516.337 271.849C508.275 264.317 498.465 259.755 487.252 259.946C486.791 259.953 486.33 259.972 485.873 260.002C452.826 261.599 434.904 299.442 440.613 329.058C445.144 352.544 462.464 374.96 488.353 374.699ZM219.693 145.329C222.644 144.78 225.587 144.186 228.521 143.547C230.482 123.963 233.035 104.563 235.126 85.0131C236.456 72.5818 237.995 60.1528 239.853 47.7929C240.234 45.1719 242.56 43.9588 244.926 44.095C253.338 43.9381 261.766 44.0113 270.185 44.0262L337.201 44.0106C340.095 44.0004 346.625 43.8154 349.306 44.1245C355.026 44.7839 355.419 60.6126 356.239 65.0947L364.551 110.722C365.703 116.779 372.359 146.73 371.566 151.166C371.342 152.429 370.797 153.689 369.672 154.388C365.978 156.68 340.865 155.624 335.05 155.623L291.949 155.506C311.058 165.375 328.733 186.371 338.689 205.163C341.444 210.363 343.064 216.037 345.188 220.057L380.732 220.051C379.861 196.207 381.274 171.705 380.088 147.835C379.326 142.309 377.52 136.727 376.679 131.244C373.809 112.521 369.821 93.9949 366.795 75.2862C364.606 61.7607 360.793 47.4619 359.59 33.8415C344.646 33.5165 328.889 33.7734 313.897 33.7825L232.366 33.7598C231.699 45.753 229.752 59.9654 228.279 71.944L223.772 110.01C222.407 120.843 221.777 134.651 219.693 145.329ZM285.377 144.651C300.563 143.242 316.31 144.905 331.532 144.361C338.963 144.096 346.568 144.09 353.975 144.667L340.502 131.484C337.113 128.129 334.243 124.966 330.39 122.11C327.794 126.349 320.285 140.698 316.385 128.728C315.175 125.018 322.986 114.957 325.107 111.544C326.998 108.74 335.07 94.7184 337.964 94.738C350.038 94.8203 338.465 108.949 336.273 113.18C342.569 119.025 354.602 130.087 359.973 136.146L350.234 84.1372C348.435 74.5251 346.33 65.1957 344.982 55.4122C325.504 55.7524 304.718 55.627 285.209 55.4294L285.217 113.881C285.217 123.4 284.856 135.419 285.377 144.651ZM238.259 142.585C247.315 141.739 260.039 142.879 268.807 145.463C271.015 146.151 273.959 146.977 276.04 147.851C276.255 142.043 276.163 136.304 276.232 130.502C276.531 105.504 275.859 80.3423 276.294 55.3603C266.816 55.5365 257.336 55.4969 247.86 55.2414C246.649 73.7695 243.265 92.5456 241.646 111.092C240.758 121.253 238.608 132.419 238.259 142.585ZM94.8849 341.935C102.017 352.555 112.262 370.734 126.26 374.452C128.28 374.99 143.589 374.807 146.854 374.651C138.538 362.869 135.477 356.312 133.606 341.823C120.817 341.775 107.647 341.626 94.8849 341.935ZM448.753 82.9928C443.877 82.9644 439 82.9617 434.124 82.9847C434.514 102.837 433.819 123.079 434.26 142.897C439.065 142.51 444.656 143.048 448.682 142.696C448.455 137.466 448.35 130.891 448.56 125.638C449.116 111.904 447.628 96.5346 448.753 82.9928ZM380.624 313.219C380.282 307.931 380.336 298.883 380.519 293.483C373.304 293.493 363.25 293.829 356.344 293.436C356.313 299.989 356.374 306.781 356.232 313.314C364.307 313.283 372.566 313.346 380.624 313.219ZM142.601 269.984C147.392 269.839 152.186 269.805 156.979 269.88C157.117 266.339 157.31 264.222 157.985 260.655C159.838 250.423 161.647 238.311 166.883 229.116L142.687 229.118C142.812 241.154 143.222 258.272 142.601 269.984ZM222.269 22.4843C227.139 22.098 233.649 22.3091 238.653 22.3183L265.415 22.3345C297.349 22.3487 330.082 22.7273 361.942 22.1783C364.707 22.2335 367.899 22.2454 370.627 22.4236C369.275 14.6201 368.658 11.8486 359.868 11.6581C353.023 11.51 346.158 11.5463 339.309 11.5476L256.298 11.5327C248.1 11.5236 239.236 11.3423 231.095 11.5646C223.606 12.5019 222.83 15.6763 222.269 22.4843ZM59.6217 341.836L35.9064 341.772C31.3985 341.762 25.1952 341.64 20.7773 341.965C26.635 351.514 31.9813 360.538 40.6756 368.051C43.6505 370.622 46.9664 372.276 49.9047 374.543C56.8206 374.828 65.746 374.902 72.6884 374.624C64.8853 363.899 60.5837 355.333 59.6217 341.836ZM47.8955 303.128C45.6028 303.053 41.2615 303.15 39.2737 302.987C39.4123 309.588 39.7278 323.952 39.2609 330.336C41.9599 330.309 45.2944 330.359 47.9382 330.217C47.2347 323.782 47.3794 309.784 47.8955 303.128ZM356.324 281.963C364.253 281.714 372.66 281.867 380.641 281.848C380.4 278.413 380.258 265.63 380.729 262.507L355.741 262.631C356.147 269.462 356.402 275.091 356.324 281.963ZM520.745 187.298C517.014 187.205 512.857 187.07 509.139 187.401C508.082 189.917 506.754 205.174 509.59 206.939C510.84 207.716 518.245 207.384 520.329 207.338L520.793 206.896C520.711 200.364 520.695 193.831 520.745 187.298ZM56.8342 330.359C58.8992 330.322 65.4936 329.983 66.2862 331.755C69.7111 339.414 69.5813 348.681 73.2272 356.706C76.623 364.181 81.0123 368.403 85.1103 374.784C92.1648 374.729 100.26 375.007 107.151 374.729C102.353 369.951 100.436 368.03 96.4583 362.625C93.9398 359.21 76.2584 335.889 83.5918 331.42C86.6233 329.573 98.8629 330.505 103.472 330.139C102.815 323.955 103.518 310.054 103.47 303.033C88.6023 302.459 71.3177 303.664 56.7467 302.948L56.8342 330.359ZM119.191 330.312C120.515 330.237 120.835 330.471 121.604 329.797C122.2 321.559 120.903 311.713 121.752 303.235C120.254 303.151 118.061 302.967 116.633 303.034C115.326 303.047 114.016 302.899 112.922 303.507C112.369 309.157 112.858 323.901 112.96 330.322L119.191 330.312ZM158.965 374.695C173.951 374.753 190.999 375.112 205.857 374.706L205.52 374.428C201.477 371.154 197.14 369.169 193.066 365.506C176.204 350.345 162.069 325.564 159.283 302.995C150.253 302.71 139.933 302.936 130.843 303.028C130.799 312.127 130.804 321.227 130.857 330.325C136.735 330.281 141.785 329.183 142.46 336.865C143.632 350.206 148.244 360.89 156.742 371.205C157.543 372.181 158.403 373.516 158.965 374.695ZM132.969 232.556C128.762 234.55 125.154 236.954 121.113 239.241L95.0804 253.993L74.4109 265.573C72.6908 266.55 68.9287 268.361 67.6806 269.419L67.7572 269.854L68.2371 269.86L133.354 269.906C133.34 266.467 133.423 233.193 132.969 232.556ZM22.5791 281.338C20.7665 281.374 18.8011 281.451 17.0027 281.428C16.9827 285.093 17.0552 288.757 17.2203 292.418C32.1291 292.06 47.0429 291.945 61.9555 292.072L132.783 292.078C140.427 292.072 148.555 292.256 156.128 292.136L156.811 292.013C157.34 290.903 156.684 283.354 156.651 281.493C147.394 281.136 137.231 281.333 127.87 281.336L79.6769 281.353L42.4472 281.296C36.533 281.283 28.3402 281.031 22.5791 281.338Z" fill="#174952"/>
<path d="M240.022 223.365C240.284 223.321 240.546 223.276 240.807 223.232C289.015 221.065 303.721 286.713 276.961 318.516C269.381 327.526 258.891 333.318 248.455 334.368C214.556 336.496 195.247 302.574 198.566 272.033C201.058 249.098 215.315 226.298 240.022 223.365ZM246.158 323.111C255.763 322.484 262.711 318.448 269.13 311.364C285.924 292.826 284.602 258.9 265.333 242.563C258.981 237.177 251.246 233.512 242.764 234.212C224.113 235.816 212.909 251.062 208.954 268.242C203.384 292.433 218.004 324.243 246.158 323.111Z" fill="#174952"/>
<path d="M242.941 255.56C268.823 254.889 270.985 298.119 246.021 301.662C225.672 302.302 220.132 275.982 230.091 262.887C233.218 258.82 237.848 256.18 242.941 255.56ZM246.312 290.354C256.624 286.599 256.33 271.304 248.017 267.577C246.43 266.883 244.705 266.561 242.974 266.638C229.764 271.396 232.662 291.64 246.312 290.354Z" fill="#174952"/>
<path d="M485.418 286.727C502.877 284.669 513.605 302.844 513.138 318.255C512.724 331.952 504.507 345.91 490.19 347.98C482.589 348.556 478.75 347.201 472.721 342.535C453.999 328.038 459.414 289.002 485.418 286.727ZM488.265 336.733C511.789 332.247 505.676 297.022 487.052 297.539C481.63 298.474 478.292 299.921 474.998 304.443C466.418 316.226 471.705 336.882 488.265 336.733Z" fill="#174952"/>
<path d="M350.082 165.025C355.463 164.767 363.05 164.361 368.303 165.283C372.911 166.092 372.508 174.236 368.594 175.857C363.762 176.421 356.093 176.444 351.319 175.777C346.703 175.132 344.985 167.696 350.082 165.025Z" fill="#174952"/>
<path d="M3.75504 414.796C29.3026 413.139 35.2917 429.231 55.8318 431.563C62.9297 432.346 70.1103 431.278 76.6715 428.459C86.153 424.277 93.8883 416.27 104.908 417.941C113.999 419.32 119.005 426.432 126.7 428.903C133.704 430.56 141.316 424.179 146.895 420.807C157.119 414.627 174.859 412.695 186.342 416.202C201.799 420.919 208.979 431.502 226.888 431.861C247.556 432.278 255.172 417.456 274.441 414.949C282.869 413.959 295.867 414.728 303.298 418.361C316.134 424.636 323.006 431.942 338.354 431.925C354.734 431.905 361.563 423.44 375.385 417.5C380.953 415.108 388.045 414.65 394.101 414.63C400.082 414.494 407.855 415.277 413.301 417.92C427.51 424.816 434.541 432.539 451.623 431.756C469.082 430.953 477.167 418.554 493.667 415.403C498.912 414.403 504.507 414.559 509.837 414.738C518.905 414.894 529.749 419.689 537.235 425.006C547.333 432.176 553.29 429.787 563.758 432.474C565.151 435.473 567.262 442.64 562.091 443.142C540.285 443.565 535.124 434.474 516.188 427.273C505.381 423.159 492.447 426.412 482.728 431.814C479.149 433.806 476.096 435.893 472.284 437.855C458.929 445.768 436.422 444.629 423.643 436.49C398.729 420.618 385.08 422.868 360.637 438.252C348.747 445.734 325.331 444.48 312.962 436.686C296.389 426.239 281.188 420.631 262.131 431.244C258.583 433.186 255.172 435.514 251.463 437.459C235.784 445.68 217.59 445.158 202.131 436.673C195.962 433.376 190.841 429.655 183.941 427.469C174.521 424.074 159.777 425.775 151.304 431.346C140.339 439.319 127.724 444.555 115.508 435.439C100.945 424.575 96.7619 430.363 83.3214 437.991C69.1242 445.486 49.8501 444.988 36.0521 437.222C23.7733 430.309 17.1701 426.131 2.99834 425.07C-0.0748422 424.843 -2.13007 416.765 3.75504 414.796Z" fill="#174952"/>
<path d="M4.13965 470.725C30.4561 469.583 41.1073 491.802 67.3892 487.349C79.1594 485.546 86.4244 477.522 97.954 474.045C114.358 469.098 123.497 492.75 138.089 482.28C152.727 471.778 169.31 467.804 186.866 472.537C193.626 474.364 200.622 479.406 206.809 482.53C215.262 486.875 225.152 489.08 234.634 487.366C248.424 485.407 256.581 475.319 269.876 472.134C289.035 467.539 302.627 473.293 318.604 483.096C328.889 489.406 346.249 489.182 356.727 483.828C364.101 480.06 371.779 474.225 380.187 472.263C399.627 467.726 412.657 472.338 429.028 482.788C434.31 486.16 439.028 486.729 444.785 487.539C466.344 490.565 473.704 476.502 492.335 471.877C504.897 468.759 520.108 471.026 531.233 477.658C536.506 480.883 539.885 482.798 545.642 485.295C552.809 488.403 568.258 484.455 564.968 496.993C564.439 499.009 562.673 499.043 560.915 499.219C541.423 498.684 540.671 495.634 523.294 486.448C511.396 480.158 497.821 480.003 485.835 486.454C478.882 490.195 471.766 494.936 464.175 497.498C460.041 498.89 455.063 499.168 450.695 499.368C438.912 499.91 431.359 497.118 421.332 491.341C418.641 489.792 415.764 487.742 412.938 486.342C399.065 479.477 387.174 480.633 373.741 487.22C367.083 490.483 361.332 495.126 353.87 497.366C348.049 499.114 344.795 499.226 339.184 499.426C323.193 499.988 314.992 493.723 301.641 486.475C288.757 479.481 275.766 480.619 262.84 487.149C256.729 490.236 249.738 495.221 242.975 497.277C233.826 500.063 218.838 500.195 209.954 496.542C204.119 494.143 197.069 489.582 191.205 486.58C177.597 479.616 164.81 480.263 151.494 487.213C145.267 490.463 143.903 493.015 136.25 495.366C124.398 499.009 118.037 492.042 108.729 486.908C100.584 482.419 93.9808 486.881 87.5545 491.493C85.0594 493.282 78.4651 496.359 75.4447 497.355C70.0964 499.117 65.2421 499.155 59.7935 499.239C46.5208 499.446 39.7725 495.742 28.7048 489.43C24.9241 487.274 22.1891 485.672 17.9715 484.018C13.4483 481.995 6.876 482.757 2.61509 480.816C-0.788834 479.264 -0.421165 471.85 4.13965 470.725Z" fill="#174952"/>
</g>
</svg>