<svg xmlns="http://www.w3.org/2000/svg" width="503" height="499" viewBox="0 0 503 499" fill="none">
<g id="bankicon">
<path id="Vector" d="M243.757 4.3387C244.921 4.2321 246.089 4.19742 247.257 4.23485C248.864 4.2958 251.038 4.84217 252.365 5.76397C259.788 10.92 267.22 16.0662 274.633 21.2322L305.813 42.815L405.245 111.233L455.698 145.964C461.58 150.032 469.21 154.658 474.518 159.376C476.29 160.95 476.075 163.374 475.975 165.541C475.335 166.5 473.863 168.683 473.063 169.169C470.058 171 453.228 170.556 450.418 170.157C450.523 171.693 450.613 173.467 450.55 175.017C450.273 181.743 452.225 190.169 445.278 194.3C442.285 196.079 437.273 196.174 433.995 195.486C434.545 204.858 435.39 218.516 421.785 217.17C422.19 222.284 421.87 232.283 421.743 237.693C427.845 236.426 435.84 231.837 441.915 233.892C444.47 234.78 446.55 236.674 447.67 239.135C450.583 245.442 446.218 252.71 443.603 258.46C440.315 265.562 436.963 272.635 433.553 279.68C431.42 284.04 428.56 289.422 426.86 293.842C428.503 296.345 430.575 298.205 432.533 300.472C435.45 303.852 438.345 307.26 441.233 310.67C448.873 319.852 456.183 329.307 463.145 339.012C483.175 367.047 501.82 405.022 495.888 440.352C493.698 453.39 486.81 464.3 476 471.92C467.038 478.24 455.508 481.655 444.825 483.64C431.9 486.04 417.82 485.977 404.665 486.092C389.133 486.23 368.718 486.315 353.598 483.662C337.325 480.81 320.143 474.642 310.235 460.652C304.515 453.407 303.295 446.092 301.288 437.435C292.605 437.122 283.135 437.285 274.405 437.28L227.968 437.282L89.4604 437.272L40.8798 437.287L24.8737 437.317C9.7465 437.337 6.02895 437.6 6.4321 420.095C6.5546 414.775 6.45827 406.84 13.6731 405.805C20.2057 404.867 28.1266 405.312 34.7601 405.502C34.4571 402.912 34.6211 399.715 34.5883 397.075C34.5271 392.095 34.1549 386.545 37.9109 382.655C38.9626 381.55 40.3106 380.767 41.7938 380.405C44.1874 379.812 49.9066 379.997 52.5844 379.995L70.9298 380.007C70.8123 378.802 70.9186 375.81 70.9251 374.502L70.9454 363.87L70.9616 328.29L70.9158 217.487C65.9528 217.541 64.7383 216.679 60.8023 214.021C58.1481 208.138 58.9696 202.223 59.0608 195.696C54.0416 195.841 48.7076 196.446 44.9263 192.419C43.6546 191.06 42.7558 189.395 42.3173 187.586C41.6768 184.871 41.9861 173.571 42.0516 170.323C40.2741 170.5 36.7601 170.354 34.8284 170.365C31.0501 170.273 27.1193 170.602 23.3631 170.258C16.1621 169.599 14.1135 162.064 19.8889 157.695C27.0198 152.299 34.4383 147.511 41.7441 142.442L95.0968 105.734L183.812 44.5895L216.509 22.0836C220.984 18.981 225.475 15.8197 229.988 12.7733C234.119 9.98442 239.011 5.73112 243.757 4.3387ZM247.947 164.648L417.71 164.671L449.418 164.677C452.7 164.692 467.073 165 469.31 164.354L469.655 163.854C469.475 163.378 469.313 162.929 468.88 162.622C465.148 159.991 461.28 157.31 457.523 154.737L435.598 139.636L297.485 44.438L262.208 20.1855C258.34 17.5492 249.384 10.2296 245.061 10.5252C240.648 12.5593 235.184 16.5629 231.087 19.4001L216.173 29.6725L173.717 58.8555L95.6431 112.768C72.9883 128.134 50.4431 143.661 28.0091 159.348C26.6978 160.273 23.372 162.541 22.712 163.885C23.6866 165.18 29.8021 164.739 31.7156 164.727L44.4716 164.69L90.4281 164.681L194.48 164.66C212.176 164.646 230.302 164.898 247.947 164.648ZM376.173 297.785C367.935 307.93 358.845 317.46 350.865 327.98C327.75 358.372 303.968 395.477 307.455 435.37C309.66 460.582 329.37 473.23 352.528 477.115C373.788 480.677 394.748 480.772 416.21 480.237C421.903 479.997 427.565 479.39 433.225 478.757C438.438 478.172 443.775 477.7 448.908 476.607C459.538 474.345 471.935 468.887 479.33 460.8C488.71 450.545 491.653 436.63 490.998 423.092C490.81 419.215 490.088 415.402 489.425 411.587C483.193 375.687 460.33 343.725 437.51 316.295L427.4 304.25C425.923 302.502 423.228 299.175 421.683 297.75C409.228 297.29 394.488 297.517 381.918 297.615C380.108 297.662 377.953 297.662 376.173 297.785ZM116.718 217.155L116.686 328.112L116.684 361.75C116.698 367.362 116.95 374.627 116.669 380.025C124.417 379.952 132.166 379.947 139.914 380.01C143.644 380.02 148.148 379.76 151.735 380.257C157.891 381.11 160.014 388.185 159.762 393.515C159.672 397.517 159.813 401.532 159.549 405.51C164.515 405.222 170.759 405.4 175.824 405.412L201.501 405.402C203.1 405.402 209.981 405.68 210.837 405.167L210.842 404.83C210.764 393.765 207.925 379.842 223.359 380.007C223.069 371.555 223.419 361.882 223.415 353.315L223.361 296.137L223.308 246.339C223.278 237.352 222.94 226.195 223.314 217.419C214.877 217.601 211.092 213.199 210.994 204.925C210.973 201.844 210.991 198.763 211.047 195.683C204.911 195.864 198.314 195.739 192.123 195.736L156.765 195.711L138.399 195.749C135.929 195.755 130.641 195.902 128.402 195.603C128.614 201.056 129.555 210.337 125.725 214.335C123.881 216.223 121.354 217.287 118.715 217.287C118.1 217.282 117.34 217.213 116.718 217.155ZM263.02 217.409L240.493 217.44C237.529 217.448 231.943 217.638 229.239 217.381C229.423 232.107 229.245 247.14 229.237 261.89L229.245 346.895C229.248 350.05 229.017 378.777 229.514 379.85L230.188 379.987C240.651 379.985 253.183 379.672 263.445 380.057C263.155 377.647 263.398 372.04 263.428 369.415L263.485 351.462L263.43 233.384C263.423 230.599 263.34 220.953 263.498 217.759C263.393 217.652 263.29 217.545 263.185 217.439L263.02 217.409ZM382.17 239.285C390.333 242.434 405.283 242.197 413.718 239.954C414.418 239.748 415.463 239.554 415.885 239.041C416.188 236.965 416.005 233.734 416.023 231.566C416.055 226.866 415.92 222.124 416.045 217.421L393.603 217.423C391.31 217.425 383.945 217.578 382.055 217.235C382.068 223.093 381.765 233.907 382.17 239.285ZM110.521 380.01C110.079 377.037 110.539 364.477 110.549 360.712L110.586 315.662L110.557 248.216L110.532 229.233C110.517 225.912 110.342 220.585 110.712 217.418L87.6136 217.407C85.3359 217.41 78.3621 217.557 76.4718 217.185C76.9963 226.867 76.5864 239.391 76.5791 249.301L76.5619 308.925L76.5636 355.867C76.5643 362.252 76.9026 373.925 76.4336 380.015C87.4354 379.885 99.5086 379.862 110.521 380.01ZM426.853 210.234C428.28 205.639 427.503 200.603 427.87 195.742L389.408 195.729C384.93 195.73 374.173 196.072 370.223 195.628C370.338 199.065 369.66 207.84 371.2 210.173C372.15 210.667 373.783 211.002 374.88 211.014C389.193 211.179 403.52 211.159 417.835 211.129C420.29 211.124 423.88 211.192 426.16 210.468C426.393 210.393 426.623 210.315 426.853 210.234ZM429.798 272.27C432.365 268.325 434.453 262.46 436.703 258.005C438.758 253.927 442.78 247.048 442.385 242.392C442.105 239.114 435.898 239.928 433.888 240.686C418.628 245.403 402.93 250.872 386.815 246.769C382.845 245.758 378.76 245.061 374.785 243.963C370.358 242.741 362.75 239.398 358.3 239.756C354.473 241.209 355.953 246.421 357.2 249.32C359.058 253.63 361.193 257.935 363.24 262.16L371.043 278.505C371.96 280.422 376.073 289.535 376.845 290.545C379.615 291.405 388.01 290.995 391.315 291.065C400.945 291.27 411.19 290.752 420.78 291.232C422.918 285.922 425.965 280.795 428.258 275.54C428.738 274.435 429.233 273.332 429.798 272.27ZM150.313 405.417C151.314 405.447 152.357 405.465 153.353 405.545C153.192 402.397 153.454 399.19 153.299 396.127C153.096 392.13 154.793 386.44 149.04 386.287C143.165 386.135 137.271 386.2 131.393 386.197L96.0554 386.18L61.2678 386.172C56.8626 386.177 48.3091 385.937 44.3433 386.272C43.3528 386.627 42.0281 386.932 41.7621 387.92C40.4519 392.79 41.1806 400.47 40.9968 405.56C43.9078 405.2 50.0208 405.38 53.1411 405.385L75.9688 405.425L150.313 405.417ZM219.962 386.332C218.991 386.792 218.116 387.252 217.833 388.362C216.59 393.242 217.321 400.347 217.092 405.527C222.88 405.16 231.225 405.407 237.227 405.407L273.313 405.397C274.153 405.427 274.913 405.575 275.6 405.162C275.79 402.715 275.578 399.682 275.543 397.05C275.353 394.065 276.3 389.595 274.468 387.055C273.93 386.307 270.473 386.23 269.483 386.227C255.118 386.17 240.748 386.172 226.383 386.16C224.316 386.16 222 386.075 219.962 386.332ZM218.056 209.975C219.062 210.52 219.858 210.851 221.002 210.959C225.596 211.394 271.21 211.439 272.95 210.842C273.333 210.711 273.615 210.542 273.938 210.305C275.738 205.797 274.838 200.654 275.033 195.721C263.318 196.052 250.268 195.727 238.437 195.736L225.34 195.754C222.913 195.765 219.504 195.914 217.18 195.644C217.411 200.206 216.743 205.902 218.056 209.975ZM121.315 209.831C123.562 205.759 122.376 200.656 122.822 195.754L82.6781 195.721C79.6261 195.72 67.1361 195.962 64.8478 195.571C64.9968 198.002 64.8788 200.413 64.9246 202.84C65.0173 207.782 64.1714 211.026 70.3174 211.048C86.7914 211.106 103.268 211.318 119.724 210.994C120.161 210.985 120.998 210.143 121.315 209.831ZM281.933 405.445C287.455 405.11 293.225 405.525 298.773 405.407C300.29 405.375 301.948 405.395 303.453 405.5C304.99 389.505 320.743 359.625 330.035 346.21C340.575 329.63 353.495 314.32 366.373 299.525C367.968 297.69 369.993 295.932 371.39 293.965C366.005 282.822 360.493 271.737 355.295 260.515C351.498 252.322 343.76 240.646 355.04 234.329C360.945 231.022 369.813 236.187 375.605 237.385C375.313 232.655 375.41 222.445 375.578 217.523C361.765 217.297 363.71 206.283 364.028 196.184L364.045 195.695C346.26 196.047 327.413 195.725 309.515 195.729L291.563 195.757C288.748 195.769 283.843 195.924 281.185 195.624C282.223 204.931 282.425 217.871 269.478 217.24C269.9 226.747 269.535 238.665 269.533 248.339V308.197L269.535 356.152C269.54 362.957 269.928 373.592 269.52 380.015C273.123 379.955 275.808 379.755 278.728 382.382C281.323 384.72 282.08 388.322 282.078 391.697C282.075 396.235 282.07 400.9 281.933 405.445ZM48.3148 170.206L48.3466 170.526C48.7221 174.71 47.6123 185.743 49.4478 188.383C51.0616 189.294 54.6396 189.351 56.4823 189.368L346.975 189.427L416.613 189.428L433.44 189.403C435.703 189.397 441.44 189.859 443.04 188.382C445.083 184.994 444.013 175.167 444.36 170.392C409.618 169.872 373.68 170.275 338.873 170.283L160.857 170.269L82.6211 170.285L59.8511 170.323C57.0054 170.329 50.7751 170.531 48.3148 170.206ZM210.254 411.125L15.0106 411.192C14.1554 412.607 13.7516 413.075 12.6842 414.317C12.2638 418.215 12.431 424.667 12.8187 428.572C13.938 430.067 14.498 431.322 16.299 431.45C19.314 431.665 22.4655 431.587 25.4823 431.577L43.1988 431.535L105.101 431.542H236.741L279.21 431.537C285.328 431.537 295.075 431.235 300.84 431.615C300.5 426.25 300.885 416.217 302.54 411.227C271.78 411.015 241.016 410.98 210.254 411.125Z" fill="#174952"/>
<path id="Vector_2" d="M244.558 64.0162C249.021 63.5252 251.625 66.6422 254.93 69.2177C258.67 72.0895 262.388 74.99 266.083 77.9192C275.235 85.1575 284.465 92.2972 293.768 99.338L315.018 115.886C319.255 119.181 323.703 122.513 327.6 126.197C329.088 127.604 327.23 129.973 326.28 130.973C319.04 131.412 308.498 131.07 300.903 131.088L248.375 131.097L191.756 131.103L177.167 131.08C173.713 131.069 170.418 131.169 166.986 130.648C164.389 130.254 164.049 126.58 165.714 125.217C176.912 116.053 188.488 107.388 199.877 98.473L229.952 74.943C233.124 72.4617 241.577 65.3725 244.558 64.0162ZM176.086 124.992C183.787 124.457 194.116 124.782 201.993 124.783L246.875 124.788L292.985 124.776C298.545 124.771 311.313 124.404 316.148 124.987C311.258 120.654 246.688 70.4012 245.698 70.1435C244.271 71.689 240.706 74.2917 238.887 75.6977L226.024 85.645C209.419 98.6855 192.461 111.753 176.086 124.992Z" fill="#174952"/>
<path id="Vector_3" d="M397.418 336.025C397.81 335.995 398.205 335.968 398.598 335.948C399.655 335.893 400.358 335.8 401.158 336.525C402.463 339.063 402.02 345.74 401.98 348.91C410.388 349.263 418.468 353.535 422.9 360.935C424.865 364.218 427.23 370.063 426.69 373.883C426.455 375.528 423.728 377.105 422.105 376.398C421.6 376.18 420.825 375.725 420.68 375.14C419.993 372.375 420.08 369.438 418.75 366.838C414.665 358.573 409.908 357.39 401.995 354.518C402.185 367.263 402 380.618 402.013 393.418C407.773 393.283 414.67 396.163 418.843 400.028C430.868 411.173 428.585 430.37 414.755 438.9C411.243 441.068 406.068 442.935 401.978 443.02C402.04 445.88 402.49 451.645 401.61 454.443C401.345 455.29 400.363 455.645 399.548 455.878C399.265 455.898 398.975 455.915 398.693 455.908C397.963 455.89 397.273 455.573 396.783 455.03C395.013 453.06 395.773 445.965 395.875 443.21C389.138 442.625 382.113 439.643 377.555 434.553C373.445 430.068 370.893 424.4 371.105 418.235C371.253 414.005 375.878 413.908 377.35 417.503C378.053 419.218 377.888 421.568 378.475 423.343C381.27 431.808 387.55 435.283 395.783 436.848C395.57 434.138 395.928 427.735 395.91 424.535L395.863 409.085C395.858 405.873 395.738 402.115 396.04 398.968C384.243 397.195 373.568 390.68 371.53 378.063C369.773 367.178 375.705 356.553 385.433 351.668C388.883 349.938 391.958 349.335 395.783 348.825C395.453 345.97 395.713 341.163 395.793 338.195C396.278 337.385 396.825 336.755 397.418 336.025ZM401.963 437.03C407.323 435.653 410.658 434.755 414.835 430.708C422.098 422.793 422.385 412.345 414.465 404.873C411.005 401.608 406.365 400.455 401.96 399.118C402.145 410.86 402.298 425.333 401.963 437.03ZM384.37 387.983C388.6 390.83 390.608 391.745 395.703 392.398C395.875 383.03 395.92 373.66 395.835 364.29C395.82 362.925 395.918 355.825 395.838 355.153C395.34 354.885 395.363 354.92 394.79 354.96C390.173 356.608 386.88 357.475 383.303 360.888C375.718 368.123 375.763 381.578 384.37 387.983Z" fill="#174952"/>
</g>
</svg>