<svg xmlns="http://www.w3.org/2000/svg" width="240" height="134" viewBox="0 0 240 134" fill="none">
<g id="Card">
<rect width="240" height="134" rx="12" fill="#F9FAFB"/>
<rect width="240" height="134" rx="12" stroke="#F3F4F6"/>
<g id="Text">
<path id="Label" d="M21.2 93.9H22.74V92.2C25.42 91.9 27.14 90.22 27.14 87.78C27.14 85.66 25.98 84.42 23.42 83.86L22.74 83.7V79.4C23.78 79.62 24.38 80.32 24.42 81.4H26.9C26.82 79 25.26 77.42 22.74 77.16V75.46H21.2V77.16C18.54 77.44 16.78 79.12 16.78 81.46C16.78 83.66 18.04 85.06 20.56 85.6L21.2 85.74V90C19.9 89.84 19.16 89.12 19.14 87.98H16.58C16.64 90.42 18.42 92.04 21.2 92.24V93.9ZM21.12 83.34C19.84 83.06 19.28 82.44 19.28 81.38C19.28 80.3 20 79.58 21.2 79.38V83.36L21.12 83.34ZM22.88 86.1C24.08 86.36 24.66 86.98 24.66 88C24.66 89.02 23.94 89.72 22.74 89.96V86.06L22.88 86.1ZM31.7159 79.68V92H34.1759V77.38H28.5159V79.68H31.7159ZM39.4113 79.68V92H41.8713V77.38H36.2113V79.68H39.4113ZM48.02 91.12C48.02 89.88 47.3 89.06 46.3 89.06C45.4 89.06 44.78 89.7 44.78 90.66C44.78 91.46 45.42 92.04 46.2 92.04C46.44 92.04 46.62 92 46.78 91.92C46.78 92.62 46.1 93.16 45.2 93.32V94.3C46.82 94.1 48.02 92.78 48.02 91.12ZM49.4577 84.72C49.4577 89.24 51.7577 92.26 55.6377 92.26C59.5177 92.26 61.8377 89.24 61.8377 84.72C61.8377 80.18 59.3777 77.1 55.6377 77.1C51.8977 77.1 49.4577 80.18 49.4577 84.72ZM51.9777 84.72C51.9777 81.26 53.3377 79.36 55.6377 79.36C57.9577 79.36 59.3177 81.26 59.3177 84.72C59.3177 88.1 57.9577 90 55.6377 90C53.3377 90 51.9777 88.1 51.9777 84.72ZM66.5792 79.68V92H69.0392V77.38H63.3792V79.68H66.5792ZM70.9838 77.38V79.74H78.9238L73.5238 92H76.1838L81.4838 79.74V77.38H70.9838ZM82.4352 92.24C83.3152 92.24 84.0552 91.52 84.0552 90.66C84.0552 89.78 83.3152 89.06 82.4352 89.06C81.5552 89.06 80.8152 89.78 80.8152 90.66C80.8152 91.52 81.5552 92.24 82.4352 92.24ZM96.4155 91.98V89.6H90.3355L92.9755 87.34C95.1955 85.44 96.3155 83.9 96.3155 81.86C96.3155 78.9 94.3755 77.12 91.2555 77.12C88.1555 77.12 86.1155 79.2 86.0955 82.4H88.6355C88.6555 80.52 89.6555 79.4 91.2555 79.4C92.7955 79.4 93.6955 80.34 93.6955 82C93.6955 83.4 93.0355 84.36 91.0555 86.04L86.2755 90.08V92L96.4155 91.98ZM100.073 81.68C98.4328 83.9 97.8528 85.18 97.8528 86.94C97.8528 89.94 100.213 92.26 103.373 92.26C106.493 92.26 108.813 90.08 108.813 86.96C108.813 84 106.773 81.88 103.753 81.88C103.393 81.88 103.013 81.94 102.653 82.04L106.153 77.38H103.233L100.073 81.68ZM100.473 86.96C100.473 85.2 101.633 83.98 103.373 83.98C105.053 83.98 106.233 85.2 106.233 86.96C106.233 88.74 105.033 89.98 103.373 89.98C101.653 89.98 100.473 88.74 100.473 86.96Z" fill="#111827"/>
<g id="Stats">
<g id="arrow-circle-up">
<g id="vuesax/bold/arrow-circle-up">
<g id="arrow-circle-up_2">
<path id="Vector" d="M22 105C19.245 105 17 107.245 17 110C17 112.755 19.245 115 22 115C24.755 115 27 112.755 27 110C27 107.245 24.755 105 22 105ZM24.03 110.895C23.955 110.97 23.86 111.005 23.765 111.005C23.67 111.005 23.575 110.97 23.5 110.895L22 109.395L20.5 110.895C20.355 111.04 20.115 111.04 19.97 110.895C19.825 110.75 19.825 110.51 19.97 110.365L21.735 108.6C21.88 108.455 22.12 108.455 22.265 108.6L24.03 110.365C24.175 110.515 24.175 110.75 24.03 110.895Z" fill="#45B369"/>
</g>
</g>
</g>
<path id="Label_2" d="M33.41 109.06C32.67 110.07 32.41 110.67 32.41 111.53C32.41 112.99 33.57 114.12 35.07 114.12C36.56 114.12 37.7 113.04 37.7 111.53C37.7 110.1 36.69 109.02 35.19 109.02C34.94 109.02 34.68 109.07 34.43 109.17L36.24 106.77H35.1L33.41 109.06ZM33.41 111.54C33.41 110.55 34.09 109.85 35.07 109.85C36.03 109.85 36.71 110.55 36.71 111.54C36.71 112.53 36.03 113.24 35.07 113.24C34.09 113.24 33.41 112.53 33.41 111.54ZM38.8033 110.39C38.8033 112.64 39.9133 114.13 41.7833 114.13C43.6433 114.13 44.7533 112.64 44.7533 110.39C44.7533 108.15 43.5933 106.63 41.7833 106.63C39.9633 106.63 38.8033 108.15 38.8033 110.39ZM39.7733 110.39C39.7733 108.59 40.5133 107.51 41.7833 107.51C43.0533 107.51 43.7833 108.59 43.7833 110.39C43.7833 112.17 43.0533 113.25 41.7833 113.25C40.5133 113.25 39.7733 112.17 39.7733 110.39ZM46.4167 114.12C46.7967 114.12 47.1267 113.8 47.1267 113.42C47.1267 113.03 46.7967 112.71 46.4167 112.71C46.0267 112.71 45.6967 113.03 45.6967 113.42C45.6967 113.8 46.0267 114.12 46.4167 114.12ZM48.0802 110.39C48.0802 112.64 49.1902 114.13 51.0602 114.13C52.9202 114.13 54.0302 112.64 54.0302 110.39C54.0302 108.15 52.8702 106.63 51.0602 106.63C49.2402 106.63 48.0802 108.15 48.0802 110.39ZM49.0502 110.39C49.0502 108.59 49.7902 107.51 51.0602 107.51C52.3302 107.51 53.0602 108.59 53.0602 110.39C53.0602 112.17 52.3302 113.25 51.0602 113.25C49.7902 113.25 49.0502 112.17 49.0502 110.39ZM58.7938 108.48C58.7938 107.4 58.0338 106.63 56.9638 106.63C55.9038 106.63 55.1438 107.4 55.1438 108.48C55.1438 109.55 55.9038 110.32 56.9638 110.32C58.0338 110.32 58.7938 109.55 58.7938 108.48ZM62.6038 106.78H61.6438L56.1538 114H57.1138L62.6038 106.78ZM58.0238 108.48C58.0238 109.12 57.5838 109.57 56.9638 109.57C56.3438 109.57 55.9138 109.12 55.9138 108.48C55.9138 107.83 56.3438 107.38 56.9638 107.38C57.5938 107.38 58.0238 107.83 58.0238 108.48ZM63.6338 112.29C63.6338 111.21 62.8638 110.45 61.8038 110.45C60.7438 110.45 59.9738 111.21 59.9738 112.29C59.9738 113.36 60.7438 114.13 61.8038 114.13C62.8638 114.13 63.6338 113.36 63.6338 112.29ZM62.8538 112.29C62.8538 112.93 62.4238 113.38 61.8038 113.38C61.1838 113.38 60.7538 112.93 60.7538 112.29C60.7538 111.64 61.1838 111.19 61.8038 111.19C62.4338 111.19 62.8538 111.64 62.8538 112.29ZM69.9646 115.73C69.1146 114.56 68.6146 112.8 68.6146 111.03C68.6146 109.16 69.1746 107.44 69.9646 106.34H69.1846C68.2046 107.55 67.6546 109.33 67.6546 111.03C67.6546 112.84 68.2646 114.58 69.1846 115.73H69.9646ZM70.9676 110.23V111.03H73.0676V113.14H73.8676V111.03H75.9676V110.23H73.8676V108.13H73.0676V110.23H70.9676ZM78.8391 107.65V114H79.7791V106.77H77.3191V107.65H78.8391ZM82.1917 114.12C82.5717 114.12 82.9017 113.8 82.9017 113.42C82.9017 113.03 82.5717 112.71 82.1917 112.71C81.8017 112.71 81.4717 113.03 81.4717 113.42C81.4717 113.8 81.8017 114.12 82.1917 114.12ZM86.4805 114.12C88.0405 114.12 89.1105 113.07 89.1105 111.57C89.1105 110.18 88.1605 109.15 86.6905 109.15C86.1505 109.15 85.6705 109.3 85.2905 109.59L85.7705 107.67H88.6805V106.77H85.0605L84.1805 110.48L85.0105 110.69C85.3405 110.28 85.9005 109.99 86.5105 109.99C87.5205 109.99 88.1105 110.68 88.1105 111.61C88.1105 112.59 87.4805 113.24 86.5005 113.24C85.5805 113.24 85.0105 112.67 85.0105 111.74H84.0405C84.0405 113.18 85.0005 114.12 86.4805 114.12ZM94.8623 113.99V113.08H91.5223L93.0223 111.78C94.3023 110.67 94.8123 109.94 94.8123 108.91C94.8123 107.52 93.8823 106.64 92.4323 106.64C90.9623 106.64 89.9823 107.65 89.9523 109.2H90.9323C90.9523 108.17 91.5323 107.52 92.4223 107.52C93.2923 107.52 93.8123 108.06 93.8123 108.97C93.8123 109.74 93.4823 110.23 92.3123 111.24L89.9823 113.25V114L94.8623 113.99ZM99.5442 108.48C99.5442 107.4 98.7842 106.63 97.7142 106.63C96.6542 106.63 95.8942 107.4 95.8942 108.48C95.8942 109.55 96.6542 110.32 97.7142 110.32C98.7842 110.32 99.5442 109.55 99.5442 108.48ZM103.354 106.78H102.394L96.9042 114H97.8642L103.354 106.78ZM98.7742 108.48C98.7742 109.12 98.3342 109.57 97.7142 109.57C97.0942 109.57 96.6642 109.12 96.6642 108.48C96.6642 107.83 97.0942 107.38 97.7142 107.38C98.3442 107.38 98.7742 107.83 98.7742 108.48ZM104.384 112.29C104.384 111.21 103.614 110.45 102.554 110.45C101.494 110.45 100.724 111.21 100.724 112.29C100.724 113.36 101.494 114.13 102.554 114.13C103.614 114.13 104.384 113.36 104.384 112.29ZM103.604 112.29C103.604 112.93 103.174 113.38 102.554 113.38C101.934 113.38 101.504 112.93 101.504 112.29C101.504 111.64 101.934 111.19 102.554 111.19C103.184 111.19 103.604 111.64 103.604 112.29ZM105.781 115.73C106.691 114.58 107.301 112.84 107.301 111.03C107.301 109.33 106.751 107.55 105.781 106.34H104.991C105.791 107.44 106.341 109.16 106.341 111.03C106.341 112.8 105.841 114.56 104.991 115.73H105.781Z" fill="#45B369"/>
</g>
</g>
<g id="Name">
<g id="Nasdaq">
<circle id="Ellipse 82" cx="32" cy="33" r="16" fill="#36BFFA"/>
<g id="Nasdaq svg" clip-path="url(#clip0_110_6160)">
<g id="Group">
<path id="Vector_2" fill-rule="evenodd" clip-rule="evenodd" d="M36.5441 25.7273L32.6598 36.1515C32.5602 36.4182 32.3112 36.5879 32.0373 36.6364H36.1457C36.4694 36.6364 36.7433 36.4424 36.8429 36.1515L40.7272 25.7273H36.5441ZM31.7136 36.4667C31.9626 36.4667 32.1618 36.3455 32.2863 36.1758C32.3112 36.1515 32.3361 36.1031 32.3859 36.0061L33.8052 32.1758L32.9835 29.9455C32.8839 29.7031 32.6349 29.5334 32.3361 29.5334C32.0871 29.5334 31.8879 29.6546 31.7634 29.8243C31.7385 29.8485 31.6887 29.9212 31.6638 29.994L30.2446 33.8243L31.0911 36.0546C31.1658 36.297 31.4148 36.4667 31.7136 36.4667ZM27.8542 29.3637H32.0124C31.7136 29.3879 31.4397 29.5818 31.3401 29.8485L27.4558 40.2727H23.2727L27.157 29.8485C27.2566 29.5818 27.5305 29.3637 27.8542 29.3637Z" fill="white"/>
</g>
</g>
</g>
<g id="Text_2">
<path id="Label_3" d="M62.484 28V21.784L66.612 28H68.124V19.228H66.612V25.444L62.496 19.228H60.972V28H62.484ZM71.0217 28L71.7297 25.972H75.0057L75.7138 28H77.3338L74.1658 19.228H72.5937L69.4257 28H71.0217ZM73.1817 21.844C73.2658 21.604 73.3377 21.34 73.3737 21.172C73.3977 21.352 73.4817 21.616 73.5538 21.844L74.5617 24.676H72.1857L73.1817 21.844ZM78.1297 21.676C78.1297 23.02 78.9097 23.872 80.3977 24.196L81.7897 24.508C82.5097 24.664 82.8097 25.012 82.8097 25.6C82.8097 26.332 82.1617 26.776 81.1417 26.776C80.1577 26.776 79.5577 26.332 79.5457 25.588H78.0097C78.0457 27.16 79.2697 28.156 81.1417 28.156C83.0737 28.156 84.3457 27.1 84.3457 25.468C84.3457 24.16 83.6137 23.392 82.1137 23.068L80.7337 22.768C80.0017 22.6 79.6657 22.252 79.6657 21.628C79.6657 20.896 80.2777 20.44 81.2257 20.44C82.0897 20.44 82.6297 20.884 82.6657 21.64H84.2017C84.1537 20.056 83.0257 19.072 81.2497 19.072C79.4017 19.072 78.1297 20.14 78.1297 21.676ZM89.0913 28C91.6353 28 93.3873 26.212 93.3873 23.632C93.3873 21.016 91.5993 19.228 89.0073 19.228H85.9353V28H89.0913ZM88.8633 20.644C90.6753 20.644 91.7673 21.772 91.7673 23.632C91.7673 25.456 90.6993 26.584 88.9473 26.584H87.4713V20.644H88.8633ZM95.3405 28L96.0485 25.972H99.3245L100.032 28H101.652L98.4845 19.228H96.9125L93.7445 28H95.3405ZM97.5005 21.844C97.5845 21.604 97.6565 21.34 97.6925 21.172C97.7165 21.352 97.8005 21.616 97.8725 21.844L98.8805 24.676H96.5045L97.5005 21.844ZM109.407 28.66L110.391 27.784L109.455 26.74C110.139 25.948 110.523 24.868 110.523 23.608C110.523 20.932 108.771 19.072 106.263 19.072C103.755 19.072 102.015 20.944 102.015 23.608C102.015 26.284 103.743 28.144 106.251 28.144C107.079 28.144 107.823 27.94 108.447 27.58L109.407 28.66ZM108.903 23.608C108.903 24.376 108.723 25.036 108.399 25.54L107.235 24.232L106.263 25.108L107.427 26.416C107.079 26.584 106.695 26.668 106.263 26.668C104.655 26.668 103.623 25.48 103.623 23.608C103.623 21.736 104.655 20.548 106.263 20.548C107.871 20.548 108.903 21.736 108.903 23.608Z" fill="#111827"/>
<path id="Label_4" d="M61.908 47V39.848L66.648 47H67.5V38.408H66.648V45.56L61.92 38.408H61.044V47H61.908ZM71.2867 47.144C72.2707 47.144 73.0627 46.712 73.4227 45.98L73.5307 47H74.2267V43.244C74.2267 41.708 73.2427 41.036 71.8987 41.036C70.4707 41.036 69.5107 41.792 69.5107 42.968H70.2667C70.2667 42.188 70.8667 41.732 71.8747 41.732C72.7267 41.732 73.4107 42.092 73.4107 43.232V43.424L71.4907 43.58C70.1347 43.688 69.3187 44.36 69.3187 45.428C69.3187 46.448 70.0507 47.144 71.2867 47.144ZM71.4787 46.472C70.6867 46.472 70.1587 46.112 70.1587 45.404C70.1587 44.756 70.6027 44.276 71.6947 44.18L73.4107 44.048V44.36C73.4107 45.62 72.7027 46.472 71.4787 46.472ZM75.5962 45.368C75.5962 46.448 76.4122 47.144 77.7202 47.144C79.0402 47.144 79.9282 46.46 79.9282 45.416C79.9282 44.576 79.4722 44.108 78.4642 43.856L77.4682 43.604C76.8322 43.448 76.5202 43.136 76.5202 42.692C76.5202 42.068 76.9762 41.72 77.7922 41.72C78.5722 41.72 79.0402 42.116 79.0642 42.788H79.8682C79.8322 41.708 79.0402 41.036 77.8162 41.036C76.5682 41.036 75.7162 41.684 75.7162 42.704C75.7162 43.496 76.2082 44.024 77.2162 44.276L78.2122 44.528C78.8962 44.696 79.1362 44.972 79.1362 45.452C79.1362 46.076 78.6082 46.46 77.7082 46.46C76.8922 46.46 76.3882 46.04 76.3882 45.368H75.5962ZM83.7713 47.144C84.7433 47.144 85.5593 46.712 85.9673 45.812L86.0513 47H86.7713V38.252H85.9433V42.296C85.5353 41.456 84.7673 41.036 83.8073 41.036C82.0793 41.036 81.0833 42.356 81.0833 44.108C81.0833 45.848 82.0793 47.144 83.7713 47.144ZM83.9153 46.388C82.6553 46.388 81.9233 45.428 81.9233 44.084C81.9233 42.752 82.6553 41.78 83.9153 41.78C85.1873 41.78 85.9313 42.752 85.9313 44.084C85.9313 45.428 85.1873 46.388 83.9153 46.388ZM90.3672 47.144C91.3512 47.144 92.1432 46.712 92.5032 45.98L92.6112 47H93.3072V43.244C93.3072 41.708 92.3232 41.036 90.9792 41.036C89.5512 41.036 88.5912 41.792 88.5912 42.968H89.3472C89.3472 42.188 89.9472 41.732 90.9552 41.732C91.8072 41.732 92.4912 42.092 92.4912 43.232V43.424L90.5712 43.58C89.2152 43.688 88.3992 44.36 88.3992 45.428C88.3992 46.448 89.1312 47.144 90.3672 47.144ZM90.5592 46.472C89.7672 46.472 89.2392 46.112 89.2392 45.404C89.2392 44.756 89.6832 44.276 90.7752 44.18L92.4912 44.048V44.36C92.4912 45.62 91.7832 46.472 90.5592 46.472ZM94.7607 44.072C94.7607 45.824 95.7327 47.144 97.4487 47.144C98.4327 47.144 99.2127 46.724 99.6207 45.884V49.532H100.449V41.192H99.7287L99.6447 42.368C99.2247 41.468 98.4207 41.036 97.4487 41.036C95.7687 41.036 94.7607 42.32 94.7607 44.072ZM95.6007 44.096C95.6007 42.752 96.3327 41.792 97.5927 41.792C98.8647 41.792 99.6087 42.752 99.6087 44.096C99.6087 45.428 98.8647 46.4 97.5927 46.4C96.3327 46.4 95.6007 45.428 95.6007 44.096ZM109.589 47.132C111.437 47.132 112.937 46.04 113.333 44.42H112.409C112.037 45.572 110.957 46.304 109.601 46.304C107.717 46.304 106.457 44.864 106.457 42.704C106.457 40.532 107.717 39.092 109.601 39.092C110.945 39.092 112.001 39.848 112.361 41.084H113.285C112.937 39.38 111.485 38.264 109.637 38.264C107.213 38.264 105.557 40.064 105.557 42.704C105.557 45.344 107.189 47.132 109.589 47.132ZM114.439 44.096C114.439 45.86 115.687 47.144 117.391 47.144C119.095 47.144 120.343 45.86 120.343 44.096C120.343 42.32 119.095 41.036 117.391 41.036C115.687 41.036 114.439 42.32 114.439 44.096ZM115.279 44.084C115.279 42.74 116.143 41.78 117.391 41.78C118.627 41.78 119.503 42.74 119.503 44.084C119.503 45.452 118.627 46.4 117.391 46.4C116.143 46.4 115.279 45.452 115.279 44.084ZM122.695 47V43.4C122.695 42.512 123.283 41.792 124.255 41.792C125.131 41.792 125.695 42.368 125.695 43.352V47H126.511V43.412C126.511 42.512 127.087 41.78 128.059 41.78C128.947 41.78 129.499 42.368 129.499 43.364V47H130.303V43.196C130.303 41.852 129.475 41.036 128.215 41.036C127.279 41.036 126.571 41.516 126.307 42.272C126.031 41.516 125.347 41.036 124.435 41.036C123.619 41.036 122.971 41.408 122.683 42.02L122.587 41.192H121.867V47H122.695ZM132.169 49.532H132.997V45.884C133.405 46.724 134.185 47.144 135.169 47.144C136.885 47.144 137.857 45.824 137.857 44.072C137.857 42.32 136.849 41.036 135.169 41.036C134.197 41.036 133.381 41.468 132.973 42.368L132.889 41.192H132.169V49.532ZM133.009 44.096C133.009 42.752 133.753 41.792 135.025 41.792C136.285 41.792 137.017 42.752 137.017 44.096C137.017 45.428 136.285 46.4 135.025 46.4C133.753 46.4 133.009 45.428 133.009 44.096ZM138.968 44.096C138.968 45.86 140.216 47.144 141.92 47.144C143.624 47.144 144.872 45.86 144.872 44.096C144.872 42.32 143.624 41.036 141.92 41.036C140.216 41.036 138.968 42.32 138.968 44.096ZM139.808 44.084C139.808 42.74 140.672 41.78 141.92 41.78C143.156 41.78 144.032 42.74 144.032 44.084C144.032 45.452 143.156 46.4 141.92 46.4C140.672 46.4 139.808 45.452 139.808 44.084ZM145.905 45.368C145.905 46.448 146.721 47.144 148.029 47.144C149.349 47.144 150.237 46.46 150.237 45.416C150.237 44.576 149.781 44.108 148.773 43.856L147.777 43.604C147.141 43.448 146.829 43.136 146.829 42.692C146.829 42.068 147.285 41.72 148.101 41.72C148.881 41.72 149.349 42.116 149.373 42.788H150.177C150.141 41.708 149.349 41.036 148.125 41.036C146.877 41.036 146.025 41.684 146.025 42.704C146.025 43.496 146.517 44.024 147.525 44.276L148.521 44.528C149.205 44.696 149.445 44.972 149.445 45.452C149.445 46.076 148.917 46.46 148.017 46.46C147.201 46.46 146.697 46.04 146.697 45.368H145.905ZM152.208 39.596C152.544 39.596 152.832 39.32 152.832 38.984C152.832 38.648 152.544 38.36 152.208 38.36C151.872 38.36 151.596 38.648 151.596 38.984C151.596 39.32 151.872 39.596 152.208 39.596ZM151.8 47H152.628V41.192H151.8V47ZM155.887 47V41.888H157.051V41.192H155.887V39.356H155.071V41.192H153.907V41.888H155.071V47H155.887ZM160.706 47.144C162.074 47.144 162.974 46.484 163.286 45.26H162.494C162.278 46.028 161.666 46.436 160.718 46.436C159.47 46.436 158.726 45.62 158.666 44.204H163.286V43.796C163.286 42.152 162.218 41.036 160.646 41.036C158.99 41.036 157.862 42.284 157.862 44.096C157.862 45.92 159.002 47.144 160.706 47.144ZM160.646 41.744C161.738 41.744 162.458 42.488 162.458 43.604H158.69C158.834 42.464 159.554 41.744 160.646 41.744Z" fill="#6B7280"/>
</g>
</g>
<g id="Chart">
<line id="Divider" x1="136.5" y1="97.5" x2="223.5" y2="97.5" stroke="#D1D5DB" stroke-linecap="round" stroke-dasharray="3 3"/>
<path id="Chartline" d="M136.468 97.5L140.681 91L142.553 93.5L145.829 88L150.978 84.5L153.319 106.5L155.191 101.5H165.957L169.234 94L170.638 95.5L173.446 89.5L175.787 92L180.468 92.5L182.808 99.5L186.553 78L188.425 85L190.766 87L191.702 94L193.574 90.5H198.723L200.127 103L202.468 105.5L204.34 118L205.744 111.5L207.617 110L209.489 105.5L211.829 104L213.234 99.5L216.042 98.5L218.383 92.5L219.787 95H224" stroke="#45B369" stroke-width="1.2" stroke-linecap="round"/>
<path id="Chartline_2" d="M152.383 97.5L153.319 106.5L155.192 101.5H165.958L167.83 97.5M216.043 98.5L213.234 99.5L211.83 104L209.489 105.5L207.617 110L205.745 111.5L204.341 118L202.468 105.5L200.128 103L199.66 98.5" stroke="#EF4770" stroke-width="1.2" stroke-linecap="round"/>
</g>
</g>
<defs>
<clipPath id="clip0_110_6160">
<rect width="17.4545" height="14.5455" fill="white" transform="translate(23.2727 25.7273)"/>
</clipPath>
</defs>
</svg>