<svg xmlns="http://www.w3.org/2000/svg" width="375" height="238" viewBox="0 0 375 238" fill="none">
<g id="Chart">
<rect width="375" height="238" fill="white"/>
<g id="Amount">
<path id="Label" d="M26.244 22.38V30H27.372V21.324H24.42V22.38H26.244ZM34.2111 27.252C35.0991 26.04 35.4111 25.308 35.4111 24.288C35.4111 22.524 34.0191 21.168 32.2191 21.168C30.4311 21.168 29.0631 22.476 29.0631 24.276C29.0631 26.004 30.2751 27.3 32.0751 27.3C32.3751 27.3 32.6871 27.24 32.9871 27.12L30.8151 30H32.1831L34.2111 27.252ZM34.2111 24.276C34.2111 25.464 33.3951 26.304 32.2191 26.304C31.0671 26.304 30.2511 25.464 30.2511 24.276C30.2511 23.088 31.0671 22.224 32.2191 22.224C33.3951 22.224 34.2111 23.088 34.2111 24.276ZM37.2708 30.144C37.7268 30.144 38.1228 29.76 38.1228 29.304C38.1228 28.836 37.7268 28.452 37.2708 28.452C36.8028 28.452 36.4068 28.836 36.4068 29.304C36.4068 29.76 36.8028 30.144 37.2708 30.144ZM39.2271 25.668C39.2271 28.368 40.5591 30.156 42.8031 30.156C45.0351 30.156 46.3671 28.368 46.3671 25.668C46.3671 22.98 44.9751 21.156 42.8031 21.156C40.6191 21.156 39.2271 22.98 39.2271 25.668ZM40.3911 25.668C40.3911 23.508 41.2791 22.212 42.8031 22.212C44.3271 22.212 45.2031 23.508 45.2031 25.668C45.2031 27.804 44.3271 29.1 42.8031 29.1C41.2791 29.1 40.3911 27.804 40.3911 25.668ZM47.7474 25.668C47.7474 28.368 49.0794 30.156 51.3234 30.156C53.5554 30.156 54.8874 28.368 54.8874 25.668C54.8874 22.98 53.4954 21.156 51.3234 21.156C49.1394 21.156 47.7474 22.98 47.7474 25.668ZM48.9114 25.668C48.9114 23.508 49.7994 22.212 51.3234 22.212C52.8474 22.212 53.7234 23.508 53.7234 25.668C53.7234 27.804 52.8474 29.1 51.3234 29.1C49.7994 29.1 48.9114 27.804 48.9114 25.668Z" fill="#9CA3AF"/>
<path id="Label_2" d="M26.244 62.63V70.25H27.372V61.574H24.42V62.63H26.244ZM29.0882 67.838C29.0882 69.374 30.3482 70.394 32.2802 70.394C34.2002 70.394 35.4722 69.374 35.4722 67.85C35.4722 66.782 34.8482 65.918 33.8762 65.606C34.6922 65.282 35.1482 64.598 35.1482 63.71C35.1482 62.342 33.9962 61.418 32.2922 61.418C30.5642 61.418 29.4002 62.342 29.4002 63.698C29.4002 64.574 29.8442 65.258 30.6602 65.606C29.7002 65.954 29.0882 66.794 29.0882 67.838ZM30.4802 63.77C30.4802 62.966 31.1882 62.438 32.2682 62.438C33.3602 62.438 34.0442 62.966 34.0442 63.794C34.0442 64.634 33.3602 65.174 32.2682 65.174C31.1882 65.174 30.4802 64.622 30.4802 63.77ZM30.2402 67.754C30.2402 66.794 31.0322 66.182 32.2682 66.182C33.5162 66.182 34.3082 66.794 34.3082 67.754C34.3082 68.726 33.5042 69.35 32.2802 69.35C31.0442 69.35 30.2402 68.726 30.2402 67.754ZM37.7513 70.394C38.2073 70.394 38.6033 70.01 38.6033 69.554C38.6033 69.086 38.2073 68.702 37.7513 68.702C37.2833 68.702 36.8873 69.086 36.8873 69.554C36.8873 70.01 37.2833 70.394 37.7513 70.394ZM39.7075 65.918C39.7075 68.618 41.0395 70.406 43.2835 70.406C45.5155 70.406 46.8475 68.618 46.8475 65.918C46.8475 63.23 45.4555 61.406 43.2835 61.406C41.0995 61.406 39.7075 63.23 39.7075 65.918ZM40.8715 65.918C40.8715 63.758 41.7595 62.462 43.2835 62.462C44.8075 62.462 45.6835 63.758 45.6835 65.918C45.6835 68.054 44.8075 69.35 43.2835 69.35C41.7595 69.35 40.8715 68.054 40.8715 65.918ZM48.2278 65.918C48.2278 68.618 49.5598 70.406 51.8038 70.406C54.0358 70.406 55.3678 68.618 55.3678 65.918C55.3678 63.23 53.9758 61.406 51.8038 61.406C49.6198 61.406 48.2278 63.23 48.2278 65.918ZM49.3918 65.918C49.3918 63.758 50.2798 62.462 51.8038 62.462C53.3278 62.462 54.2038 63.758 54.2038 65.918C54.2038 68.054 53.3278 69.35 51.8038 69.35C50.2798 69.35 49.3918 68.054 49.3918 65.918Z" fill="#9CA3AF"/>
<path id="Label_3" d="M26.244 102.88V110.5H27.372V101.824H24.42V102.88H26.244ZM28.8663 101.824V102.904H33.7383L30.4143 110.5H31.6383L34.9263 102.904V101.824H28.8663ZM35.6771 110.644C36.1331 110.644 36.5291 110.26 36.5291 109.804C36.5291 109.336 36.1331 108.952 35.6771 108.952C35.2091 108.952 34.8131 109.336 34.8131 109.804C34.8131 110.26 35.2091 110.644 35.6771 110.644ZM37.6333 106.168C37.6333 108.868 38.9653 110.656 41.2093 110.656C43.4413 110.656 44.7733 108.868 44.7733 106.168C44.7733 103.48 43.3813 101.656 41.2093 101.656C39.0253 101.656 37.6333 103.48 37.6333 106.168ZM38.7973 106.168C38.7973 104.008 39.6853 102.712 41.2093 102.712C42.7333 102.712 43.6093 104.008 43.6093 106.168C43.6093 108.304 42.7333 109.6 41.2093 109.6C39.6853 109.6 38.7973 108.304 38.7973 106.168ZM46.1536 106.168C46.1536 108.868 47.4856 110.656 49.7296 110.656C51.9616 110.656 53.2936 108.868 53.2936 106.168C53.2936 103.48 51.9016 101.656 49.7296 101.656C47.5456 101.656 46.1536 103.48 46.1536 106.168ZM47.3176 106.168C47.3176 104.008 48.2056 102.712 49.7296 102.712C51.2536 102.712 52.1296 104.008 52.1296 106.168C52.1296 108.304 51.2536 109.6 49.7296 109.6C48.2056 109.6 47.3176 108.304 47.3176 106.168Z" fill="#9CA3AF"/>
<path id="Label_4" d="M26.244 143.13V150.75H27.372V142.074H24.42V143.13H26.244ZM30.2631 144.822C29.3751 146.034 29.0631 146.754 29.0631 147.786C29.0631 149.538 30.4551 150.894 32.2551 150.894C34.0431 150.894 35.4111 149.598 35.4111 147.786C35.4111 146.07 34.1991 144.774 32.3991 144.774C32.0991 144.774 31.7871 144.834 31.4871 144.954L33.6591 142.074H32.2911L30.2631 144.822ZM30.2631 147.798C30.2631 146.61 31.0791 145.77 32.2551 145.77C33.4071 145.77 34.2231 146.61 34.2231 147.798C34.2231 148.986 33.4071 149.838 32.2551 149.838C31.0791 149.838 30.2631 148.986 30.2631 147.798ZM37.5052 150.894C37.9612 150.894 38.3572 150.51 38.3572 150.054C38.3572 149.586 37.9612 149.202 37.5052 149.202C37.0372 149.202 36.6412 149.586 36.6412 150.054C36.6412 150.51 37.0372 150.894 37.5052 150.894ZM39.4614 146.418C39.4614 149.118 40.7934 150.906 43.0374 150.906C45.2694 150.906 46.6014 149.118 46.6014 146.418C46.6014 143.73 45.2094 141.906 43.0374 141.906C40.8534 141.906 39.4614 143.73 39.4614 146.418ZM40.6254 146.418C40.6254 144.258 41.5134 142.962 43.0374 142.962C44.5614 142.962 45.4374 144.258 45.4374 146.418C45.4374 148.554 44.5614 149.85 43.0374 149.85C41.5134 149.85 40.6254 148.554 40.6254 146.418ZM47.9817 146.418C47.9817 149.118 49.3137 150.906 51.5577 150.906C53.7897 150.906 55.1217 149.118 55.1217 146.418C55.1217 143.73 53.7297 141.906 51.5577 141.906C49.3737 141.906 47.9817 143.73 47.9817 146.418ZM49.1457 146.418C49.1457 144.258 50.0337 142.962 51.5577 142.962C53.0817 142.962 53.9577 144.258 53.9577 146.418C53.9577 148.554 53.0817 149.85 51.5577 149.85C50.0337 149.85 49.1457 148.554 49.1457 146.418Z" fill="#9CA3AF"/>
<path id="Label_5" d="M26.244 183.38V191H27.372V182.324H24.42V183.38H26.244ZM32.0282 191.144C33.9002 191.144 35.1842 189.884 35.1842 188.084C35.1842 186.416 34.0442 185.18 32.2802 185.18C31.6322 185.18 31.0562 185.36 30.6002 185.708L31.1762 183.404H34.6682V182.324H30.3242L29.2682 186.776L30.2642 187.028C30.6602 186.536 31.3322 186.188 32.0642 186.188C33.2762 186.188 33.9842 187.016 33.9842 188.132C33.9842 189.308 33.2282 190.088 32.0522 190.088C30.9482 190.088 30.2642 189.404 30.2642 188.288H29.1002C29.1002 190.016 30.2522 191.144 32.0282 191.144ZM37.2122 191.144C37.6682 191.144 38.0642 190.76 38.0642 190.304C38.0642 189.836 37.6682 189.452 37.2122 189.452C36.7442 189.452 36.3482 189.836 36.3482 190.304C36.3482 190.76 36.7442 191.144 37.2122 191.144ZM39.1685 186.668C39.1685 189.368 40.5005 191.156 42.7445 191.156C44.9765 191.156 46.3085 189.368 46.3085 186.668C46.3085 183.98 44.9165 182.156 42.7445 182.156C40.5605 182.156 39.1685 183.98 39.1685 186.668ZM40.3325 186.668C40.3325 184.508 41.2205 183.212 42.7445 183.212C44.2685 183.212 45.1445 184.508 45.1445 186.668C45.1445 188.804 44.2685 190.1 42.7445 190.1C41.2205 190.1 40.3325 188.804 40.3325 186.668ZM47.6888 186.668C47.6888 189.368 49.0208 191.156 51.2648 191.156C53.4968 191.156 54.8288 189.368 54.8288 186.668C54.8288 183.98 53.4368 182.156 51.2648 182.156C49.0808 182.156 47.6888 183.98 47.6888 186.668ZM48.8528 186.668C48.8528 184.508 49.7408 183.212 51.2648 183.212C52.7888 183.212 53.6648 184.508 53.6648 186.668C53.6648 188.804 52.7888 190.1 51.2648 190.1C49.7408 190.1 48.8528 188.804 48.8528 186.668Z" fill="#9CA3AF"/>
</g>
<g id="Amount_2">
<path id="Label_6" d="M72.588 212.668C72.588 215.368 73.92 217.156 76.164 217.156C78.396 217.156 79.728 215.368 79.728 212.668C79.728 209.98 78.336 208.156 76.164 208.156C73.98 208.156 72.588 209.98 72.588 212.668ZM73.752 212.668C73.752 210.508 74.64 209.212 76.164 209.212C77.688 209.212 78.564 210.508 78.564 212.668C78.564 214.804 77.688 216.1 76.164 216.1C74.64 216.1 73.752 214.804 73.752 212.668ZM81.0843 214.588C81.0843 216.124 82.3443 217.144 84.2763 217.144C86.1963 217.144 87.4683 216.124 87.4683 214.6C87.4683 213.532 86.8443 212.668 85.8723 212.356C86.6883 212.032 87.1443 211.348 87.1443 210.46C87.1443 209.092 85.9923 208.168 84.2883 208.168C82.5603 208.168 81.3963 209.092 81.3963 210.448C81.3963 211.324 81.8403 212.008 82.6563 212.356C81.6963 212.704 81.0843 213.544 81.0843 214.588ZM82.4763 210.52C82.4763 209.716 83.1843 209.188 84.2643 209.188C85.3563 209.188 86.0403 209.716 86.0403 210.544C86.0403 211.384 85.3563 211.924 84.2643 211.924C83.1843 211.924 82.4763 211.372 82.4763 210.52ZM82.2363 214.504C82.2363 213.544 83.0283 212.932 84.2643 212.932C85.5123 212.932 86.3043 213.544 86.3043 214.504C86.3043 215.476 85.5003 216.1 84.2763 216.1C83.0403 216.1 82.2363 215.476 82.2363 214.504ZM89.9963 212.644C90.4523 212.644 90.8483 212.26 90.8483 211.816C90.8483 211.348 90.4523 210.964 89.9963 210.964C89.5283 210.964 89.1323 211.348 89.1323 211.816C89.1323 212.26 89.5283 212.644 89.9963 212.644ZM89.9963 217.144C90.4523 217.144 90.8483 216.76 90.8483 216.304C90.8483 215.836 90.4523 215.452 89.9963 215.452C89.5283 215.452 89.1323 215.836 89.1323 216.304C89.1323 216.76 89.5283 217.144 89.9963 217.144ZM92.5591 212.668C92.5591 215.368 93.8911 217.156 96.1351 217.156C98.3671 217.156 99.6991 215.368 99.6991 212.668C99.6991 209.98 98.3071 208.156 96.1351 208.156C93.9511 208.156 92.5591 209.98 92.5591 212.668ZM93.7231 212.668C93.7231 210.508 94.6111 209.212 96.1351 209.212C97.6591 209.212 98.5351 210.508 98.5351 212.668C98.5351 214.804 97.6591 216.1 96.1351 216.1C94.6111 216.1 93.7231 214.804 93.7231 212.668ZM101.079 212.668C101.079 215.368 102.411 217.156 104.655 217.156C106.887 217.156 108.219 215.368 108.219 212.668C108.219 209.98 106.827 208.156 104.655 208.156C102.471 208.156 101.079 209.98 101.079 212.668ZM102.243 212.668C102.243 210.508 103.131 209.212 104.655 209.212C106.179 209.212 107.055 210.508 107.055 212.668C107.055 214.804 106.179 216.1 104.655 216.1C103.131 216.1 102.243 214.804 102.243 212.668Z" fill="#9CA3AF"/>
<path id="Label_7" d="M136.588 212.668C136.588 215.368 137.92 217.156 140.164 217.156C142.396 217.156 143.728 215.368 143.728 212.668C143.728 209.98 142.336 208.156 140.164 208.156C137.98 208.156 136.588 209.98 136.588 212.668ZM137.752 212.668C137.752 210.508 138.64 209.212 140.164 209.212C141.688 209.212 142.564 210.508 142.564 212.668C142.564 214.804 141.688 216.1 140.164 216.1C138.64 216.1 137.752 214.804 137.752 212.668ZM150.16 214.252C151.048 213.04 151.36 212.308 151.36 211.288C151.36 209.524 149.968 208.168 148.168 208.168C146.38 208.168 145.012 209.476 145.012 211.276C145.012 213.004 146.224 214.3 148.024 214.3C148.324 214.3 148.636 214.24 148.936 214.12L146.764 217H148.132L150.16 214.252ZM150.16 211.276C150.16 212.464 149.344 213.304 148.168 213.304C147.016 213.304 146.2 212.464 146.2 211.276C146.2 210.088 147.016 209.224 148.168 209.224C149.344 209.224 150.16 210.088 150.16 211.276ZM153.832 212.644C154.288 212.644 154.684 212.26 154.684 211.816C154.684 211.348 154.288 210.964 153.832 210.964C153.364 210.964 152.968 211.348 152.968 211.816C152.968 212.26 153.364 212.644 153.832 212.644ZM153.832 217.144C154.288 217.144 154.684 216.76 154.684 216.304C154.684 215.836 154.288 215.452 153.832 215.452C153.364 215.452 152.968 215.836 152.968 216.304C152.968 216.76 153.364 217.144 153.832 217.144ZM156.395 212.668C156.395 215.368 157.727 217.156 159.971 217.156C162.203 217.156 163.535 215.368 163.535 212.668C163.535 209.98 162.143 208.156 159.971 208.156C157.787 208.156 156.395 209.98 156.395 212.668ZM157.559 212.668C157.559 210.508 158.447 209.212 159.971 209.212C161.495 209.212 162.371 210.508 162.371 212.668C162.371 214.804 161.495 216.1 159.971 216.1C158.447 216.1 157.559 214.804 157.559 212.668ZM164.915 212.668C164.915 215.368 166.247 217.156 168.491 217.156C170.723 217.156 172.055 215.368 172.055 212.668C172.055 209.98 170.663 208.156 168.491 208.156C166.307 208.156 164.915 209.98 164.915 212.668ZM166.079 212.668C166.079 210.508 166.967 209.212 168.491 209.212C170.015 209.212 170.891 210.508 170.891 212.668C170.891 214.804 170.015 216.1 168.491 216.1C166.967 216.1 166.079 214.804 166.079 212.668Z" fill="#9CA3AF"/>
<path id="Label_8" d="M202.244 209.38V217H203.372V208.324H200.42V209.38H202.244ZM205.159 212.668C205.159 215.368 206.491 217.156 208.735 217.156C210.967 217.156 212.299 215.368 212.299 212.668C212.299 209.98 210.907 208.156 208.735 208.156C206.551 208.156 205.159 209.98 205.159 212.668ZM206.323 212.668C206.323 210.508 207.211 209.212 208.735 209.212C210.259 209.212 211.135 210.508 211.135 212.668C211.135 214.804 210.259 216.1 208.735 216.1C207.211 216.1 206.323 214.804 206.323 212.668ZM214.867 212.644C215.323 212.644 215.719 212.26 215.719 211.816C215.719 211.348 215.323 210.964 214.867 210.964C214.399 210.964 214.003 211.348 214.003 211.816C214.003 212.26 214.399 212.644 214.867 212.644ZM214.867 217.144C215.323 217.144 215.719 216.76 215.719 216.304C215.719 215.836 215.323 215.452 214.867 215.452C214.399 215.452 214.003 215.836 214.003 216.304C214.003 216.76 214.399 217.144 214.867 217.144ZM217.43 212.668C217.43 215.368 218.762 217.156 221.006 217.156C223.238 217.156 224.57 215.368 224.57 212.668C224.57 209.98 223.178 208.156 221.006 208.156C218.822 208.156 217.43 209.98 217.43 212.668ZM218.594 212.668C218.594 210.508 219.482 209.212 221.006 209.212C222.53 209.212 223.406 210.508 223.406 212.668C223.406 214.804 222.53 216.1 221.006 216.1C219.482 216.1 218.594 214.804 218.594 212.668ZM225.95 212.668C225.95 215.368 227.282 217.156 229.526 217.156C231.758 217.156 233.09 215.368 233.09 212.668C233.09 209.98 231.698 208.156 229.526 208.156C227.342 208.156 225.95 209.98 225.95 212.668ZM227.114 212.668C227.114 210.508 228.002 209.212 229.526 209.212C231.05 209.212 231.926 210.508 231.926 212.668C231.926 214.804 231.05 216.1 229.526 216.1C228.002 216.1 227.114 214.804 227.114 212.668Z" fill="#9CA3AF"/>
<path id="Label_9" d="M263.244 209.38V217H264.372V208.324H261.42V209.38H263.244ZM267.71 209.38V217H268.838V208.324H265.886V209.38H267.71ZM271.813 212.644C272.269 212.644 272.665 212.26 272.665 211.816C272.665 211.348 272.269 210.964 271.813 210.964C271.345 210.964 270.949 211.348 270.949 211.816C270.949 212.26 271.345 212.644 271.813 212.644ZM271.813 217.144C272.269 217.144 272.665 216.76 272.665 216.304C272.665 215.836 272.269 215.452 271.813 215.452C271.345 215.452 270.949 215.836 270.949 216.304C270.949 216.76 271.345 217.144 271.813 217.144ZM274.376 212.668C274.376 215.368 275.708 217.156 277.952 217.156C280.184 217.156 281.516 215.368 281.516 212.668C281.516 209.98 280.124 208.156 277.952 208.156C275.768 208.156 274.376 209.98 274.376 212.668ZM275.54 212.668C275.54 210.508 276.428 209.212 277.952 209.212C279.476 209.212 280.352 210.508 280.352 212.668C280.352 214.804 279.476 216.1 277.952 216.1C276.428 216.1 275.54 214.804 275.54 212.668ZM282.896 212.668C282.896 215.368 284.228 217.156 286.472 217.156C288.704 217.156 290.036 215.368 290.036 212.668C290.036 209.98 288.644 208.156 286.472 208.156C284.288 208.156 282.896 209.98 282.896 212.668ZM284.06 212.668C284.06 210.508 284.948 209.212 286.472 209.212C287.996 209.212 288.872 210.508 288.872 212.668C288.872 214.804 287.996 216.1 286.472 216.1C284.948 216.1 284.06 214.804 284.06 212.668Z" fill="#164951"/>
<path id="Label_10" d="M320.244 209.38V217H321.372V208.324H318.42V209.38H320.244ZM328.979 216.988V215.896H324.971L326.771 214.336C328.307 213.004 328.919 212.128 328.919 210.892C328.919 209.224 327.803 208.168 326.063 208.168C324.299 208.168 323.123 209.38 323.087 211.24H324.263C324.287 210.004 324.983 209.224 326.051 209.224C327.095 209.224 327.719 209.872 327.719 210.964C327.719 211.888 327.323 212.476 325.919 213.688L323.123 216.1V217L328.979 216.988ZM331.449 212.644C331.905 212.644 332.301 212.26 332.301 211.816C332.301 211.348 331.905 210.964 331.449 210.964C330.981 210.964 330.585 211.348 330.585 211.816C330.585 212.26 330.981 212.644 331.449 212.644ZM331.449 217.144C331.905 217.144 332.301 216.76 332.301 216.304C332.301 215.836 331.905 215.452 331.449 215.452C330.981 215.452 330.585 215.836 330.585 216.304C330.585 216.76 330.981 217.144 331.449 217.144ZM334.012 212.668C334.012 215.368 335.344 217.156 337.588 217.156C339.82 217.156 341.152 215.368 341.152 212.668C341.152 209.98 339.76 208.156 337.588 208.156C335.404 208.156 334.012 209.98 334.012 212.668ZM335.176 212.668C335.176 210.508 336.064 209.212 337.588 209.212C339.112 209.212 339.988 210.508 339.988 212.668C339.988 214.804 339.112 216.1 337.588 216.1C336.064 216.1 335.176 214.804 335.176 212.668ZM342.533 212.668C342.533 215.368 343.865 217.156 346.109 217.156C348.341 217.156 349.673 215.368 349.673 212.668C349.673 209.98 348.281 208.156 346.109 208.156C343.925 208.156 342.533 209.98 342.533 212.668ZM343.697 212.668C343.697 210.508 344.585 209.212 346.109 209.212C347.633 209.212 348.509 210.508 348.509 212.668C348.509 214.804 347.633 216.1 346.109 216.1C344.585 216.1 343.697 214.804 343.697 212.668Z" fill="#9CA3AF"/>
</g>
<g id="Divider Group">
<line id="Divider" x1="72.5" y1="186.5" x2="350.5" y2="186.5" stroke="#EBECEF" stroke-linecap="round" stroke-dasharray="3 3"/>
<line id="Divider_2" x1="72.5" y1="145.5" x2="350.5" y2="145.5" stroke="#EBECEF" stroke-linecap="round" stroke-dasharray="3 3"/>
<line id="Divider_3" x1="72.5" y1="105.5" x2="350.5" y2="105.5" stroke="#EBECEF" stroke-linecap="round" stroke-dasharray="3 3"/>
<line id="Divider_4" x1="72.5" y1="65.5" x2="350.5" y2="65.5" stroke="#EBECEF" stroke-linecap="round" stroke-dasharray="3 3"/>
<line id="Divider_5" x1="72.5" y1="25.5" x2="350.5" y2="25.5" stroke="#EBECEF" stroke-linecap="round" stroke-dasharray="3 3"/>
</g>
<g id="Chart_2">
<path id="Linechart" d="M74.1561 107.931L72 115.689V186.5H276.5V89.4998L272.949 90.8619C272.949 90.8619 271.367 94.3614 270.793 94.4825C270 94.6498 268.077 92.1201 267.343 91.8963C266.93 91.7702 264.281 104.068 263.031 103.793C261.701 103.5 260.619 92.9134 260.012 92.9308C259.405 92.9482 255.006 98.1684 254.406 98.1032C253.807 98.0381 252.25 88.7929 252.25 88.7929L238.883 85.1722V81.5515L236.726 78.9653L235.433 82.586L231.552 83.1032L230.258 79.9998L228.102 78.9653C228.102 78.9653 225.667 74.1386 225.083 73.7929C224.5 73.4472 222.927 85.1722 222.927 85.1722L219.909 90.8619L217.753 93.9653L214.734 91.3791C214.734 91.3791 213.5 99.4998 213.009 99.1377C212.319 98.7237 211.703 94.053 211.284 93.9653C210.753 93.8541 208.745 99.2381 208.266 99.1377C207.786 99.0373 206.541 93.9653 206.541 93.9653C206.541 93.9653 204.195 89.9519 203.522 89.8274C203 89.7307 202.339 97.1884 201.798 97.0688C201.162 96.9284 199.549 91.848 199.21 91.8963C198.872 91.9447 197.971 96.8309 197.485 97.0688C197 97.3067 196.5 90.4998 196.192 89.8274C196 89.4998 195.5 99.9482 194.898 100.172C194.22 100.424 193.173 88.7929 193.173 88.7929C193.173 88.7929 191.316 82.446 190.586 82.586C190 82.6983 189.292 88.7929 189.292 88.7929L186.705 93.9653C186.705 93.9653 184.268 113.641 183.255 113.103C182.552 112.731 179.374 109.483 179.374 109.483C179.374 109.483 177.934 89.9998 177.218 91.3791C176.148 93.4398 176 96.4998 175.493 97.0688C175 97.4998 170.318 79.9998 170.318 79.9998C170.318 79.9998 168.225 67.268 167.731 67.586C167.193 67.9324 166.006 77.4136 166.006 77.4136C166.006 77.4136 164.842 80.7786 164.281 81.0343C163.721 81.2899 159.969 77.4136 159.969 77.4136C159.969 77.4136 157.5 62.3037 156.519 62.4136C155.75 62.4998 155.17 77.8282 154.794 77.4136C154.194 76.8963 152.669 71.0152 152.207 71.2067C151.746 71.3982 151.345 76.8963 151.345 76.8963C151.345 76.8963 145.77 89.1003 144.876 88.7929C143.63 88.3642 142.136 78.6845 141.427 78.4481C140.777 78.2317 137.114 91.3791 137.114 91.3791C137.114 91.3791 136.051 99.7746 135.389 101.724C135 102.872 133.233 75.8619 133.233 75.8619C133.233 75.8619 131.868 71.9109 131.508 71.2067C131 70.2096 128.49 94.9998 128.49 94.9998L125.903 99.655C125.903 99.655 124 113.367 122.884 113.62C121.5 113.934 122.022 98.1032 122.022 98.1032L120.297 93.9653C120.297 93.9653 119.644 79.9998 118.572 79.9998C117.5 79.9998 116.847 93.9653 116.847 93.9653L115.122 97.0688C115.122 97.0688 114.429 105.95 113.397 111.552C112.946 114 112 50.4998 111.5 51.9998C110.901 53.7972 106.929 75.3446 106.929 75.3446C106.929 75.3446 105.418 79.2986 104.342 79.9998C103.365 80.6359 101.059 69.8101 100.029 69.655C99 69.4998 96.8303 83.1373 96.5796 82.586C95.9277 81.1527 95.7172 76.8963 95.7172 76.8963L92.6986 73.7929L90.5425 76.3791C90.5425 76.3791 89.5 68.6864 88.8176 68.1032C88.3167 67.6752 86.6441 80.4292 86.2303 79.9998C85.8165 79.5704 84.5054 72.7584 84.5054 72.7584L81.4869 77.4136L80.6244 94.9998L76.3122 110.517L74.1561 107.931Z" fill="url(#paint0_linear_121_6278)"/>
<path id="Linechart_2" d="M72 115.689L74.1561 107.931L76.3122 110.517L80.6244 94.9997L81.4869 77.4135L84.5054 72.7584C84.5054 72.7584 85.8165 79.5703 86.2303 79.9998C86.6441 80.4292 88.3167 67.6752 88.8176 68.1032C89.5 68.6863 90.5425 76.3791 90.5425 76.3791L92.6986 73.7929L95.7172 76.8963C95.7172 76.8963 95.9277 81.1526 96.5796 82.586C96.8303 83.1373 99 69.4997 100.029 69.6549C101.059 69.8101 103.365 80.6359 104.342 79.9998C105.418 79.2985 106.929 75.3446 106.929 75.3446C106.929 75.3446 110.901 53.7972 111.5 51.9998C112 50.4998 112.946 114 113.397 111.551C114.429 105.95 115.122 97.0687 115.122 97.0687L116.847 93.9653C116.847 93.9653 117.5 79.9998 118.572 79.9998C119.644 79.9997 120.297 93.9653 120.297 93.9653L122.022 98.1032C122.022 98.1032 121.5 113.934 122.884 113.62C124 113.367 125.903 99.6549 125.903 99.6549L128.49 94.9997C128.49 94.9997 131 70.2096 131.508 71.2066C131.868 71.9108 133.233 75.8618 133.233 75.8618C133.233 75.8618 135 102.872 135.389 101.724C136.051 99.7746 137.114 91.3791 137.114 91.3791C137.114 91.3791 140.777 78.2317 141.427 78.448C142.136 78.6844 143.63 88.3642 144.876 88.7929C145.77 89.1002 151.345 76.8963 151.345 76.8963C151.345 76.8963 151.746 71.3981 152.207 71.2066C152.669 71.0152 154.194 76.8963 154.794 77.4135C155.17 77.8282 155.75 62.4998 156.519 62.4135C157.5 62.3037 159.969 77.4135 159.969 77.4135C159.969 77.4135 163.721 81.2899 164.281 81.0342C164.842 80.7786 166.006 77.4135 166.006 77.4135C166.006 77.4135 167.193 67.9323 167.731 67.586C168.225 67.268 170.318 79.9998 170.318 79.9998C170.318 79.9998 175 97.4997 175.493 97.0687C176 96.4997 176.148 93.4398 177.218 91.3791C177.934 89.9997 179.374 109.483 179.374 109.483C179.374 109.483 182.552 112.73 183.255 113.103C184.268 113.641 186.705 93.9653 186.705 93.9653L189.292 88.7929C189.292 88.7929 190 82.6983 190.586 82.586C191.316 82.446 193.173 88.7929 193.173 88.7929C193.173 88.7929 194.22 100.424 194.898 100.172C195.5 99.9482 196 89.4997 196.192 89.8273C196.5 90.4997 197 97.3066 197.485 97.0687C197.971 96.8308 198.872 91.9447 199.21 91.8963C199.549 91.8479 201.162 96.9284 201.798 97.0687C202.339 97.1884 203 89.7307 203.522 89.8273C204.195 89.9518 206.541 93.9653 206.541 93.9653C206.541 93.9653 207.786 99.0373 208.266 99.1377C208.745 99.2381 210.753 93.854 211.284 93.9653C211.703 94.0529 212.319 98.7237 213.009 99.1377C213.5 99.4997 214.734 91.3791 214.734 91.3791L217.753 93.9653L219.909 90.8618L222.927 85.1722C222.927 85.1722 224.5 73.4472 225.083 73.7929C225.667 74.1385 228.102 78.9653 228.102 78.9653L230.258 79.9998L231.552 83.1032L235.433 82.586L236.726 78.9653L238.883 81.5515V85.1722L252.25 88.7929C252.25 88.7929 253.807 98.0381 254.406 98.1032C255.006 98.1683 259.405 92.9482 260.012 92.9308C260.619 92.9134 261.701 103.5 263.031 103.793C264.281 104.068 266.93 91.7702 267.343 91.8963C268.077 92.1201 270 94.6498 270.793 94.4825C271.367 94.3614 272.949 90.8618 272.949 90.8618L279.417 88.2756C279.417 88.2756 282.5 82.0687 283.298 82.0687C284.097 82.0687 287.611 86.7239 287.611 86.7239L294.51 91.3791L296.235 105.345C296.235 105.345 299 114.09 299.685 113.62C300.369 113.151 301 107.466 301.5 107.5C302 107.534 303.997 112.586 303.997 112.586C303.997 112.586 306.119 141 307.015 139.483C307.573 138.539 308.74 135.862 308.74 135.862C308.74 135.862 310.744 138.285 311.759 138.448C312.5 138.567 313.204 130.798 313.915 131.207C314.827 131.731 314.803 132.639 315.64 133.276C316.22 133.717 316.934 122.931 316.934 122.931C316.934 122.931 318 119.478 318.658 119.31C319.317 119.142 321.677 122.931 321.677 122.931H325.989C325.989 122.931 329 116.381 329.439 116.724C330.19 117.31 330.733 120.345 330.733 120.345L335.045 126.034L335.907 131.207L337.632 129.655L338.926 131.724L341.944 129.138C341.944 129.138 343.493 140 344.532 139.483C345.676 138.913 347.135 134.232 347.55 134.31C348 134.5 348.844 140 348.844 140H351" stroke="#45B369" stroke-width="1.5" stroke-linecap="round"/>
<path id="Linechart_3" d="M303.997 112.586C303.997 112.586 306.119 141 307.016 139.483C307.574 138.539 308.74 135.862 308.74 135.862C308.74 135.862 310.744 138.285 311.759 138.448C312.5 138.567 313.204 130.798 313.915 131.207C314.827 131.731 314.803 132.639 315.64 133.276C316.22 133.717 316.934 122.931 316.934 122.931C316.934 122.931 318 119.478 318.659 119.31C319.317 119.142 321.677 122.931 321.677 122.931H325.989C325.989 122.931 329 116.381 329.439 116.724C330.19 117.31 330.733 120.345 330.733 120.345L335.045 126.034L335.907 131.207L337.632 129.655L338.926 131.724L341.945 129.138C341.945 129.138 343.493 140 344.532 139.483C345.676 138.913 347.135 134.232 347.55 134.31C348 134.5 348.844 140 348.844 140H351" stroke="#EF4770" stroke-width="1.5" stroke-linecap="round"/>
</g>
<line id="Divider_6" x1="276.25" y1="26.25" x2="276.25" y2="186.75" stroke="#164951" stroke-width="0.5" stroke-linecap="round" stroke-dasharray="2 2"/>
<line id="Divider_7" x1="72.25" y1="88.75" x2="350.75" y2="88.75" stroke="#164951" stroke-width="0.5" stroke-linecap="round" stroke-dasharray="2 2"/>
<circle id="Ellipse 86" cx="276" cy="89" r="4" fill="white" stroke="#45B369" stroke-width="2"/>
<g id="Detail">
<rect x="164" y="32" width="106" height="51" rx="6" fill="#164951"/>
<path id="Label_11" d="M179.12 55.14H180.044V54.12C181.652 53.94 182.684 52.932 182.684 51.468C182.684 50.196 181.988 49.452 180.452 49.116L180.044 49.02V46.44C180.668 46.572 181.028 46.992 181.052 47.64H182.54C182.492 46.2 181.556 45.252 180.044 45.096V44.076H179.12V45.096C177.524 45.264 176.468 46.272 176.468 47.676C176.468 48.996 177.224 49.836 178.736 50.16L179.12 50.244V52.8C178.34 52.704 177.896 52.272 177.884 51.588H176.348C176.384 53.052 177.452 54.024 179.12 54.144V55.14ZM179.072 48.804C178.304 48.636 177.968 48.264 177.968 47.628C177.968 46.98 178.4 46.548 179.12 46.428V48.816L179.072 48.804ZM180.128 50.46C180.848 50.616 181.196 50.988 181.196 51.6C181.196 52.212 180.764 52.632 180.044 52.776V50.436L180.128 50.46ZM185.63 46.608V54H187.106V45.228H183.71V46.608H185.63ZM188.472 45.228V46.644H193.236L189.996 54H191.592L194.772 46.644V45.228H188.472ZM195.543 54.144C196.071 54.144 196.515 53.712 196.515 53.196C196.515 52.668 196.071 52.236 195.543 52.236C195.015 52.236 194.571 52.668 194.571 53.196C194.571 53.712 195.015 54.144 195.543 54.144ZM200.848 54.144C202.804 54.144 204.136 52.848 204.136 50.952C204.136 49.224 202.972 48.036 201.22 48.036C200.62 48.036 200.092 48.192 199.672 48.468L200.14 46.644H203.608V45.228H199.036L197.956 49.824L199.312 50.112C199.624 49.656 200.236 49.32 200.908 49.32C201.964 49.32 202.576 50.016 202.576 51.036C202.576 52.104 201.916 52.776 200.884 52.776C199.912 52.776 199.324 52.188 199.324 51.192H197.8C197.8 52.968 199.012 54.144 200.848 54.144ZM206.467 47.808C205.483 49.14 205.135 49.908 205.135 50.964C205.135 52.764 206.551 54.156 208.447 54.156C210.319 54.156 211.711 52.848 211.711 50.976C211.711 49.2 210.487 47.928 208.675 47.928C208.459 47.928 208.231 47.964 208.015 48.024L210.115 45.228H208.363L206.467 47.808ZM206.707 50.976C206.707 49.92 207.403 49.188 208.447 49.188C209.455 49.188 210.163 49.92 210.163 50.976C210.163 52.044 209.443 52.788 208.447 52.788C207.415 52.788 206.707 52.044 206.707 50.976Z" fill="white"/>
<path id="Label_12" d="M176.8 67.23V68.03H178.9V70.14H179.7V68.03H181.8V67.23H179.7V65.13H178.9V67.23H176.8ZM185.362 67.26C186.512 67.26 187.112 67.84 187.112 68.71C187.112 69.64 186.502 70.24 185.562 70.24C184.652 70.24 184.072 69.69 184.072 68.75H183.102C183.102 70.25 184.122 71.12 185.542 71.12C187.012 71.12 188.112 70.19 188.112 68.73C188.112 67.43 187.182 66.6 185.952 66.45L187.932 64.56V63.77H183.442V64.64H186.692L184.642 66.61V67.26H185.362ZM189.899 71.12C190.279 71.12 190.609 70.8 190.609 70.42C190.609 70.03 190.279 69.71 189.899 69.71C189.509 69.71 189.179 70.03 189.179 70.42C189.179 70.8 189.509 71.12 189.899 71.12ZM197.197 69.54V68.67H196.337V63.77H195.067L191.657 68.67V69.54H195.397V71H196.337V69.54H197.197ZM192.717 68.67L195.397 64.81V68.67H192.717ZM200.687 71.12C202.247 71.12 203.317 70.07 203.317 68.57C203.317 67.18 202.367 66.15 200.897 66.15C200.357 66.15 199.877 66.3 199.497 66.59L199.977 64.67H202.887V63.77H199.267L198.387 67.48L199.217 67.69C199.547 67.28 200.107 66.99 200.717 66.99C201.727 66.99 202.317 67.68 202.317 68.61C202.317 69.59 201.687 70.24 200.707 70.24C199.787 70.24 199.217 69.67 199.217 68.74H198.247C198.247 70.18 199.207 71.12 200.687 71.12ZM207.945 65.48C207.945 64.4 207.185 63.63 206.115 63.63C205.055 63.63 204.295 64.4 204.295 65.48C204.295 66.55 205.055 67.32 206.115 67.32C207.185 67.32 207.945 66.55 207.945 65.48ZM211.755 63.78H210.795L205.305 71H206.265L211.755 63.78ZM207.175 65.48C207.175 66.12 206.735 66.57 206.115 66.57C205.495 66.57 205.065 66.12 205.065 65.48C205.065 64.83 205.495 64.38 206.115 64.38C206.745 64.38 207.175 64.83 207.175 65.48ZM212.785 69.29C212.785 68.21 212.015 67.45 210.955 67.45C209.895 67.45 209.125 68.21 209.125 69.29C209.125 70.36 209.895 71.13 210.955 71.13C212.015 71.13 212.785 70.36 212.785 69.29ZM212.005 69.29C212.005 69.93 211.575 70.38 210.955 70.38C210.335 70.38 209.905 69.93 209.905 69.29C209.905 68.64 210.335 68.19 210.955 68.19C211.585 68.19 212.005 68.64 212.005 69.29ZM219.116 72.73C218.266 71.56 217.766 69.8 217.766 68.03C217.766 66.16 218.326 64.44 219.116 63.34H218.336C217.356 64.55 216.806 66.33 216.806 68.03C216.806 69.84 217.416 71.58 218.336 72.73H219.116ZM220.119 67.23V68.03H222.219V70.14H223.019V68.03H225.119V67.23H223.019V65.13H222.219V67.23H220.119ZM226.61 67.39C226.61 69.64 227.72 71.13 229.59 71.13C231.45 71.13 232.56 69.64 232.56 67.39C232.56 65.15 231.4 63.63 229.59 63.63C227.77 63.63 226.61 65.15 226.61 67.39ZM227.58 67.39C227.58 65.59 228.32 64.51 229.59 64.51C230.86 64.51 231.59 65.59 231.59 67.39C231.59 69.17 230.86 70.25 229.59 70.25C228.32 70.25 227.58 69.17 227.58 67.39ZM234.224 71.12C234.604 71.12 234.934 70.8 234.934 70.42C234.934 70.03 234.604 69.71 234.224 69.71C233.834 69.71 233.504 70.03 233.504 70.42C233.504 70.8 233.834 71.12 234.224 71.12ZM235.887 67.39C235.887 69.64 236.997 71.13 238.867 71.13C240.727 71.13 241.837 69.64 241.837 67.39C241.837 65.15 240.677 63.63 238.867 63.63C237.047 63.63 235.887 65.15 235.887 67.39ZM236.857 67.39C236.857 65.59 237.597 64.51 238.867 64.51C240.137 64.51 240.867 65.59 240.867 67.39C240.867 69.17 240.137 70.25 238.867 70.25C237.597 70.25 236.857 69.17 236.857 67.39ZM245.451 71.12C247.011 71.12 248.081 70.07 248.081 68.57C248.081 67.18 247.131 66.15 245.661 66.15C245.121 66.15 244.641 66.3 244.261 66.59L244.741 64.67H247.651V63.77H244.031L243.151 67.48L243.981 67.69C244.311 67.28 244.871 66.99 245.481 66.99C246.491 66.99 247.081 67.68 247.081 68.61C247.081 69.59 246.451 70.24 245.471 70.24C244.551 70.24 243.981 69.67 243.981 68.74H243.011C243.011 70.18 243.971 71.12 245.451 71.12ZM252.709 65.48C252.709 64.4 251.949 63.63 250.879 63.63C249.819 63.63 249.059 64.4 249.059 65.48C249.059 66.55 249.819 67.32 250.879 67.32C251.949 67.32 252.709 66.55 252.709 65.48ZM256.519 63.78H255.559L250.069 71H251.029L256.519 63.78ZM251.939 65.48C251.939 66.12 251.499 66.57 250.879 66.57C250.259 66.57 249.829 66.12 249.829 65.48C249.829 64.83 250.259 64.38 250.879 64.38C251.509 64.38 251.939 64.83 251.939 65.48ZM257.549 69.29C257.549 68.21 256.779 67.45 255.719 67.45C254.659 67.45 253.889 68.21 253.889 69.29C253.889 70.36 254.659 71.13 255.719 71.13C256.779 71.13 257.549 70.36 257.549 69.29ZM256.769 69.29C256.769 69.93 256.339 70.38 255.719 70.38C255.099 70.38 254.669 69.93 254.669 69.29C254.669 68.64 255.099 68.19 255.719 68.19C256.349 68.19 256.769 68.64 256.769 69.29Z" fill="#45B369"/>
</g>
</g>
<defs>










<linearGradient id="paint0_linear_121_6278" x1="174.25" y1="30.9998" x2="174.25" y2="186.5" gradientUnits="userSpaceOnUse">
<stop stop-color="#45B369" stop-opacity="0.19"/>
<stop offset="1" stop-color="#45B369" stop-opacity="0"/>
</linearGradient>
</defs>
</svg>