<svg xmlns="http://www.w3.org/2000/svg" xmlns:xlink="http://www.w3.org/1999/xlink" width="54" height="54" viewBox="0 0 54 54" fill="none">
<rect width="54" height="54" fill="url(#pattern0_180_8270)"/>
<mask id="mask0_180_8270" maskUnits="userSpaceOnUse" x="0" y="0" width="54" height="54">
<rect width="54" height="54" fill="url(#pattern1_180_8270)"/>
</mask>
<g mask="url(#mask0_180_8270)">
<rect width="54" height="54" fill="#AC7080"/>
</g>
<rect width="54" height="54" fill="url(#pattern2_180_8270)"/>
<mask id="mask1_180_8270" maskUnits="userSpaceOnUse" x="0" y="0" width="54" height="54">
<rect width="54" height="54" fill="url(#pattern3_180_8270)"/>
</mask>
<g mask="url(#mask1_180_8270)">
<rect width="54" height="54" fill="#AC7080"/>
</g>
<rect width="54" height="54" fill="url(#pattern4_180_8270)"/>
<mask id="mask2_180_8270" maskUnits="userSpaceOnUse" x="0" y="0" width="54" height="54">
<rect width="54" height="54" fill="url(#pattern5_180_8270)"/>
</mask>
<g mask="url(#mask2_180_8270)">
<rect width="54" height="54" fill="#C2837B"/>
</g>
<rect width="54" height="54" fill="url(#pattern6_180_8270)"/>
<mask id="mask3_180_8270" maskUnits="userSpaceOnUse" x="0" y="0" width="54" height="54">
<rect width="54" height="54" fill="url(#pattern7_180_8270)"/>
</mask>
<g mask="url(#mask3_180_8270)">
<rect width="54" height="54" fill="#9E7D84"/>
</g>
<rect width="54" height="54" fill="url(#pattern8_180_8270)"/>
<mask id="mask4_180_8270" maskUnits="userSpaceOnUse" x="0" y="0" width="54" height="54">
<rect width="54" height="54" fill="url(#pattern9_180_8270)"/>
</mask>
<g mask="url(#mask4_180_8270)">
<rect width="54" height="54" fill="#AC7080"/>
</g>
<rect width="54" height="54" fill="url(#pattern10_180_8270)"/>
<mask id="mask5_180_8270" maskUnits="userSpaceOnUse" x="0" y="0" width="54" height="54">
<rect width="54" height="54" fill="url(#pattern11_180_8270)"/>
</mask>
<g mask="url(#mask5_180_8270)">
<rect width="54" height="54" fill="url(#pattern12_180_8270)"/>
</g>
<rect width="54" height="54" fill="url(#pattern13_180_8270)"/>
<mask id="mask6_180_8270" maskUnits="userSpaceOnUse" x="0" y="0" width="54" height="54">
<rect width="54" height="54" fill="url(#pattern14_180_8270)"/>
</mask>
<g mask="url(#mask6_180_8270)">
<rect width="54" height="54" fill="#C4948E"/>
</g>
<rect width="54" height="54" fill="url(#pattern15_180_8270)"/>
<mask id="mask7_180_8270" maskUnits="userSpaceOnUse" x="0" y="0" width="54" height="54">
<rect width="54" height="54" fill="url(#pattern16_180_8270)"/>
</mask>
<g mask="url(#mask7_180_8270)">
<rect width="54" height="54" fill="#DACDCC"/>
</g>
<rect width="54" height="54" fill="url(#pattern17_180_8270)"/>
<mask id="mask8_180_8270" maskUnits="userSpaceOnUse" x="0" y="0" width="54" height="54">
<rect width="54" height="54" fill="url(#pattern18_180_8270)"/>
</mask>
<g mask="url(#mask8_180_8270)">
<rect width="54" height="54" fill="#9E7D84"/>
</g>
<defs>





































</defs>
</svg>