<svg xmlns="http://www.w3.org/2000/svg" width="681" height="628" viewBox="0 0 681 628" fill="none">
<g id="energy">
<path id="Vector" d="M323.555 119.872C342.362 118.569 361.239 120.995 379.105 127.01C384.991 129.022 391.063 131.192 396.685 133.863C425.917 147.746 452.619 173.289 466.864 202.496C480.76 230.372 486.256 261.684 482.685 292.625C481.977 298.352 481.455 303.814 479.576 309.293C483.932 309.197 488.285 309.309 492.644 309.388C492.983 300.378 492.827 289.754 493.824 280.738C493.785 280.104 495.311 278.72 495.903 278.711C501.047 278.63 512.569 284.067 517.068 285.576C539.719 293.175 561.861 302.084 584.389 309.756C586.498 314.263 588.257 322.379 589.563 327.437C592.074 336.819 594.468 346.228 596.753 355.666L613.369 420.441L647.967 554.183C652.782 572.268 657.424 590.4 661.893 608.572C662.558 611.348 663.326 614.29 661.8 616.76C659.01 617.475 641.333 617.245 637.386 617.245L583.003 617.255L341.414 617.272L103.418 617.265L37.8022 617.258L18.9415 617.278C14.1514 617.282 9.04916 617.481 4.35465 616.737C3.09668 615.743 3.10401 613.858 3.42293 612.395C4.76106 606.251 6.50376 600.164 8.06467 594.067L17.2643 558.165L63.6954 377.887L75.0227 333.508C76.5503 327.542 79.4516 314.849 81.736 309.714C84.1404 308.969 87.5371 307.528 90.048 306.631L114.475 297.782C132.722 291.203 151.145 284.918 169.342 278.14C170.382 278.699 171.468 279.428 172.472 280.068C173.054 289.33 173.32 299.993 173.533 309.318C177.388 309.08 182.561 309.293 186.45 309.398C184.32 303.691 182.602 286.943 182.297 280.48C180.717 239.29 195.223 199.1 222.747 168.409C247.888 140.916 286.178 121.578 323.555 119.872ZM86.3989 316.789C82.0652 337.863 74.9047 362.854 69.3772 384.014L41.1337 493.42C35.2318 516.725 28.8991 540.263 23.2044 563.518C20.5471 574.289 17.7944 585.041 14.9467 595.766C14.0002 599.339 12.1697 607.212 10.9756 610.174C18.8396 610.457 27.3311 610.304 35.2348 610.304H75.9385L200.692 610.297L576.422 610.31L629.599 610.297C637.406 610.294 647.685 609.961 655.296 610.277C653.756 606.397 652.892 601.972 651.848 597.89L646.677 578.036L624.571 491.482L594.139 373.675L585.952 341.976C584.01 334.702 580.911 324.283 579.91 316.945C570.883 316.581 561.013 316.679 551.902 316.656L503.65 316.671L372.355 316.627L185.843 316.662L124.566 316.663C115.179 316.663 104.868 316.463 95.5538 316.643C92.8169 316.741 89.0521 316.984 86.3989 316.789ZM165.387 287.341C164.691 287.559 161.437 288.561 161.005 288.765C155.203 291.506 107.065 307.286 105.857 309.214C106.698 309.513 107.153 309.367 108.035 309.248C127.114 309.271 147.936 309.733 166.923 309.266C166.051 305.246 165.898 292.193 165.711 287.426L165.387 287.341ZM499.135 309.251C512.193 309.368 525.251 309.375 538.309 309.273C544.411 309.259 553.751 308.986 559.554 309.427L560.478 309.37C560.059 308.138 547.476 304.106 545.069 303.244L515.358 292.55C512.229 291.456 502.769 288.109 500.468 286.771C500.475 290.081 499.76 306.624 499.135 309.251ZM329.037 126.81C238.506 129.925 176.896 212.865 191.304 299.704C191.833 302.892 192.918 306.223 193.278 309.374C207.993 308.869 225.895 309.383 240.93 309.383L337.673 309.382L426.652 309.373C440.907 309.371 458.873 308.864 472.819 309.46C473.394 306.134 474.199 302.878 474.768 299.56C488.298 220.624 436.136 141.274 355.776 128.575C347.054 127.198 337.869 126.452 329.037 126.81Z" fill="#174952"/>
<path id="Vector_2" d="M145.731 495.089C163.625 494.554 183.043 495.438 201.078 495.043C205.786 494.936 230.673 494.767 234.009 495.635C234.235 495.997 234.444 496.326 234.576 496.735C236.014 501.147 230.182 560.113 229.333 569.984C228.848 575.616 228.854 581.317 228.146 586.926C227.906 588.831 227.638 590.888 226.729 592.601C224.389 594.419 220.177 593.777 217.053 593.678L156.474 593.668L140.466 593.701C138.049 593.711 129.154 594.077 128.69 592.64C127.534 589.06 130.838 573.372 131.352 570.253L139.024 524.854C140.515 515.834 141.923 506.399 143.551 497.38C143.759 496.233 144.754 495.578 145.731 495.089ZM200.661 586.374L220.47 586.344L220.996 586.101C221.504 581.906 221.517 577.338 221.918 573.016C223.855 552.155 225.642 531.253 227.19 510.359C227.392 507.636 227.693 504.857 228.201 502.174C222.069 502.024 215.636 502.363 209.608 501.968C206.988 523.155 204.762 544.389 202.93 565.659C202.282 572.667 201.17 579.239 200.661 586.374ZM202.44 502.038C195.517 502.137 188.593 502.184 181.669 502.174C178.67 502.174 173.072 502.27 170.231 501.921C167.305 520.572 164.624 539.255 162.187 557.976C160.886 567.577 159.212 576.48 158.451 586.34L191.947 586.307L192.991 586.284C194.045 584.359 201.608 509.89 202.44 502.038ZM135.618 586.44C140.167 586.257 144.824 586.337 149.385 586.364H150.766C151.209 585.725 153.592 567.916 153.886 565.828L160.491 518.663C161.216 513.145 162.291 507.523 162.776 502.034C158.58 502.077 153.93 502.22 149.784 501.925C146.241 521.31 143.861 541.051 140.086 560.429C138.435 568.903 137.814 578.059 135.618 586.44Z" fill="#174952"/>
<path id="Vector_3" d="M431.6 495.103C439.521 494.89 518.491 494.654 520.11 495.655C522.089 499.727 523.492 512.294 524.293 517.174L529.278 546.915C531.432 560.104 533.86 573.282 535.978 586.48C536.397 589.087 536.723 592.002 534.445 593.701C506.015 594.293 477.192 593.129 448.722 593.694C445.533 593.758 440.455 593.94 437.539 592.793C437.06 591.676 436.797 590.057 436.691 588.837C434.749 566.443 432.874 544.016 431.341 521.596C430.795 513.617 429.781 505.498 429.954 497.55C429.981 496.459 430.765 495.665 431.6 495.103ZM462.548 501.935C463.12 510.13 464.114 517.38 464.929 525.465L468.344 560.506C469.268 569.568 470.355 577.069 470.824 586.327L493.911 586.361C497.353 586.364 503.517 586.191 506.796 586.487C505.114 577.444 503.98 565.885 502.64 556.619C499.856 538.471 497.319 520.286 495.032 502.068L474.605 502.171C471.369 502.181 465.653 502.317 462.548 501.935ZM443.268 586.214C447.98 586.284 459.878 586.756 464.121 586.324C462.411 575.705 461.996 564.475 460.878 553.843C459.628 541.975 458.335 529.98 457.011 518.125C456.539 513.876 456.143 505.489 455.452 502.014C450.58 502.124 441.353 502.516 436.831 501.938C438.4 529.801 441.991 558.295 443.268 586.214ZM513.606 586.297C518.032 586.301 524.589 586.131 528.845 586.444C527.456 579.612 526.601 573.362 525.514 566.566L519.778 530.745L516.419 510.691C516.014 508.308 515.126 504.325 514.943 502.051C511.229 502.098 505.908 502.31 502.3 501.938C505.542 530.04 510.254 558.318 513.606 586.297Z" fill="#174952"/>
<path id="Vector_4" d="M243.418 495.146C245.604 495.043 247.924 495.06 250.116 495.063C275.415 495.086 300.721 494.94 326.019 495.126C330.868 495.163 330.2 498.763 330.211 502.713L330.189 557.534C330.186 562.507 330.833 590.998 328.851 592.993C326.25 594.266 322.237 593.771 319.221 593.678L259.744 593.661L244.176 593.694C241.455 593.704 236.722 593.854 234.21 593.432C233.39 592.511 232.649 591.194 232.741 589.911C233.157 584.113 233.638 578.315 234.064 572.514L237.165 532.882C238.057 522.134 238.836 511.399 240.035 500.671C240.206 499.149 240.188 497.659 240.727 496.213C241.598 495.339 242.132 495.385 243.418 495.146ZM303.648 586.39C309.774 586.267 315.867 586.44 321.962 586.361L322.835 586.39C323.473 585.533 323.204 564.01 323.209 561.387L323.259 502.018C318.666 502.141 309.812 502.55 305.623 501.948L304.165 556.377C303.968 565.882 304.22 577.088 303.648 586.39ZM298.445 502.034C291.951 502.161 285.455 502.217 278.959 502.207C275.962 502.207 271.152 502.31 268.304 501.968C267.678 521.506 265.688 541.097 265.277 560.702C265.099 569.169 264.113 577.813 263.999 586.42C273.121 585.839 285.177 586.497 294.695 586.297L295.761 586.327C296.6 585.121 296.745 568.804 296.828 566.261L298.105 521.024C298.256 514.82 298.172 508.175 298.445 502.034ZM239.994 586.427C244.924 586.194 250.475 586.344 255.458 586.381L256.343 586.367C257.3 585.214 257.125 577.188 257.251 575.114L259.527 532.876C260.056 522.567 261.045 512.327 261.478 502.011C256.602 502.051 251.604 502.147 246.743 501.975C245.021 520.253 243.668 539.016 242.319 557.338C241.613 566.929 240.141 576.816 239.994 586.427Z" fill="#174952"/>
<path id="Vector_5" d="M337.302 495.139C341.937 494.91 347.906 495.059 352.647 495.056L380.157 495.043L405.089 495.046C408.886 495.046 420.734 494.528 423.74 496.21C424.658 498.045 424.887 500.229 425.113 502.25C425.722 507.736 425.778 513.284 426.221 518.786C426.796 525.961 432.595 588.781 431.594 591.57C431.178 592.73 430.67 593.202 429.609 593.731C399.872 593.375 370.061 593.854 340.321 593.674C338.861 593.668 336.912 593.309 335.569 592.754C334.721 590.975 334.618 588.122 334.545 586.151C334.292 579.266 334.036 499.368 334.954 497.197C335.466 495.987 336.168 495.621 337.302 495.139ZM366.7 501.938C367.198 520.881 367.557 539.827 367.784 558.774C367.97 567.77 368.735 577.467 368.701 586.344C378.168 586.254 387.652 586.414 397.118 586.384C398.355 586.38 400.128 586.483 401.288 586.344C400.031 558.255 398.488 530.176 396.653 502.117L377.337 502.177C374.427 502.171 369.503 502.25 366.7 501.938ZM341.375 586.46C346.615 586.284 356.561 586.104 361.702 586.47C361.246 578.325 361.173 569.568 360.964 561.377L359.61 502.044C355.467 502.124 345.242 502.513 341.538 502.008L341.505 558.644C341.508 566.713 341.86 578.624 341.375 586.46ZM408.404 586.424C412.893 586.287 420.734 586.158 425.2 586.44C423.61 581.7 423.431 567.341 422.962 561.842C421.276 541.988 419.434 521.842 417.984 501.971C413.864 502.038 407.669 502.287 403.619 501.921C404.274 509.475 404.367 518.321 404.813 526.107L408.404 586.424Z" fill="#174952"/>
<path id="Vector_6" d="M529.411 495.113C543.586 494.69 559.091 495.312 573.416 495.063C578.923 494.966 596.553 494.744 600.816 495.448C602.987 500.116 604.377 507.762 605.604 513.005L613.136 546.234L619.56 572.72C620.96 578.418 622.619 584.552 623.563 590.31C622.928 592.431 623.048 592.827 621.083 593.694C614.226 593.884 606.276 593.658 599.313 593.661L543.533 593.754C539.915 589.848 540.607 586.168 539.795 581.065L535.835 556.101L530.741 525.612C529.251 517.134 527.721 508.53 526.451 500.016C526.258 498.72 526.045 497.353 526.754 496.213C527.655 495.339 528.114 495.379 529.411 495.113ZM575.804 586.314C583.944 586.241 592.23 586.38 600.394 586.364C604.304 586.354 611.889 586.158 615.487 586.503C614.675 582.428 613.568 578.757 612.663 574.745L600.413 522.058C599.024 515.971 596.679 508.025 595.805 502.031C584.253 502.184 571.155 502.324 559.607 501.968L569.689 554.608L573.819 575.403C574.371 578.232 575.578 583.644 575.804 586.314ZM547.826 586.307C554.037 586.241 562.087 586.088 568.202 586.4C568.668 582.94 562.639 555.426 561.502 549.598L555.071 516.905C554.024 511.672 553.375 507.317 552.122 502.028C547.44 502.094 538.276 502.417 533.93 501.925C534.515 506.758 535.599 511.838 536.35 516.715L543.682 561.304L546.459 577.66C546.898 580.22 547.666 583.794 547.826 586.307Z" fill="#174952"/>
<path id="Vector_7" d="M65.6656 495.109C80.7168 494.843 96.1982 495.173 111.273 495.043C114.821 495.013 134.396 494.777 136.748 495.545C138.181 497.333 138.185 497.919 137.96 500.173C137.452 505.259 136.476 510.159 135.589 515.176L130.739 543.624C128.211 558.219 126.359 573.036 123.597 587.587C123.053 590.45 123.067 593.295 119.788 593.698C117.892 593.927 115.277 593.751 113.346 593.688L72.7416 593.654C67.1945 593.658 45.5232 594.183 42.0371 592.966C40.972 591.969 40.8168 590.363 41.116 588.997C42.2104 584.01 43.4906 579.063 44.666 574.09C47.1769 563.229 49.7452 552.377 52.3708 541.543L59.8951 509.797C60.8507 505.791 61.7665 501.692 62.8505 497.719C63.2532 496.243 64.2966 495.588 65.6656 495.109ZM48.8002 586.39L85.4901 586.361L88.531 586.464C89.9751 580.366 90.839 574.293 92.0983 568.152C94.8302 554.831 97.6367 541.656 99.8606 528.231C101.279 519.668 103.763 510.725 104.762 502.058L82.0595 502.131C78.7898 502.127 72.1155 502.267 68.9981 501.868C64.7785 520.994 59.8745 540.21 55.3618 559.296C53.4628 567.328 51.8857 578.987 48.8002 586.39ZM95.5491 586.374C101.856 586.321 108.163 586.304 114.47 586.321C115.742 586.364 115.675 586.59 116.37 585.962C118.11 579.891 118.968 570.682 120.235 563.94C124.093 543.415 127.184 522.64 130.563 502.061C125.447 502.124 117.212 502.423 112.32 501.951C108.564 524.771 102.828 547.74 98.9571 570.586C98.2519 574.748 97.1712 582.787 95.5491 586.374Z" fill="#174952"/>
<path id="Vector_8" d="M159.25 410.278C163.943 409.975 170.594 410.178 175.396 410.185L204.656 410.201L227.045 410.185C230.66 410.185 237.135 410.002 240.49 410.574C241.155 411.146 241.889 411.83 241.932 412.751C242.176 417.921 241.203 424.66 240.745 429.823L238.292 458.177C237.915 462.376 237.271 480.954 235.421 483.789C233.483 485.182 231.764 484.923 229.344 484.963L178.064 484.91C172.537 484.92 150.046 485.668 146.277 483.67C145.174 480.239 149.939 458.586 150.727 453.733L155.455 425.178C156.183 420.969 156.515 413.449 159.25 410.278ZM173.01 477.832L203.452 477.855L204.417 477.835C205.433 476.569 210.201 423.639 211.185 417.266L192.218 417.299C189.616 417.309 184.037 417.449 181.678 417.063C180.885 426.086 178.443 439.105 177.209 448.314L174.496 468.261C174.043 471.366 173.735 474.813 173.01 477.832ZM229.464 477.845C230.694 476.136 231.224 457.991 231.642 454.677C233.197 442.339 233.596 429.616 234.953 417.296C230.478 417.336 222.334 417.638 218.147 417.229C217.508 431.043 215.044 445.099 213.988 458.945C213.507 465.252 212.3 471.386 212.007 477.832C217.826 477.795 223.646 477.799 229.464 477.845ZM153.51 477.888C157.344 477.842 161.178 477.825 165.013 477.848L165.929 477.815C166.244 477.33 173.911 422.432 174.504 417.289C171.88 417.312 166.164 417.492 163.775 417.1C160.145 437.127 156.871 457.772 153.51 477.888Z" fill="#174952"/>
<path id="Vector_9" d="M423.83 410.381C424.079 410.364 424.328 410.351 424.578 410.338C429.702 410.085 443.864 409.979 448.343 410.191C455.296 410.524 504.392 409.36 506.165 410.973C508.489 415.108 509.613 427.382 510.521 432.599L515.322 461.036C516.383 467.117 518.448 475.907 518.458 482.194C518.458 483.347 517.47 484.092 516.606 484.734C511.858 485.139 504.296 484.923 499.348 484.923L468.49 484.903L445.866 484.936C442.068 484.95 430.985 485.884 428.698 482.998C427.996 479.737 428.132 475.631 427.737 472.223C426.889 463.643 425.855 453.939 425.409 445.425C425.097 439.457 421.369 414.32 423.83 410.381ZM459.998 477.865C469.761 477.812 482.277 477.423 491.75 477.855C490.536 470.082 489.742 462.346 488.714 454.58L483.6 417.239L464.59 417.332C461.777 417.342 456.254 417.502 453.743 417.053C455.213 436.934 459.147 458.201 459.998 477.865ZM429.852 417.386C430.686 421.166 430.842 426.92 431.102 430.926L432.365 448.167C433.094 458.177 434.563 467.755 434.916 477.855C439.937 477.802 444.961 477.782 449.982 477.799C451.01 477.795 452.13 477.928 452.962 477.4C452.014 470.039 451.555 463.384 450.804 456.133L446.478 417.286L433.619 417.399L429.852 417.386ZM498.617 477.775C502.268 477.799 507.641 477.669 511.153 477.908C509.147 469.241 507.545 455.94 506.065 446.881L502.574 426.073C502.125 423.353 501.327 419.902 501.001 417.269C498.4 417.286 492.788 417.462 490.483 417.113C492.136 431.418 494.896 446.013 496.439 460.418C497.087 466.469 498.4 471.303 498.617 477.775Z" fill="#174952"/>
<path id="Vector_10" d="M336.706 410.304C341.348 409.985 348.447 410.201 353.232 410.201L383.102 410.185L404.147 410.165C420.308 410.158 417.285 408.795 418.705 424.527L421.179 454.497C421.661 460.621 423.839 477.835 423.015 483.341C422.476 484.278 421.724 484.408 420.68 484.817C409.661 485.269 397.587 484.87 386.474 484.93C372.132 485.01 357.718 484.843 343.373 484.93C341.371 484.943 336.819 484.813 335.392 483.354C334.877 481.658 334.637 479.906 334.634 478.131C334.588 457.143 334.411 436.126 334.581 415.145C334.598 413.004 335.093 411.658 336.706 410.304ZM366.071 477.802L385.024 477.779C387.651 477.779 392.922 477.656 395.382 477.938C395.129 473.806 395.156 469.634 394.844 465.515C393.776 451.442 392.922 437.389 392.376 423.287C392.3 421.322 392.123 419.384 392.143 417.412C386.075 417.199 380.076 417.342 374.014 417.319C371.541 417.309 367.012 417.469 364.684 417.053C364.85 428.024 365.043 438.995 365.276 449.966C365.472 459.108 366.253 468.709 366.071 477.802ZM341.391 477.858C344.57 477.839 356.561 478.041 358.885 477.696L359.128 477.403L358.08 434.936C357.987 429.357 357.661 422.805 357.841 417.366C355.034 417.372 343.865 417.582 341.464 417.13C341.561 436.631 341.91 458.447 341.391 477.858ZM402.136 477.832C406.103 477.825 412.374 477.646 416.138 477.975C415.613 466.755 414.525 455.199 413.774 443.942C413.182 435.062 411.915 426.501 411.573 417.492C409.119 417.449 400.939 417.529 399.096 417.136C400.38 434.5 400.829 452.097 401.91 469.497C402.079 472.23 402.109 475.093 402.136 477.832Z" fill="#174952"/>
<path id="Vector_11" d="M248.337 410.331C253.417 410.019 259.97 410.188 265.172 410.191L293.078 410.185L314.442 410.175C318.376 410.178 325.492 409.929 329.018 410.747C329.868 412.213 330.228 414.557 330.233 416.269C330.294 437.409 330.193 458.556 330.199 479.694C330.199 481.007 329.866 482.387 329.314 483.567C327.488 485.319 325.865 484.94 323.224 484.956C319.913 484.996 316.534 484.973 313.201 484.926C290.156 484.621 266.976 485.468 243.972 484.614C242.998 484.577 241.957 483.307 241.517 482.503C241.153 479.448 242.169 471.625 242.458 468.274L244.635 442.712C245.254 435.843 245.672 415.245 248.337 410.331ZM269.712 477.755L298.02 477.832L298.76 477.762C299.086 476.828 298.966 474.534 299.001 473.414C299.584 454.79 299.725 435.887 300.613 417.293C292.882 417.299 280.364 417.695 273.087 417.11C272.948 427.781 271.684 439.856 271.12 450.644C270.715 458.39 270.814 470.398 269.712 477.755ZM323.127 477.918C323.442 476.904 323.264 467.127 323.261 465.295L323.248 434.627C323.26 429.391 323.077 422.353 323.494 417.346C320.374 417.329 309.775 417.552 307.462 417.163C307.617 424.56 307.014 433.845 306.781 441.409C306.494 453.543 306.272 465.678 306.117 477.815C311.726 477.812 317.536 477.736 323.127 477.918ZM248.388 477.898C252.85 477.835 257.313 477.815 261.776 477.839L262.482 477.736C263.233 476.599 263.146 472.19 263.211 470.565C263.913 452.991 265.508 434.863 266.062 417.332C263.383 417.382 256.137 417.479 253.744 417.116C251.605 430.285 251.61 444.367 250.27 457.689C249.595 464.398 249.527 471.19 248.388 477.898Z" fill="#174952"/>
<path id="Vector_12" d="M420.966 332.259C444.352 332.286 469.128 331.851 492.385 332.398L494.38 334.456C495.225 338.415 495.65 342.129 496.338 346.085L501.173 374.659C502.55 383.073 504.289 391.454 505.403 399.912C505.822 403.1 505.14 403.762 502.174 404.616L452.739 404.656C447.372 404.659 426.985 405.341 422.931 403.562C420.68 400.514 420.411 383.964 419.992 378.918L417.791 351.344C417.372 346.471 416.757 341.593 416.53 336.71C416.368 333.196 417.877 332.451 420.966 332.259ZM451.548 397.232C459.552 396.79 472.47 397.016 480.703 397.206C480.743 396.425 479.48 387.605 479.317 386.308L474.761 352.325C474.233 348.266 473.245 343.691 473.019 339.679L456.563 339.705C453.743 339.715 448.193 339.898 445.689 339.383L449.29 374.998C450.075 382.658 450.999 389.47 451.548 397.232ZM428.265 397.256C433.286 397.043 439.614 397.066 444.702 397.206C444.562 392.678 443.391 386.714 442.923 382.103C442.427 377.209 442.178 372.385 441.689 367.498C440.821 358.871 439.152 348.395 439.062 339.755C435.597 339.765 426.825 340.021 423.833 339.529C423.799 341.201 423.932 343.409 424.158 345.081C425.365 354.07 425.731 363.053 426.43 372.079C427.085 380.537 428.189 388.742 428.265 397.256ZM487.839 397.246C491.234 397.129 494.629 397.133 498.024 397.252C495.883 386.993 494.417 376.547 492.664 366.231C491.121 357.142 489.592 348.851 488.657 339.625C486.037 339.708 482.293 339.898 479.789 339.443C480.484 343.435 481.229 347.518 481.671 351.55C483.347 366.817 486.276 381.976 487.839 397.246Z" fill="#174952"/>
<path id="Vector_13" d="M175.04 332.278L219.53 332.244C224.716 332.242 243.799 331.698 247.383 333.209C249.98 338.276 243.42 394.45 242.142 403.379C241.915 404.972 234.703 404.643 233.179 404.626L184.997 404.636C180.361 404.636 163.982 405.025 160.499 404.054C159.15 402.302 159.602 399.606 159.889 397.552C161.133 388.645 163.016 379.702 164.453 370.829L168.478 346.431C168.963 343.525 169.731 336.394 171.104 333.578C171.536 332.69 173.962 332.357 175.04 332.278ZM184.288 397.276C192.902 396.85 203.151 397.109 211.898 397.156L213.202 397.103C213.97 395.76 218.562 346.86 219.582 339.522C216.708 339.835 194.568 339.978 192.322 339.316C189.591 358.725 187.41 377.817 184.288 397.276ZM220.322 397.239C225.524 397.05 230.792 397.139 236.003 397.183C237.205 395.906 239.907 346.77 241.331 339.522C238.449 339.798 228.904 340.124 226.321 339.433C225.46 354.479 222.953 370.394 221.578 385.487C221.226 389.347 220.987 393.446 220.322 397.239ZM167.334 397.143C170.055 397.119 173.148 397.023 175.836 397.156L176.871 397.186C178.29 395.008 183.786 346.481 185.376 339.509C182.546 339.841 179.693 339.994 176.877 339.486C175.47 347.315 173.853 355.261 172.851 363.153C171.412 374.476 168.563 385.836 167.334 397.143Z" fill="#174952"/>
<path id="Vector_14" d="M257.933 332.272C267.325 332.249 326.353 331.578 328.648 332.837C329.261 333.172 329.901 334.18 330.112 334.835C331.004 337.607 330.592 391.95 330.208 398.12C330.094 399.969 329.928 401.993 329.086 403.662C327.087 404.995 323.547 404.636 321.047 404.61L274.416 404.633C266.96 404.633 259.462 404.742 252.024 404.54C250.237 404.49 248.036 403.625 248.019 401.671C247.946 393.821 249.234 385.344 249.848 377.598L251.755 351.866C252.025 348.06 252.271 335.779 254.469 333.006C255.627 332.219 256.515 332.337 257.933 332.272ZM274.425 397.219C282.306 397.063 291.297 396.973 299.158 397.146L300.626 397.136C301.28 396.185 302.036 346.879 302.267 339.662C298.875 339.821 279.848 339.974 277.604 339.329C277.446 346.886 276.456 354.509 276.281 361.956C276.003 373.708 274.819 385.547 274.425 397.219ZM307.856 397.08L323.408 397.239V363.266C323.405 355.663 323.186 346.982 323.562 339.509C320.636 339.785 311.855 340.071 309.206 339.413C308.957 357.318 309.072 379.413 307.856 397.08ZM254.734 397.063C258.64 397.086 262.766 397.043 266.652 397.149L267.325 396.927C267.671 395.431 267.647 394.247 267.746 392.758C268.897 375.297 268.916 356.889 270.718 339.529C267.701 339.785 262.868 339.944 259.884 339.562C258.983 342.418 259.301 348.964 258.833 352.275C256.76 366.94 257.12 382.548 254.734 397.063Z" fill="#174952"/>
<path id="Vector_15" d="M339.801 332.286L384.239 332.255C389.117 332.255 408.071 331.409 411.376 333.934C412.051 336.264 412.254 341.517 412.557 344.203C413.524 352.807 413.963 361.447 414.602 370.065L416.055 390.091C416.307 393.532 417.408 400.048 416.065 403.293C415.706 404.157 414.286 404.377 413.405 404.623L361.764 404.613C354.043 404.619 346.282 404.859 338.574 404.57C335.392 404.453 334.684 401.8 334.597 399.147C334.468 395.115 334.538 391.079 334.544 387.043L334.581 364.177L334.518 346.337C334.501 343.033 334.421 339.722 334.571 336.424C334.737 332.783 336.722 332.426 339.801 332.286ZM364.261 397.129L390.614 397.176C391.235 396.468 390.358 388.386 390.374 386.667C390.534 371.145 387.96 355.108 388.007 339.685C384.415 339.702 365.099 339.981 362.748 339.422L363.829 382.089C363.939 386.823 364.341 392.502 364.261 397.129ZM341.437 397.229C345.63 397.013 353.012 397.026 357.308 397.256C357.112 394.167 357.132 390.959 357.109 387.857C356.996 371.836 356.188 355.859 356.058 339.835C352.999 339.792 343.752 339.978 341.387 339.366C341.51 351.208 341.55 363.05 341.51 374.892C341.514 381.813 341.74 390.407 341.437 397.229ZM398.029 397.229C401.943 397.023 405.617 397.123 409.527 397.196C408.969 382.605 407.422 369.17 406.468 354.665C406.199 350.546 405.251 343.542 405.261 339.712C402.684 339.758 397.427 340.018 395.149 339.406C395.259 358.359 398.275 378.894 398.029 397.229Z" fill="#174952"/>
<path id="Vector_16" d="M513.822 410.358C516.795 409.999 522.355 410.155 525.494 410.161L545.771 410.198L567.66 410.195C571.348 410.195 577.35 410.018 580.815 410.484C583.123 413.104 588.503 438.41 589.726 443.513L596.061 470.461C596.859 473.882 597.807 477.257 598.512 480.694C599.014 483.158 598.179 483.513 596.187 484.634C593.304 485.053 588.662 484.936 585.65 484.936L569.629 484.94C561.898 484.94 529.321 485.741 524.579 483.976C523.868 482.772 522.834 477.666 522.587 476.033C520.745 463.945 518.89 451.997 516.795 439.942C515.678 433.805 514.6 427.662 513.56 421.511C513.107 418.888 512.452 415.733 512.309 413.08C512.239 411.824 512.978 411.179 513.822 410.358ZM554.669 477.775L577.739 477.809C581.36 477.815 586.87 477.659 590.295 477.912C589.524 471.249 585.327 455.817 583.665 448.826C581.38 439.231 578.863 426.448 576.18 417.223L554.227 417.302C551.59 417.302 545.275 417.425 542.981 417.02C546.994 433.443 549.355 450.747 552.883 467.313C553.655 470.924 554.26 474.098 554.669 477.775ZM530.119 477.845C536.061 477.792 542.003 477.802 547.945 477.882C544.913 463.686 542.07 449.451 539.41 435.178C538.518 430.481 536.513 421.887 536.241 417.326C533.261 417.349 522.544 417.598 519.967 417.043C522.674 435.122 526.192 453.041 529.025 471.096C529.391 473.41 529.597 475.538 530.119 477.845Z" fill="#174952"/>
<path id="Vector_17" d="M84.454 410.331C95.6799 409.699 108.825 410.404 120.22 410.195C125.982 410.088 147.927 409.623 151.533 411.135C151.747 411.458 151.865 411.737 151.932 412.123C152.798 417.09 147.323 443.357 146.184 450.421L142.907 470.518C142.228 474.79 141.811 481.229 139.507 484.72C137.978 484.886 136.199 484.89 134.644 484.936L92.1715 484.906C88.2807 484.906 69.641 485.684 67.2595 483.912C65.8429 481.908 66.5918 479.324 67.0929 477.031C69.0361 468.121 71.3342 459.261 73.4287 450.385C75.3048 442.216 77.2427 434.065 79.2421 425.926C80.3148 421.538 81.5904 413.626 84.454 410.331ZM73.871 477.905C85.1869 477.812 96.5036 477.779 107.82 477.812C109.25 477.732 108.983 477.975 109.783 477.207C111.073 472.263 111.981 466.828 112.955 461.778L118.285 433.536C119.142 428.948 120.436 421.781 121.647 417.299C111.614 417.276 98.0501 417.695 88.3183 417.13C87.5594 422.372 86.2108 427.316 85.0217 432.462L79.4669 456.023C78.0813 461.655 75.7959 472.792 73.871 477.905ZM116.798 477.885C122.542 477.815 128.286 477.799 134.03 477.845C135.165 476.801 137.107 461.435 137.713 458.752C140.688 445.571 141.714 430.225 145.082 417.276C141.656 417.299 131.533 417.555 128.685 417.156C126.908 429.44 123.599 443.423 121.247 455.734C120.186 461.292 118.367 472.828 116.798 477.885Z" fill="#174952"/>
<path id="Vector_18" d="M504.409 332.249L541.481 332.256C547.856 332.244 555.321 331.851 561.642 332.807C562.394 332.92 563.464 333.425 563.757 334.216C565.995 340.234 567.046 346.663 568.475 352.91L575.252 381.464C576.539 386.973 578.281 392.412 579.445 397.941C580.127 401.192 580.223 403.383 576.921 404.633L534.146 404.596C527.619 404.583 521.078 404.829 514.564 404.573C511.834 404.467 510.713 402.844 510.245 400.294C507.438 385.005 505.39 369.596 502.666 354.286C501.626 348.445 500.395 342.621 499.823 336.7C499.491 333.129 501.353 332.387 504.409 332.249ZM539.337 397.203C548.95 396.877 561.842 397.01 571.518 397.266C571.571 395.391 568.904 385.53 568.369 383.226L558.324 339.708L539.569 339.725C536.906 339.735 531.15 339.935 528.733 339.476C529.039 344.123 530.315 348.11 531.137 352.661L536.979 383.775C537.687 387.658 538.894 393.376 539.337 397.203ZM516.822 397.206C521.238 396.993 527.738 397.063 532.254 397.239C532.214 394.224 529.807 384.234 529.155 380.813C527.689 373.126 525.983 365.181 524.613 357.465C523.665 352.135 521.853 345.008 521.238 339.822C517.424 339.609 510.118 340.097 507.089 339.329C509.124 351.843 511.279 364.333 513.55 376.803C514.364 381.474 516.456 392.828 516.822 397.206Z" fill="#174952"/>
<path id="Vector_19" d="M105.28 332.272C123.812 332.231 144.093 331.892 162.502 332.419C163.38 332.91 164.384 333.625 165.237 334.2C165.249 337.993 164.347 341.996 163.716 345.749L160.648 363.741C159.74 369.054 155.215 401.082 153.227 403.702C150.965 405.025 148.584 404.653 145.893 404.623L109.98 404.653C103.643 404.679 97.1993 404.782 90.8675 404.673C89.4273 404.56 87.2906 404.403 86.035 403.755C84.7544 403.094 85.1508 399.962 85.4025 398.845C86.4563 394.164 87.6138 389.506 88.7413 384.845C90.6364 376.827 92.5776 368.818 94.5644 360.822C96.5442 352.907 98.4396 344.978 100.206 337.006C100.961 333.598 101.722 332.481 105.28 332.272ZM106.909 339.742C105.502 345.52 93.3065 396.494 93.4591 396.99L93.8488 397.113C103.013 397.096 116.539 396.767 125.518 397.252C126.351 390.726 136.639 340.653 136.57 340.25C136.538 340.061 136.433 339.891 136.364 339.712L136.284 339.665C127.849 339.735 115.114 340.058 106.909 339.742ZM132.37 397.259C136.687 397.053 142.322 396.943 146.641 397.169C147.236 397.123 147.928 397.216 148.044 396.857C148.526 395.381 148.626 392.721 148.912 391.046L155.366 353.871C156.162 349.303 156.735 344.14 157.66 339.748C154.685 339.782 146.309 340.018 143.843 339.569C140.081 358.283 136.62 378.868 132.37 397.259Z" fill="#174952"/>
<path id="Vector_20" d="M331.854 8.96001C333.501 8.9494 333.87 8.83511 335.3 9.5152C336.813 11.0096 341.292 29.4894 342.226 32.8248L357.116 86.2654C359.058 93.3147 362.064 102.861 363.448 110.096C363.64 111.097 362.623 112.39 361.918 113.127C359.188 114.256 337.907 113.727 333.168 113.716C327.91 113.706 322.65 113.742 317.391 113.824C314.07 113.87 307.559 114.166 304.584 113.498C303.376 112.708 303.042 111.859 302.31 110.603C304.045 103.256 306.458 95.8746 308.474 88.5753L319.856 47.5515C323.301 35.4669 326.442 23.3658 329.768 11.2573C330.149 9.87152 330.619 9.6029 331.854 8.96001ZM310.424 106.315C318.17 106.204 325.917 106.173 333.664 106.22C339.942 106.235 349.698 105.959 355.697 106.351C353.997 102.411 351.65 92.6066 350.336 87.9842L337.408 41.2575C336.081 36.5035 334.648 31.7947 333.677 26.9576C333.574 26.4443 333.165 26.2436 332.759 26.063C331.178 33.13 329.351 38.8755 327.46 45.7769L317.806 80.8169C316.139 86.6906 312.508 101.518 310.424 106.315Z" fill="#174952"/>
<path id="Vector_21" d="M465.361 54.1599C472.886 53.6263 469.358 60.8229 468.576 65.1451C467.163 72.9883 465.168 80.737 463.512 88.5287L454.481 130.885C453.018 137.805 451.372 147.377 449.004 154.112C448.665 155.081 447.568 155.497 446.627 155.749C443.082 154.986 425.319 142.997 420.833 140.335C416.883 137.968 403.06 129.944 400.37 127.199C399.356 124.056 400.267 122.714 402.295 120.386C405.896 116.248 409.82 112.419 413.588 108.424L437.792 82.9296L456.276 63.5437C459.023 60.6713 462.544 56.6909 465.361 54.1599ZM422.459 132.989C429.645 137.15 436.854 142.408 444.116 146.544C448.432 124.068 453.882 101.675 458.571 79.2583C459.206 76.232 459.951 73.0022 460.742 70.0142L460.233 69.696L424.015 107.796C421.222 110.728 410.439 121.688 408.959 124.074C410.286 125.348 420.893 132.374 422.459 132.989Z" fill="#174952"/>
<path id="Vector_22" d="M198.031 54.1609C198.671 54.1709 199.379 54.1459 200.009 54.2596C201.146 54.4651 202.477 56.0861 203.275 56.88C219.709 73.2356 235.386 90.4482 251.312 107.301C254.159 110.314 264.409 120.098 265.938 122.922C266.338 123.661 266.595 125.249 266.282 126.027C265.14 128.877 250.924 136.852 247.538 138.941C242.436 141.993 237.39 145.139 232.403 148.377C229.045 150.577 221.838 156.477 217.788 155.353C216.954 153.658 216.202 151.651 215.787 149.793C208.892 118.983 202.156 88.043 196.001 57.1041C195.796 56.0755 197.324 54.7227 198.031 54.1609ZM221.873 146.383C227.256 143.544 232.579 139.819 237.804 136.652C239.957 135.347 242.173 133.677 244.419 132.596C248.409 130.146 254.253 126.689 257.975 124.049C254.587 121.261 252.117 118.297 249.085 115.143C235.91 101.443 223.004 87.4655 209.765 73.8307C208.838 72.8766 206.335 70.1787 205.272 69.6757C206.461 74.1189 207.466 78.6044 208.355 83.1157C212.483 104.078 218.479 125.349 221.873 146.383Z" fill="#174952"/>
<path id="Vector_23" d="M97.4807 186.879L154.789 189.873C165.527 190.424 176.363 190.767 187.118 191.559C188.629 191.67 190.017 192.035 190.985 193.236C191.781 195.999 189.095 203.477 188.073 206.445C184.509 216.788 181.297 227.308 177.67 237.622C176.344 240.606 176.034 245.235 173.334 247.735C171.427 248.258 168.675 246.442 167.09 245.339C159.859 240.305 152.796 235.001 145.745 229.72L126.835 215.845C117.193 208.689 107.348 201.731 97.7783 194.47C94.6755 192.116 93.126 188.883 97.4807 186.879ZM169.856 238.773C171.123 235.373 172.179 232.454 173.235 228.974C175.159 222.762 177.163 216.576 179.248 210.416C180.39 206.964 181.953 201.776 183.317 198.552C165.713 198.491 147.155 195.764 129.408 195.702C122.913 195.68 115.902 194.645 109.305 194.471C114.81 198.045 121.098 202.791 126.432 206.713C134.602 212.683 142.733 218.705 150.825 224.78C155.888 228.575 165.314 234.879 169.856 238.773Z" fill="#174952"/>
<path id="Vector_24" d="M566.836 186.994C570.806 186.693 571.541 188.704 570.806 192.078C568.093 195.08 497.961 246.609 494.839 247.793C494.091 248.076 493.486 247.91 492.814 247.526C490.317 246.1 489.592 241.251 488.947 238.701C484.784 228.533 481.841 217.202 478.157 206.796C477.016 203.569 474.492 196.402 475.104 193.207C478.007 190.487 506.125 190.171 511.369 189.91L566.836 186.994ZM482.782 198.452C486.45 208.496 489.319 218.981 492.897 228.811C493.911 232.79 494.979 235.052 496.206 238.767C501.463 234.805 555.491 195.401 555.587 194.751L555.304 194.65L508.087 197.137C501.686 197.502 488.667 198.746 482.782 198.452Z" fill="#174952"/>
</g>
</svg>