<svg xmlns="http://www.w3.org/2000/svg" width="711" height="723" viewBox="0 0 711 723" fill="none">
<path d="M496.553 20.2604C506.505 19.3737 517.703 21.2617 526.222 26.693C529.092 28.5246 531.916 31.0798 535.241 32.0269C538.143 32.8545 541.317 32.4936 544.304 32.5241C549.19 32.5739 556.367 33.1557 560.441 36.1507C561.719 37.0884 562.679 38.3374 562.859 39.9454C563.456 45.2405 548.134 58.216 544.332 62.5466C539.683 67.8417 535.104 73.4241 530.829 79.0242C526.532 84.6514 522.381 90.9971 518.776 97.0914C514.473 104.357 501.608 128.406 502.858 135.791C503.208 137.864 504.839 139.343 506.575 140.357C514.349 144.9 528.777 145.783 537.854 148.47C543.393 150.108 549.038 152.621 553.85 155.82C569.079 165.94 572.867 178.274 565.574 194.93C562.806 201.255 558.778 207.317 558.76 214.465C558.743 221.951 566.488 227.753 568.073 235.83C568.924 240.156 568.606 244.575 567.921 248.899C566.287 259.2 562.781 267.091 554.51 273.676C550.355 276.983 545.31 279.171 542.327 283.731L542.065 284.141C545.204 292.587 546.383 300.891 540.403 308.583C531.492 320.043 510.826 335.192 518.508 352.257C519.556 354.581 534.842 365.923 537.783 368.289C542.581 372.144 547.297 376.108 551.926 380.168C566.696 393.015 580.779 406.546 593.392 421.554C596.337 425.056 598.921 428.854 601.741 432.459C608.911 441.627 615.912 451.271 621.822 461.311C625.006 466.72 627.626 472.354 630.531 477.904C638.11 492.385 645.552 509.87 649.602 525.735C656.616 553.208 659.183 585.143 649.189 612.213C646.816 618.635 643.251 625.021 639.752 630.913C636.773 635.929 633.274 640.265 629.479 644.66C603.552 674.667 564.186 688.792 526.815 698.292C513.664 701.635 500.44 703.951 487.028 705.924C430.124 714.298 359.218 714.411 308.543 683.909C269.333 660.306 239.187 624.244 227.962 579.403C216.282 535.398 234.399 486.189 260.302 450.594C265.109 443.988 272.147 434.393 278.023 428.78C269.237 427.961 249.45 428.702 241.435 432.589C235.857 441.598 242.911 457.266 237.086 462.491C229.829 468.993 210.715 466.268 202.012 470.201C200.747 470.773 199.224 472.294 198.177 473.268C197.16 478.949 198.256 487.965 198.815 493.91C199.948 505.955 198.228 511.201 185.253 512.257C166.336 513.793 147.365 514.922 128.431 516.536C118.994 517.337 107.53 519.236 105.282 506.697C104.261 498.552 105.018 490.122 104.769 481.911C104.004 456.715 101.493 430.983 97.3314 406.07C93.1339 380.857 86.2887 356.155 76.9098 332.375C75.3882 328.442 73.5454 324.781 71.8583 320.924C67.9372 311.959 64.288 302.785 59.3929 294.293C58.1329 292.106 56.9082 289.942 55.7475 287.7L34.3382 246.121C28.031 233.93 12.2369 214.044 37.9361 210.848C44.6821 210.01 51.0045 210.459 57.7382 210.329C91.582 209.674 125.451 209.52 159.286 208.465C178.164 207.403 199.611 207.229 217.243 199.965C222.812 197.671 234.354 182.35 238.462 177.347L270.62 137.985C274.445 133.374 278.008 128.504 282.089 124.113C285.073 120.903 288.542 117.125 292.388 114.934C303.759 108.456 321.484 111.239 334.247 110.72C337.913 110.572 344.673 110.499 347.245 107.436C356.619 96.2695 314.39 60.8796 313.132 47.9906C312.892 45.5243 313.257 43.4104 314.938 41.5171C318.161 37.8852 323.923 36.4822 328.412 35.1678C332.969 33.8339 337.597 32.4755 342.388 32.5207C358.798 32.6754 370.801 51.4873 382.175 50.4904C389.328 49.8634 395.908 38.139 400.194 33.0238C414.633 15.7875 436.506 40.326 452.643 40.9244C453.692 40.9632 454.941 40.9431 455.916 40.4997C458.934 39.1254 461.61 35.9686 464.177 33.8662C467.262 31.3353 470.648 28.8966 474.132 26.9404C480.893 23.1436 488.85 20.9115 496.553 20.2604ZM231.134 563.696C235.382 613.547 278.502 664.115 322.653 685.018C363.74 704.47 413.348 707.933 458.228 703.802C523.683 697.222 617.179 679.609 643.367 609.562C649.866 592.165 651.635 576.402 649.559 557.854C640.765 483.732 593.361 420.466 536.646 374.654C529.731 368.652 521.314 363.625 514.875 357.239C513.025 355.403 511.444 350.056 511.285 347.598C510.328 332.866 519.595 321.309 529.745 311.867C534.415 307.25 539.679 302.234 538.902 295.116C538.27 289.316 534.539 282.669 539.382 278.139C548.66 269.464 557.952 267.043 560.864 252.934C561.659 249.092 564.034 244.363 563.233 239.783C562.181 230.581 553.857 226.242 553.239 216.546C551.791 194.057 576.941 182.43 553.373 162.68C538.991 149.715 516.725 153.222 501.654 144.041C489.447 136.605 505.548 109.469 509.933 100.997C518.871 83.7279 530.959 68.4118 544.057 54.1396C548.618 49.1707 552.49 45.8936 556.914 40.3207C551.7 38.5676 545.928 38.0123 540.533 38.2248C532.099 38.5577 531.651 37.2999 525.318 32.8397C518.646 28.1394 507.97 24.9805 499.691 25.5658C489.192 26.2307 485.111 27.933 475.749 32.7983C467.788 36.9369 461.575 47.0554 453.141 46.6219C446.97 46.3045 441.915 44.1334 436.602 41.7829C427.751 37.9198 412.606 26.6015 404.176 36.9885C398.475 44.3314 393.165 55.2725 382.578 56.0068C372.199 56.5861 363.246 47.5708 354.957 42.4378C346.162 36.9934 339.438 37.2991 329.968 40.5615C327.182 41.5214 318.119 43.3387 318.901 47.3212C319.917 52.4977 325.011 56.9726 328.111 61.0409C334.509 71.1682 361.791 97.0787 353.495 109.499C345.88 120.902 317.189 114.379 305.615 116.727C301.789 117.298 296.95 118.635 293.871 121.141C285.253 128.155 278.628 137.908 271.562 146.371C259.852 160.397 248.356 174.942 236.768 189.015C229.279 198.111 224.891 205.282 212.545 207.757C189.243 213.711 164.585 213.839 140.667 214.387C120.154 214.839 99.6399 215.161 79.1236 215.353C65.8487 215.525 52.5406 215.34 39.2963 216.204C36.2945 216.247 28.2923 218.499 29.7763 222.778C34.1201 235.267 41.4661 247.055 47.7997 258.652C50.8054 264.156 53.5054 269.969 56.3921 275.56C63.3718 289.079 71.4064 303.888 77.4245 317.8C87.6246 341.43 95.3068 366.068 100.344 391.31C105.584 416.848 108.726 442.77 109.738 468.824C110.061 475.588 110.194 482.362 110.135 489.134C110.14 493.818 110.038 498.588 110.411 503.237C110.642 506.128 111.001 508.783 113.685 510.411C117.703 512.843 124.538 511.455 129.116 511.071C135.117 510.555 141.12 510.079 147.127 509.644L171.27 507.858C176.8 507.466 183.091 507.007 188.657 506.075C196.842 504.706 191.751 487.531 192.153 481.208C192.663 473.173 191.505 467.525 201.313 464.174C206.635 461.506 230.967 463.327 233.209 457.601C236.519 449.143 228.324 430.605 242.472 426.03C248.81 423.979 284.036 420.201 286.987 425.5C287.332 429.066 282.244 432.381 280.028 435.127C275.46 440.783 270.549 446.325 266.22 452.175C257.96 463.412 250.919 475.496 245.218 488.226C244.072 490.743 242.872 493.299 241.777 495.841C233.071 516.031 229.02 539.518 230.913 561.363C230.98 562.143 231.054 562.92 231.134 563.696Z" fill="#174952" stroke="#174952" stroke-width="5"/>
<path d="M338.829 126.231C343.593 125.857 350.524 126.016 355.419 126.023C366.2 126.027 376.982 126.162 387.76 126.427C401.623 126.727 415.48 126.927 429.347 127.24C434.271 127.331 437.473 128.239 440.474 132.504C449.904 145.921 459.697 159.37 468.19 173.405C472.293 180.179 476.218 187.887 478.951 195.286C481.454 202.07 475.491 207.988 469.359 209.636C449.794 214.827 434.176 201.972 420.369 190.038C415.286 185.642 412.101 182.014 405.983 178.612C391.368 183.586 380.788 198.582 371.672 210.259C364.961 218.854 360.993 245.033 363.8 255.769C365.36 261.742 367.224 265.952 368.827 271.156C369.106 275.9 366.928 283.259 366.049 287.722C362.946 303.479 366.649 319.069 366.306 334.656C366.232 338.027 356.993 350.385 354.783 353.426C350.604 357.811 347.202 362.824 343.155 367.494C331.88 380.5 320.389 393.887 307.444 405.272C304.432 407.923 297.081 407.016 293.001 406.899C287.715 406.744 282.43 406.617 277.143 406.518L256.811 406.08C252.475 406.027 239.445 406.55 236.556 404.05C233.683 397.971 231.731 353.14 231.244 343.598C230.249 324.102 224.856 228.496 229.254 217.269C231.927 210.444 241.36 199.929 246.027 193.972C258.814 177.646 271.65 161.484 285.154 145.738C287.977 142.446 290.591 138.972 293.516 135.767C295.821 133.241 299.357 129.427 302.585 128.184C306.623 126.631 332.347 126.526 338.829 126.231ZM240.737 399.941C260.664 401.555 281.995 400.873 302.046 401.336C304.736 401.399 317.962 386.946 320.344 384.383C328.612 375.536 336.582 366.414 344.241 357.034C346.936 353.737 350.977 348.034 353.484 345.233C362.412 333.956 361.442 331.784 360.051 317.724C359.514 312.328 359.405 306.079 359.38 300.596C359.207 289.883 361.59 281.77 363.221 271.78C356.09 257.415 356.45 242.842 359.362 227.448C360.178 223.133 361.014 218.65 362.434 214.492C365.184 206.436 382.998 186.609 389.702 181.072C392.452 178.8 395.452 177.067 398.658 175.509C401.429 174.161 405.231 172.344 408.334 173.384C411.748 174.529 414.904 177.664 417.654 179.936C429.873 190.019 442.285 204.031 459.135 205.049C462.542 205.254 466.259 204.887 469.398 203.466C470.874 202.797 472.444 201.808 473.062 200.231C474.425 196.736 470.344 189.875 468.748 186.654C462.817 174.663 454.888 163.692 447.337 152.699C442.656 145.878 438.437 138.822 432.549 132.932C417.393 132.184 401.122 132.282 385.801 131.898C376.198 131.662 366.589 131.534 356.979 131.512C351.765 131.483 343.339 131.333 338.247 131.832C327.498 132.35 314.668 132.285 304.188 133.205C297.83 138.978 290.078 148.951 284.583 155.556C270.75 171.901 257.394 188.643 244.53 205.761C236.001 217.035 233.73 216.216 233.308 231.729C232.857 248.289 233.7 264.435 234.085 280.932C234.789 308.947 236.098 336.943 238.013 364.9C238.805 376.207 239.499 388.687 240.737 399.941Z" fill="#174952" stroke="#174952" stroke-width="5"/>
<path d="M432.436 459.705C451.676 458.551 451.242 457.764 449.727 477.501C460.692 478.469 475.078 479.782 484.829 485.007C486.718 486.02 484.617 511.18 482.587 513.097C479.823 513.789 470.461 509.235 466.366 508.285C459.972 506.795 456.315 506.005 449.671 505.405C449.688 513.937 449.996 525.326 449.346 533.671C469.666 537.272 492.271 546.878 495.264 570.012C499.285 601.089 477.394 617.787 448.742 621.381C449.039 623.965 449.646 638.408 448.199 639.943C446.776 640.586 445.636 640.466 444.058 640.498C440.88 640.445 432.835 641.475 430.593 639.181C428.997 637.539 429.884 624.883 429.876 622.059C417.277 621.558 399.495 619.556 387.958 614.381C387.947 614.063 387.937 613.742 387.94 613.424C387.972 610.01 389.391 588.101 391.096 586.746C391.979 586.043 393.306 586.025 394.376 586.244C398.824 587.145 403.138 589.354 407.597 590.452C415.049 592.288 422.438 592.969 429.965 594.198C429.707 584.183 430.004 572.872 430.032 562.75C421.771 560.607 410.478 557.681 403.576 552.788C395.093 546.772 388.424 539.641 386.765 529.128C385.119 518.721 385.737 506.739 392.229 498.069C402.767 483.993 414.806 480.894 431.038 478.059C431.003 473.039 430.798 467.91 430.971 462.9C431.034 461.043 431.232 460.778 432.436 459.705ZM395.544 591.826C394.831 597.908 393.885 604.704 393.419 610.741C397.387 611.715 401.299 612.827 405.277 613.816C415.169 616.276 425.001 615.892 434.946 616.735C435.408 622.253 435.158 629.483 435.084 635.107L439.532 634.948L443.341 634.962C443.249 631.442 442.783 619.951 443.998 617.321C446.299 615.549 451.602 615.606 454.648 614.931C472.028 611.076 486.898 601.802 489.33 583.162C493.002 555.023 474.076 544.728 449.858 539.341C448.072 538.946 445.847 538.391 444.058 537.812C444.114 531.86 443.683 503.982 444.87 500.942C449.611 497.175 472.921 504.522 478.527 506.562C478.852 501.048 479.978 494.217 480.557 488.54C471.859 486.606 464.413 484.001 455.185 483.358C452.361 483.164 446.702 483.153 444.82 481.783C444.192 480.061 444.46 467.228 444.711 464.926C442.37 464.919 438.384 465.022 436.178 464.782C436.256 468.008 437.018 480.862 435.525 482.617C432.101 484.181 427.409 484.156 423.698 484.996C410.693 487.94 398.09 495.446 393.246 508.539C390.486 516.01 390.694 526.703 394.153 533.929C399.039 544.132 408.102 550.154 418.509 553.801C421.09 554.705 434.445 557.55 435.137 559.167C435.892 560.939 435.44 596.666 434.784 597.873C434.293 598.78 433.308 599.13 432.341 599.243C424.694 600.125 402.139 595.748 395.544 591.826Z" fill="#174952" stroke="#174952" stroke-width="2"/>
<path d="M444.672 560.205C450.274 560.544 458.412 563.816 462.288 568.099C465.398 571.484 466.987 575.999 466.683 580.589C466.302 585.859 463.407 589.835 459.594 593.185C456.654 595.261 446.426 600.605 443.482 597.739C442.999 594.908 443.161 589.037 443.161 585.965L443.203 566.429C443.232 563.516 442.801 562.037 444.672 560.205ZM448.591 592.493C452.198 591.504 453.875 590.738 456.855 588.377C459.33 585.694 460.763 582.781 460.678 579.035C460.618 575.876 459.259 572.879 456.922 570.75C454.479 568.498 451.75 567.583 448.629 566.679C448.746 574.125 449.007 585.22 448.591 592.493Z" fill="#174952"/>
<path d="M432.778 500.339C434.974 500.197 435.761 499.806 437.255 501.458C438.024 505.627 438.056 531.624 436.93 535.405C434.24 537.159 427.179 533.957 424.468 532.718C423.769 532.411 423.084 532.076 422.417 531.709C418.996 529.813 416.483 526.625 415.438 522.855C414.234 518.452 414.753 513.125 417.182 509.207C420.581 503.717 426.833 501.782 432.778 500.339ZM425.492 526.812C427.772 528.14 429.188 528.884 431.592 529.965C431.603 527.416 431.938 507.964 431.296 506.608L430.515 506.506C426.738 508.133 422.661 510.135 420.973 514.198C419.918 516.744 419.981 519.617 421.143 522.113C422.255 524.517 423.437 525.22 425.492 526.812Z" fill="#174952"/>
<path d="M516.675 215.856C526.048 215.701 537.589 217.101 544.833 223.599C549.613 227.887 552.776 232.398 553.136 238.984C553.514 245.294 551.35 251.493 547.128 256.197C538.771 265.46 530.218 264.361 518.783 265.059L494.145 266.577L409.072 271.578C407.318 271.713 405.56 271.838 403.801 271.954C394.662 272.548 388.145 272.569 380.999 266.208C376.382 262.164 373.607 256.42 373.31 250.291C371.969 225.594 400.444 222.451 418.763 220.946C427.783 220.204 436.94 219.834 445.981 219.296C469.528 217.838 493.097 216.691 516.675 215.856ZM411.547 265.929L493.474 261.047C501.845 260.605 510.211 260.113 518.575 259.57C523.394 259.256 528.749 259.205 533.158 258.154C547.149 254.815 552.381 236.017 540.06 227.086C533.543 222.363 521.897 220.725 514.688 221.499C506.702 222.02 498.915 222.113 490.95 222.493L443.867 224.973C427.253 225.861 410.234 225.946 394.171 230.558C378.638 235.018 373.25 252.618 386.471 263.331C392.494 268.196 404.098 266.369 411.547 265.929Z" fill="#174952" stroke="#174952" stroke-width="4"/>
<path d="M199.859 226.788C207.306 226.038 214.138 227.903 215.141 236.271C216.864 250.639 217.268 264.979 217.774 279.42L219.702 330.667C220.755 362.736 222.461 394.91 221.63 427.015C221.414 435.364 217.514 436.621 210.058 437.426C203.086 437.68 194.577 437.701 193.775 428.671C192.117 410.017 191.563 391.257 190.978 372.557L188.97 309.639L187.726 269.99C187.352 259.538 186.911 249.136 187.428 238.681C187.849 230.179 191.643 227.307 199.859 226.788ZM211.194 432.098C212.736 431.763 214.435 431.608 215.413 430.217C219.362 424.6 212.901 310.543 212.328 296.895C211.584 279.172 211.427 261.333 209.779 243.668C209.522 240.922 209.572 237.139 208.706 234.546C208.397 233.619 207.815 233.184 206.941 232.82C204.684 231.879 201.204 232.28 198.796 232.45C194.502 233.064 193.404 233.893 193.097 238.295C192.198 251.197 193.375 264.394 193.662 277.303L195.596 347.38C196.082 364.875 196.757 382.364 197.62 399.846C198.067 409.307 198.266 419.414 199.809 428.794C199.981 429.835 200.232 430.732 201.176 431.297C203.497 432.688 208.418 432.187 211.194 432.098Z" fill="#174952" stroke="#174952" stroke-width="5"/>
<path d="M492.206 277.278C503.916 276.724 516.135 276.136 523.668 286.997C528.452 294.573 526.348 304.432 520.781 310.787C512.283 320.491 502.395 319.544 490.427 319.977L468.546 320.736L412.27 323.164C403.028 323.819 392.448 325.285 385.136 318.741C380.512 314.72 378.552 311.24 377.85 305.039C376.759 295.393 383.527 285.447 392.656 282.452C397.171 280.971 404.525 281.133 409.506 280.953L426.818 280.221L492.206 277.278ZM405.054 318.127C426.582 316.923 448.124 315.909 469.669 315.086L490.198 314.336C498.19 314.055 510.479 314.718 515.383 307.932C527.414 291.279 514.871 281.83 498.515 282.575L425.925 285.967C419.74 286.247 413.396 286.273 407.285 286.729C400.249 287.253 393.027 286.184 387.989 292.098C385.073 295.523 383.668 299.143 383.897 303.726C384.6 315.841 394.34 319.12 404.691 318.163L405.054 318.127Z" fill="#174952" stroke="#174952" stroke-width="3"/>
<path d="M470.509 332.005C479.275 331.896 488.044 332.863 494.724 338.983C501.989 345.764 501.149 359.887 494.568 366.855C488.644 373.129 480.196 372.995 472.25 373.422C467.523 373.676 462.746 373.891 458.005 374.11L404.835 376.394C395.823 376.712 390.178 377.28 382.775 371.095C374.5 364.335 373.931 352.202 381.048 344.347C388.402 336.231 397.002 335.506 407.374 334.912C414.092 334.527 420.796 334.271 427.518 333.975L470.509 332.005ZM411.366 370.594L458.182 368.621C466.45 368.25 475.131 368.193 483.165 366.855C489.241 365.846 494.695 358.061 494.145 352.142C492.69 336.582 476.67 337.202 465.825 337.646L423.285 339.612C413.753 340.085 403.367 340.058 394.128 342.253C383.209 344.847 377.469 359.742 386.979 367.431C393.32 372.702 403.579 371.074 411.366 370.594Z" fill="#174952" stroke="#174952" stroke-width="2"/>
<path d="M509.876 160.425C510.515 160.369 511.158 160.33 511.797 160.308C530.479 159.645 553.592 162.762 553.581 186.292C553.574 204.393 535.234 204.122 521.989 203.641C516.372 203.194 503.614 201.992 499.229 199.973C493.616 197.389 477.518 169.28 478.358 164.134C481.027 161.369 504.987 160.735 509.876 160.425ZM502.671 195.487C508.944 196.801 517.615 197.832 523.983 198.107C529.879 198.385 539.492 198.806 544.12 194.768C549.709 189.892 547.492 177.664 542.757 172.947C536.555 166.769 525.932 165.985 517.862 165.945C514.949 165.939 512.033 165.995 509.121 166.112C501.118 166.391 492.949 167.011 484.91 167.409C489.489 177.422 494.632 187.683 502.671 195.487Z" fill="#174952" stroke="#174952" stroke-width="5"/>
</svg>