<svg xmlns="http://www.w3.org/2000/svg" width="24" height="24" viewBox="0 0 24 24" fill="none">
<g id="git-merge">
<path id="Vector" d="M18.0469 10.5C17.5215 10.5002 17.0055 10.6384 16.5503 10.9008C16.0951 11.1631 15.7169 11.5404 15.4533 11.9948C13.4738 11.9381 11.46 11.3986 10.0059 10.5262C8.49656 9.62058 7.67578 8.46371 7.56141 7.08793C8.13085 6.75489 8.57465 6.24344 8.82411 5.63275C9.07357 5.02205 9.11479 4.34615 8.94137 3.70967C8.76796 3.07319 8.38959 2.51161 7.86483 2.11186C7.34006 1.7121 6.69817 1.49646 6.03848 1.4983C5.3788 1.50015 4.73812 1.71938 4.21561 2.12207C3.69309 2.52476 3.31787 3.08844 3.14802 3.72589C2.97817 4.36333 3.02317 5.03898 3.27605 5.64828C3.52892 6.25757 3.97557 6.76652 4.54688 7.09636V16.9036C3.97495 17.2338 3.52796 17.7434 3.27524 18.3536C3.02251 18.9637 2.97817 19.6402 3.1491 20.2781C3.32002 20.916 3.69666 21.4797 4.22059 21.8817C4.74452 22.2837 5.38647 22.5016 6.04688 22.5016C6.70728 22.5016 7.34923 22.2837 7.87316 21.8817C8.39709 21.4797 8.77373 20.916 8.94465 20.2781C9.11558 19.6402 9.07124 18.9637 8.81851 18.3536C8.56579 17.7434 8.1188 17.2338 7.54688 16.9036V12.4757C9.645 14.0695 12.5756 14.9311 15.4481 14.9957C15.7108 15.4525 16.0892 15.832 16.5451 16.096C17.0011 16.3601 17.5185 16.4994 18.0454 16.5C18.5723 16.5005 19.0901 16.3623 19.5466 16.0992C20.0031 15.8361 20.3822 15.4575 20.6459 15.0013C20.9096 14.5451 21.0485 14.0276 21.0486 13.5007C21.0488 12.9738 20.9101 12.4562 20.6467 11.9999C20.3832 11.5436 20.0042 11.1647 19.5478 10.9014C19.0914 10.6381 18.5738 10.4996 18.0469 10.5ZM6.04688 2.99996C6.34355 2.99996 6.63356 3.08793 6.88023 3.25275C7.1269 3.41758 7.31916 3.65184 7.4327 3.92593C7.54623 4.20002 7.57593 4.50162 7.51805 4.79259C7.46018 5.08356 7.31731 5.35084 7.10754 5.56062C6.89776 5.7704 6.63048 5.91326 6.33951 5.97114C6.04854 6.02901 5.74694 5.99931 5.47285 5.88578C5.19876 5.77225 4.96449 5.57999 4.79967 5.33331C4.63485 5.08664 4.54688 4.79663 4.54688 4.49996C4.54688 4.10213 4.70491 3.7206 4.98622 3.4393C5.26752 3.15799 5.64905 2.99996 6.04688 2.99996ZM6.04688 21C5.7502 21 5.46019 20.912 5.21352 20.7472C4.96685 20.5823 4.77459 20.3481 4.66106 20.074C4.54753 19.7999 4.51782 19.4983 4.5757 19.2073C4.63358 18.9164 4.77644 18.6491 4.98622 18.4393C5.19599 18.2295 5.46327 18.0867 5.75424 18.0288C6.04521 17.9709 6.34681 18.0006 6.6209 18.1141C6.89499 18.2277 7.12926 18.4199 7.29408 18.6666C7.4589 18.9133 7.54688 19.2033 7.54688 19.5C7.54688 19.8978 7.38884 20.2793 7.10754 20.5606C6.82623 20.8419 6.4447 21 6.04688 21ZM18.0469 15C17.7502 15 17.4602 14.912 17.2135 14.7472C16.9668 14.5823 16.7746 14.3481 16.6611 14.074C16.5475 13.7999 16.5178 13.4983 16.5757 13.2073C16.6336 12.9164 16.7764 12.6491 16.9862 12.4393C17.196 12.2295 17.4633 12.0867 17.7542 12.0288C18.0452 11.9709 18.3468 12.0006 18.6209 12.1141C18.895 12.2277 19.1293 12.4199 19.2941 12.6666C19.4589 12.9133 19.5469 13.2033 19.5469 13.5C19.5469 13.8978 19.3888 14.2793 19.1075 14.5606C18.8262 14.8419 18.4447 15 18.0469 15Z" fill="white"/>
</g>
</svg>