<svg xmlns="http://www.w3.org/2000/svg" width="24" height="24" viewBox="0 0 24 24" fill="none">
<g id="graph">
<g id="vuesax/bold/graph">
<g id="graph_2">
<path id="Vector" d="M13.7694 2.88037C14.3625 2.43754 15.2983 2.3403 16.91 2.80908C18.9167 3.40138 20.5984 5.08455 21.1903 7.09131V7.09229C21.6682 8.7016 21.5604 9.63045 21.1063 10.2114L21.0995 10.2202C20.8305 10.5801 20.4415 10.7974 19.9872 10.9243C19.5291 11.0522 19.035 11.0796 18.6005 11.0796H15.7303C14.7251 11.0796 14.0505 10.7969 13.618 10.314C13.1764 9.82062 12.91 9.03338 12.91 7.86963V5.38037C12.91 4.45885 13.0376 3.42728 13.7694 2.88037Z" fill="#164951" stroke="#164951"/>
<path id="Vector_2" d="M18.91 13.3601C18.65 13.0601 18.27 12.8902 17.88 12.8902H14.3C12.54 12.8902 11.11 11.4601 11.11 9.70015V6.12015C11.11 5.73015 10.94 5.35015 10.64 5.09015C10.35 4.83015 9.95002 4.71015 9.57002 4.76015C7.22002 5.06015 5.06002 6.35015 3.65002 8.29015C2.23002 10.2401 1.71002 12.6201 2.16002 15.0001C2.81002 18.4401 5.56002 21.1902 9.01002 21.8402C9.56002 21.9502 10.11 22.0002 10.66 22.0002C12.47 22.0002 14.22 21.4401 15.71 20.3502C17.65 18.9402 18.94 16.7801 19.24 14.4302C19.29 14.0401 19.17 13.6501 18.91 13.3601Z" fill="#164951"/>
</g>
</g>
</g>
</svg>