<svg xmlns="http://www.w3.org/2000/svg" width="695" height="429" viewBox="0 0 695 429" fill="none">
<g id="health">
<path id="Vector" d="M351.318 23.8933C369.066 24.5137 380.784 25.7255 397.84 32.3367C430.32 44.9262 455.35 73.4553 465.782 106.564C475.305 136.79 471.412 169.916 458.825 198.721C454.265 209.161 448.685 218.308 443.483 228.359C440.473 229.757 436.377 231.071 433.998 227.609C432.793 225.982 433.017 221.872 433.859 220.251C442.903 203.523 451.784 186.491 456.341 167.848C461.931 144.973 459.535 124.526 451.081 102.965C421.54 27.6078 321.553 13.2519 272.877 78.4285C270.368 81.7879 267.843 87.2057 264.3 89.3949C264.099 89.5191 263.892 89.6321 263.679 89.7346C263.356 89.8907 263.02 90.0166 262.674 90.111C260.141 90.8013 256.797 88.7955 255.502 86.7621C204.778 7.13163 88.7661 26.6939 66.0836 118.632C56.693 156.694 70.4522 188.117 89.1055 220.979C93.6773 229.033 99.5332 236.953 104.41 244.955C112.468 244.311 126.884 244.787 135.321 244.75C143.396 244.715 158.395 244.34 165.941 245.064C168.116 238.134 171.57 230.914 174.132 224.077L181.56 204.559C183.131 200.446 185.189 191.692 189.705 190.343C193.427 189.153 196.257 191.946 197.525 195.26C202.396 207.99 207.377 220.754 212.206 233.498C214.465 239.46 217.993 246.028 219.443 252.175C220.482 243.251 222.025 237.038 223.554 228.475L232.751 177.09C234.155 169.159 239.838 127.852 242.592 123.613C243.161 122.736 244.622 122.26 245.615 122.049C247.439 121.663 249.525 121.884 251.071 122.992C252.252 123.839 252.903 124.974 253.182 126.383C253.957 130.296 253.619 134.616 254.075 138.625C255.778 152.409 257.29 166.216 258.609 180.041C261.899 213.706 265.619 247.328 269.768 280.898C270.916 290.004 270.936 298.225 272.441 307.665C274.256 304.301 275.534 298.754 277.103 294.739C287.134 269.089 296.129 242.978 306.173 217.328C308.681 210.923 313.692 193.135 318.242 189.51C322.957 188.182 324.704 189.421 326.824 193.76C328.35 196.884 329.462 200.244 330.824 203.461L342.674 231.794C344.493 236.075 346.193 240.723 348.372 244.79L428.65 244.867L452.395 244.958C457.661 244.978 464.774 245.477 469.858 244.372C488.275 240.368 487.392 223.842 487.62 209.838C487.776 202.582 487.864 195.324 487.881 188.066C487.932 177.188 488.142 163.652 493.063 153.556C500.984 137.32 514.615 123.343 524.912 108.556C529.35 102.179 534.464 96.4506 537.427 89.106C543.78 75.505 538.459 51.8543 550.726 42.0026C560.096 34.4761 576.908 38.9734 583.287 48.686C592.426 62.5963 593.054 82.5919 590.889 98.709C588.748 111.008 583.868 123.862 582.096 136.162L632.762 136.199C641.809 136.202 658.903 135.291 666.881 137.837C684.884 143.579 687.375 174.911 669.484 182.596C677.398 196.309 676.658 211.537 661.96 219.984C671.92 233.489 668.167 250.917 653.052 258.484C656.622 265.331 658.611 270.754 656.904 278.757C655.611 285.09 651.83 290.64 646.414 294.165C638.748 299.106 628.826 297.807 619.928 297.795L588.055 297.741C578.197 297.706 568.335 297.727 558.477 297.803C550.163 297.876 540.206 298.504 531.906 296.796C521.358 294.625 506.858 286.757 500.393 277.84C498.723 275.538 499.473 273.263 500.074 270.703C508.609 265.072 511.877 272.355 518.209 277.371C529.265 286.13 544.296 285.265 557.612 285.282L590.597 285.268L617.953 285.289C623.518 285.291 628.798 285.4 634.343 284.937C641.809 284.314 646.679 278.222 645.362 270.832C642.685 255.798 625.276 262.646 615.112 259.923C614.321 259.711 612.38 258.248 611.678 257.734C609.537 247.242 618.102 246.949 627.685 247.836C640.092 248.984 662.14 248.975 652.937 228.777C649.007 220.154 630.634 224.321 623.253 223.169C620.623 222.758 619.914 221.985 618.309 219.545C618.194 217.774 618.265 216.167 618.323 214.4C620.24 209.438 626.267 211.195 630.363 210.907C637.873 210.378 649.374 212.706 656.1 209.424C664.994 204.112 664.02 190.663 654.169 186.82C645.943 183.612 629.009 189.999 624.512 182.233L624.302 181.865C624.329 180.825 624.285 177.587 624.733 176.851C627.193 172.886 633 173.767 636.96 173.771C640.839 173.775 644.701 173.952 648.562 173.923C652.435 173.894 656.734 174.239 660.453 173.121C663.911 172.046 666.796 169.629 668.459 166.411C669.928 163.606 670.142 160.745 669.175 157.737C667.882 153.672 664.767 150.444 660.752 149.008C655.753 147.211 612.146 148.05 603.937 148.174L586.511 148.284C581.635 148.325 575.011 149.035 570.494 147.109C567.945 146.054 567.935 143.396 568.373 140.989C570.287 130.461 573.714 120.331 575.689 109.76C576.87 103.447 579.171 97.5686 579.683 90.9843C580.288 82.6388 579.728 73.2429 577.42 65.1547C574.444 54.7103 569.119 48.6351 557.9 52.098C553.285 58.3375 554.178 65.3749 553.058 72.6279C551.941 79.8276 550.696 89.4532 547.781 96.0746C545.544 101.158 541.526 106.82 538.272 111.304C532.119 119.787 525.638 127.905 519.21 136.183C514.422 142.479 509.132 148.825 505.517 155.902C500.156 166.402 499.368 175.559 499.453 186.98L499.606 212.094C499.609 217.663 499.942 224.034 498.852 229.547C496.029 243.831 484.613 255.467 469.902 257.075C461.31 258.016 451.679 257.595 442.998 257.605L394.382 257.609L359.774 257.587C355.655 257.581 345.392 257.818 341.914 257.103C336.125 252.672 334.981 245.321 332.107 238.979C328.071 230.075 324.583 221.114 321.095 211.987C319.638 219.011 315.238 227.517 312.671 234.432L287.143 302.93L279.967 322.986C278.395 327.407 275.788 339.714 269.973 340.278C264.918 340.766 263.044 337.276 262.534 332.754C262.041 328.379 261.733 323.828 261.265 319.367L257.542 282.169L245.644 173.394C243.973 183.479 241.927 193.475 240.259 203.578C239.449 208.486 238.091 213.621 237.26 218.607L229.911 260.537C228.983 265.664 228.451 271.498 227.274 276.446C220.439 281.696 217.403 279.553 214.331 272.411C211.922 266.812 209.925 261.372 207.732 255.73L191.554 214.719L191.21 214.709C189.093 217.396 184.693 231.106 183.058 235.012C182.015 237.505 180.449 241.439 179.381 244.115C178.01 247.551 177.159 252.432 174.742 255.477C174.173 256.194 172.623 257.124 171.698 257.163C166.425 257.383 160.805 257.119 155.541 257.171C141.971 257.304 127.966 256.754 114.461 257.477C120.979 266.369 128.182 274.28 135.362 282.67C168.718 321.649 206.998 356.586 246.297 389.48C263.969 404.271 257.346 404.692 274.573 390.621C303.403 367.151 330.88 342.066 356.869 315.486C364.437 307.753 371.832 299.851 379.04 291.784C384.35 285.771 390.052 278.883 395.756 273.245C396.523 272.504 398.43 271.881 399.455 272.274C411.58 276.935 400.178 286.075 396.652 290.167C364.821 326.683 330.182 360.652 293.051 391.761C291.292 393.251 289.201 394.449 287.553 395.844L274.11 407.346C271.02 409.997 263.534 417.406 259.879 415.679C253.177 412.515 244.076 404.19 238.29 399.391C197.685 366.035 159.807 329.488 125.018 290.101C119.412 283.767 113.959 277.3 108.664 270.705C105.143 266.35 101.527 262.19 98.7361 257.342C92.9056 256.902 85.4092 257.103 79.4743 257.111L50.0963 257.166C44.9207 257.197 39.7934 257.552 34.624 257.262C30.7157 257.044 28.8259 254.631 28.3659 250.946C27.9605 247.699 31.1653 244.942 34.1859 244.786C38.8066 244.547 43.5779 244.697 48.223 244.71L70.6653 244.805C76.9148 244.888 83.1821 245.15 89.4231 244.858C72.3827 221.369 55.2185 186.061 51.6284 157.198C50.6749 149.532 50.8228 140.812 51.3851 133.098C53.6466 102.067 69.7154 71.197 93.2928 51.0445C114.61 32.8238 146.351 22.1146 174.325 24.3528C198.985 26.3257 222.885 35.1596 241.592 51.6568C248.832 58.0415 255.177 65.4021 261.425 72.729C262.05 71.6983 267.156 65.378 268.168 64.2441C290.982 38.6758 317.427 26.3472 351.318 23.8933Z" fill="#2D5B62"/>
</g>
</svg>