<svg xmlns="http://www.w3.org/2000/svg" width="138" height="143" viewBox="0 0 138 143" fill="none">
<g clip-path="url(#clip0_43_61)">
<path d="M100.765 59.3092L100.875 59.303C103.284 59.1717 106.015 59.2276 108.45 59.2344C114.032 59.2498 118.799 58.7419 123.195 62.7042C126.131 65.334 127.889 69.0327 128.073 72.9702C128.283 77.5358 127.908 82.9543 128.08 87.6483C127.961 90.9252 128.304 94.4162 127.996 97.669C127.667 101.139 123.223 102.602 120.82 100.228C120.18 99.5876 119.748 98.7678 119.583 97.8769C119.262 96.201 119.403 92.5144 119.401 90.6466C119.395 85.371 119.399 80.0729 119.441 74.7968C119.448 73.9 119.437 73.1885 118.807 72.5786L118.514 72.5957C117.567 73.5062 117.887 78.5656 117.894 79.9802L117.908 89.6236L117.896 122.021C117.896 124.925 118.283 133.23 117.538 135.469C117.089 136.819 116.153 138.046 114.854 138.67C113.676 139.236 112.359 139.216 111.143 138.782C109.496 138.194 108.473 136.972 107.974 135.314C107.221 132.815 107.681 128.826 107.682 126.136C107.683 122.773 107.883 96.1778 107.537 95.5174C107.349 95.1575 107.183 95.0482 106.81 94.9289C106.219 95.2487 106.171 95.9493 106.163 96.5717C106.131 98.8489 106.148 101.154 106.15 103.429L106.174 124.283C106.179 127.745 106.368 131.938 105.911 135.363C105.652 137.311 103.106 139.091 101.052 139.09C99.7526 139.094 98.506 138.576 97.5923 137.653C95.596 135.598 95.9257 132.658 95.9533 129.993L95.964 93.1678L95.9662 80.307C95.9665 79.0924 96.188 73.2112 95.5982 72.5914C93.9077 73.1627 87.8838 90.0205 84.9895 91.4259C84.6707 91.5809 84.0555 91.6912 83.6945 91.7672C82.0098 91.2334 81.7034 90.5679 80.4727 90.1539L80.2198 90.2945C79.6349 91.3864 80.0227 95.5481 79.8184 97.315C83.49 97.7876 86.0149 99.0963 86.0794 103.213C86.1987 110.832 86.1129 118.469 86.093 126.09C86.0847 129.262 84.6429 130.726 81.9031 132.008C81.4832 132.949 81.4715 133.734 80.5272 134.245C79.4542 134.168 79.5865 132.751 79.5837 131.927C78.6516 132.022 72.2393 131.776 71.8719 132.053C71.4862 132.344 71.4985 133.971 70.6897 134.47C70.5842 134.535 70.3936 134.447 70.2739 134.418C69.5288 133.592 69.638 133.145 69.6593 132.055C67.0443 131.324 64.942 129.323 64.8701 126.496C64.7209 120.643 64.8321 114.78 64.803 108.922C64.9384 106.672 64.5363 104.059 65.0339 101.854C65.7772 98.5603 68.5229 97.6222 71.3702 97.4597C71.2041 95.2507 71.2645 92.3545 71.3455 90.1257C69.9534 90.1283 66.1341 90.6725 65.79 88.8993C66.3751 87.5971 70.8889 87.9248 72.135 87.9254C74.8613 87.9145 77.5875 87.9322 80.3135 87.9788C80.887 85.3628 83.5204 80.4443 84.6246 77.7697C86.091 74.2172 87.6412 70.1148 89.343 66.7002C89.7997 65.7721 90.3584 64.8978 91.0089 64.0935C93.7086 60.7849 96.6701 59.7306 100.765 59.3092ZM109.596 101.76L109.59 123.262C109.59 126.85 109.483 130.46 109.739 134.021C109.951 136.977 113.237 137.907 115.066 135.933C116.315 134.586 115.959 130.156 115.945 128.337C115.91 125.374 115.899 122.411 115.911 119.447L115.908 83.7657C115.909 81.3166 115.555 73.7793 116.183 71.9828C116.534 70.979 117.467 70.5369 118.486 70.4815C119.213 70.442 119.958 70.6449 120.505 71.1391C121.198 71.7644 121.303 72.6965 121.327 73.5797C121.479 79.1416 121.302 84.7568 121.289 90.3233C121.285 92.403 121.036 94.8328 121.358 96.8751C121.464 97.5447 121.715 98.1798 122.22 98.6497C122.687 99.0848 123.309 99.3252 123.949 99.2827C124.527 99.2445 125.168 98.9757 125.54 98.5228C125.902 98.0817 126.096 97.5704 126.159 97.0067C126.513 93.8145 126.228 89.5577 126.23 86.2534C126.234 81.9853 126.555 76.3619 126.076 72.2286C125.727 69.2206 124.036 65.8849 121.63 64.0035C120.332 62.9883 118.704 62.0327 117.098 61.6176C114.928 61.0566 102.686 61.0122 100.138 61.3166C97.1465 61.6445 94.401 63.1265 92.4852 65.4474C91.3555 66.8245 82.486 86.6293 82.4113 88.4278C82.7264 89.2107 83.4164 89.7686 84.2933 89.5446C86.1197 88.1598 91.7361 73.636 93.9561 71.0822C94.3834 70.5906 95.378 70.513 95.9919 70.6232C98.7602 70.9088 97.9518 76.7501 97.9535 78.821L97.9663 89.5184L97.9577 122.292C97.9566 124.896 97.9115 127.527 97.9453 130.127C97.9756 132.462 97.4124 136.438 100.533 136.943C101.405 137.077 102.293 136.847 102.992 136.308C103.778 135.702 104.103 134.809 104.154 133.855C104.33 130.519 104.258 126.974 104.258 123.63L104.251 103.816C104.249 100.992 104.125 98.0811 104.306 95.2977C104.465 92.856 107.976 91.85 109.103 94.0703C110.001 95.8395 109.579 99.7287 109.596 101.76ZM81.4158 129.816C82.6042 129.372 83.4612 128.824 83.9927 127.629C84.3082 126.919 84.3823 126.16 84.436 125.394C84.6523 122.305 84.6985 103.584 84.0382 101.983C83.6688 101.087 82.8574 100.168 81.9521 99.795C80.1473 99.0504 72.5042 99.29 70.2526 99.4457C68.4461 99.8535 66.7616 101.38 66.7448 103.323C66.6769 111.169 66.4533 119.135 66.8588 126.963C66.8997 127.742 68.1028 129.164 68.6514 129.384C70.7744 130.237 79.2791 130.025 81.4158 129.816ZM73.0711 97.5356C74.5084 97.5339 76.6121 97.5909 77.9912 97.4457C77.8684 95.3019 77.8977 92.2726 78.0438 90.1394C76.3951 90.1302 74.6891 90.1436 73.0458 90.1101C73.1737 91.8418 73.2291 95.8174 73.0711 97.5356Z" fill="#164951"/>
<path d="M79.522 104.254C79.9853 104.226 80.1469 104.194 80.5956 104.363C81.3607 105.235 80.8886 122.197 80.9167 124.599C80.9216 125.034 80.6832 125.299 80.4323 125.622C79.9654 125.503 79.1611 125.361 79.1675 124.762C79.2006 121.755 78.4644 105.939 79.522 104.254Z" fill="#164951"/>
<path d="M70.3799 104.247C70.7264 104.244 71.0236 104.27 71.3671 104.296C71.5402 104.424 71.7891 104.574 71.7863 104.818C71.7509 107.814 72.4241 124.134 71.6229 125.574C70.8287 125.47 70.5627 125.542 70.1254 124.85C69.8221 121.771 70.1348 117.774 70.0418 114.581C69.9995 113.128 69.882 105.172 70.3799 104.247Z" fill="#164951"/>
<path d="M37.2573 39.8366C37.6386 39.7796 37.9589 39.7211 38.3386 39.8346C38.7643 39.9619 49.5683 55.8881 50.4452 57.4425C51.1858 56.6443 52.8326 54.2957 53.5418 53.3414L59.8786 44.7876C60.622 43.7846 62.2752 41.409 63.1806 40.7137C63.5731 40.6381 63.8889 40.6906 64.2153 40.9075C67.1212 42.8389 68.5095 45.7796 68.5871 49.209C68.6561 52.2542 68.638 55.2305 68.637 58.2377L68.6205 73.0895C68.6158 74.317 68.5026 78.1056 68.7886 79.1344C69.216 79.3753 69.2966 79.3671 69.7917 79.3713C70.8431 78.6592 69.6908 75.2272 71.2012 75.2724C73.6491 75.3455 81.4859 74.7439 83.3665 75.5873C83.7786 76.4441 81.7724 80.6391 81.2433 81.0226C80.3654 81.659 74.5488 81.3952 73.3666 81.3906L62.3597 81.3816L28.0546 81.4131C26.1976 81.4054 23.3723 81.5101 21.6252 81.3068C21.394 98.376 21.7384 115.633 21.5851 132.731C19.8162 132.813 17.5156 132.922 15.7898 132.656C15.6465 130.341 15.7539 126.851 15.7543 124.409L15.7582 108.779L15.758 87.2795C15.7546 83.3753 15.6571 79.2173 15.7695 75.3463C18.2393 75.0619 26.9257 75.131 29.3991 75.3611C29.6579 76.6573 29.3659 78.6313 30.0668 79.3614C30.4122 79.4512 31.0538 79.4105 31.1002 78.9803C31.2843 77.2756 31.1808 75.4921 31.1774 73.7698L31.1595 59.7117C31.1459 52.5028 29.4014 43.4792 37.2573 39.8366ZM47.8081 57.2297C47.9618 61.4818 47.8316 66.2017 47.853 70.4907C47.8644 72.8012 47.9819 77.2009 47.7992 79.3657C51.5179 79.2588 55.6598 79.2843 59.3987 79.3279C59.2577 77.8567 59.3236 75.4921 59.3244 73.9505L59.3329 64.5733C59.3302 62.9211 58.9286 54.4418 59.7775 53.5491C59.9571 53.3601 60.1471 53.2837 60.3941 53.2217C60.7583 53.4037 60.8743 53.5559 61.0104 53.9484C61.516 55.4076 61.3356 76.3738 61.2282 79.3309C63.0939 79.3116 64.8167 79.3039 66.6825 79.3725L66.6589 58.1829C66.6618 54.8179 66.8436 50.9635 66.4416 47.6256C66.2873 46.3442 64.8291 43.7597 63.7306 43.0233C60.6985 46.6843 57.7294 51.3221 54.7452 55.0968C53.8816 56.1891 51.8174 59.2828 50.855 59.9617C49.5285 59.9911 48.6996 58.1115 47.8081 57.2297ZM32.9844 79.3486C34.8598 79.2991 36.7362 79.2995 38.6117 79.3501C38.2878 71.1312 38.7134 62.5768 38.6157 54.3312C38.6066 53.558 38.8038 53.1745 39.5782 53.0998C40.1181 53.3354 40.3827 53.6727 40.3554 54.275C40.5387 59.1277 40.4247 64.4494 40.4386 69.3441C40.4465 72.0672 40.5822 76.8476 40.388 79.3577C42.2666 79.3035 44.146 79.2958 46.0248 79.3346C45.8314 77.568 45.937 74.4873 45.9396 72.5799L45.9479 60.5816C45.9479 59.4437 46.0319 54.8675 45.6285 54.1897C44.5014 52.2948 38.5752 42.7647 37.3784 42.0993C32.0169 45.7995 33.0174 50.3615 33.0219 56.139L33.0351 71.4444C33.037 73.6083 33.1584 77.3282 32.9844 79.3486ZM72.1843 77.1343C72.2071 77.8584 72.2481 78.6408 72.2216 79.3599C73.603 79.3032 79.2693 79.4916 79.9852 79.1144L80.1455 78.7951C80.4268 78.2826 80.6928 77.765 81.0455 77.2989C78.1756 77.1756 74.9204 77.3028 72.1843 77.1343ZM17.5807 77.2256C17.7256 88.1923 17.5983 99.4245 17.6006 110.407L17.6042 123.343C17.6044 125.708 17.6721 128.509 17.5448 130.845L19.7838 130.839L19.7702 127.263C19.7699 122.943 19.5068 80.4831 20.0063 79.7115C21.1842 79.0395 25.9335 79.3268 27.5292 79.3281C27.5289 78.6058 27.5164 77.995 27.6088 77.2732C25.752 77.2003 24.0024 77.2104 22.1458 77.2238C20.7026 77.2332 19.0041 77.2867 17.5807 77.2256Z" fill="#164951"/>
<path d="M50.0101 67.3353C50.4975 67.1657 51.0383 67.2715 51.4259 67.6124C51.8133 67.9532 51.9875 68.4761 51.8815 68.9813C51.7757 69.4863 51.406 69.8952 50.9143 70.0517C50.1679 70.289 49.3696 69.8825 49.1222 69.1395C48.8749 68.3965 49.2704 67.5926 50.0101 67.3353Z" fill="#164951"/>
<path d="M49.8464 62.3684C50.5041 62.0297 51.3119 62.2761 51.6686 62.9241C52.0254 63.572 51.8016 64.3864 51.1639 64.7611C50.7351 65.0129 50.2034 65.0119 49.7757 64.7587C49.3478 64.5054 49.0914 64.0396 49.1061 63.5426C49.1209 63.0457 49.4043 62.596 49.8464 62.3684Z" fill="#164951"/>
<path d="M107.402 35.8691C113.184 35.5 118.167 39.8957 118.523 45.6786C118.878 51.4617 114.471 56.4345 108.687 56.7764C102.922 57.1173 97.9694 52.7277 97.6152 46.9638C97.2609 41.1999 101.639 36.2367 107.402 35.8691ZM109.148 54.6792C113.811 54.0838 117.092 49.7999 116.453 45.1435C115.813 40.4872 111.499 37.2463 106.849 37.9292C102.26 38.6033 99.0711 42.8485 99.702 47.4433C100.333 52.0383 104.548 55.2669 109.148 54.6792Z" fill="#164951"/>
<path d="M40.9005 39.2508C42.6996 38.9967 60.1756 38.9684 60.9067 39.4043C61.0769 39.5057 61.1071 39.6222 61.1469 39.816C61.4206 41.1493 56.4062 47.0192 55.4153 48.4214C54.5469 49.6476 51.8934 53.7414 50.6597 54.2042C50.5572 54.2426 50.5026 54.1999 50.4049 54.152C48.9829 53.4569 41.5225 42.2871 40.8749 40.467C40.7166 40.0221 40.6932 39.6907 40.9005 39.2508ZM50.5608 51.5297C51.7428 50.0244 52.9393 48.2474 54.0872 46.8387C55.2824 45.2384 57.4376 42.5369 58.4355 40.9849C54.4571 41.1854 47.3886 41.1537 43.3355 41.0348C45.2724 44.1351 48.4054 48.4876 50.5608 51.5297Z" fill="#164951"/>
<path d="M41.2451 16.9774C46.3012 16.7248 53.3907 16.9408 58.61 16.9325C58.7212 18.6793 58.9744 24.6446 58.5439 26.1452C56.3728 26.4936 44.7066 26.2134 41.4617 26.1139C41.3788 26.1115 41.2926 25.957 41.254 25.8396C40.8521 24.6186 40.8533 17.8223 41.2451 16.9774ZM42.8286 24.3841C44.9524 24.3461 55.7535 24.6177 56.871 24.2667C56.7783 22.5097 56.8201 20.67 56.8315 18.9052C53.1897 19.0672 46.5484 19.0786 42.87 18.9365C42.9044 20.6128 42.9891 22.7432 42.8286 24.3841Z" fill="#164951"/>
<path d="M42.1314 27.8279C44.2179 27.7505 56.9721 27.5735 58.3176 28.0808C59.495 29.858 56.5995 33.5203 55.4051 34.7599C55.2886 34.8474 55.171 34.9333 55.0522 35.0174C50.9803 37.898 45.5294 37.1822 42.7336 32.9132C41.9351 31.694 41.0056 29.8884 41.2949 28.4164C41.6547 27.904 41.4944 28.0605 42.1314 27.8279ZM54.1966 33.0168C55.4936 31.8518 55.658 31.2948 56.3597 29.7594L47.8502 29.7668C46.9115 29.7668 44.2492 29.814 43.4218 29.6846C43.3071 30.1987 43.7239 31.1074 44.0247 31.5115C46.5507 34.904 50.2599 35.7231 53.6555 33.4206C53.8413 33.2936 54.0218 33.1587 54.1966 33.0168Z" fill="#164951"/>
</g>
<defs>
<clipPath id="clip0_43_61">
<rect width="138" height="143" fill="white"/>
</clipPath>
</defs>
</svg>