<svg xmlns="http://www.w3.org/2000/svg" width="545" height="534" viewBox="0 0 545 534" fill="none">
<g id="investment">
<path id="Vector" d="M428.722 267.997C436.649 267.081 445.229 269.468 451.581 274.17C453.686 275.729 455.059 277.779 457.422 279.302C460.317 278.304 462.877 276.364 465.618 275.144C490.292 264.154 517.67 282.576 510.663 309.777C507.638 321.52 497.845 327.223 489.058 334.279L467.47 351.837L438.938 375.213C433.945 379.234 429.866 382.751 424.554 386.428C419.118 390.191 414.051 393.194 408.518 396.654L383.333 412.318L351.85 431.911C348.619 433.945 345.237 436.062 342.102 438.193C327.069 448.406 309.056 452.539 290.971 449.521C286.788 448.824 282.668 447.617 278.511 446.695L257.891 442.134L203.35 429.918C195.791 428.242 184.254 427.278 176.868 430.595C172.352 432.621 166.579 437.527 162.456 440.086C169.982 448.39 172.127 459.446 163.33 468.108C160.668 470.729 157.376 472.542 154.461 474.785C145.297 481.838 135.743 488.355 126.546 495.361C123.665 497.55 121.286 496.683 118.412 495.134C118.213 494.784 118.022 494.429 117.839 494.069C116.437 491.275 117.045 489.415 117.961 486.676C120.619 484.966 123.678 482.527 126.277 480.597L138.561 471.591C143.275 468.1 148.228 464.765 152.849 461.157C160.221 455.399 156.617 453.242 153.038 447.171C149.775 443.095 146.124 437.629 143.122 433.36L129.369 413.917L90.4386 359.391C86.6355 354.116 82.9536 348.476 79.1362 343.183C77.1478 340.426 74.6554 336.48 72.3671 334.072L69.6045 333.224C65.1072 334.336 58.077 340.556 53.9781 343.533C47.6284 348.142 41.2499 352.92 34.9638 357.618C30.5958 360.885 28.8884 362.872 23.5916 359.934C22.6077 357.529 21.6998 355.106 22.8049 352.555C23.0809 351.918 23.4442 351.377 23.9649 350.91C27.577 347.664 60.3856 323.502 62.2878 322.855C63.7447 322.358 65.2251 321.854 66.7473 321.588C72.0845 320.656 78.5292 322.445 81.9567 326.701C83.4797 328.594 84.917 331.406 86.907 332.785C86.7971 332.832 94.3989 326.192 94.9627 325.701C98.5859 322.554 102.181 319.374 105.747 316.164C115.161 307.819 125.722 297.572 136.385 291.018C161.994 275.28 194.291 272.468 223.256 279.495C237.881 282.777 249.971 292.005 263.053 297.857C276.705 303.962 301.344 304.487 316.6 304.821C318.995 302.889 321.885 301.369 324.488 299.664L342.059 288.276C347.437 284.832 353.433 281.038 358.71 277.489C371.667 268.776 387.503 267.603 400.226 277.476C401.275 278.291 402.446 278.863 403.585 279.855C407.97 277.834 409.146 276.607 413.181 273.912C418.33 270.475 422.697 269.031 428.722 267.997ZM244.06 362.498L244.297 362.24C246.422 359.937 247.727 359.404 250.925 359.375C258.978 359.3 267.095 359.407 275.15 359.396L327.87 359.381L344.348 359.404C349.228 359.409 353.124 359.785 357.832 358.315C373.41 353.443 377.058 333.741 365.094 323.178C362.648 321.037 359.732 319.478 356.573 318.622C352.757 317.624 347.613 317.794 343.587 317.606C335.795 317.24 327.708 317.434 319.959 317.011L296.581 315.809C279.714 314.89 267.782 313.767 252.566 306.062C247.35 303.422 242.677 300.651 237.585 297.753C206.527 282.696 166.333 284.276 137.927 304.529C126.228 313.068 115.914 323.823 104.746 333.096C100.336 336.757 98.708 339.188 93.4387 342.708L93.7607 343.089C96.3093 346.142 99.2562 350.651 101.596 353.994L111.22 367.533L143.407 412.791C147.216 418.058 150.923 423.419 154.656 428.738C154.847 429.01 155.293 429.446 155.628 429.435C157.666 429.386 160.163 426.722 161.807 425.667C165.35 423.395 168.799 421.11 172.668 419.434C178.502 417.207 187.078 415.462 193.34 416.225C202.281 417.314 211.277 419.727 220.017 421.836C225.269 423.103 230.003 423.944 235.262 424.973C240.028 425.905 244.977 427.315 249.759 428.336C252.581 428.939 255.43 429.43 258.225 430.07C266.898 432.059 275.268 434.185 284.044 435.762C289.936 436.822 294.18 438.159 300.484 438.376C308.183 438.64 317.311 437.133 324.493 434.31C328.714 432.652 336.189 427.552 340.236 425.142C346.376 421.487 352.395 417.319 358.465 413.543L394.712 390.987C407.35 383.208 419.57 375.933 430.938 366.366C432.415 365.12 433.868 363.833 435.359 362.606L454.811 346.771C467.564 336.378 480.547 326.147 493.108 315.527C497.839 311.527 499.409 308.216 499.67 302.087C499.867 297.486 498.936 293.337 495.639 289.851C492.094 286.112 487.181 283.908 481.982 283.722C481.548 283.709 481.114 283.701 480.678 283.696C470.696 284.096 466.047 288.443 458.026 293.828L442.19 304.406C439.978 305.908 437.692 307.161 435.476 308.639L408.463 326.811C402.635 330.764 396.485 334.514 390.71 338.564C389.116 339.681 385.361 341.94 384.097 343C382.349 353.879 376.111 363.107 366.057 368.139C356.658 372.844 343.416 371.573 333.009 371.57L290.766 371.552L264.204 371.57C258.958 371.599 253.129 371.949 247.98 371.264C243.192 370.627 243.609 365.846 244.06 362.498ZM377.027 282.895C367.973 283.989 362.313 289.82 354.819 294.348C348.813 297.975 343.105 301.565 337.538 305.84C342.387 305.79 351.171 305.999 355.926 306.49C358.478 306.605 360.208 307.315 362.606 307.835C370.688 302.628 378.708 297.403 386.458 291.705C388.69 290.062 391.362 289.073 393.464 287.216C388.445 282.861 383.419 282.772 377.027 282.895ZM388.919 325.317C391.005 323.857 392.951 322.745 394.992 321.374L433.778 295.59C436.303 293.904 438.813 292.219 441.328 290.522C443.56 289.018 445.394 288.248 447.688 286.469C442.472 280.923 436.402 279.886 429.121 280.278C421.494 282.051 417.662 285.255 411.368 289.54C403.899 294.627 396.272 299.5 389.004 304.879C384.6 308.051 378.184 311.629 373.99 315.042C379.116 320.859 380.294 322.157 382.78 329.641C384.747 328.252 387.022 326.735 388.919 325.317Z" fill="#174952"/>
<path id="Vector_2" d="M307.542 21.2644C337.706 20.2115 365.004 28.6663 388.289 47.8712C407.912 64.1108 421.859 85.9745 428.168 110.391C437.674 148.144 428.213 188.174 402.547 217.833C382.107 241.669 352.672 256.332 320.999 258.457C320.097 258.516 319.195 258.569 318.293 258.618C310.057 259.062 302.8 258.262 294.736 256.978C239.452 248.177 198.777 199.969 195.883 145.796C194.425 113.68 205.966 82.3005 227.989 58.4992C247.947 36.8891 277.854 22.6847 307.542 21.2644ZM314.99 246.767C342.879 246.231 369.402 234.819 388.701 215.053C409.075 194.29 420.307 166.493 419.969 137.67C419.464 109.739 406.626 81.3811 386.388 61.8819C368.492 44.6408 338.214 31.8562 313.013 33.0237C276.43 34.0418 245.598 51.1141 225.538 81.1931C213.256 99.8274 207.035 121.684 207.697 143.866C207.913 149.902 208.894 155.757 210.214 161.641C214.959 183.818 226.591 204.007 243.509 219.431C262.984 237.041 288.507 246.802 314.99 246.767Z" fill="#174952"/>
<path id="Vector_3" d="M312.459 62.9948C314.916 62.7639 315.437 62.9893 317.59 64.0144C320.555 68.0744 319.658 73.7708 319.607 78.9717C319.817 78.9905 320.025 79.0127 320.235 79.0385C328.29 80.0506 338.6 85.435 343.517 91.795C347.666 97.16 351.301 105.343 350.468 112.226C349.856 117.292 345.495 116.916 341.628 116.304C337.761 113.08 339.273 111.401 338.232 107.241C335.047 95.0113 323.16 89.9188 311.195 90.9724C297.954 92.1381 288.232 100.943 289.153 114.364C289.789 123.625 298.515 130.184 307.116 132.29C318.729 135.134 330.531 136.48 340.053 144.556C352.933 155.425 354.263 175.574 343.363 188.282C337.381 195.299 328.833 199.731 319.557 200.626C319.62 206.235 320.472 211.461 317.518 216.146C316.744 216.516 315.967 216.874 315.184 217.22C312.646 217.492 312.289 217.266 310.062 216.205C307.201 211.049 307.919 206.537 307.986 200.642C294.076 199.533 280.749 188.187 277.694 174.808C276.763 170.73 276.249 163.329 282.253 163.041C290.26 162.657 288.528 170.814 290.415 175.269C295.465 187.183 308.183 190.444 320.209 188.55C325.706 187.702 331.149 184.296 334.573 180.055C337.964 175.783 339.728 169.936 338.682 164.558C335.518 148.261 316.22 146.852 302.94 143.504C299.505 142.637 292.796 139.225 289.973 137.243C284.116 133.13 278.724 125.438 277.567 118.386C274.352 99.0185 288.012 81.9775 307.904 79.114C307.919 75.3917 307.64 69.9198 308.542 66.3126C308.678 65.7656 309.66 64.5129 310.051 64.0061C310.791 63.6645 311.696 63.3133 312.459 62.9948Z" fill="#174952"/>
</g>
</svg>