<svg xmlns="http://www.w3.org/2000/svg" width="22" height="22" viewBox="0 0 22 22" fill="none">
<path d="M8.9375 15.125H6.1875C5.09348 15.125 4.04427 14.6904 3.27068 13.9168C2.4971 13.1432 2.0625 12.094 2.0625 11C2.0625 9.90598 2.4971 8.85677 3.27068 8.08318C4.04427 7.3096 5.09348 6.875 6.1875 6.875H8.9375M13.0625 6.875H15.8125C16.9065 6.875 17.9557 7.3096 18.7293 8.08318C19.5029 8.85677 19.9375 9.90598 19.9375 11C19.9375 12.094 19.5029 13.1432 18.7293 13.9168C17.9557 14.6904 16.9065 15.125 15.8125 15.125H13.0625M7.01637 11H15.0696" stroke="#9CA3AF" stroke-width="1.6875" stroke-linecap="round" stroke-linejoin="round"/>
</svg>