<svg xmlns="http://www.w3.org/2000/svg" xmlns:xlink="http://www.w3.org/1999/xlink" width="327" height="185" viewBox="0 0 327 185" fill="none">
<g id="Profile">
<rect width="327" height="185" rx="12" fill="#F9FAFB"/>
<rect width="327" height="185" rx="12" stroke="#F3F4F6"/>
<g id="Header">
<g id="Avatar">
<rect x="20" y="20" width="56" height="56" rx="28" fill="#8FD1A5"/>
<g id="Designer">
<g id="Beard">
<rect id="Beard_2" x="21" y="22" width="54" height="54" fill="url(#pattern0_180_8321)"/>
<g id="Mask Group">
<mask id="mask0_180_8321" maskUnits="userSpaceOnUse" x="21" y="22" width="54" height="54">
<rect id="Beard_3" x="21" y="22" width="54" height="54" fill="url(#pattern1_180_8321)"/>
</mask>
<g mask="url(#mask0_180_8321)">
<g id="Change Color">
<rect x="21" y="22" width="54" height="54" fill="#AC7080"/>
</g>
</g>
</g>
</g>
<g id="Eye &amp; Eyebrow">
<rect id="Eye &amp; Eyebrow_2" x="21" y="22" width="54" height="54" fill="url(#pattern2_180_8321)"/>
<g id="Mask Group_2">
<mask id="mask1_180_8321" maskUnits="userSpaceOnUse" x="21" y="22" width="54" height="54">
<rect id="Eye &amp; Eyebrow_3" x="21" y="22" width="54" height="54" fill="url(#pattern3_180_8321)"/>
</mask>
<g mask="url(#mask1_180_8321)">
<g id="Change Color_2">
<rect x="21" y="22" width="54" height="54" fill="#AC7080"/>
</g>
</g>
</g>
</g>
<g id="Face">
<rect id="Face_2" x="21" y="22" width="54" height="54" fill="url(#pattern4_180_8321)"/>
<g id="Mask Group_3">
<mask id="mask2_180_8321" maskUnits="userSpaceOnUse" x="21" y="22" width="54" height="54">
<rect id="Face_3" x="21" y="22" width="54" height="54" fill="url(#pattern5_180_8321)"/>
</mask>
<g mask="url(#mask2_180_8321)">
<g id="Change Color_3">
<rect x="21" y="22" width="54" height="54" fill="#C2837B"/>
</g>
</g>
</g>
</g>
<g id="Frame">
<rect id="Frame_2" x="21" y="22" width="54" height="54" fill="url(#pattern6_180_8321)"/>
<g id="Mask Group_4">
<mask id="mask3_180_8321" maskUnits="userSpaceOnUse" x="21" y="22" width="54" height="54">
<rect id="Frame_3" x="21" y="22" width="54" height="54" fill="url(#pattern7_180_8321)"/>
</mask>
<g mask="url(#mask3_180_8321)">
<g id="Change Color_4">
<rect x="21" y="22" width="54" height="54" fill="#9E7D84"/>
</g>
</g>
</g>
</g>
<g id="Hair">
<rect id="Hair_2" x="21" y="22" width="54" height="54" fill="url(#pattern8_180_8321)"/>
<g id="Mask Group_5">
<mask id="mask4_180_8321" maskUnits="userSpaceOnUse" x="21" y="22" width="54" height="54">
<rect id="Hair_3" x="21" y="22" width="54" height="54" fill="url(#pattern9_180_8321)"/>
</mask>
<g mask="url(#mask4_180_8321)">
<g id="Change Color_5">
<rect x="21" y="22" width="54" height="54" fill="#AC7080"/>
</g>
</g>
</g>
</g>
<g id="Mouth">
<rect id="Mouth_2" x="21" y="22" width="54" height="54" fill="url(#pattern10_180_8321)"/>
<g id="Mask Group_6">
<mask id="mask5_180_8321" maskUnits="userSpaceOnUse" x="21" y="22" width="54" height="54">
<rect id="Mouth_3" x="21" y="22" width="54" height="54" fill="url(#pattern11_180_8321)"/>
</mask>
<g mask="url(#mask5_180_8321)">
<rect id="Change Color_6" x="21" y="22" width="54" height="54" fill="url(#pattern12_180_8321)"/>
</g>
</g>
</g>
<g id="Outer">
<rect id="Outer_2" x="21" y="22" width="54" height="54" fill="url(#pattern13_180_8321)"/>
<g id="Mask Group_7">
<mask id="mask6_180_8321" maskUnits="userSpaceOnUse" x="21" y="22" width="54" height="54">
<rect id="Outer_3" x="21" y="22" width="54" height="54" fill="url(#pattern14_180_8321)"/>
</mask>
<g mask="url(#mask6_180_8321)">
<g id="Change Color_7">
<rect x="21" y="22" width="54" height="54" fill="#C4948E"/>
</g>
</g>
</g>
</g>
<g id="Pen">
<rect id="Pen_2" x="21" y="22" width="54" height="54" fill="url(#pattern15_180_8321)"/>
<g id="Mask Group_8">
<mask id="mask7_180_8321" maskUnits="userSpaceOnUse" x="21" y="22" width="54" height="54">
<rect id="Pen_3" x="21" y="22" width="54" height="54" fill="url(#pattern16_180_8321)"/>
</mask>
<g mask="url(#mask7_180_8321)">
<g id="Change Color_8">
<rect x="21" y="22" width="54" height="54" fill="#DACDCC"/>
</g>
</g>
</g>
</g>
<g id="T-shirt">
<rect id="T-shirt_2" x="21" y="22" width="54" height="54" fill="url(#pattern17_180_8321)"/>
<g id="Mask Group_9">
<mask id="mask8_180_8321" maskUnits="userSpaceOnUse" x="21" y="22" width="54" height="54">
<rect id="T-shirt_3" x="21" y="22" width="54" height="54" fill="url(#pattern18_180_8321)"/>
</mask>
<g mask="url(#mask8_180_8321)">
<g id="Change Color_9">
<rect x="21" y="22" width="54" height="54" fill="#9E7D84"/>
</g>
</g>
</g>
</g>
</g>
</g>
<g id="Text">
<path id="Label" d="M94.304 41.5L95.248 38.796H99.616L100.56 41.5H102.72L98.496 29.804H96.4L92.176 41.5H94.304ZM97.184 33.292C97.296 32.972 97.392 32.62 97.44 32.396C97.472 32.636 97.584 32.988 97.68 33.292L99.024 37.068H95.856L97.184 33.292ZM106.051 41.5V37.244C106.051 35.964 106.787 35.132 107.987 35.132C108.995 35.132 109.651 35.772 109.651 37.1V41.5H111.603V36.636C111.603 34.588 110.579 33.356 108.595 33.356C107.523 33.356 106.563 33.82 106.067 34.62L105.907 33.596H104.099V41.5H106.051ZM116.968 41.708C118.168 41.708 119.193 41.18 119.673 40.268L119.8 41.5H121.592V29.596H119.656V34.604C119.161 33.82 118.184 33.356 117.08 33.356C114.696 33.356 113.256 35.116 113.256 37.58C113.256 40.028 114.68 41.708 116.968 41.708ZM117.4 39.916C116.04 39.916 115.208 38.924 115.208 37.516C115.208 36.108 116.04 35.1 117.4 35.1C118.76 35.1 119.641 36.092 119.641 37.516C119.641 38.94 118.76 39.916 117.4 39.916ZM128.787 33.564C128.467 33.484 128.195 33.452 127.923 33.452C126.867 33.452 126.115 33.98 125.779 34.764L125.667 33.612H123.827V41.5H125.779V37.66C125.779 36.124 126.659 35.372 128.067 35.372H128.787V33.564ZM133.578 41.708C135.642 41.708 137.082 40.668 137.418 38.94H135.61C135.386 39.692 134.682 40.108 133.61 40.108C132.314 40.108 131.578 39.404 131.434 38.012L137.386 37.996V37.404C137.386 34.94 135.882 33.356 133.514 33.356C131.194 33.356 129.578 35.068 129.578 37.548C129.578 39.996 131.226 41.708 133.578 41.708ZM133.53 34.956C134.698 34.956 135.45 35.676 135.45 36.764H131.482C131.674 35.58 132.378 34.956 133.53 34.956ZM141.423 41.708C142.655 41.708 143.727 41.148 144.063 40.332L144.207 41.5H145.919V36.7C145.919 34.508 144.607 33.356 142.479 33.356C140.335 33.356 138.927 34.476 138.927 36.188H140.591C140.591 35.356 141.231 34.876 142.383 34.876C143.375 34.876 144.015 35.308 144.015 36.38V36.556L141.647 36.732C139.775 36.876 138.719 37.788 138.719 39.244C138.719 40.732 139.743 41.708 141.423 41.708ZM142.062 40.236C141.183 40.236 140.703 39.884 140.703 39.164C140.703 38.524 141.167 38.124 142.383 38.012L144.031 37.884V38.3C144.031 39.516 143.263 40.236 142.062 40.236ZM147.428 39.1C147.428 40.652 148.676 41.708 150.644 41.708C152.596 41.708 153.956 40.716 153.956 39.116C153.956 37.9 153.284 37.292 151.956 36.988L150.532 36.652C149.86 36.492 149.508 36.204 149.508 35.756C149.508 35.164 149.956 34.812 150.724 34.812C151.476 34.812 151.924 35.244 151.94 35.916H153.796C153.78 34.38 152.58 33.356 150.804 33.356C148.98 33.356 147.668 34.284 147.668 35.836C147.668 37.1 148.356 37.772 149.78 38.092L151.204 38.428C151.908 38.588 152.116 38.876 152.116 39.276C152.116 39.852 151.62 40.22 150.708 40.22C149.812 40.22 149.3 39.788 149.284 39.1H147.428ZM165.387 41.692C168.155 41.692 170.299 40.06 170.747 37.596H168.619C168.235 38.892 167.019 39.724 165.435 39.724C163.291 39.724 161.915 38.124 161.915 35.644C161.915 33.148 163.275 31.58 165.435 31.58C166.987 31.58 168.155 32.38 168.555 33.74H170.715C170.315 31.228 168.251 29.612 165.483 29.612C162.059 29.612 159.771 32.028 159.771 35.66C159.771 39.324 161.979 41.692 165.387 41.692ZM174.369 41.5V37.18C174.369 35.996 175.089 35.132 176.321 35.132C177.313 35.132 177.969 35.772 177.969 37.1V41.5H179.921V36.636C179.921 34.588 178.897 33.356 176.945 33.356C175.809 33.356 174.881 33.852 174.385 34.62V29.596H172.417V41.5H174.369ZM186.999 33.564C186.679 33.484 186.407 33.452 186.135 33.452C185.079 33.452 184.327 33.98 183.991 34.764L183.879 33.612H182.039V41.5H183.991V37.66C183.991 36.124 184.871 35.372 186.279 35.372H186.999V33.564ZM189.496 32.012C190.136 32.012 190.664 31.484 190.664 30.828C190.664 30.172 190.136 29.66 189.496 29.66C188.824 29.66 188.296 30.172 188.296 30.828C188.296 31.484 188.824 32.012 189.496 32.012ZM188.52 41.5H190.472V33.596H188.52V41.5ZM192.081 39.1C192.081 40.652 193.329 41.708 195.297 41.708C197.249 41.708 198.609 40.716 198.609 39.116C198.609 37.9 197.937 37.292 196.609 36.988L195.185 36.652C194.513 36.492 194.161 36.204 194.161 35.756C194.161 35.164 194.609 34.812 195.377 34.812C196.129 34.812 196.577 35.244 196.593 35.916H198.449C198.433 34.38 197.233 33.356 195.457 33.356C193.633 33.356 192.321 34.284 192.321 35.836C192.321 37.1 193.009 37.772 194.433 38.092L195.857 38.428C196.561 38.588 196.769 38.876 196.769 39.276C196.769 39.852 196.273 40.22 195.361 40.22C194.465 40.22 193.953 39.788 193.937 39.1H192.081ZM202.983 41.5V35.228H204.519V33.596H202.983V31.132H201.031V33.596H199.511V35.228H201.031V41.5H202.983ZM209.391 41.708C211.455 41.708 212.895 40.668 213.231 38.94H211.423C211.199 39.692 210.495 40.108 209.423 40.108C208.127 40.108 207.391 39.404 207.247 38.012L213.199 37.996V37.404C213.199 34.94 211.695 33.356 209.327 33.356C207.007 33.356 205.391 35.068 205.391 37.548C205.391 39.996 207.039 41.708 209.391 41.708ZM209.343 34.956C210.511 34.956 211.263 35.676 211.263 36.764H207.295C207.487 35.58 208.191 34.956 209.343 34.956ZM216.913 41.5V37.244C216.913 35.964 217.649 35.132 218.849 35.132C219.857 35.132 220.513 35.772 220.513 37.1V41.5H222.465V36.636C222.465 34.588 221.441 33.356 219.457 33.356C218.385 33.356 217.425 33.82 216.929 34.62L216.769 33.596H214.961V41.5H216.913ZM223.881 39.1C223.881 40.652 225.129 41.708 227.097 41.708C229.049 41.708 230.409 40.716 230.409 39.116C230.409 37.9 229.737 37.292 228.409 36.988L226.985 36.652C226.313 36.492 225.961 36.204 225.961 35.756C225.961 35.164 226.409 34.812 227.177 34.812C227.929 34.812 228.377 35.244 228.393 35.916H230.249C230.233 34.38 229.033 33.356 227.257 33.356C225.433 33.356 224.121 34.284 224.121 35.836C224.121 37.1 224.809 37.772 226.233 38.092L227.657 38.428C228.361 38.588 228.569 38.876 228.569 39.276C228.569 39.852 228.073 40.22 227.161 40.22C226.265 40.22 225.753 39.788 225.737 39.1H223.881ZM235.631 41.708C237.695 41.708 239.135 40.668 239.471 38.94H237.663C237.439 39.692 236.735 40.108 235.663 40.108C234.367 40.108 233.631 39.404 233.487 38.012L239.439 37.996V37.404C239.439 34.94 237.935 33.356 235.567 33.356C233.247 33.356 231.631 35.068 231.631 37.548C231.631 39.996 233.279 41.708 235.631 41.708ZM235.583 34.956C236.751 34.956 237.503 35.676 237.503 36.764H233.535C233.727 35.58 234.431 34.956 235.583 34.956ZM243.154 41.5V37.244C243.154 35.964 243.89 35.132 245.09 35.132C246.098 35.132 246.754 35.772 246.754 37.1V41.5H248.706V36.636C248.706 34.588 247.682 33.356 245.698 33.356C244.626 33.356 243.666 33.82 243.17 34.62L243.01 33.596H241.202V41.5H243.154Z" fill="#111827"/>
<path id="Label_2" d="M95.048 69.384C94.1 68.064 93.476 66.012 93.476 63.9C93.476 61.74 94.124 59.724 95.048 58.428H94.292C93.26 59.856 92.624 61.92 92.624 63.9C92.624 65.964 93.284 68.004 94.292 69.384H95.048ZM96.2069 63.084V63.828H98.8349V66.468H99.5789V63.828H102.207V63.084H99.5789V60.456H98.8349V63.084H96.2069ZM105.541 59.688V67.5H106.369V58.908H103.789V59.688H105.541ZM108.333 69.384C109.341 68.004 110.001 65.964 110.001 63.9C110.001 61.92 109.377 59.856 108.333 58.428H107.577C108.501 59.724 109.161 61.74 109.161 63.9C109.161 66.012 108.525 68.064 107.577 69.384H108.333ZM117.832 67.644C119.632 67.644 120.856 66.42 120.856 64.692C120.856 63.084 119.752 61.8 117.964 61.8C117.292 61.8 116.668 62.016 116.188 62.4L116.836 59.7H120.364V58.908H116.212L115.18 63.228L115.864 63.444C116.332 62.928 117.052 62.568 117.844 62.568C119.2 62.568 119.98 63.516 119.98 64.716C119.98 65.988 119.14 66.852 117.844 66.852C116.62 66.852 115.864 66.108 115.864 64.872H115C115 66.564 116.104 67.644 117.832 67.644ZM123.18 61.8C122.376 62.904 122.1 63.6 122.1 64.596C122.1 66.312 123.456 67.644 125.184 67.644C126.9 67.644 128.232 66.36 128.232 64.596C128.232 62.916 127.044 61.608 125.256 61.608C124.86 61.608 124.488 61.692 124.08 61.896L126.336 58.908H125.328L123.18 61.8ZM122.976 64.608C122.976 63.3 123.876 62.364 125.184 62.364C126.456 62.364 127.368 63.3 127.368 64.608C127.368 65.916 126.456 66.864 125.184 66.864C123.876 66.864 122.976 65.916 122.976 64.608ZM128.395 58.908V59.7H133.363L129.967 67.5H130.855L134.239 59.7V58.908H128.395ZM141.542 67.644C143.342 67.644 144.566 66.42 144.566 64.692C144.566 63.084 143.462 61.8 141.674 61.8C141.002 61.8 140.378 62.016 139.898 62.4L140.546 59.7H144.074V58.908H139.922L138.89 63.228L139.574 63.444C140.042 62.928 140.762 62.568 141.554 62.568C142.91 62.568 143.69 63.516 143.69 64.716C143.69 65.988 142.85 66.852 141.554 66.852C140.33 66.852 139.574 66.108 139.574 64.872H138.71C138.71 66.564 139.814 67.644 141.542 67.644ZM146.89 61.8C146.086 62.904 145.81 63.6 145.81 64.596C145.81 66.312 147.166 67.644 148.894 67.644C150.61 67.644 151.942 66.36 151.942 64.596C151.942 62.916 150.754 61.608 148.966 61.608C148.57 61.608 148.198 61.692 147.79 61.896L150.046 58.908H149.038L146.89 61.8ZM146.686 64.608C146.686 63.3 147.586 62.364 148.894 62.364C150.166 62.364 151.078 63.3 151.078 64.608C151.078 65.916 150.166 66.864 148.894 66.864C147.586 66.864 146.686 65.916 146.686 64.608ZM159.528 65.676V64.908H158.52V58.908H157.368L153.168 64.908V65.676H157.68V67.5H158.52V65.676H159.528ZM154.104 64.908L157.68 59.796V64.908H154.104ZM165.572 61.8C164.768 62.904 164.492 63.6 164.492 64.596C164.492 66.312 165.848 67.644 167.576 67.644C169.292 67.644 170.624 66.36 170.624 64.596C170.624 62.916 169.436 61.608 167.648 61.608C167.252 61.608 166.88 61.692 166.472 61.896L168.728 58.908H167.72L165.572 61.8ZM165.368 64.608C165.368 63.3 166.268 62.364 167.576 62.364C168.848 62.364 169.76 63.3 169.76 64.608C169.76 65.916 168.848 66.864 167.576 66.864C166.268 66.864 165.368 65.916 165.368 64.608ZM170.787 58.908V59.7H175.755L172.359 67.5H173.247L176.631 59.7V58.908H170.787ZM180.195 67.644C181.995 67.644 183.219 66.42 183.219 64.692C183.219 63.084 182.115 61.8 180.327 61.8C179.655 61.8 179.031 62.016 178.551 62.4L179.199 59.7H182.727V58.908H178.575L177.543 63.228L178.227 63.444C178.695 62.928 179.415 62.568 180.207 62.568C181.563 62.568 182.343 63.516 182.343 64.716C182.343 65.988 181.503 66.852 180.207 66.852C178.983 66.852 178.227 66.108 178.227 64.872H177.363C177.363 66.564 178.467 67.644 180.195 67.644ZM189.939 67.5V66.696H185.607L187.611 64.944C189.327 63.444 189.891 62.616 189.891 61.368C189.891 59.796 188.811 58.752 187.191 58.752C185.499 58.752 184.359 59.94 184.311 61.74H185.175C185.211 60.408 185.991 59.544 187.179 59.544C188.319 59.544 189.015 60.252 189.015 61.416C189.015 62.436 188.607 63.036 187.023 64.416L184.275 66.816V67.5H189.939Z" fill="#6B7280"/>
</g>
</g>
<g id="Cash">
<g clip-path="url(#clip0_180_8321)">
<rect x="21" y="96" width="286" height="69" rx="10" fill="#164951"/>
<circle id="Ellipse 88" cx="289.5" cy="177.5" r="42" stroke="#FFD84A"/>
<circle id="Ellipse 90" cx="230" cy="156" r="4.5" stroke="#739297"/>
<circle id="Ellipse 89" cx="262.5" cy="100.5" r="49" stroke="#45B369"/>
<g id="Text_2">
<path id="Label_3" d="M39.548 122.132C41.396 122.132 42.896 121.04 43.292 119.42H42.368C41.996 120.572 40.916 121.304 39.56 121.304C37.676 121.304 36.416 119.864 36.416 117.704C36.416 115.532 37.676 114.092 39.56 114.092C40.904 114.092 41.96 114.848 42.32 116.084H43.244C42.896 114.38 41.444 113.264 39.596 113.264C37.172 113.264 35.516 115.064 35.516 117.704C35.516 120.344 37.148 122.132 39.548 122.132ZM46.357 122.144C47.341 122.144 48.133 121.712 48.493 120.98L48.601 122H49.297V118.244C49.297 116.708 48.313 116.036 46.969 116.036C45.541 116.036 44.581 116.792 44.581 117.968H45.337C45.337 117.188 45.937 116.732 46.945 116.732C47.797 116.732 48.481 117.092 48.481 118.232V118.424L46.561 118.58C45.205 118.688 44.389 119.36 44.389 120.428C44.389 121.448 45.121 122.144 46.357 122.144ZM46.549 121.472C45.757 121.472 45.229 121.112 45.229 120.404C45.229 119.756 45.673 119.276 46.765 119.18L48.481 119.048V119.36C48.481 120.62 47.773 121.472 46.549 121.472ZM50.6665 120.368C50.6665 121.448 51.4825 122.144 52.7905 122.144C54.1105 122.144 54.9985 121.46 54.9985 120.416C54.9985 119.576 54.5425 119.108 53.5345 118.856L52.5385 118.604C51.9025 118.448 51.5905 118.136 51.5905 117.692C51.5905 117.068 52.0465 116.72 52.8625 116.72C53.6425 116.72 54.1105 117.116 54.1345 117.788H54.9385C54.9025 116.708 54.1105 116.036 52.8865 116.036C51.6385 116.036 50.7865 116.684 50.7865 117.704C50.7865 118.496 51.2785 119.024 52.2865 119.276L53.2825 119.528C53.9665 119.696 54.2065 119.972 54.2065 120.452C54.2065 121.076 53.6785 121.46 52.7785 121.46C51.9625 121.46 51.4585 121.04 51.4585 120.368H50.6665ZM57.3897 121.988V118.832C57.3897 117.716 58.0377 116.792 59.2857 116.792C60.1857 116.792 60.8217 117.272 60.8217 118.628V122H61.6497V118.448C61.6497 116.984 60.9657 116.036 59.4417 116.036C58.4697 116.036 57.7617 116.504 57.3897 117.2V113.252H56.5617V121.988H57.3897ZM67.2081 122H70.5321C72.1641 122 73.1961 121.124 73.1961 119.744C73.1961 118.688 72.6921 117.992 71.6961 117.668C72.5841 117.32 73.0281 116.636 73.0281 115.628C73.0281 114.248 72.0081 113.408 70.3521 113.408H67.2081V122ZM70.3401 114.176C71.4921 114.176 72.1401 114.74 72.1401 115.7C72.1401 116.72 71.5281 117.32 70.4481 117.32H68.0721V114.176H70.3401ZM70.5321 118.076C71.6481 118.076 72.3201 118.664 72.3201 119.636C72.3201 120.632 71.6601 121.22 70.5321 121.22H68.0721V118.076H70.5321ZM76.4429 122.144C77.4269 122.144 78.2189 121.712 78.5789 120.98L78.6869 122H79.3829V118.244C79.3829 116.708 78.3989 116.036 77.0549 116.036C75.6269 116.036 74.6669 116.792 74.6669 117.968H75.4229C75.4229 117.188 76.0229 116.732 77.0309 116.732C77.8829 116.732 78.5669 117.092 78.5669 118.232V118.424L76.6469 118.58C75.2909 118.688 74.4749 119.36 74.4749 120.428C74.4749 121.448 75.2069 122.144 76.4429 122.144ZM76.6349 121.472C75.8429 121.472 75.3149 121.112 75.3149 120.404C75.3149 119.756 75.7589 119.276 76.8509 119.18L78.5669 119.048V119.36C78.5669 120.62 77.8589 121.472 76.6349 121.472ZM82.1085 122V113.252H81.2805V122H82.1085ZM85.7375 122.144C86.7215 122.144 87.5135 121.712 87.8735 120.98L87.9815 122H88.6775V118.244C88.6775 116.708 87.6935 116.036 86.3495 116.036C84.9215 116.036 83.9615 116.792 83.9615 117.968H84.7175C84.7175 117.188 85.3175 116.732 86.3255 116.732C87.1775 116.732 87.8615 117.092 87.8615 118.232V118.424L85.9415 118.58C84.5855 118.688 83.7695 119.36 83.7695 120.428C83.7695 121.448 84.5015 122.144 85.7375 122.144ZM85.9295 121.472C85.1375 121.472 84.6095 121.112 84.6095 120.404C84.6095 119.756 85.0535 119.276 86.1455 119.18L87.8615 119.048V119.36C87.8615 120.62 87.1535 121.472 85.9295 121.472ZM91.367 122V118.964C91.367 117.656 92.039 116.792 93.227 116.792C94.187 116.792 94.799 117.272 94.799 118.628V122H95.627V118.448C95.627 116.984 94.967 116.036 93.371 116.036C92.531 116.036 91.763 116.456 91.379 117.2L91.259 116.192H90.539V122H91.367ZM97.0693 119.108C97.0693 120.932 98.1853 122.144 99.8293 122.144C101.149 122.144 102.181 121.364 102.457 120.176H101.617C101.389 120.92 100.693 121.4 99.8293 121.4C98.6533 121.4 97.8853 120.476 97.8853 119.096C97.8853 117.668 98.7133 116.768 99.8893 116.768C100.693 116.768 101.389 117.212 101.605 118.016H102.433C102.205 116.816 101.221 116.036 99.8773 116.036C98.1853 116.036 97.0693 117.284 97.0693 119.108ZM106.348 122.144C107.716 122.144 108.616 121.484 108.928 120.26H108.136C107.92 121.028 107.308 121.436 106.36 121.436C105.112 121.436 104.368 120.62 104.308 119.204H108.928V118.796C108.928 117.152 107.86 116.036 106.288 116.036C104.632 116.036 103.504 117.284 103.504 119.096C103.504 120.92 104.644 122.144 106.348 122.144ZM106.288 116.744C107.38 116.744 108.1 117.488 108.1 118.604H104.332C104.476 117.464 105.196 116.744 106.288 116.744Z" fill="#A2B6B9"/>
<path id="Label_4" d="M38.64 148.33H39.718V147.14C41.594 146.93 42.798 145.754 42.798 144.046C42.798 142.562 41.986 141.694 40.194 141.302L39.718 141.19V138.18C40.446 138.334 40.866 138.824 40.894 139.58H42.63C42.574 137.9 41.482 136.794 39.718 136.612V135.422H38.64V136.612C36.778 136.808 35.546 137.984 35.546 139.622C35.546 141.162 36.428 142.142 38.192 142.52L38.64 142.618V145.6C37.73 145.488 37.212 144.984 37.198 144.186H35.406C35.448 145.894 36.694 147.028 38.64 147.168V148.33ZM38.584 140.938C37.688 140.742 37.296 140.308 37.296 139.566C37.296 138.81 37.8 138.306 38.64 138.166V140.952L38.584 140.938ZM39.816 142.87C40.656 143.052 41.062 143.486 41.062 144.2C41.062 144.914 40.558 145.404 39.718 145.572V142.842L39.816 142.87ZM46.2012 138.376V147H47.9232V136.766H43.9612V138.376H46.2012ZM52.4273 146.384C52.4273 145.516 51.9233 144.942 51.2233 144.942C50.5933 144.942 50.1593 145.39 50.1593 146.062C50.1593 146.622 50.6073 147.028 51.1533 147.028C51.3213 147.028 51.4473 147 51.5593 146.944C51.5593 147.434 51.0833 147.812 50.4533 147.924V148.61C51.5873 148.47 52.4273 147.546 52.4273 146.384ZM59.8314 143.99C60.9794 142.436 61.3854 141.54 61.3854 140.308C61.3854 138.208 59.7334 136.584 57.5214 136.584C55.3374 136.584 53.7134 138.11 53.7134 140.294C53.7134 142.366 55.1414 143.85 57.2554 143.85C57.5074 143.85 57.7734 143.808 58.0254 143.738L55.5754 147H57.6194L59.8314 143.99ZM59.5514 140.294C59.5514 141.526 58.7394 142.38 57.5214 142.38C56.3454 142.38 55.5194 141.526 55.5194 140.294C55.5194 139.048 56.3454 138.18 57.5214 138.18C58.7254 138.18 59.5514 139.048 59.5514 140.294ZM62.693 141.904C62.693 145.068 64.303 147.182 67.019 147.182C69.735 147.182 71.359 145.068 71.359 141.904C71.359 138.726 69.637 136.57 67.019 136.57C64.401 136.57 62.693 138.726 62.693 141.904ZM64.457 141.904C64.457 139.482 65.409 138.152 67.019 138.152C68.643 138.152 69.595 139.482 69.595 141.904C69.595 144.27 68.643 145.6 67.019 145.6C65.409 145.6 64.457 144.27 64.457 141.904ZM72.7501 144.102C72.7501 145.964 74.2761 147.168 76.6421 147.168C79.0221 147.168 80.5481 145.95 80.5481 144.102C80.5481 142.87 79.8481 141.876 78.7701 141.498C79.6801 141.12 80.1841 140.35 80.1841 139.356C80.1841 137.69 78.7701 136.584 76.6701 136.584C74.5561 136.584 73.1141 137.704 73.1141 139.328C73.1141 140.322 73.6041 141.092 74.5001 141.498C73.4361 141.904 72.7501 142.884 72.7501 144.102ZM74.7381 139.482C74.7381 138.642 75.4801 138.11 76.6421 138.11C77.7901 138.11 78.5181 138.642 78.5181 139.496C78.5181 140.35 77.7901 140.882 76.6421 140.882C75.4801 140.882 74.7381 140.336 74.7381 139.482ZM74.5001 143.976C74.5001 142.982 75.3261 142.366 76.6421 142.366C77.9581 142.366 78.7841 142.982 78.7841 143.976C78.7841 144.97 77.9581 145.586 76.6561 145.586C75.3261 145.586 74.5001 144.97 74.5001 143.976ZM83.2788 147.168C83.8948 147.168 84.4128 146.664 84.4128 146.062C84.4128 145.446 83.8948 144.942 83.2788 144.942C82.6628 144.942 82.1448 145.446 82.1448 146.062C82.1448 146.664 82.6628 147.168 83.2788 147.168ZM85.6192 141.904C85.6192 145.068 87.2292 147.182 89.9452 147.182C92.6612 147.182 94.2852 145.068 94.2852 141.904C94.2852 138.726 92.5632 136.57 89.9452 136.57C87.3272 136.57 85.6192 138.726 85.6192 141.904ZM87.3832 141.904C87.3832 139.482 88.3352 138.152 89.9452 138.152C91.5692 138.152 92.5212 139.482 92.5212 141.904C92.5212 144.27 91.5692 145.6 89.9452 145.6C88.3352 145.6 87.3832 144.27 87.3832 141.904ZM95.6903 141.904C95.6903 145.068 97.3003 147.182 100.016 147.182C102.732 147.182 104.356 145.068 104.356 141.904C104.356 138.726 102.634 136.57 100.016 136.57C97.3983 136.57 95.6903 138.726 95.6903 141.904ZM97.4543 141.904C97.4543 139.482 98.4063 138.152 100.016 138.152C101.64 138.152 102.592 139.482 102.592 141.904C102.592 144.27 101.64 145.6 100.016 145.6C98.4063 145.6 97.4543 144.27 97.4543 141.904Z" fill="white"/>
</g>
<g id="Frame 27">
<rect x="267" y="104" width="32" height="53" rx="4" fill="#2D5B62" fill-opacity="0.4"/>
<rect x="266.75" y="103.75" width="32.5" height="53.5" rx="4.25" stroke="white" stroke-opacity="0.12" stroke-width="0.5"/>
<g id="chevron-forward-outline">
<path id="Vector" d="M280.75 126.5L285.25 131L280.75 135.5" stroke="white" stroke-width="1.5" stroke-linecap="round" stroke-linejoin="round"/>
</g>
</g>
</g>
</g>
</g>
<defs>





























<clipPath id="bgblur_1_180_8321_clip_path" transform="translate(-254.5 -95.5)"><rect x="267" y="104" width="32" height="53" rx="4"/>
</clipPath><clipPath id="clip0_180_8321">
<rect x="21" y="96" width="286" height="69" rx="10" fill="white"/>
</clipPath>


















</defs>
</svg>