<svg xmlns="http://www.w3.org/2000/svg" width="517" height="477" viewBox="0 0 517 477" fill="none">
<g id="realestate">
<path id="Vector" d="M129.246 280.499C140.965 280.05 154.661 282.255 165.119 287.699C177.269 294.021 188.896 302.746 200.562 309.964C205.708 313.149 211.808 317.662 217.577 319.36C225.559 321.715 234.28 322.608 242.523 323.964L299.014 333.607L314.317 336.116C318.394 336.777 322.635 337.368 326.573 338.62C335.992 341.613 344.05 350.138 344.986 360.168C351.186 358.651 358.615 357.331 364.99 355.993L412.095 346.128C424.462 343.448 436.847 340.835 449.244 338.294C455.752 336.926 462.462 335.379 469.013 334.246C471.717 333.779 474.751 334.036 477.311 335.099C481.014 336.611 483.95 339.553 485.45 343.261C487.123 347.309 487.09 351.69 485.475 355.781C483.099 362.242 477.081 363.694 471.752 366.495C460.481 372.421 448.75 377.529 437.003 382.456C425.914 387.109 414.983 392.566 403.891 397.159L326.626 431.688C311.787 438.466 296.863 445.054 281.853 451.451C269.781 456.618 261.148 461.865 247.935 463.697C236.367 465.325 224.579 464.179 213.541 460.355C204.298 457.054 194.691 450.636 186.291 445.73L148.156 423.717C143.138 420.777 138.133 417.193 133.097 414.473C123.643 409.364 112.878 402.679 102.66 399.461C85.2468 393.977 87.3931 392.003 87.411 375.699L87.4151 349.184L87.4045 313.051C87.4017 306.825 87.2401 300.361 87.5135 294.153C88.0378 287.709 93.0733 286.364 98.3268 285.67C108.804 284.287 118.765 281.655 129.246 280.499ZM93.8818 291.2C92.9286 292.189 91.8961 293.196 91.7871 294.642C91.5258 298.11 91.6172 301.81 91.6195 305.285L91.645 325.458C91.6707 344.911 91.618 364.388 91.6667 383.844C91.6712 385.653 91.8219 387.45 92.1092 389.237C95.7688 393.313 106.794 395.915 112.242 398.439C137.969 410.364 160.911 427.077 185.883 440.4C194.036 444.758 201.658 450.22 210.14 454.101C217.674 457.567 225.808 459.543 234.093 459.919C242.823 460.345 251.552 459.086 259.802 456.204C266.833 453.738 274.439 449.783 281.348 446.81C297.33 439.976 313.226 432.947 329.039 425.729C332.485 424.182 335.908 422.857 339.294 421.365C342.24 420.065 345.148 418.226 348.318 416.81L430.604 380.384C440.974 375.742 451.529 371.674 461.505 366.202C463.25 365.246 465.391 364.521 467.213 363.605C473.64 360.377 482.274 358.515 482.276 349.661C482.279 343.304 477.015 337.759 470.553 338.726C463.086 339.846 454.75 341.527 447.379 343.286C441.434 344.636 435.153 345.767 429.132 347.047C413.66 350.391 398.168 353.654 382.66 356.836C370.793 359.267 356.99 362.596 345.334 364.524C344.736 372.439 343.161 378.163 336.974 383.882C333.667 386.938 327.368 390.259 322.865 390.691C315.13 391.43 306.264 390.956 298.423 390.799L257.013 390.042L217.118 389.411C211.129 389.325 205.005 389.285 199.008 389.182C197.894 389.164 196.502 388.8 195.64 388.021C195.128 386.615 195.973 385.411 197.318 385.285C204.892 384.581 214.089 384.989 221.63 385.133L285.289 386.188C291.842 386.315 298.395 386.408 304.949 386.466C316.506 386.675 324.192 388.646 333.497 380.575C345.014 370.591 342.474 352.046 329.471 344.889C322.683 341.151 308.983 339.919 300.862 338.551L244.216 328.835C234.944 327.237 225.205 326.248 216.197 323.684C209.176 321.463 202.64 317.195 196.714 312.877C190.59 308.417 183.431 304.682 177.317 300.394C162.299 289.867 148.835 284.464 130.099 285.067C123.073 285.41 114.998 287.52 107.908 288.699C104.046 289.342 97.4044 290.145 93.8818 291.2Z" fill="#174952"/>
<path id="Vector_2" d="M390.017 148.251C392.407 148.124 394.616 148.737 396.603 150.175C404.668 156.016 411.446 163.216 419.313 169.296C422.334 171.631 425.328 174.192 428.297 176.606L476.387 216.011C482.658 221.128 488.855 226.211 495.323 231.058C499.165 233.938 501.586 237.997 501.755 242.839C501.969 249.054 501.765 255.548 501.76 261.785C501.427 267.743 504.065 278.376 495.053 278.841C490.44 279.078 486.063 274.409 482.68 271.734C480.146 269.73 477.379 267.423 475.054 265.232C475.42 283.984 474.872 302.913 475.117 321.682C475.14 323.255 474.706 325.438 473.125 326.101C471.555 325.889 470.667 324.688 470.654 323.141C470.485 302.552 471.015 281.831 470.495 261.257C454.003 247.345 436.574 234.251 419.913 220.515C412.8 214.961 406.441 208.522 399.203 203.11C396.57 201.141 393.276 197.3 389.994 197.385C388.79 197.683 387.523 198.03 386.553 198.844C364.27 217.568 341.692 235.823 318.891 253.918C316.079 256.149 312.762 258.648 310.205 261.075C310.621 271.539 310.313 284.277 310.313 294.857L310.26 314.626C310.27 317.437 311.343 326.341 308.584 327.58C307.33 327.57 306.077 326.811 306.037 325.44C305.974 323.265 305.999 321.079 306.002 318.901L306.007 306.201L306.022 264.924C304.997 265.939 303.788 266.89 302.642 267.794C301.294 268.859 300.014 270.005 298.648 271.055C294.117 274.53 288.018 282.326 281.858 277.286C279.733 275.544 279.19 274.257 279.028 271.532C278.794 266.524 278.965 261.497 278.907 256.485C279.006 251.208 278.657 246.023 279.253 240.765C279.993 234.246 284.895 231.953 289.479 228.173C294.813 223.777 300.218 219.525 305.55 215.134C307.663 213.304 309.599 211.317 311.757 209.531C329.342 194.976 347.301 180.926 364.881 166.354C371.303 161.03 377.337 155.296 384.049 150.307C386.061 148.812 387.565 148.425 390.017 148.251ZM391.334 192.995L391.655 193.045C397.12 193.935 406.105 203.465 411.043 206.816C414.663 209.273 418.914 213.792 422.503 216.717L486.841 269.192C488.83 270.812 491.127 272.872 493.49 273.937C496.264 275.189 497.241 272.821 497.261 270.421C497.415 261.325 497.425 252.18 497.246 243.084C497.229 242.104 496.585 238.636 495.949 237.972C492.988 234.878 489.272 232.313 485.917 229.636L468.587 215.56L415.521 172.036C408.528 166.267 401.644 160.436 394.818 154.468C393.468 153.289 391.708 152.548 389.878 152.733C385.198 153.524 379.094 160.566 375.347 163.662L340.558 192.144L305.673 220.807C299.63 225.746 289.573 233.163 284.592 239.069C281.952 242.2 283.406 267.077 283.327 271.958C283.292 274.144 286.692 274.558 288.136 273.467C294.117 269.798 298.979 264.266 304.356 259.864L332.162 237.331C334.457 235.509 336.911 233.877 339.195 232.047C345.552 226.956 351.832 221.75 358.199 216.672C360.819 214.584 363.124 212.182 365.641 210.097C369.637 206.785 373.699 203.551 377.698 200.219C380.108 198.212 382.807 195.956 385.354 194.145C386.939 193.017 389.431 193.019 391.334 192.995Z" fill="#174952"/>
<path id="Vector_3" d="M79.4772 406.894C79.1985 411.288 76.07 415.01 72.4232 417.259C70.7268 418.304 67.7876 418.814 65.7794 418.841C57.0109 418.909 48.2259 418.884 39.4559 418.836C33.6111 418.803 26.8843 419.697 22.306 415.288C18.8135 411.926 18.4215 407.358 18.3851 402.802L18.4239 317.46L18.4039 291.79C18.3955 284.057 16.8255 273.927 24.3644 269.361C29.4387 266.285 38.923 267.254 44.6789 267.284L62.1738 267.228C80.5384 267.294 79.7084 278.331 79.5973 292.709L79.0882 293.249C78.998 292.126 79.0203 283.527 78.8246 283.308C78.7777 288.577 78.5151 293.847 78.4669 298.991C78.2104 325.029 78.3015 351.072 78.7398 377.11C78.9175 386.41 78.576 395.791 78.8433 405.094C78.8635 405.801 79.0841 406.318 79.4772 406.894ZM66.8632 414.372C74.7833 413.125 74.7144 406.785 74.7295 400.276C74.7472 392.664 74.6881 385.045 74.6821 377.433L74.679 324.935L74.6795 295.399C74.6868 291.798 74.8989 282.172 74.3784 279.262C73.9245 276.801 72.501 274.626 70.4276 273.223C68.4589 271.892 65.9549 271.708 63.6377 271.761C52.7621 272.011 41.2775 271.209 30.4662 271.93C25.4741 272.723 22.9205 276.811 22.9021 281.619C22.87 290.011 22.8841 298.405 22.8492 306.799L22.8462 366.068L22.873 394.474C22.8896 398.58 22.7194 403.567 23.1888 407.555C24.2074 416.206 36.7949 414.409 43.089 414.404L66.8632 414.372Z" fill="#174952"/>
<path id="Vector_4" d="M282.174 6.90524C282.588 6.87427 283.002 6.85083 283.416 6.8349C289.421 6.63635 296.28 6.78859 302.364 6.79063L338.642 6.8029L359.643 6.77905C368.655 6.7738 379.116 5.01589 379.959 17.3019C380.32 22.5849 380.045 28.2487 379.982 33.5505C382.668 33.2426 385.925 33.3372 388.61 33.6416C393.788 34.2289 397.635 38.3917 397.83 43.6299C398.102 50.9938 397.989 58.4686 397.981 65.8669L397.966 107.203L397.971 127.927C397.976 130.719 398.804 139.14 396.459 140.729C395.298 140.917 393.614 140.309 393.558 139.054C393.271 132.807 393.467 126.214 393.483 119.967V71.6984C393.478 62.7326 393.47 53.7594 393.349 44.8193C393.447 35.2541 383.16 38.8015 377.309 38.0565C373.227 37.5369 377.584 16.3147 374.224 13.425C372.56 11.9952 372.262 11.3664 370.033 11.2352C365.997 10.9976 362.026 11.1541 358.027 11.1614L334.732 11.1514L301.523 11.1408C295.816 11.1355 290.072 11.0945 284.365 11.1657C283.287 11.1791 280.495 11.6669 279.763 12.4219C276.857 15.4176 277.758 20.3244 277.617 24.1113C277.559 28.7815 277.741 33.3249 277.448 37.945C268.665 38.5588 259.355 34.952 260.161 47.7808C260.297 49.9404 260.173 53.0661 260.183 55.336L260.216 76.0929L260.224 271.148L260.183 299.506C260.186 302.872 260.62 316.178 259.84 318.482C258.939 319.343 257.351 319.388 256.387 318.659C255.526 317.248 255.99 282.669 255.99 277.495L255.983 118.457L255.995 68.9267C255.993 60.2734 255.783 51.4476 256.162 42.8157C256.563 33.6855 266.358 32.9042 273.265 33.6227C273.076 31.0398 273.194 28.1445 273.174 25.5351C273.108 17.9258 272.086 8.37917 282.174 6.90524Z" fill="#174952"/>
<path id="Vector_5" d="M285.476 109.119C291.855 109.068 298.234 109.05 304.611 109.064C310.409 109.059 321.128 107.439 321.378 115.692C321.694 126.128 321.853 137.135 321.31 147.576C321.143 150.82 318.235 152.436 315.271 152.739C307.688 152.999 299.14 152.714 291.933 152.854C279.203 153.238 278.508 151.44 278.925 139.274C279.054 131.366 278.733 123.422 279.038 115.522C279.185 111.698 281.964 109.754 285.476 109.119ZM315.812 148.297C316.597 147.677 317.008 147.332 317.023 146.126C317.081 140.949 317.811 118.543 316.768 114.658C314.908 113.531 288.27 113.769 284.587 114.161C283.696 114.857 283.285 115.462 283.262 116.633C283.211 119.278 282.83 122.964 283.072 125.56C283.587 131.112 282.096 142.634 283.741 147.519C284.835 148.578 290.06 148.368 291.736 148.348C299.413 148.257 307.125 148.426 314.802 148.328C315.138 148.324 315.476 148.313 315.812 148.297Z" fill="#174952"/>
<path id="Vector_6" d="M338.983 109.133C344.782 108.962 350.709 109.134 356.513 109.06C360.257 109.012 364.215 108.937 367.893 109.295C371.632 109.74 373.994 112.497 374.136 116.18C374.34 121.557 374.267 126.954 374.244 132.324C374.052 137.533 374.686 143.1 373.856 148.253C373.27 151.898 369.976 152.663 366.946 152.775L349.311 152.83C345.756 152.846 342.215 152.908 338.66 152.745C336.159 152.631 332.483 151.507 332.122 148.551C331.529 143.709 331.847 138.519 331.814 133.615C331.776 127.671 331.705 121.651 331.96 115.715C332.203 111.201 335.055 109.936 338.983 109.133ZM369.1 148.076C370.811 145.246 369.844 134.848 369.95 131.068C370.029 128.274 370.528 116.558 369.097 114.611C367.691 114.037 365.886 113.918 364.376 113.985C355.708 114.374 346.274 113.518 337.671 114.103C337.141 114.877 336.764 115.594 336.739 116.566C336.512 125.33 336.817 134.131 336.631 142.907C336.565 146.064 336.444 148.204 340.248 148.288C348.291 148.467 356.457 148.323 364.51 148.334C366.02 148.338 367.61 148.322 369.1 148.076Z" fill="#174952"/>
<path id="Vector_7" d="M288.788 55.1341L305.941 55.1573C307.175 55.1573 308.468 55.1478 309.695 55.1589C314.756 55.1351 320.572 54.5524 321.269 61.3122C321.953 67.9364 321.428 75.0732 321.602 81.7628C321.522 85.0975 321.777 88.4555 321.431 91.7755C320.752 98.3147 317.238 98.4654 311.861 98.5101C306.36 98.5063 300.857 98.5303 295.356 98.582C290.272 98.6272 279.139 100.193 279.005 92.7942C278.836 83.5156 278.935 74.1866 278.925 64.9025C278.92 61.9391 278.788 59.1177 281.048 56.8397C282.893 54.9108 286.286 55.1909 288.788 55.1341ZM315.993 94.0152C317.892 92.1168 317.225 86.5614 317.225 83.9156C317.223 78.7196 317.821 65.1887 316.766 60.822C315.741 59.8958 312.257 59.9841 310.826 60.0217C302.445 60.2416 293.705 59.7176 285.364 60.1356C285.084 60.1489 284.807 60.1643 284.526 60.1822C283.176 61.0191 282.82 63.3426 283.032 64.6918C283.86 70.0011 281.898 89.4027 283.746 93.333C284.991 94.0846 287.556 94.1598 289.012 94.1128C297.858 93.8269 307.198 94.498 315.993 94.0152Z" fill="#174952"/>
<path id="Vector_8" d="M337.085 55.3598C346.554 54.5398 357.545 55.5402 367.143 55.2457C373.543 55.0493 374.285 60.2729 374.224 65.4911C374.126 74.0036 374.403 82.8642 374.133 91.4005C373.972 95.7503 372.568 97.5763 368.408 98.4207C360.913 98.691 353.274 98.5207 345.782 98.5818C340.289 98.6264 331.895 99.6927 331.796 92.0663C331.698 84.4976 331.882 77.0153 331.829 69.4537C331.791 64.2446 331.019 60.4336 334.556 56.1845L337.085 55.3598ZM369.001 94.0023C369.504 93.1937 370.046 91.8722 369.983 90.9694C369.693 86.8738 370.783 62.538 369.276 60.6668C366.325 59.5485 342.318 59.889 337.754 60.1252C337.219 60.7193 336.855 61.2571 336.82 62.0918C336.449 71.3282 336.734 80.645 336.767 89.8946C336.772 90.926 337.055 92.8822 337.643 93.6596C340.263 94.4574 365.24 94.3233 369.001 94.0023Z" fill="#174952"/>
<path id="Vector_9" d="M178.98 156.585L179.778 156.565C189.108 156.417 198.614 156.642 207.986 156.556C213.55 156.703 219.335 156.177 224.857 156.785C233.492 157.736 232.136 167.94 231.932 173.939C240.762 173.69 248.578 173.04 248.69 184.825C248.754 191.62 248.711 198.515 248.703 205.316L248.687 243.903L248.707 290.331C248.711 297.91 248.73 305.492 248.728 313.068C248.728 314.166 248.683 316.794 247.338 317.069C245.762 317.392 244.376 316.98 244.318 315.151C244.121 312.011 244.205 308.869 244.217 305.732L244.279 287.909L244.287 217.499L244.297 195.98C244.303 191.729 244.484 185.702 243.993 181.584C241.511 177.538 238.746 178.31 234.474 178.275C232.106 178.256 229.707 178.352 227.339 178.394C227.035 174.406 228.247 165.588 226.621 162.765C225.751 161.256 205.596 161.57 203.915 161.684C200.013 161.95 177.763 161.011 175.897 162.476C174.26 164.995 174.485 175.462 175.004 178.33C159.298 178.239 159.027 175.939 159.034 191.941L159.041 207.837L159.067 258.61C159.073 261.179 159.256 273.278 158.822 275.219C158.062 276.332 156.751 276.529 155.604 275.898C153.798 273.803 154.58 266.585 154.61 263.622L154.612 246.325L154.593 186.857C154.63 174.112 159.186 173.665 170.345 173.963C170 170.297 169.748 162.521 172.108 159.752C174.258 157.23 176.015 156.971 178.98 156.585Z" fill="#174952"/>
<path id="Vector_10" d="M211.083 245.62C215.124 245.336 231.014 244.967 233.883 246.608C235.157 247.337 236.215 248.683 236.514 250.131C237.154 253.229 237.047 268.786 236.6 272.357C236.455 273.513 236.28 274.656 235.562 275.61C234.467 277.069 233.142 277.437 231.426 277.723C227.396 277.993 211.28 278.558 208.315 277.049C207.013 276.387 206.004 275.11 205.631 273.697C204.895 270.918 205.154 254.718 205.528 251.495C205.662 250.34 205.849 249.251 206.509 248.265C207.631 246.587 209.219 246.046 211.083 245.62ZM231.261 273.278C232.77 270.176 231.762 255.425 231.613 251.279C231.542 249.329 213.093 249.97 210.74 250.14C209.202 252.256 210.023 258.875 210.016 261.689C210.009 264.096 209.516 271.065 210.344 272.847C212.342 273.662 228.488 273.462 231.261 273.278Z" fill="#174952"/>
<path id="Vector_11" d="M171.791 245.6C176.022 245.421 191.994 244.888 194.784 246.639C196.111 247.472 197.039 248.854 197.377 250.378C198.025 253.29 197.994 268.813 197.55 272.205C197.405 273.306 197.172 274.462 196.546 275.398C195.645 276.743 194.334 277.364 192.803 277.725C189.076 277.902 171.679 278.434 169.082 277.021C167.783 276.307 166.85 275.075 166.516 273.629C165.875 270.969 166.432 255.538 166.384 251.803C166.375 251.078 166.813 248.845 167.265 248.223C168.515 246.502 169.873 246.04 171.791 245.6ZM192.746 273.278C193.121 272.723 193.218 272.258 193.289 271.595C193.638 268.354 193.288 264.909 193.29 261.651C193.292 258.569 193.82 254.839 193.246 251.854C193.167 251.443 193.079 250.85 192.696 250.631C190.618 249.441 174.796 250.003 171.508 250.14C170.463 252.104 170.345 270.981 171.142 272.947C173.092 273.616 190.171 273.518 192.746 273.278Z" fill="#174952"/>
<path id="Vector_12" d="M210.268 199.191C214.536 198.816 230.92 198.384 234.224 200.056C235.371 200.635 235.984 202.149 236.315 203.309C237.242 206.554 237.317 226.024 235.73 228.518C234.835 229.925 233.584 230.554 232.003 230.908C227.674 231.288 212.488 231.797 208.905 230.566C207.607 230.12 206.663 229.123 206.103 227.892C204.84 225.114 204.863 205.325 206.046 202.567C206.845 200.703 208.48 199.868 210.268 199.191ZM230.841 226.561C231.487 226.053 231.807 225.629 231.826 224.727C231.91 220.862 232.408 206.677 231.423 203.923C230.147 202.992 213.258 203.339 210.83 203.444C209.992 204.289 209.82 205.324 209.938 206.468C210.279 209.792 209.293 223.992 210.403 226.158C212.613 227.185 228.224 227.014 230.841 226.561Z" fill="#174952"/>
<path id="Vector_13" d="M170.879 199.193C175.089 198.854 191.134 198.42 194.51 199.896C195.963 200.532 196.572 201.525 197.071 202.995C198.07 205.933 198.014 222.245 197.536 225.777C197.428 226.576 197.21 227.319 196.843 228.039C196.086 229.526 194.937 230.381 193.386 230.92C189.347 231.327 173.584 231.713 170.263 230.607C169.06 230.206 167.599 229.436 167.078 228.205C165.939 225.513 165.745 204.685 166.956 202.25C167.786 200.581 169.186 199.787 170.879 199.193ZM192.472 226.599C194.134 224.704 193.065 209.467 193.287 206.246C193.322 205.729 193.026 204.396 192.851 203.872C191.292 203.02 174.269 203.354 171.509 203.47C169.778 206.137 171.077 220.788 170.846 224.98C170.836 225.164 171.154 226.318 171.44 226.257C174.854 227.149 189.516 226.974 192.472 226.599Z" fill="#174952"/>
<path id="Vector_14" d="M387.121 278.21C391.387 277.644 396.747 278.078 400.846 279.26C409.061 281.614 415.995 287.151 420.102 294.645C421.862 297.883 423.104 301.378 423.786 305C425.272 313.303 424.578 326.374 424.048 334.952C423.972 336.179 420.345 337.608 420.09 333.882C419.403 323.916 421.319 313.081 418.759 303.375C414.728 288.083 399.483 279.88 384.347 283.252C384.284 283.272 384.22 283.293 384.155 283.313C380.987 284.125 377.99 285.503 375.314 287.381C362.993 295.904 362.662 307.632 362.662 321.087L362.675 338.276C362.675 340.936 362.803 344.684 362.483 347.365C362.417 347.925 361.281 348.955 360.587 349.305C359.004 349.199 358.406 347.036 358.368 345.701C358.115 337.158 358.512 328.587 358.348 320.032C358.242 314.409 358.189 308.389 359.527 302.908C360.723 298.173 362.924 293.751 365.984 289.945C371.116 283.621 378.975 279.048 387.121 278.21Z" fill="#174952"/>
<path id="Vector_15" d="M284.276 164.12C294.137 163.732 304.535 164.04 314.423 164.047C318.48 164.183 321.441 166.017 321.514 170.459C321.625 177.357 321.655 184.473 321.514 191.376C321.481 192.991 320.269 194.668 318.497 194.282C315.559 191.653 318.379 174.321 316.864 169.384C315.834 168.169 307.4 168.48 305.486 168.482C298.827 168.486 292.115 168.356 285.463 168.646C283.771 168.72 283.405 169.604 283.161 171.051C282.996 176.754 283.155 182.683 283.08 188.402C283.044 191.077 282.658 200.323 283.802 201.976C286.935 203.886 299.4 202.383 303.535 202.913C306.734 202.683 306.294 207.101 304.166 207.075C297.628 206.993 288.285 208.07 282.161 206.298C279.02 205.39 278.773 200.333 278.925 197.511C279.46 187.612 277.776 176.405 279.894 166.817C280.167 165.586 283.12 164.373 284.276 164.12Z" fill="#174952"/>
<path id="Vector_16" d="M210.382 292.557C216.088 291.919 222.713 292.633 228.578 292.419C240.502 291.985 236.128 304.154 236.816 311.701C237.101 314.833 234.02 314.06 232.114 313.715C231.932 311.842 231.988 309.159 231.974 307.223C232.002 304.886 232.398 299.17 231.215 297.439C229.162 296.787 212.257 296.636 210.681 297.355C208.621 299.523 211.663 305.356 206.728 304.119C204.703 303.445 205.298 300.876 205.328 299.359C205.41 295.331 206.527 293.703 210.382 292.557Z" fill="#174952"/>
<path id="Vector_17" d="M337.729 164.127C340.082 163.973 352.767 163.09 353.678 165.36C356.094 171.365 340.248 167.102 337.663 168.875C336.913 169.389 337.007 169.611 336.739 170.487C336.724 172.524 336.853 179.112 336.608 180.605C335.636 181.876 334.303 182.397 332.733 181.968C332.145 181.483 331.817 180.417 331.822 179.683C331.857 173.817 329.764 165.204 337.729 164.127Z" fill="#174952"/>
<path id="Vector_18" d="M79.4764 406.894C79.0834 406.318 78.8628 405.801 78.8426 405.094C78.5752 395.791 78.9168 386.41 78.7391 377.11C78.3008 351.072 78.2097 325.029 78.4662 298.991C78.5144 293.847 78.7769 288.577 78.8239 283.308C79.0195 283.527 78.9973 292.126 79.0874 293.249L79.5966 292.709L79.5784 372.729L79.6375 394.979C79.6527 397.866 79.8475 404.433 79.4764 406.894Z" fill="#174952"/>
</g>
</svg>