<svg xmlns="http://www.w3.org/2000/svg" width="1333" height="1329" viewBox="0 0 1333 1329" fill="none">
<path d="M507.418 591.698C507.226 549.37 523.439 508.614 552.654 477.985C581.086 448.018 620.34 430.695 661.64 429.887C701.523 429.217 740.012 444.561 768.503 472.488C801.595 504.501 818.349 544.866 819.06 590.764C832.501 592.016 848.227 595.641 861.61 597.991C895.859 604.007 929 612.719 962.71 620.828L966.138 621.633C968.848 623.675 1005.8 633.197 1012.43 635.305C1056.77 648.984 1100.59 664.3 1143.78 681.234L1143.75 682.557C1145.49 683.275 1146.77 683.793 1148.44 684.691L1148.69 686.057L1147.77 686.883C1143.59 685.769 1140.93 683.426 1136.33 683.965C1133.23 683.642 1115.13 676.167 1111.35 674.744C1099.24 670.216 1087.08 665.824 1074.87 661.562C1041.13 649.717 1001.15 636.968 966.447 627.928L962.818 627.67C959.324 625.264 943.914 621.902 939.164 620.72C899.56 610.657 859.497 602.515 819.111 596.326L815.625 595.584C805.462 594.24 793.272 592.29 783.245 591.622C715.697 583.281 647.448 582.17 579.662 588.308C575.012 588.692 548.496 591.029 545.641 592.092C535.829 592.832 520.272 594.84 510.795 597.299L507.062 597.534C499.857 598.78 492.363 600.172 485.163 601.272L477.651 602.591C445.63 607.23 401.684 618.919 370.636 627.274L367.34 628.243C326.674 638.668 281.019 653.843 241.493 667.844C231.35 671.373 221.262 675.053 211.232 678.891C204.852 681.349 194.447 685.69 188.019 687.502L186.751 686.776C184.798 687.315 182.862 687.645 181.254 688.939L180.8 688.228L181.292 686.675C183.845 685.439 184.017 685.302 186.176 683.376L186.696 682.909C189.067 680.731 216.756 670.999 221.988 669.087C279.219 647.786 337.548 629.562 396.725 614.489C436.614 604.707 468.023 599.261 507.418 591.698ZM815.747 590.33C814.424 543.844 799.194 506.059 765.01 473.735C736.217 446.135 697.398 431.49 657.543 433.189C573.17 436.193 511.907 508.971 510.487 591.186C545.821 586.584 580.67 581.223 616.326 579.177C675.109 575.804 734.025 578.76 792.316 586.885C800.114 587.972 808.071 588.551 815.747 590.33Z" fill="#164951"/>
<path d="M507.418 591.698C507.226 549.37 523.439 508.614 552.654 477.985C581.086 448.018 620.34 430.695 661.64 429.887C701.523 429.217 740.012 444.561 768.503 472.488C801.595 504.501 818.349 544.866 819.06 590.764L815.747 590.33C814.424 543.844 799.194 506.059 765.01 473.735C736.217 446.135 697.398 431.49 657.543 433.189C573.17 436.193 511.907 508.971 510.487 591.186L507.418 591.698Z" fill="#164951"/>
<path d="M179.931 685.453L179.961 588.187C179.949 572.273 179.246 548.493 180.432 533.11C183.614 486.422 203.572 442.459 236.625 409.33C250.777 395.351 273.239 379.795 289.817 367.511L372.781 305.894C431.634 261.886 490.676 217.156 550.363 174.346C566.03 163.108 598.095 138.822 613.748 130.335C630.872 121.146 650.075 116.525 669.503 116.919C688.054 117.092 706.253 121.987 722.381 131.144C730.848 135.866 743.132 145.178 751.419 151.13L792.654 180.536C847.631 220.408 902.22 260.804 956.428 301.715L1037.23 362.227C1057.11 376.894 1084.22 395.819 1101.02 412.752C1127.76 439.703 1148.46 483.056 1152.37 520.913C1154.54 541.964 1153.86 568.181 1153.84 589.851L1153.85 685.381L1150.34 684.044C1149.55 651.514 1150.71 617.879 1150.29 585.258C1150.04 566.248 1151.03 545.067 1149.42 526.387C1146.06 487.246 1126.23 443.049 1098.36 415.246C1081.91 398.834 1053.95 379.375 1034.67 365.149L949.032 301.282C895.693 260.949 841.938 221.165 787.78 181.935C769.848 169.06 735.391 143.031 716.897 132.861C701.825 124.745 685.014 120.41 667.9 120.229C650.42 120.069 633.187 124.303 617.775 132.542C598.838 142.78 563.849 169.031 544.885 182.797C484.784 226.423 424.891 271.332 365.458 315.879L289.874 372.032C273.801 383.92 251.503 399.325 237.941 413.094C207.365 444.115 188.395 484.713 184.217 528.069C182.606 546.165 183.44 571.485 183.486 590.301L183.675 683.721L179.931 685.453Z" fill="#164951"/>
<path d="M180.142 691.067L183.744 689.32L183.617 771.56C183.593 788.335 182.831 811.917 184.474 828.06C188.553 868.131 208.601 911.989 237.324 940.358C255.154 957.967 282.11 975.713 302.961 990.757C334.326 1013.32 365.515 1036.12 396.524 1059.17L542.155 1166.43L581.119 1194.84C608.373 1214.78 630.754 1232.03 666.57 1232.06C685.33 1232.05 703.766 1227.18 720.081 1217.91C729.317 1212.73 738.977 1205.38 747.674 1199.08L784.819 1172.1L919.527 1072.91L1027.05 994.207C1049.02 978.286 1077.61 959.592 1096.5 941.156C1126.2 912.161 1146.2 866.995 1149.71 826.077C1150.78 810.034 1150.3 788.946 1150.29 772.372C1150.17 744.779 1150.2 717.179 1150.35 689.579L1153.68 690.873C1153.75 693.654 1153.79 696.436 1153.81 699.224L1153.85 773.378C1153.86 789.09 1154.51 812.406 1153.09 827.284C1148.66 871.437 1129.32 912.765 1098.24 944.448C1083.06 959.757 1051.76 980.967 1033.46 994.228L929.18 1070.27L791.755 1171.42L752.36 1200.09C743.146 1206.8 731.567 1215.67 721.814 1221.09C704.801 1230.61 685.624 1235.59 666.132 1235.56C637.428 1235.46 614.211 1224.28 591.856 1207.45C578.158 1197.15 563.825 1187.04 549.924 1176.94L411.582 1075.04L306.408 998.117C283.635 981.65 253.498 962.079 234.561 942.902C205.234 913.196 183.736 867.355 180.698 825.674C179.484 809.028 179.92 788.615 179.914 771.631C179.823 744.779 179.899 717.926 180.142 691.067Z" fill="#164951"/>
<path d="M962.71 620.828L962.796 620.161C964.564 605.392 962.947 589.846 961.265 575.105C954.394 514.917 933.133 458.075 895.19 410.462C848.752 352.18 778.293 311.603 703.996 303.315C623.609 294.348 545.894 315.271 482.616 366.057C418.545 417.478 381.127 495.559 372.365 576.333C371.826 581.302 370.149 618.681 369.529 619.454L367.631 619.929C366.888 617.608 367.532 603.727 367.625 600.067C368.825 551.189 380.931 503.195 403.059 459.595C439.597 388.695 498.861 336.036 574.394 311.835C772.485 248.363 963.759 396.094 966.239 601.275C966.325 608.042 966.843 614.894 966.138 621.633L962.71 620.828Z" fill="#164951"/>
<path d="M807.877 652.082L809.609 652.592L810.852 651.737L811.355 652.053C800.984 684.828 784.402 707.62 757.83 729.728C751.218 735.234 744.706 738.928 738.136 743.801C734.377 754.504 732.293 761.504 733.127 772.997C732.365 771.804 731.704 770.639 731.157 769.331L731.208 769.712L730.532 770.057L732.3 771.064L730.525 770.747C730.733 774.564 730.963 776.893 730.446 780.738C728.44 769.878 729.864 756.753 733.4 746.238C730.05 747.668 726.679 749.063 723.301 750.421C678.365 768.397 639.052 765.702 595.347 746.95C593.634 746.705 594.423 746.547 592.967 747.352C592.974 749.393 593.104 749.551 592.692 751.492L590.141 743.729C555.74 723.389 531.633 696.191 518.029 658.256L518.706 657.523L521.483 658.687C522.649 661.469 523.861 664.229 525.118 666.974C543.312 706.16 573.001 735.061 613.782 749.968C651.074 763.43 692.215 761.317 727.93 744.096C767.253 725.488 793.344 692.404 807.877 652.082Z" fill="#164951" fill-opacity="0.988235"/>
<path d="M566.698 831.992L568.189 835.047L567.322 835.615C561.148 839.625 554.435 841.86 547.534 844.24C510.132 857.141 473.24 871.43 436.946 887.142C411.57 898.124 383.279 905.434 376.806 936.441C374.626 946.884 376.685 956.3 382.467 965.133C383.264 966.341 384.091 967.527 384.948 968.691L383.575 969.158C383.995 970.459 384.278 971.739 384.509 973.083C363.566 953.87 372.484 920.032 392.962 904.406C403.166 896.622 417.562 891.483 429.387 886.423C455.48 875.254 481.607 864.084 508.31 854.46C522.48 849.149 553.768 839.244 565.549 832.646L566.698 831.992Z" fill="#164951"/>
<path d="M1195.1 1.04719C1243.56 -0.166635 1294.95 -7.32087 1322.1 42.4271C1326.26 50.1285 1329.16 58.4495 1330.68 67.0716C1331.95 74.3425 1333.29 134.396 1331.66 139.965L1328.75 140.934C1328.04 121.513 1328.91 102.034 1328.48 82.606C1328.06 63.7826 1322.87 47.1702 1310.59 32.6586C1290.24 8.59773 1268.62 4.09979 1238.59 4.18388C1232.21 4.20185 1195.71 5.9937 1192.32 2.75717L1192.78 1.6201L1195.1 1.04719Z" fill="#164951"/>
<path d="M1.00646 1189.53C3.55802 1190.41 3.97562 1190.85 4.07337 1193.72C4.87693 1217.37 0.699913 1247.51 7.82093 1270.05C16.8542 1299.01 41.6633 1320.24 71.6675 1324.69C82.6543 1326.25 137.082 1324.34 140.648 1326.2L140.969 1328.5C134.96 1328.74 128.822 1328.66 122.858 1328.68C85.2317 1328.76 48.8515 1333.73 21.5052 1301.86C1.29245 1278.31 -0.339899 1256.57 0.258963 1226.89C0.509663 1214.47 0.181118 1202.18 1.00646 1189.53Z" fill="#164951"/>
<path d="M74.5892 0.946923C92.2769 0.384789 110.217 1.17448 127.936 0.700467C131.551 0.603795 138.247 -0.0139005 140.964 2.26698C140.769 2.59761 140.574 2.92751 140.379 3.25814C126.341 4.68773 90.5239 3.80151 78.4927 4.38514C73.9711 4.59501 69.4724 5.15276 65.0363 6.05192C31.0883 13.1805 8.40959 42.3172 4.55206 75.9899C2.94062 95.2689 4.08559 117.39 4.12225 136.865C4.1244 138.1 3.50124 139.108 2.91259 140.156L1.37302 140.068L2.00984 140.681C1.2034 139.744 0.714795 138.454 0.731111 137.209C1.18464 102.515 -6.02794 62.7182 16.8837 33.4428C33.2402 12.5437 49.7384 4.49223 74.5892 0.946923Z" fill="#164951"/>
<path d="M1329.03 1189.67C1331.18 1190.15 1330.51 1189.69 1331.99 1191.05C1332.72 1198.17 1332.07 1206.16 1332.1 1213.38C1332.23 1249.15 1335.29 1279.75 1306.55 1306.6C1283.17 1328.45 1263.75 1328.78 1233.45 1328.75C1220.75 1328.8 1208.06 1328.68 1195.35 1328.39C1193.33 1328.44 1194.23 1328.77 1192.54 1327.65C1193.45 1326.15 1196.11 1325.67 1197.82 1325.57C1235.74 1323.32 1269.41 1333.65 1301.09 1306.66C1340.2 1273.33 1324.82 1234 1328.93 1190.55L1329.03 1189.67Z" fill="#164951"/>
<path d="M842.42 866.406C839.796 861.906 826.916 861.576 824.71 858.205C833.723 858.176 849.305 868.569 856.342 867.915C879.313 876.209 903.039 887.278 925.586 896.953C955.458 909.782 971.328 953.633 941.622 975.929L944.921 971.645L944.626 971.12L941.198 972.766C953.848 960.109 957.614 948.566 951.9 931.065C948.752 921.757 942.923 913.584 935.138 907.583C921.669 897.003 879.335 882.326 861.84 874.47C856.68 872.156 848.644 869.698 843.599 867.038L842.42 866.406Z" fill="#164951" fill-opacity="0.988235"/>
<path d="M730.446 780.738C730.963 776.893 730.733 774.564 730.525 770.747L732.3 771.064L730.532 770.057L731.208 769.712L731.157 769.331C731.704 770.639 732.365 771.804 733.127 772.997C734.859 799.167 744.785 825.94 770.947 836.455C778.422 839.467 786.192 841.975 793.782 844.714L832.12 858.629C839.343 861.26 849.593 864.709 856.342 867.915C849.305 868.569 833.723 858.176 824.71 858.205C826.916 861.576 839.796 861.906 842.42 866.406C817.896 858.183 792.093 847.919 767.591 839.237C746.848 831.884 731.251 802.221 730.446 780.738Z" fill="#164951"/>
<path d="M368.334 637.948L369.962 638.012C370.627 639.664 370.752 640.316 371.151 642.067L371.347 642.936C373.779 654.087 374.736 667.772 377.1 680.084C383.946 715.713 400.63 762.244 420.861 792.31L419.138 795.127C393.56 754.935 376.996 709.682 370.588 662.475C369.406 653.843 369.113 646.493 368.334 637.948Z" fill="#164951" fill-opacity="0.854902"/>
<path d="M962.818 627.67L966.447 627.928C965.11 640.439 964.392 652.959 962.588 665.436C958.836 691.282 951.742 716.906 942.161 741.192C940.982 744.19 939.487 747.374 938.438 750.364C938.049 749.652 938.359 750.126 937.23 749.163L935.002 750.766C948.285 718.221 956.902 688.846 961.1 653.85C962.178 644.847 963.357 636.792 962.818 627.67Z" fill="#164951"/>
<path d="M941.198 972.766L944.626 971.12L944.921 971.645L941.622 975.929C938.833 979.178 919.887 992.144 915.373 995.637C893.983 1012.18 869.775 1028.25 848.924 1045.22C850.197 1042.73 850.096 1042.79 850.29 1040.15C852.331 1038.04 879.054 1018.26 882.217 1016.08C901.084 1003.09 922.41 984.856 941.198 972.766Z" fill="#164951"/>
<path d="M183.675 683.721L186.696 682.909L186.176 683.376C184.017 685.302 183.845 685.439 181.292 686.675L180.8 688.228L181.254 688.939C182.862 687.645 184.798 687.315 186.751 686.776L188.019 687.502L183.744 689.32L180.142 691.067C175.701 692.828 153.719 701.985 150.676 702.782C144.836 705.24 136.767 708.791 130.874 710.617C129.949 710.344 130.307 710.609 129.79 709.819L133.268 708.475L133.057 707.77L131.066 707.26C128.232 708.252 127.379 708.762 124.422 708.338C128.705 706.398 139.919 701.115 143.784 700.324C148.949 697.615 174.53 687.013 179.931 685.453L183.675 683.721Z" fill="#164951"/>
<path d="M124.422 708.338C128.705 706.398 139.919 701.115 143.784 700.324L143.349 701.474C141.378 702.509 139.431 703.199 138.098 704.78C141.994 706.376 145.331 702.064 150.676 702.782C144.836 705.24 136.767 708.791 130.874 710.617C129.949 710.344 130.307 710.609 129.79 709.819L133.268 708.475L133.057 707.77L131.066 707.26C128.232 708.252 127.379 708.762 124.422 708.338Z" fill="#164951"/>
<path d="M384.509 973.083C384.278 971.739 383.995 970.459 383.575 969.158L384.948 968.691C396.18 978.229 409.215 986.07 420.862 995.206C430.72 1002.94 441.399 1009.71 451.221 1017.57L451.572 1021.89C437.834 1012.3 424.117 1001.92 410.364 992.266C405.466 988.83 387.372 976.31 384.509 973.083Z" fill="#164951"/>
<path d="M124.422 708.338C127.379 708.762 128.232 708.252 131.066 707.26L133.057 707.77L133.268 708.475L129.79 709.819C130.307 710.609 129.949 710.344 130.874 710.617C128.236 712.076 124.18 713.88 121.334 714.936C105.729 720.722 89.9647 730.72 73.3027 732.416C82.7981 726.631 114.151 712.018 124.422 708.338Z" fill="#164951"/>
<path d="M451.221 1017.57C464.092 1026.33 476.44 1035.92 488.979 1045.16C491.192 1046.79 502.982 1055.05 503.979 1056.12C505.43 1058.8 505.866 1058.95 508.343 1060.89C508.838 1062.42 508.823 1061.98 508.864 1063.54C502.977 1059.86 493.019 1052.19 487.133 1047.93C475.161 1039.41 463.306 1030.73 451.572 1021.89L451.221 1017.57Z" fill="#164951"/>
<path d="M594.922 772.709L595.825 772.544C596.588 774.197 597.386 775.671 597.858 777.41C595.62 798.354 589.604 818.321 572.421 831.992C571.066 833.084 569.653 834.105 568.189 835.047L566.698 831.992C568.228 830.82 569.728 829.599 571.197 828.348C587.999 813.836 593.43 793.949 594.922 772.709Z" fill="#164951"/>
<path d="M1212.54 714.728L1212.8 714.196L1212.1 713.233C1208.52 712.105 1208.21 712.09 1205.27 709.884L1205.46 709.373C1209.42 709.201 1210.51 711.098 1213.53 710.106C1219.91 712.773 1255.63 727.845 1257.38 732.057C1253.73 733.114 1216.13 717.445 1212.54 714.728Z" fill="#164951"/>
<path d="M503.979 1056.12C514.152 1061.86 549.183 1087.51 555.575 1095.95C548.326 1093.24 516.523 1069.53 508.864 1063.54C508.823 1061.98 508.838 1062.42 508.343 1060.89C505.866 1058.95 505.43 1058.8 503.979 1056.12Z" fill="#164951"/>
<path d="M1176.72 694.351C1187.97 699.145 1202.74 704.903 1213.53 710.106C1210.51 711.098 1209.42 709.201 1205.46 709.373L1205.27 709.884C1208.21 712.09 1208.52 712.105 1212.1 713.233L1212.8 714.196L1212.54 714.728C1200.64 710.566 1186.51 703.911 1174.19 699.081L1176.72 694.351Z" fill="#164951"/>
<path d="M935.002 750.766L937.23 749.163C938.359 750.126 938.049 749.652 938.438 750.364C935.34 758.981 917.119 794.61 911.247 800.044C911.944 798.347 912.62 796.644 913.296 794.933C912.095 796.428 908.214 801.862 907 802.121C907.273 801.071 910.78 795.673 911.585 794.43C920.85 780.127 927.441 765.817 935.002 750.766Z" fill="#164951"/>
<path d="M1143.78 681.234C1145.61 681.974 1148.75 683.139 1150.34 684.044L1153.85 685.381C1161.68 688.163 1169.15 691.714 1176.72 694.351L1174.19 699.081C1167.38 696.278 1160.55 693.539 1153.68 690.873L1150.35 689.579C1145.42 687.739 1141.14 686.093 1136.33 683.965C1140.93 683.426 1143.59 685.769 1147.77 686.883L1148.69 686.057L1148.44 684.691C1146.77 683.793 1145.49 683.275 1143.75 682.557L1143.78 681.234Z" fill="#164951"/>
<path d="M815.625 595.584L819.111 596.326C818.687 608.558 815.5 641.5 811.355 652.053L810.852 651.737L809.609 652.592L807.877 652.082C814.518 631.236 814.5 618.5 815.625 595.584Z" fill="#164951"/>
<path d="M777.042 1094.77C787.766 1088.23 798.447 1078.54 808.164 1070.59C811.406 1067.93 816.631 1064.83 820.318 1062.31C818.974 1064.49 817.573 1066.1 817.616 1068.55C810.306 1076.55 788.959 1086.32 781.118 1095.08L777.042 1094.77Z" fill="#164951"/>
<path d="M507.062 597.534L510.795 597.299C508.961 618.346 513.674 639.151 521.483 658.687L518.706 657.523L518.029 658.256C508.864 636.847 508.5 619.5 507.168 598.131L507.062 597.534Z" fill="#164951"/>
<path d="M907 802.121C908.214 801.862 912.095 796.428 913.296 794.933C912.62 796.644 911.944 798.347 911.247 800.044C909.149 805.98 895.068 822.792 890.368 827.895C886.4 832.2 881.958 835.823 878.666 841.135L875.209 841.623C879.831 838.561 901.623 808.784 907 802.121Z" fill="#164951"/>
<path d="M443.531 828.528L448.172 829.821C454.42 833.746 461.458 844.204 466.603 849.652C469 852.189 470.715 852.613 473.153 855.747L472.548 856.415C464.487 853.785 449.113 835.744 443.531 828.528Z" fill="#164951"/>
<path d="M820.318 1062.31C823.79 1060.91 845.331 1043.74 850.29 1040.15C850.096 1042.79 850.197 1042.73 848.924 1045.22C847.135 1046.14 846.79 1046.32 844.784 1046.31C834.722 1055.26 828.224 1060.35 817.616 1068.55C817.573 1066.1 818.974 1064.49 820.318 1062.31Z" fill="#164951"/>
<path d="M592.692 751.492C593.104 749.551 592.974 749.393 592.967 747.352C594.423 746.547 593.634 746.705 595.347 746.95C597.744 758.615 599.149 765.601 597.858 777.41C597.386 775.671 596.588 774.197 595.825 772.544L594.922 772.709C594.942 764.573 594.137 759.506 592.692 751.492Z" fill="#164951" fill-opacity="0.972549"/>
<path d="M431.248 807.792C436.837 815.173 442.479 822.519 448.172 829.821L443.531 828.528C439.649 822.893 434.773 818.293 430.751 812.09C430.628 810.12 430.378 809.531 431.248 807.792Z" fill="#164951"/>
<path d="M875.209 841.623L878.666 841.135C872.701 848.329 869.596 851.226 861.941 856.228L861.273 855.955C864.579 852.167 870.825 842.335 875.209 841.623Z" fill="#164951"/>
<path d="M420.861 792.31C422.767 795.127 430.036 805.391 431.248 807.792C430.378 809.531 430.628 810.12 430.751 812.09C426.454 806.196 422.973 801.38 419.138 795.127L420.861 792.31Z" fill="#164951"/>
<path d="M367.34 628.243L370.636 627.274C371.09 632.872 371.284 636.478 371.151 642.067C370.752 640.316 370.627 639.664 369.962 638.012L368.334 637.948C368.293 635.008 367.709 631.231 367.34 628.243Z" fill="#164951"/>
<path d="M777.042 1094.77L781.118 1095.08C778.825 1096.87 778.58 1097.11 775.943 1098.22L775.468 1097.41L777.042 1094.77Z" fill="#164951"/>
</svg>