<svg xmlns="http://www.w3.org/2000/svg" width="79" height="74" viewBox="0 0 79 74" fill="none">
<g clip-path="url(#clip0_51_22)">
<path d="M37.2183 5.37319C37.8631 5.30484 38.5519 5.14571 38.7196 5.9965C39.0007 7.42212 39.1508 8.87097 39.3507 10.3117L40.1888 16.0942C40.8793 20.9734 41.6508 25.9059 42.1911 30.794C42.4199 32.8644 43.0412 35.6295 43.0797 37.6263C43.8776 37.2274 44.9081 36.4355 45.6433 35.9177C47.0273 34.9427 48.3961 33.9314 49.7671 32.9385C50.5795 32.3501 51.4663 31.8243 52.2855 31.2446C56.8825 27.9471 61.5087 24.6932 66.1637 21.4829C67.4889 20.5849 69.0109 19.4275 70.3557 18.5905C71.1415 18.101 72.4179 20.1539 72.8185 20.7552C74.5707 23.3875 75.8801 26.2115 76.8782 29.2356C79.478 37.1543 78.9199 45.8097 75.3249 53.3059C71.8205 60.468 66.0903 66.2222 59.0439 69.6563C57.6431 70.3437 56.0038 70.9649 54.5352 71.4763C46.4837 74.1026 37.1808 74.1431 29.2348 71.0349C28.4205 70.7163 26.7556 70.1033 26.0791 69.633C25.6829 69.8881 25.3073 70.1678 24.9246 70.4359C17.8453 75.3882 7.71712 73.6069 2.85086 66.2502C-0.995628 60.4354 0.0452098 52.7894 4.98324 48.0335C5.6347 47.406 6.50314 46.8237 7.24825 46.2948C5.19772 36.8909 7.26244 26.7328 13.1756 19.1775C19.0854 11.4715 27.7375 6.50386 37.2183 5.37319ZM27.5526 68.1987C28.421 68.6075 29.3839 69.0773 30.2738 69.4146C38.2721 72.4196 47.052 72.3834 55.0266 69.3124C55.8795 68.988 57.6493 68.2461 58.427 67.8398C65.7035 64.3265 72.1276 57.1086 74.8266 49.4236C77.8868 40.7108 76.6631 30.5124 71.7734 22.788C71.396 22.1919 70.7451 21.3163 70.4619 20.7492C69.9536 21.2295 68.6468 22.09 68.0242 22.5289L62.5626 26.347L49.6635 35.3661C47.6577 36.7675 45.6198 38.1977 43.631 39.6325C43.2425 39.9127 42.8258 40.1038 42.3728 40.2546C42.1607 40.1455 41.8192 39.9833 41.6269 39.8609C41.3029 38.9462 41.0106 35.9845 40.8373 34.8007L38.7162 19.8636L37.2929 9.33036C37.225 8.81489 37.1702 8.25512 37.154 7.73618C37.1325 7.04367 36.7502 7.1911 36.2478 7.26161C33.6618 7.87659 31.0602 8.5426 28.5846 9.56653C16.1748 14.6993 7.22906 27.6999 8.4757 41.6711C8.55498 42.5598 8.64073 43.6448 8.8345 44.5075C8.89987 44.7901 8.98076 45.0686 9.07677 45.3417C10.0283 44.6653 11.2543 44.4203 12.3576 44.1492C22.4096 41.6786 33.1619 49.941 31.2197 61.0285C30.7937 63.4602 29.3216 66.5059 27.5526 68.1987ZM16.6547 71.3677C17.3361 71.2705 18.339 71.2422 18.9537 71.0874C25.4738 69.4452 30.4118 63.6352 29.2943 56.4928C28.7515 53.0236 26.9771 50.4777 24.3025 48.3227C22.2259 46.6527 18.0003 45.2831 15.3568 45.5538C11.2687 45.9538 7.85642 47.3701 5.18782 50.6952C3.16479 53.2101 2.20203 56.4513 2.51334 59.6991C3.19248 66.8081 9.94022 71.7127 16.6547 71.3677Z" fill="#1EA84E"/>
<path d="M15.9714 49.096C17.2627 49.1119 16.9455 50.4347 16.9214 51.4401C19.3691 51.7736 21.3555 52.645 21.2228 55.6489C20.3107 56.1906 20.1767 56.2254 19.3025 55.6016C19.1835 54.8391 19.1639 54.1075 18.4067 53.6668C17.6104 53.2036 16.7842 53.3025 15.8982 53.2737C15.0941 53.2475 14.4184 53.3254 13.6314 53.5278C13.5112 53.6528 13.3626 53.7821 13.2408 53.9039C12.181 54.9415 12.4393 57.0085 14.0346 57.3379C16.2589 57.7972 18.8239 57.0725 20.4538 59.171C21.0834 59.9939 21.3672 61.0413 21.2421 62.0804C21.119 63.0869 20.6139 64.0026 19.8369 64.6277C19.0862 65.2223 17.8808 65.6 16.9286 65.4795C16.9501 66.1588 16.9415 66.6182 16.8994 67.2968C16.7093 67.5749 16.6181 67.7162 16.3308 67.8756C16.2586 67.885 16.1858 67.8899 16.113 67.8903C14.7296 67.8953 15.0156 66.5729 15.0303 65.5275C13.029 65.5307 11.0251 64.4284 10.7511 62.1901C10.6922 61.7089 10.9626 60.646 11.5621 60.7156C12.8331 60.8631 12.5828 62.305 13.2026 63.0336C14.0451 63.8348 16.0886 63.532 17.1837 63.5888C17.748 63.5891 18.5017 63.3594 18.8682 62.8909C19.4354 62.1662 19.3686 60.272 18.4354 59.8563C16.3645 58.9341 13.9054 60.1981 12.0414 58.4375C11.3448 57.7796 10.7962 57.0174 10.763 56.0156C10.6047 52.8544 12.1167 51.6733 15.025 51.5205C15.0245 51.1789 15.0233 50.814 15.0219 50.4747C15.0179 49.522 14.9733 49.1668 15.9714 49.096Z" fill="#1EA84E"/>
<path d="M43.8282 0.681521C45.7465 0.580477 47.8772 0.783509 49.7781 1.02566C57.2224 2.02323 64.1655 5.4287 69.6038 10.7499C70.3155 11.4571 71.0717 12.145 71.6867 12.9433C72.2117 13.6243 72.3544 14.1826 71.5939 14.7388C68.5092 16.9947 65.3269 19.1244 62.2332 21.372C61.4968 21.907 60.7085 22.3802 59.9875 22.929C59.0128 23.7173 57.9515 24.324 56.9632 25.035C55.8223 25.8557 54.7212 26.6131 53.5711 27.411L49.8925 29.9706C48.7973 30.7451 47.1231 32.1454 45.9256 32.5274C45.6737 32.4409 45.3687 32.371 45.1074 32.3037C44.8002 31.4407 44.7699 30.7007 44.6367 29.7984L44.0305 25.5066L41.8339 9.2255C41.522 6.78688 40.9701 4.29683 40.7841 1.81796C40.765 1.56391 40.7329 1.35058 40.9048 1.17174C41.4205 0.635017 43.0782 0.70343 43.8282 0.681521ZM46.5553 30.0644C47.0933 29.5866 47.8055 29.1544 48.4043 28.7412L51.8191 26.3668C54.4699 24.5074 57.2664 22.3785 59.9613 20.6409C63.1274 18.3944 66.5906 15.9029 69.8378 13.8013C63.5486 6.62202 55.0283 2.95461 45.7069 2.45896C44.962 2.42072 44.2157 2.42689 43.4715 2.47744C43.1876 2.54138 42.9707 2.53122 42.8147 2.72605C42.8527 3.31178 43.0269 4.28453 43.1125 4.8932L43.7924 9.68439L45.3946 21.7986C45.7743 24.5102 46.2877 27.35 46.5553 30.0644Z" fill="#1EA84E"/>
</g>
<defs>
<clipPath id="clip0_51_22">
<rect width="79" height="74" fill="white"/>
</clipPath>
</defs>
</svg>