<svg xmlns="http://www.w3.org/2000/svg" width="553" height="154" viewBox="0 0 553 154" fill="none">
<rect width="553" height="154" rx="16" fill="#164951"/>
<path d="M48.3722 30.8182C48.3118 30.2109 48.0437 29.728 47.5678 29.3693C47.092 29.0107 46.4936 28.8313 45.7727 28.8313C45.2649 28.8313 44.8175 28.9183 44.4304 29.0923C44.0469 29.2663 43.745 29.5078 43.5249 29.8168C43.3082 30.1222 43.1999 30.4702 43.1999 30.8608C43.1999 31.1484 43.2621 31.4006 43.3864 31.6172C43.5107 31.8338 43.6776 32.0202 43.8871 32.1765C44.1001 32.3292 44.3345 32.4606 44.5902 32.5707C44.8494 32.6808 45.1104 32.7731 45.3732 32.8477L46.5238 33.1779C46.8718 33.2738 47.2198 33.3963 47.5678 33.5455C47.9158 33.6946 48.2337 33.8828 48.5213 34.1101C48.8125 34.3338 49.0451 34.609 49.2191 34.9357C49.3967 35.2589 49.4854 35.6477 49.4854 36.1023C49.4854 36.6847 49.3345 37.2085 49.0327 37.6737C48.7308 38.1388 48.2976 38.5082 47.733 38.7816C47.1683 39.0515 46.4918 39.1864 45.7035 39.1864C44.9613 39.1864 44.3168 39.0639 43.7699 38.8189C43.223 38.5703 42.7933 38.2276 42.4808 37.7908C42.1683 37.354 41.9925 36.848 41.9535 36.2727H42.9762C43.0117 36.7024 43.1538 37.0664 43.4023 37.3647C43.6509 37.663 43.9741 37.8903 44.3718 38.0465C44.7695 38.1992 45.2134 38.2756 45.7035 38.2756C46.2468 38.2756 46.7298 38.185 47.1523 38.0039C47.5785 37.8192 47.9123 37.5636 48.1538 37.2369C48.3988 36.9066 48.5213 36.5231 48.5213 36.0863C48.5213 35.717 48.4254 35.408 48.2337 35.1594C48.0419 34.9073 47.7738 34.696 47.4293 34.5256C47.0884 34.3551 46.6925 34.2042 46.2415 34.0728L44.9364 33.6893C44.0806 33.4336 43.4165 33.0803 42.9442 32.6293C42.4719 32.1783 42.2358 31.603 42.2358 30.9034C42.2358 30.3175 42.392 29.8026 42.7045 29.3587C43.0206 28.9112 43.4467 28.5632 43.983 28.3146C44.5227 28.0625 45.1282 27.9364 45.7994 27.9364C46.4776 27.9364 47.0778 28.0607 47.5998 28.3093C48.1218 28.5579 48.5355 28.9006 48.8409 29.3374C49.1499 29.7706 49.315 30.2642 49.3363 30.8182H48.3722ZM51.2219 28.9858V28.0909H59.1321V28.9858H55.6751V39H54.679V28.9858H51.2219ZM69.8641 33.5455C69.8641 34.6818 69.6617 35.6708 69.2568 36.5124C68.852 37.3505 68.2945 38.0004 67.5843 38.462C66.8776 38.9201 66.0644 39.1491 65.1446 39.1491C64.2249 39.1491 63.4099 38.9201 62.6997 38.462C61.993 38.0004 61.4372 37.3505 61.0324 36.5124C60.6311 35.6708 60.4305 34.6818 60.4305 33.5455C60.4305 32.4091 60.6311 31.4219 61.0324 30.5838C61.4372 29.7422 61.9948 29.0923 62.705 28.6342C63.4152 28.1726 64.2284 27.9418 65.1446 27.9418C66.0644 27.9418 66.8776 28.1726 67.5843 28.6342C68.2945 29.0923 68.852 29.7422 69.2568 30.5838C69.6617 31.4219 69.8641 32.4091 69.8641 33.5455ZM68.8946 33.5455C68.8946 32.5689 68.7313 31.7326 68.4046 31.0366C68.0779 30.337 67.6322 29.8026 67.0676 29.4332C66.5029 29.0639 65.8619 28.8793 65.1446 28.8793C64.4308 28.8793 63.7916 29.0639 63.227 29.4332C62.6624 29.8026 62.2149 30.3352 61.8847 31.0312C61.558 31.7273 61.3946 32.5653 61.3946 33.5455C61.3946 34.522 61.558 35.3583 61.8847 36.0543C62.2114 36.7504 62.657 37.2848 63.2217 37.6577C63.7863 38.027 64.4273 38.2116 65.1446 38.2116C65.8619 38.2116 66.5029 38.027 67.0676 37.6577C67.6357 37.2884 68.0832 36.7557 68.4099 36.0597C68.7366 35.3601 68.8982 34.522 68.8946 33.5455ZM80.8171 31.5H79.8157C79.7411 31.1271 79.6062 30.7827 79.4109 30.4666C79.2191 30.147 78.9776 29.8683 78.6864 29.6303C78.3952 29.3924 78.065 29.2077 77.6957 29.0763C77.3263 28.945 76.9268 28.8793 76.4972 28.8793C75.8082 28.8793 75.1797 29.0586 74.6115 29.4173C74.0469 29.7759 73.5941 30.3033 73.2532 30.9993C72.9158 31.6918 72.7472 32.5405 72.7472 33.5455C72.7472 34.5575 72.9158 35.4098 73.2532 36.1023C73.5941 36.7947 74.0469 37.3203 74.6115 37.679C75.1797 38.0341 75.8082 38.2116 76.4972 38.2116C76.9268 38.2116 77.3263 38.146 77.6957 38.0146C78.065 37.8832 78.3952 37.7003 78.6864 37.4659C78.9776 37.228 79.2191 36.9492 79.4109 36.6296C79.6062 36.31 79.7411 35.9638 79.8157 35.5909H80.8171C80.7283 36.0916 80.5614 36.5586 80.3164 36.9918C80.0749 37.4215 79.766 37.7979 79.3896 38.1211C79.0167 38.4442 78.587 38.6964 78.1005 38.8775C77.614 39.0586 77.0795 39.1491 76.4972 39.1491C75.581 39.1491 74.7678 38.9201 74.0575 38.462C73.3473 38.0004 72.7898 37.3505 72.3849 36.5124C71.9837 35.6744 71.783 34.6854 71.783 33.5455C71.783 32.4055 71.9837 31.4165 72.3849 30.5785C72.7898 29.7404 73.3473 29.0923 74.0575 28.6342C74.7678 28.1726 75.581 27.9418 76.4972 27.9418C77.0795 27.9418 77.614 28.0323 78.1005 28.2134C78.587 28.391 79.0167 28.6431 79.3896 28.9698C79.766 29.293 80.0749 29.6694 80.3164 30.0991C80.5614 30.5288 80.7283 30.9957 80.8171 31.5ZM83.1569 39V28.0909H84.153V33.9663H84.2488L89.5756 28.0909H90.8859L86.2251 33.1353L90.8646 39H89.6501L85.6072 33.8278L84.153 35.4577V39H83.1569ZM98.6895 30.8182C98.6292 30.2109 98.3611 29.728 97.8852 29.3693C97.4094 29.0107 96.811 28.8313 96.0901 28.8313C95.5823 28.8313 95.1349 28.9183 94.7478 29.0923C94.3643 29.2663 94.0624 29.5078 93.8422 29.8168C93.6256 30.1222 93.5173 30.4702 93.5173 30.8608C93.5173 31.1484 93.5795 31.4006 93.7037 31.6172C93.828 31.8338 93.9949 32.0202 94.2045 32.1765C94.4175 32.3292 94.6519 32.4606 94.9076 32.5707C95.1668 32.6808 95.4278 32.7731 95.6906 32.8477L96.8412 33.1779C97.1892 33.2738 97.5372 33.3963 97.8852 33.5455C98.2332 33.6946 98.551 33.8828 98.8387 34.1101C99.1299 34.3338 99.3625 34.609 99.5365 34.9357C99.714 35.2589 99.8028 35.6477 99.8028 36.1023C99.8028 36.6847 99.6519 37.2085 99.3501 37.6737C99.0482 38.1388 98.615 38.5082 98.0503 38.7816C97.4857 39.0515 96.8092 39.1864 96.0209 39.1864C95.2787 39.1864 94.6341 39.0639 94.0873 38.8189C93.5404 38.5703 93.1107 38.2276 92.7982 37.7908C92.4857 37.354 92.3099 36.848 92.2709 36.2727H93.2936C93.3291 36.7024 93.4711 37.0664 93.7197 37.3647C93.9683 37.663 94.2915 37.8903 94.6892 38.0465C95.0869 38.1992 95.5308 38.2756 96.0209 38.2756C96.5642 38.2756 97.0471 38.185 97.4697 38.0039C97.8959 37.8192 98.2297 37.5636 98.4711 37.2369C98.7162 36.9066 98.8387 36.5231 98.8387 36.0863C98.8387 35.717 98.7428 35.408 98.551 35.1594C98.3593 34.9073 98.0912 34.696 97.7467 34.5256C97.4058 34.3551 97.0099 34.2042 96.5589 34.0728L95.2538 33.6893C94.398 33.4336 93.7339 33.0803 93.2616 32.6293C92.7893 32.1783 92.5532 31.603 92.5532 30.9034C92.5532 30.3175 92.7094 29.8026 93.0219 29.3587C93.338 28.9112 93.7641 28.5632 94.3003 28.3146C94.8401 28.0625 95.4456 27.9364 96.1167 27.9364C96.795 27.9364 97.3952 28.0607 97.9172 28.3093C98.4392 28.5579 98.8529 28.9006 99.1583 29.3374C99.4672 29.7706 99.6324 30.2642 99.6537 30.8182H98.6895Z" fill="white" fill-opacity="0.97"/>
<path d="M35.1591 100V91.2727H38.1037C38.6719 91.2727 39.1449 91.3722 39.5227 91.571C39.9034 91.7699 40.1889 92.0412 40.3793 92.3849C40.5696 92.7287 40.6648 93.1193 40.6648 93.5568C40.6648 93.9205 40.6037 94.2315 40.4815 94.4901C40.3594 94.7486 40.1932 94.9574 39.983 95.1165C39.7727 95.2756 39.5384 95.3906 39.2798 95.4616V95.5298C39.5611 95.5497 39.8338 95.6491 40.098 95.8281C40.3622 96.0043 40.5795 96.2514 40.75 96.5696C40.9205 96.8878 41.0057 97.2685 41.0057 97.7116C41.0057 98.152 40.9077 98.5455 40.7116 98.892C40.5156 99.2358 40.2145 99.5071 39.8082 99.706C39.4048 99.902 38.8906 100 38.2656 100H35.1591ZM35.956 99.2841H38.2656C38.9389 99.2841 39.4361 99.1349 39.7571 98.8366C40.081 98.5384 40.2429 98.1634 40.2429 97.7116C40.2429 97.3793 40.1619 97.0781 40 96.8082C39.8409 96.5355 39.6151 96.3196 39.3224 96.1605C39.0327 96.0014 38.6918 95.9219 38.2997 95.9219H35.956V99.2841ZM35.956 95.2145H38.1761C38.5199 95.2145 38.821 95.1435 39.0795 95.0014C39.3381 94.8594 39.5398 94.6634 39.6847 94.4134C39.8295 94.1634 39.902 93.8778 39.902 93.5568C39.902 93.0937 39.7514 92.7173 39.4503 92.4276C39.1491 92.1349 38.7003 91.9886 38.1037 91.9886H35.956V95.2145ZM46.93 97.4986V93.4545H47.6886V100H46.93V98.9134H46.8704C46.717 99.2486 46.4741 99.5284 46.1417 99.7528C45.8093 99.9744 45.4031 100.085 44.9229 100.085C44.5053 100.085 44.1346 99.9943 43.8107 99.8125C43.4869 99.6278 43.2326 99.358 43.0479 99.0028C42.8633 98.6477 42.771 98.2116 42.771 97.6946V93.4545H43.5295V97.6477C43.5295 98.1591 43.68 98.571 43.9812 98.8835C44.2823 99.1932 44.6687 99.348 45.1403 99.348C45.4357 99.348 45.7198 99.277 45.9925 99.1349C46.2653 98.9929 46.4897 98.7855 46.6658 98.5128C46.842 98.2372 46.93 97.8991 46.93 97.4986ZM50.2251 102.455C50.0746 102.455 49.9339 102.44 49.8033 102.412C49.6726 102.384 49.5689 102.352 49.4922 102.318L49.6967 101.649C49.9553 101.729 50.1854 101.757 50.3871 101.734C50.5888 101.714 50.7678 101.624 50.924 101.462C51.0803 101.303 51.2195 101.058 51.3416 100.729L51.5803 100.064L49.1726 93.4545H49.995L51.9382 98.9986H51.9979L53.9411 93.4545H54.7635L51.9936 101.036C51.8771 101.351 51.7337 101.614 51.5632 101.824C51.3928 102.037 51.1953 102.195 50.9709 102.297C50.7493 102.402 50.5007 102.455 50.2251 102.455ZM61.9577 100.119C61.4208 100.119 60.9521 100.016 60.5515 99.8082C60.1509 99.598 59.8398 99.3125 59.6183 98.9517C59.3967 98.5909 59.2859 98.1832 59.2859 97.7287C59.2859 97.3991 59.3526 97.1023 59.4862 96.8381C59.6225 96.571 59.8185 96.3182 60.0742 96.0795C60.3299 95.8381 60.6396 95.5881 61.0032 95.3295L62.2688 94.3878C62.57 94.1719 62.7987 93.9602 62.9549 93.7528C63.114 93.5426 63.1935 93.2855 63.1935 92.9815C63.1935 92.6889 63.0827 92.4276 62.8612 92.1974C62.6424 91.9645 62.3583 91.848 62.0089 91.848C61.7646 91.848 61.5458 91.9091 61.3526 92.0312C61.1623 92.1534 61.0103 92.3125 60.8967 92.5085C60.7859 92.7017 60.7305 92.9048 60.7305 93.1179C60.7305 93.3168 60.7816 93.517 60.8839 93.7188C60.9862 93.9176 61.1239 94.1278 61.2972 94.3494C61.4705 94.5682 61.6637 94.8097 61.8768 95.0739L65.8654 100H64.945L61.4677 95.7344C61.1751 95.3764 60.9151 95.0568 60.6879 94.7756C60.4606 94.4915 60.2816 94.2188 60.1509 93.9574C60.0202 93.6932 59.9549 93.4105 59.9549 93.1094C59.9549 92.7372 60.0415 92.4062 60.2148 92.1165C60.3881 91.8239 60.6268 91.5937 60.9308 91.4261C61.2376 91.2585 61.5884 91.1747 61.9833 91.1747C62.3867 91.1747 62.7362 91.2571 63.0316 91.4219C63.3299 91.5866 63.56 91.8054 63.7219 92.0781C63.8867 92.3509 63.9691 92.652 63.9691 92.9815C63.9691 93.3764 63.8668 93.7259 63.6623 94.0298C63.4606 94.3338 63.1665 94.6321 62.7802 94.9247L61.195 96.1094C60.7603 96.4361 60.462 96.7386 60.3001 97.017C60.1381 97.2955 60.0572 97.5327 60.0572 97.7287C60.0572 98.0355 60.1367 98.3182 60.2958 98.5767C60.4549 98.8352 60.6751 99.0426 60.9563 99.1989C61.2404 99.3551 61.5657 99.4347 61.9322 99.4375C62.2958 99.4347 62.6381 99.3622 62.9592 99.2202C63.2802 99.0753 63.5671 98.8693 63.82 98.6023C64.0756 98.3352 64.2802 98.0156 64.4336 97.6435C64.5898 97.2713 64.6808 96.8565 64.7063 96.3991L65.4435 96.4077C65.4322 96.8764 65.3683 97.2741 65.2518 97.6009C65.1381 97.9247 65.0075 98.1918 64.8597 98.402C64.712 98.6122 64.5827 98.7812 64.4719 98.9091C64.4407 98.9517 64.4094 98.9943 64.3782 99.0369C64.3469 99.0795 64.3143 99.1222 64.2802 99.1648C63.9961 99.4773 63.6424 99.7145 63.2191 99.8764C62.7987 100.038 62.3782 100.119 61.9577 100.119ZM74.8484 94.8906L74.1538 95.0866C74.0856 94.8906 73.989 94.7131 73.864 94.554C73.739 94.3949 73.5756 94.2685 73.3739 94.1747C73.1751 94.081 72.9279 94.0341 72.6325 94.0341C72.1893 94.0341 71.8256 94.1392 71.5415 94.3494C71.2575 94.5597 71.1154 94.831 71.1154 95.1634C71.1154 95.4446 71.212 95.6733 71.4052 95.8494C71.6012 96.0227 71.9023 96.1605 72.3086 96.2628L73.2972 96.5057C73.8455 96.6392 74.256 96.8509 74.5288 97.1406C74.8043 97.4304 74.9421 97.794 74.9421 98.2315C74.9421 98.6009 74.8398 98.929 74.6353 99.2159C74.4308 99.5028 74.1452 99.7287 73.7788 99.8935C73.4151 100.055 72.9933 100.136 72.5131 100.136C71.8739 100.136 71.3469 99.9929 70.9322 99.706C70.5174 99.4162 70.2518 98.9986 70.1353 98.4531L70.864 98.2741C70.9577 98.6634 71.141 98.9574 71.4137 99.1562C71.6893 99.3551 72.0515 99.4545 72.5004 99.4545C73.0032 99.4545 73.4052 99.3423 73.7063 99.1179C74.0075 98.8906 74.158 98.6065 74.158 98.2656C74.158 98.0014 74.07 97.7798 73.8938 97.6009C73.7177 97.419 73.4506 97.2855 73.0927 97.2003L72.0231 96.9446C71.4549 96.8082 71.0344 96.5923 70.7617 96.2969C70.489 96.0014 70.3526 95.6349 70.3526 95.1974C70.3526 94.8366 70.4506 94.5199 70.6467 94.2472C70.8427 93.9716 71.1126 93.7557 71.4563 93.5994C71.8001 93.4432 72.1921 93.3651 72.6325 93.3651C73.2319 93.3651 73.7106 93.5014 74.0685 93.7741C74.4293 94.044 74.6893 94.4162 74.8484 94.8906ZM79.2493 100.136C78.6385 100.136 78.1101 99.9943 77.6641 99.7102C77.218 99.4233 76.8729 99.027 76.6286 98.5213C76.3871 98.0128 76.2663 97.4276 76.2663 96.7656C76.2663 96.1065 76.3871 95.5213 76.6286 95.0099C76.8729 94.4957 77.2095 94.0937 77.6385 93.804C78.0703 93.5114 78.5689 93.3651 79.1342 93.3651C79.4893 93.3651 79.8317 93.4304 80.1612 93.5611C80.4908 93.6889 80.7862 93.8864 81.0476 94.1534C81.3118 94.4176 81.5206 94.7514 81.674 95.1548C81.8274 95.5554 81.9041 96.0298 81.9041 96.5781V96.9531H76.7905V96.2841H81.1286C81.1286 95.8636 81.0433 95.4858 80.8729 95.1506C80.7053 94.8125 80.4709 94.5455 80.1697 94.3494C79.8714 94.1534 79.5263 94.0554 79.1342 94.0554C78.7195 94.0554 78.3544 94.1662 78.0391 94.3878C77.7237 94.6094 77.4766 94.902 77.2976 95.2656C77.1214 95.6293 77.032 96.027 77.0291 96.4588V96.8594C77.0291 97.3793 77.1186 97.8338 77.2976 98.223C77.4794 98.6094 77.7365 98.9091 78.0689 99.1222C78.4013 99.3352 78.7947 99.4418 79.2493 99.4418C79.5589 99.4418 79.8303 99.3935 80.0632 99.2969C80.299 99.2003 80.4964 99.071 80.6555 98.9091C80.8175 98.7443 80.9396 98.5639 81.022 98.3679L81.7422 98.6023C81.6428 98.8778 81.4794 99.1321 81.2521 99.3651C81.0277 99.598 80.7464 99.7855 80.4084 99.9276C80.0732 100.067 79.6868 100.136 79.2493 100.136ZM84.3342 91.2727V100H83.5756V91.2727H84.3342ZM87.0998 91.2727V100H86.3413V91.2727H87.0998ZM96.8796 94.8906L96.185 95.0866C96.1168 94.8906 96.0202 94.7131 95.8952 94.554C95.7702 94.3949 95.6069 94.2685 95.4052 94.1747C95.2063 94.081 94.9592 94.0341 94.6637 94.0341C94.2205 94.0341 93.8569 94.1392 93.5728 94.3494C93.2887 94.5597 93.1467 94.831 93.1467 95.1634C93.1467 95.4446 93.2433 95.6733 93.4364 95.8494C93.6325 96.0227 93.9336 96.1605 94.3398 96.2628L95.3285 96.5057C95.8768 96.6392 96.2873 96.8509 96.56 97.1406C96.8356 97.4304 96.9734 97.794 96.9734 98.2315C96.9734 98.6009 96.8711 98.929 96.6665 99.2159C96.462 99.5028 96.1765 99.7287 95.81 99.8935C95.4464 100.055 95.0245 100.136 94.5444 100.136C93.9052 100.136 93.3782 99.9929 92.9634 99.706C92.5487 99.4162 92.283 98.9986 92.1665 98.4531L92.8952 98.2741C92.989 98.6634 93.1722 98.9574 93.445 99.1562C93.7205 99.3551 94.0827 99.4545 94.5316 99.4545C95.0344 99.4545 95.4364 99.3423 95.7376 99.1179C96.0387 98.8906 96.1893 98.6065 96.1893 98.2656C96.1893 98.0014 96.1012 97.7798 95.9251 97.6009C95.7489 97.419 95.4819 97.2855 95.1239 97.2003L94.0543 96.9446C93.4862 96.8082 93.0657 96.5923 92.793 96.2969C92.5202 96.0014 92.3839 95.6349 92.3839 95.1974C92.3839 94.8366 92.4819 94.5199 92.6779 94.2472C92.8739 93.9716 93.1438 93.7557 93.4876 93.5994C93.8313 93.4432 94.2234 93.3651 94.6637 93.3651C95.2631 93.3651 95.7418 93.5014 96.0998 93.7741C96.4606 94.044 96.7205 94.4162 96.8796 94.8906ZM99.3928 95.9091V100H98.6342V91.2727H99.3928V94.4815H99.4609C99.6143 94.1435 99.8516 93.8736 100.173 93.6719C100.496 93.4702 100.906 93.3693 101.4 93.3693C101.843 93.3693 102.232 93.4602 102.567 93.642C102.903 93.8239 103.164 94.0923 103.352 94.4474C103.539 94.8026 103.633 95.2401 103.633 95.7599V100H102.87V95.8068C102.87 95.267 102.719 94.8423 102.418 94.5327C102.12 94.2202 101.717 94.0639 101.208 94.0639C100.859 94.0639 100.548 94.1378 100.275 94.2855C100.002 94.4332 99.7862 94.6463 99.6271 94.9247C99.4709 95.2003 99.3928 95.5284 99.3928 95.9091ZM107.458 100.149C107.064 100.149 106.703 100.072 106.376 99.919C106.049 99.7628 105.789 99.5384 105.596 99.2457C105.403 98.9503 105.306 98.5923 105.306 98.1719C105.306 97.848 105.368 97.5753 105.49 97.3537C105.612 97.1321 105.785 96.9503 106.01 96.8082C106.234 96.6662 106.5 96.554 106.806 96.4716C107.113 96.3892 107.451 96.3253 107.821 96.2798C108.187 96.2344 108.497 96.1946 108.75 96.1605C109.005 96.1264 109.2 96.0724 109.333 95.9986C109.467 95.9247 109.534 95.8054 109.534 95.6406V95.4872C109.534 95.0412 109.4 94.6903 109.133 94.4347C108.869 94.1761 108.488 94.0469 107.991 94.0469C107.52 94.0469 107.135 94.1506 106.836 94.358C106.541 94.5653 106.333 94.8097 106.214 95.0909L105.494 94.831C105.642 94.473 105.846 94.1875 106.108 93.9744C106.369 93.7585 106.662 93.6037 106.985 93.5099C107.309 93.4134 107.637 93.3651 107.97 93.3651C108.22 93.3651 108.48 93.3977 108.75 93.4631C109.022 93.5284 109.275 93.642 109.508 93.804C109.741 93.9631 109.93 94.1861 110.075 94.473C110.22 94.7571 110.292 95.1179 110.292 95.5554V100H109.534V98.9645H109.487C109.396 99.1577 109.261 99.3452 109.082 99.527C108.903 99.7088 108.679 99.858 108.409 99.9744C108.139 100.091 107.822 100.149 107.458 100.149ZM107.561 99.4545C107.964 99.4545 108.314 99.3651 108.609 99.1861C108.904 99.0071 109.132 98.7699 109.291 98.4744C109.453 98.1761 109.534 97.848 109.534 97.4901V96.544C109.477 96.598 109.382 96.6463 109.248 96.6889C109.118 96.7315 108.966 96.7699 108.792 96.804C108.622 96.8352 108.451 96.8622 108.281 96.8849C108.11 96.9077 107.957 96.9276 107.821 96.9446C107.451 96.9901 107.136 97.0611 106.875 97.1577C106.613 97.2543 106.413 97.3878 106.274 97.5582C106.135 97.7259 106.065 97.9418 106.065 98.206C106.065 98.6037 106.207 98.9119 106.491 99.1307C106.775 99.3466 107.132 99.4545 107.561 99.4545ZM112.31 100V93.4545H113.047V94.4602H113.103C113.233 94.1307 113.461 93.8651 113.784 93.6634C114.111 93.4588 114.48 93.3565 114.892 93.3565C114.955 93.3565 115.025 93.358 115.101 93.3608C115.178 93.3636 115.242 93.3665 115.293 93.3693V94.1406C115.259 94.1349 115.199 94.1264 115.114 94.1151C115.029 94.1037 114.936 94.098 114.837 94.098C114.496 94.098 114.192 94.1705 113.925 94.3153C113.661 94.4574 113.452 94.6548 113.299 94.9077C113.145 95.1605 113.069 95.4489 113.069 95.7727V100H112.31ZM119.034 100.136C118.424 100.136 117.895 99.9943 117.449 99.7102C117.003 99.4233 116.658 99.027 116.414 98.5213C116.172 98.0128 116.051 97.4276 116.051 96.7656C116.051 96.1065 116.172 95.5213 116.414 95.0099C116.658 94.4957 116.995 94.0937 117.424 93.804C117.855 93.5114 118.354 93.3651 118.919 93.3651C119.275 93.3651 119.617 93.4304 119.946 93.5611C120.276 93.6889 120.571 93.8864 120.833 94.1534C121.097 94.4176 121.306 94.7514 121.459 95.1548C121.613 95.5554 121.689 96.0298 121.689 96.5781V96.9531H116.576V96.2841H120.914C120.914 95.8636 120.828 95.4858 120.658 95.1506C120.49 94.8125 120.256 94.5455 119.955 94.3494C119.657 94.1534 119.311 94.0554 118.919 94.0554C118.505 94.0554 118.14 94.1662 117.824 94.3878C117.509 94.6094 117.262 94.902 117.083 95.2656C116.907 95.6293 116.817 96.027 116.814 96.4588V96.8594C116.814 97.3793 116.904 97.8338 117.083 98.223C117.265 98.6094 117.522 98.9091 117.854 99.1222C118.186 99.3352 118.58 99.4418 119.034 99.4418C119.344 99.4418 119.615 99.3935 119.848 99.2969C120.084 99.2003 120.282 99.071 120.441 98.9091C120.603 98.7443 120.725 98.5639 120.807 98.3679L121.527 98.6023C121.428 98.8778 121.265 99.1321 121.037 99.3651C120.813 99.598 120.532 99.7855 120.194 99.9276C119.858 100.067 119.472 100.136 119.034 100.136ZM127.759 94.8906L127.064 95.0866C126.996 94.8906 126.899 94.7131 126.774 94.554C126.649 94.3949 126.486 94.2685 126.284 94.1747C126.085 94.081 125.838 94.0341 125.543 94.0341C125.099 94.0341 124.736 94.1392 124.452 94.3494C124.168 94.5597 124.026 94.831 124.026 95.1634C124.026 95.4446 124.122 95.6733 124.315 95.8494C124.511 96.0227 124.812 96.1605 125.219 96.2628L126.207 96.5057C126.756 96.6392 127.166 96.8509 127.439 97.1406C127.714 97.4304 127.852 97.794 127.852 98.2315C127.852 98.6009 127.75 98.929 127.545 99.2159C127.341 99.5028 127.055 99.7287 126.689 99.8935C126.325 100.055 125.903 100.136 125.423 100.136C124.784 100.136 124.257 99.9929 123.842 99.706C123.428 99.4162 123.162 98.9986 123.045 98.4531L123.774 98.2741C123.868 98.6634 124.051 98.9574 124.324 99.1562C124.599 99.3551 124.962 99.4545 125.411 99.4545C125.913 99.4545 126.315 99.3423 126.616 99.1179C126.918 98.8906 127.068 98.6065 127.068 98.2656C127.068 98.0014 126.98 97.7798 126.804 97.6009C126.628 97.419 126.361 97.2855 126.003 97.2003L124.933 96.9446C124.365 96.8082 123.945 96.5923 123.672 96.2969C123.399 96.0014 123.263 95.6349 123.263 95.1974C123.263 94.8366 123.361 94.5199 123.557 94.2472C123.753 93.9716 124.023 93.7557 124.366 93.5994C124.71 93.4432 125.102 93.3651 125.543 93.3651C126.142 93.3651 126.621 93.5014 126.979 93.7741C127.339 94.044 127.599 94.4162 127.759 94.8906ZM135.432 100.136C134.867 100.136 134.367 99.9929 133.932 99.706C133.5 99.419 133.162 99.0227 132.918 98.517C132.674 98.0085 132.551 97.4219 132.551 96.7571C132.551 96.0866 132.674 95.4972 132.918 94.9886C133.162 94.4773 133.5 94.0795 133.932 93.7955C134.367 93.5085 134.867 93.3651 135.432 93.3651C135.998 93.3651 136.496 93.5085 136.928 93.7955C137.36 94.0824 137.698 94.4801 137.942 94.9886C138.189 95.4972 138.313 96.0866 138.313 96.7571C138.313 97.4219 138.191 98.0085 137.946 98.517C137.702 99.0227 137.363 99.419 136.928 99.706C136.496 99.9929 135.998 100.136 135.432 100.136ZM135.432 99.4418C135.887 99.4418 136.272 99.3196 136.587 99.0753C136.902 98.831 137.141 98.5057 137.303 98.0994C137.468 97.6932 137.55 97.2457 137.55 96.7571C137.55 96.2685 137.468 95.8196 137.303 95.4105C137.141 95.0014 136.902 94.6733 136.587 94.4261C136.272 94.179 135.887 94.0554 135.432 94.0554C134.98 94.0554 134.596 94.179 134.277 94.4261C133.962 94.6733 133.722 95.0014 133.557 95.4105C133.395 95.8196 133.314 96.2685 133.314 96.7571C133.314 97.2457 133.395 97.6932 133.557 98.0994C133.722 98.5057 133.962 98.831 134.277 99.0753C134.593 99.3196 134.978 99.4418 135.432 99.4418ZM142.671 93.4545V94.1151H139.454V93.4545H142.671ZM140.46 100V92.4957C140.46 92.1435 140.54 91.8466 140.702 91.6051C140.867 91.3636 141.082 91.1804 141.346 91.0554C141.61 90.9304 141.89 90.8679 142.185 90.8679C142.384 90.8679 142.549 90.8849 142.68 90.919C142.813 90.9503 142.918 90.9815 142.995 91.0128L142.773 91.6776C142.717 91.6605 142.647 91.6406 142.565 91.6179C142.482 91.5952 142.379 91.5838 142.254 91.5838C141.924 91.5838 141.67 91.6761 141.491 91.8608C141.312 92.0455 141.222 92.3097 141.222 92.6534L141.218 100H140.46ZM35.7599 106.273V115H35.0014V106.273H35.7599ZM37.7756 115V108.455H38.5384V115H37.7756ZM38.1634 107.33C38.0071 107.33 37.8736 107.277 37.7628 107.172C37.652 107.064 37.5966 106.935 37.5966 106.784C37.5966 106.634 37.652 106.506 37.7628 106.401C37.8736 106.293 38.0071 106.239 38.1634 106.239C38.3196 106.239 38.4531 106.293 38.5639 106.401C38.6747 106.506 38.7301 106.634 38.7301 106.784C38.7301 106.935 38.6747 107.064 38.5639 107.172C38.4531 107.277 38.3196 107.33 38.1634 107.33ZM44.9421 109.891L44.2475 110.087C44.1793 109.891 44.0827 109.713 43.9577 109.554C43.8327 109.395 43.6694 109.268 43.4677 109.175C43.2688 109.081 43.0217 109.034 42.7262 109.034C42.283 109.034 41.9194 109.139 41.6353 109.349C41.3512 109.56 41.2092 109.831 41.2092 110.163C41.2092 110.445 41.3058 110.673 41.4989 110.849C41.695 111.023 41.9961 111.161 42.4023 111.263L43.391 111.506C43.9393 111.639 44.3498 111.851 44.6225 112.141C44.8981 112.43 45.0359 112.794 45.0359 113.232C45.0359 113.601 44.9336 113.929 44.729 114.216C44.5245 114.503 44.239 114.729 43.8725 114.893C43.5089 115.055 43.087 115.136 42.6069 115.136C41.9677 115.136 41.4407 114.993 41.0259 114.706C40.6112 114.416 40.3455 113.999 40.229 113.453L40.9577 113.274C41.0515 113.663 41.2347 113.957 41.5075 114.156C41.783 114.355 42.1452 114.455 42.5941 114.455C43.0969 114.455 43.4989 114.342 43.8001 114.118C44.1012 113.891 44.2518 113.607 44.2518 113.266C44.2518 113.001 44.1637 112.78 43.9876 112.601C43.8114 112.419 43.5444 112.286 43.1864 112.2L42.1168 111.945C41.5487 111.808 41.1282 111.592 40.8555 111.297C40.5827 111.001 40.4464 110.635 40.4464 110.197C40.4464 109.837 40.5444 109.52 40.7404 109.247C40.9364 108.972 41.2063 108.756 41.5501 108.599C41.8938 108.443 42.2859 108.365 42.7262 108.365C43.3256 108.365 43.8043 108.501 44.1623 108.774C44.5231 109.044 44.783 109.416 44.9421 109.891ZM49.2749 108.455V109.115H46.1513V108.455H49.2749ZM47.1271 106.886H47.8899V113.291C47.8899 113.564 47.9368 113.778 48.0305 113.935C48.1243 114.088 48.2464 114.197 48.397 114.263C48.5476 114.325 48.7081 114.357 48.8786 114.357C48.978 114.357 49.0632 114.351 49.1342 114.339C49.2053 114.325 49.2678 114.311 49.3217 114.297L49.4837 114.983C49.4098 115.011 49.3189 115.037 49.2109 115.06C49.103 115.085 48.9695 115.098 48.8104 115.098C48.532 115.098 48.2635 115.037 48.005 114.915C47.7493 114.793 47.5391 114.611 47.3743 114.369C47.2095 114.128 47.1271 113.828 47.1271 113.47V106.886ZM53.5735 115.136C52.9627 115.136 52.4343 114.994 51.9883 114.71C51.5423 114.423 51.1971 114.027 50.9528 113.521C50.7113 113.013 50.5906 112.428 50.5906 111.766C50.5906 111.107 50.7113 110.521 50.9528 110.01C51.1971 109.496 51.5337 109.094 51.9627 108.804C52.3945 108.511 52.8931 108.365 53.4585 108.365C53.8136 108.365 54.1559 108.43 54.4854 108.561C54.815 108.689 55.1104 108.886 55.3718 109.153C55.636 109.418 55.8448 109.751 55.9982 110.155C56.1516 110.555 56.2283 111.03 56.2283 111.578V111.953H51.1147V111.284H55.4528C55.4528 110.864 55.3675 110.486 55.1971 110.151C55.0295 109.812 54.7951 109.545 54.494 109.349C54.1957 109.153 53.8505 109.055 53.4585 109.055C53.0437 109.055 52.6786 109.166 52.3633 109.388C52.0479 109.609 51.8008 109.902 51.6218 110.266C51.4457 110.629 51.3562 111.027 51.3533 111.459V111.859C51.3533 112.379 51.4428 112.834 51.6218 113.223C51.8036 113.609 52.0607 113.909 52.3931 114.122C52.7255 114.335 53.119 114.442 53.5735 114.442C53.8832 114.442 54.1545 114.393 54.3874 114.297C54.6232 114.2 54.8207 114.071 54.9798 113.909C55.1417 113.744 55.2638 113.564 55.3462 113.368L56.0664 113.602C55.967 113.878 55.8036 114.132 55.5763 114.365C55.3519 114.598 55.0707 114.786 54.7326 114.928C54.3974 115.067 54.011 115.136 53.5735 115.136ZM60.2564 115.136C59.7195 115.136 59.2493 114.994 58.8459 114.71C58.4425 114.426 58.1271 114.03 57.8999 113.521C57.6754 113.013 57.5632 112.42 57.5632 111.744C57.5632 111.071 57.6754 110.482 57.8999 109.976C58.1271 109.467 58.4439 109.072 58.8501 108.791C59.2564 108.507 59.7294 108.365 60.2692 108.365C60.6669 108.365 60.9979 108.436 61.2621 108.578C61.5263 108.717 61.7379 108.891 61.897 109.098C62.0561 109.305 62.1797 109.507 62.2678 109.703H62.3359V106.273H63.0987V115H62.3572V113.786H62.2678C62.1797 113.984 62.0547 114.189 61.8928 114.399C61.7308 114.607 61.5163 114.781 61.2493 114.923C60.9851 115.065 60.6541 115.136 60.2564 115.136ZM60.3459 114.442C60.7692 114.442 61.13 114.327 61.4283 114.097C61.7266 113.864 61.9538 113.544 62.1101 113.138C62.2692 112.729 62.3487 112.26 62.3487 111.732C62.3487 111.209 62.2706 110.747 62.1143 110.347C61.9581 109.943 61.7308 109.628 61.4325 109.401C61.1342 109.17 60.772 109.055 60.3459 109.055C59.9084 109.055 59.5391 109.175 59.2379 109.413C58.9396 109.649 58.7124 109.969 58.5561 110.372C58.4027 110.776 58.326 111.229 58.326 111.732C58.326 112.24 58.4041 112.699 58.5604 113.108C58.7166 113.517 58.9439 113.842 59.2422 114.084C59.5433 114.322 59.9112 114.442 60.3459 114.442ZM71.1911 115.136C70.6058 115.136 70.0959 114.99 69.6612 114.697C69.2294 114.405 68.8942 114.004 68.6555 113.496C68.4169 112.987 68.2976 112.408 68.2976 111.757C68.2976 111.101 68.4183 110.517 68.6598 110.006C68.9041 109.494 69.2422 109.094 69.674 108.804C70.1058 108.511 70.6072 108.365 71.1783 108.365C71.6158 108.365 72.0121 108.45 72.3672 108.621C72.7223 108.788 73.0149 109.026 73.245 109.332C73.478 109.636 73.6243 109.991 73.6839 110.398H72.9169C72.8374 110.028 72.6456 109.713 72.3416 109.452C72.0405 109.187 71.657 109.055 71.1911 109.055C70.7734 109.055 70.4041 109.169 70.0831 109.396C69.7621 109.621 69.5107 109.935 69.3288 110.338C69.1499 110.739 69.0604 111.203 69.0604 111.732C69.0604 112.263 69.1484 112.733 69.3246 113.142C69.5007 113.548 69.7479 113.866 70.0661 114.097C70.3871 114.327 70.7621 114.442 71.1911 114.442C71.4808 114.442 71.745 114.388 71.9837 114.28C72.2251 114.169 72.4268 114.013 72.5888 113.811C72.7536 113.609 72.8643 113.369 72.9212 113.091H73.6882C73.6314 113.486 73.4908 113.838 73.2663 114.148C73.0447 114.455 72.7564 114.696 72.4013 114.872C72.049 115.048 71.6456 115.136 71.1911 115.136ZM77.858 115.136C77.2926 115.136 76.7926 114.993 76.358 114.706C75.9261 114.419 75.5881 114.023 75.3438 113.517C75.0994 113.009 74.9773 112.422 74.9773 111.757C74.9773 111.087 75.0994 110.497 75.3438 109.989C75.5881 109.477 75.9261 109.08 76.358 108.795C76.7926 108.509 77.2926 108.365 77.858 108.365C78.4233 108.365 78.9219 108.509 79.3537 108.795C79.7855 109.082 80.1236 109.48 80.3679 109.989C80.6151 110.497 80.7386 111.087 80.7386 111.757C80.7386 112.422 80.6165 113.009 80.3722 113.517C80.1278 114.023 79.7884 114.419 79.3537 114.706C78.9219 114.993 78.4233 115.136 77.858 115.136ZM77.858 114.442C78.3125 114.442 78.6974 114.32 79.0128 114.075C79.3281 113.831 79.5668 113.506 79.7287 113.099C79.8935 112.693 79.9759 112.246 79.9759 111.757C79.9759 111.268 79.8935 110.82 79.7287 110.411C79.5668 110.001 79.3281 109.673 79.0128 109.426C78.6974 109.179 78.3125 109.055 77.858 109.055C77.4063 109.055 77.0213 109.179 76.7031 109.426C76.3878 109.673 76.1477 110.001 75.983 110.411C75.821 110.82 75.7401 111.268 75.7401 111.757C75.7401 112.246 75.821 112.693 75.983 113.099C76.1477 113.506 76.3878 113.831 76.7031 114.075C77.0185 114.32 77.4034 114.442 77.858 114.442ZM82.4038 115V108.455H83.141V109.46H83.2092C83.3398 109.122 83.5572 108.857 83.8612 108.663C84.168 108.467 84.5359 108.369 84.9648 108.369C85.4165 108.369 85.7873 108.476 86.0771 108.689C86.3697 108.899 86.5884 109.189 86.7333 109.558H86.7887C86.9364 109.195 87.1765 108.906 87.5089 108.693C87.8441 108.477 88.2504 108.369 88.7276 108.369C89.3356 108.369 89.8157 108.561 90.168 108.945C90.5202 109.325 90.6964 109.882 90.6964 110.615V115H89.9379V110.615C89.9379 110.098 89.8058 109.71 89.5415 109.452C89.2773 109.193 88.9293 109.064 88.4975 109.064C87.9975 109.064 87.6126 109.217 87.3427 109.524C87.0728 109.831 86.9379 110.22 86.9379 110.692V115H86.1623V110.547C86.1623 110.104 86.0387 109.746 85.7915 109.473C85.5444 109.2 85.1964 109.064 84.7475 109.064C84.4464 109.064 84.1751 109.138 83.9336 109.286C83.695 109.433 83.506 109.639 83.3668 109.903C83.2305 110.165 83.1623 110.466 83.1623 110.807V115H82.4038ZM92.7045 117.455V108.455H93.4418V109.703H93.5312C93.6222 109.507 93.7472 109.307 93.9062 109.102C94.0653 108.895 94.2756 108.72 94.5369 108.578C94.8011 108.436 95.1335 108.365 95.5341 108.365C96.0739 108.365 96.5455 108.507 96.9489 108.791C97.3551 109.072 97.6705 109.467 97.8949 109.976C98.1222 110.482 98.2358 111.071 98.2358 111.744C98.2358 112.42 98.1222 113.013 97.8949 113.521C97.6705 114.03 97.3551 114.426 96.9489 114.71C96.5455 114.994 96.0767 115.136 95.5426 115.136C95.1477 115.136 94.8168 115.065 94.5497 114.923C94.2855 114.781 94.071 114.607 93.9062 114.399C93.7443 114.189 93.6193 113.984 93.5312 113.786H93.4631V117.455H92.7045ZM93.4545 111.732C93.4545 112.26 93.5327 112.729 93.6889 113.138C93.848 113.544 94.0753 113.864 94.3707 114.097C94.669 114.327 95.0298 114.442 95.4531 114.442C95.8878 114.442 96.2543 114.322 96.5526 114.084C96.8537 113.842 97.0824 113.517 97.2386 113.108C97.3977 112.699 97.4773 112.24 97.4773 111.732C97.4773 111.229 97.3991 110.776 97.2429 110.372C97.0895 109.969 96.8622 109.649 96.5611 109.413C96.2599 109.175 95.8906 109.055 95.4531 109.055C95.027 109.055 94.6648 109.17 94.3665 109.401C94.0682 109.628 93.8409 109.943 93.6847 110.347C93.5312 110.747 93.4545 111.209 93.4545 111.732ZM101.728 115.149C101.333 115.149 100.972 115.072 100.646 114.919C100.319 114.763 100.059 114.538 99.8658 114.246C99.6726 113.95 99.576 113.592 99.576 113.172C99.576 112.848 99.6371 112.575 99.7592 112.354C99.8814 112.132 100.055 111.95 100.279 111.808C100.504 111.666 100.769 111.554 101.076 111.472C101.383 111.389 101.721 111.325 102.09 111.28C102.457 111.234 102.766 111.195 103.019 111.161C103.275 111.126 103.469 111.072 103.603 110.999C103.737 110.925 103.803 110.805 103.803 110.641V110.487C103.803 110.041 103.67 109.69 103.403 109.435C103.138 109.176 102.758 109.047 102.261 109.047C101.789 109.047 101.404 109.151 101.106 109.358C100.81 109.565 100.603 109.81 100.484 110.091L99.7635 109.831C99.9112 109.473 100.116 109.187 100.377 108.974C100.638 108.759 100.931 108.604 101.255 108.51C101.579 108.413 101.907 108.365 102.239 108.365C102.489 108.365 102.749 108.398 103.019 108.463C103.292 108.528 103.545 108.642 103.778 108.804C104.011 108.963 104.2 109.186 104.344 109.473C104.489 109.757 104.562 110.118 104.562 110.555V115H103.803V113.964H103.756C103.665 114.158 103.531 114.345 103.352 114.527C103.173 114.709 102.948 114.858 102.678 114.974C102.408 115.091 102.092 115.149 101.728 115.149ZM101.83 114.455C102.234 114.455 102.583 114.365 102.879 114.186C103.174 114.007 103.401 113.77 103.56 113.474C103.722 113.176 103.803 112.848 103.803 112.49V111.544C103.746 111.598 103.651 111.646 103.518 111.689C103.387 111.732 103.235 111.77 103.062 111.804C102.891 111.835 102.721 111.862 102.55 111.885C102.38 111.908 102.227 111.928 102.09 111.945C101.721 111.99 101.406 112.061 101.144 112.158C100.883 112.254 100.683 112.388 100.543 112.558C100.404 112.726 100.335 112.942 100.335 113.206C100.335 113.604 100.477 113.912 100.761 114.131C101.045 114.347 101.401 114.455 101.83 114.455ZM107.338 110.909V115H106.58V108.455H107.317V109.482H107.385C107.538 109.146 107.777 108.878 108.101 108.676C108.428 108.472 108.831 108.369 109.311 108.369C109.751 108.369 110.138 108.462 110.47 108.646C110.805 108.828 111.065 109.097 111.25 109.452C111.438 109.807 111.531 110.243 111.531 110.76V115H110.773V110.807C110.773 110.27 110.622 109.845 110.321 109.533C110.023 109.22 109.622 109.064 109.119 109.064C108.776 109.064 108.47 109.138 108.203 109.286C107.936 109.433 107.724 109.646 107.568 109.925C107.415 110.2 107.338 110.528 107.338 110.909ZM113.537 115V108.455H114.3V115H113.537ZM113.925 107.33C113.769 107.33 113.635 107.277 113.525 107.172C113.414 107.064 113.358 106.935 113.358 106.784C113.358 106.634 113.414 106.506 113.525 106.401C113.635 106.293 113.769 106.239 113.925 106.239C114.081 106.239 114.215 106.293 114.326 106.401C114.436 106.506 114.492 106.634 114.492 106.784C114.492 106.935 114.436 107.064 114.326 107.172C114.215 107.277 114.081 107.33 113.925 107.33ZM118.952 115.136C118.342 115.136 117.813 114.994 117.367 114.71C116.921 114.423 116.576 114.027 116.332 113.521C116.09 113.013 115.969 112.428 115.969 111.766C115.969 111.107 116.09 110.521 116.332 110.01C116.576 109.496 116.913 109.094 117.342 108.804C117.773 108.511 118.272 108.365 118.837 108.365C119.192 108.365 119.535 108.43 119.864 108.561C120.194 108.689 120.489 108.886 120.751 109.153C121.015 109.418 121.224 109.751 121.377 110.155C121.531 110.555 121.607 111.03 121.607 111.578V111.953H116.494V111.284H120.832C120.832 110.864 120.746 110.486 120.576 110.151C120.408 109.812 120.174 109.545 119.873 109.349C119.575 109.153 119.229 109.055 118.837 109.055C118.423 109.055 118.058 109.166 117.742 109.388C117.427 109.609 117.18 109.902 117.001 110.266C116.825 110.629 116.735 111.027 116.732 111.459V111.859C116.732 112.379 116.822 112.834 117.001 113.223C117.183 113.609 117.44 113.909 117.772 114.122C118.104 114.335 118.498 114.442 118.952 114.442C119.262 114.442 119.533 114.393 119.766 114.297C120.002 114.2 120.2 114.071 120.359 113.909C120.521 113.744 120.643 113.564 120.725 113.368L121.445 113.602C121.346 113.878 121.183 114.132 120.955 114.365C120.731 114.598 120.45 114.786 120.112 114.928C119.776 115.067 119.39 115.136 118.952 115.136ZM127.676 109.891L126.982 110.087C126.914 109.891 126.817 109.713 126.692 109.554C126.567 109.395 126.404 109.268 126.202 109.175C126.003 109.081 125.756 109.034 125.461 109.034C125.017 109.034 124.654 109.139 124.37 109.349C124.086 109.56 123.944 109.831 123.944 110.163C123.944 110.445 124.04 110.673 124.233 110.849C124.429 111.023 124.73 111.161 125.137 111.263L126.125 111.506C126.674 111.639 127.084 111.851 127.357 112.141C127.632 112.43 127.77 112.794 127.77 113.232C127.77 113.601 127.668 113.929 127.463 114.216C127.259 114.503 126.973 114.729 126.607 114.893C126.243 115.055 125.821 115.136 125.341 115.136C124.702 115.136 124.175 114.993 123.76 114.706C123.346 114.416 123.08 113.999 122.963 113.453L123.692 113.274C123.786 113.663 123.969 113.957 124.242 114.156C124.517 114.355 124.88 114.455 125.328 114.455C125.831 114.455 126.233 114.342 126.534 114.118C126.836 113.891 126.986 113.607 126.986 113.266C126.986 113.001 126.898 112.78 126.722 112.601C126.546 112.419 126.279 112.286 125.921 112.2L124.851 111.945C124.283 111.808 123.863 111.592 123.59 111.297C123.317 111.001 123.181 110.635 123.181 110.197C123.181 109.837 123.279 109.52 123.475 109.247C123.671 108.972 123.941 108.756 124.284 108.599C124.628 108.443 125.02 108.365 125.461 108.365C126.06 108.365 126.539 108.501 126.897 108.774C127.257 109.044 127.517 109.416 127.676 109.891Z" fill="white" fill-opacity="0.8"/>
<path d="M35.9176 72V54.5455H46.8608V56.8125H38.5511V62.1307H46.2898V64.3892H38.5511V69.733H46.9631V72H35.9176ZM59.0121 76.9091V69.9631H58.8587C58.7053 70.2415 58.4837 70.5597 58.1939 70.9176C57.9098 71.2756 57.5178 71.5881 57.0178 71.8551C56.5178 72.1222 55.87 72.2557 55.0746 72.2557C54.0178 72.2557 53.0746 71.9858 52.245 71.446C51.4212 70.9006 50.7734 70.125 50.3018 69.1193C49.8359 68.108 49.603 66.8949 49.603 65.4801C49.603 64.0653 49.8388 62.8551 50.3104 61.8494C50.7876 60.8437 51.4411 60.0739 52.2706 59.5398C53.1001 59.0057 54.0405 58.7386 55.0916 58.7386C55.9041 58.7386 56.5575 58.875 57.0518 59.1477C57.5518 59.4148 57.9382 59.7273 58.2109 60.0852C58.4893 60.4432 58.7053 60.7585 58.8587 61.0312H59.0717V58.9091H61.5604V76.9091H59.0121ZM55.6371 70.0824C56.37 70.0824 56.9893 69.8892 57.495 69.5028C58.0064 69.1108 58.3928 68.5682 58.6541 67.875C58.9212 67.1818 59.0547 66.375 59.0547 65.4545C59.0547 64.5455 58.924 63.75 58.6626 63.0682C58.4013 62.3864 58.0178 61.8551 57.5121 61.4744C57.0064 61.0937 56.3814 60.9034 55.6371 60.9034C54.87 60.9034 54.2308 61.1023 53.7195 61.5C53.2081 61.8977 52.8217 62.4403 52.5604 63.1278C52.3047 63.8153 52.1768 64.5909 52.1768 65.4545C52.1768 66.3295 52.3075 67.1165 52.5689 67.8153C52.8303 68.5142 53.2166 69.0682 53.728 69.4773C54.245 69.8807 54.8814 70.0824 55.6371 70.0824ZM73.2791 66.571V58.9091H75.8359V72H73.3303V69.733H73.1939C72.8928 70.4318 72.4098 71.0142 71.745 71.4801C71.0859 71.9403 70.2649 72.1705 69.282 72.1705C68.4411 72.1705 67.6967 71.9858 67.049 71.6165C66.407 71.2415 65.9013 70.6875 65.532 69.9545C65.1683 69.2216 64.9865 68.3153 64.9865 67.2358V58.9091H67.5348V66.929C67.5348 67.821 67.782 68.5312 68.2763 69.0597C68.7706 69.5881 69.4126 69.8523 70.2024 69.8523C70.6797 69.8523 71.1541 69.733 71.6257 69.4943C72.103 69.2557 72.4979 68.8949 72.8104 68.4119C73.1286 67.929 73.2848 67.3153 73.2791 66.571ZM79.2599 72V58.9091H81.8082V72H79.2599ZM80.5469 56.8892C80.1037 56.8892 79.723 56.7415 79.4048 56.446C79.0923 56.1449 78.9361 55.7869 78.9361 55.3722C78.9361 54.9517 79.0923 54.5937 79.4048 54.2983C79.723 53.9972 80.1037 53.8466 80.5469 53.8466C80.9901 53.8466 81.3679 53.9972 81.6804 54.2983C81.9986 54.5937 82.1577 54.9517 82.1577 55.3722C82.1577 55.7869 81.9986 56.1449 81.6804 56.446C81.3679 56.7415 80.9901 56.8892 80.5469 56.8892ZM91.3473 58.9091V60.9545H84.1967V58.9091H91.3473ZM86.1143 55.7727H88.6626V68.1562C88.6626 68.6506 88.7365 69.0227 88.8842 69.2727C89.032 69.517 89.2223 69.6847 89.4553 69.7756C89.6939 69.8608 89.9524 69.9034 90.2308 69.9034C90.4354 69.9034 90.6143 69.8892 90.7678 69.8608C90.9212 69.8324 91.0405 69.8097 91.1257 69.7926L91.5859 71.8977C91.4382 71.9545 91.228 72.0114 90.9553 72.0682C90.6825 72.1307 90.3416 72.1648 89.9325 72.1705C89.2621 72.1818 88.6371 72.0625 88.0575 71.8125C87.478 71.5625 87.0092 71.1761 86.6513 70.6534C86.2933 70.1307 86.1143 69.4744 86.1143 68.6847V55.7727ZM95.777 76.9091C95.3963 76.9091 95.0497 76.8778 94.7372 76.8153C94.4247 76.7585 94.1918 76.696 94.0384 76.6278L94.652 74.5398C95.1179 74.6648 95.5327 74.7188 95.8963 74.7017C96.2599 74.6847 96.581 74.5483 96.8594 74.2926C97.1435 74.0369 97.3935 73.6193 97.6094 73.0398L97.9247 72.1705L93.1349 58.9091H95.8622L99.1776 69.0682H99.3139L102.629 58.9091H105.365L99.9702 73.7472C99.7202 74.429 99.402 75.0057 99.0156 75.4773C98.6293 75.9545 98.169 76.3125 97.6349 76.5511C97.1009 76.7898 96.4815 76.9091 95.777 76.9091ZM113.455 56.8125V54.5455H126.964V56.8125H121.518V72H118.893V56.8125H113.455ZM128.385 72V58.9091H130.848V60.9886H130.984C131.223 60.2841 131.643 59.7301 132.246 59.3267C132.854 58.9176 133.541 58.7131 134.308 58.7131C134.467 58.7131 134.655 58.7187 134.871 58.7301C135.092 58.7415 135.266 58.7557 135.391 58.7727V61.2102C135.288 61.1818 135.107 61.1506 134.845 61.1165C134.584 61.0767 134.322 61.0568 134.061 61.0568C133.459 61.0568 132.922 61.1847 132.45 61.4403C131.984 61.6903 131.615 62.0398 131.342 62.4886C131.07 62.9318 130.933 63.4375 130.933 64.0057V72H128.385ZM141.288 72.2898C140.459 72.2898 139.709 72.1364 139.038 71.8295C138.368 71.517 137.837 71.0653 137.445 70.4744C137.058 69.8835 136.865 69.1591 136.865 68.3011C136.865 67.5625 137.007 66.9545 137.291 66.4773C137.575 66 137.959 65.6222 138.442 65.3438C138.925 65.0653 139.464 64.8551 140.061 64.7131C140.658 64.571 141.266 64.4631 141.885 64.3892C142.669 64.2983 143.305 64.2244 143.794 64.1676C144.283 64.1051 144.638 64.0057 144.859 63.8693C145.081 63.733 145.192 63.5114 145.192 63.2045V63.1449C145.192 62.4006 144.982 61.8239 144.561 61.4148C144.146 61.0057 143.527 60.8011 142.703 60.8011C141.845 60.8011 141.169 60.9915 140.675 61.3722C140.186 61.7472 139.848 62.1648 139.661 62.625L137.266 62.0795C137.55 61.2841 137.964 60.642 138.51 60.1534C139.061 59.6591 139.695 59.3011 140.411 59.0795C141.126 58.8523 141.879 58.7386 142.669 58.7386C143.192 58.7386 143.746 58.8011 144.331 58.9261C144.922 59.0455 145.473 59.267 145.984 59.5909C146.501 59.9148 146.925 60.3778 147.254 60.9801C147.584 61.5767 147.749 62.3523 147.749 63.3068V72H145.26V70.2102H145.158C144.993 70.5398 144.746 70.8636 144.416 71.1818C144.087 71.5 143.663 71.7642 143.146 71.9744C142.629 72.1847 142.01 72.2898 141.288 72.2898ZM141.842 70.2443C142.547 70.2443 143.149 70.1051 143.649 69.8267C144.155 69.5483 144.538 69.1847 144.8 68.7358C145.067 68.2812 145.2 67.7955 145.2 67.2784V65.5909C145.109 65.6818 144.933 65.767 144.672 65.8466C144.416 65.9205 144.124 65.9858 143.794 66.0426C143.464 66.0937 143.143 66.142 142.831 66.1875C142.518 66.2273 142.257 66.2614 142.047 66.2898C141.553 66.3523 141.101 66.4574 140.692 66.6051C140.288 66.7528 139.964 66.9659 139.72 67.2443C139.482 67.517 139.362 67.8807 139.362 68.3352C139.362 68.9659 139.595 69.4432 140.061 69.767C140.527 70.0852 141.121 70.2443 141.842 70.2443ZM156.043 72.2557C154.987 72.2557 154.043 71.9858 153.214 71.446C152.39 70.9006 151.742 70.125 151.271 69.1193C150.805 68.108 150.572 66.8949 150.572 65.4801C150.572 64.0653 150.808 62.8551 151.279 61.8494C151.756 60.8437 152.41 60.0739 153.239 59.5398C154.069 59.0057 155.009 58.7386 156.06 58.7386C156.873 58.7386 157.526 58.875 158.021 59.1477C158.521 59.4148 158.907 59.7273 159.18 60.0852C159.458 60.4432 159.674 60.7585 159.827 61.0312H159.981V54.5455H162.529V72H160.04V69.9631H159.827C159.674 70.2415 159.452 70.5597 159.163 70.9176C158.879 71.2756 158.487 71.5881 157.987 71.8551C157.487 72.1222 156.839 72.2557 156.043 72.2557ZM156.606 70.0824C157.339 70.0824 157.958 69.8892 158.464 69.5028C158.975 69.1108 159.362 68.5682 159.623 67.875C159.89 67.1818 160.023 66.375 160.023 65.4545C160.023 64.5455 159.893 63.75 159.631 63.0682C159.37 62.3864 158.987 61.8551 158.481 61.4744C157.975 61.0937 157.35 60.9034 156.606 60.9034C155.839 60.9034 155.2 61.1023 154.688 61.5C154.177 61.8977 153.79 62.4403 153.529 63.1278C153.273 63.8153 153.146 64.5909 153.146 65.4545C153.146 66.3295 153.276 67.1165 153.538 67.8153C153.799 68.5142 154.185 69.0682 154.697 69.4773C155.214 69.8807 155.85 70.0824 156.606 70.0824ZM166.166 72V58.9091H168.714V72H166.166ZM167.453 56.8892C167.01 56.8892 166.629 56.7415 166.311 56.446C165.999 56.1449 165.842 55.7869 165.842 55.3722C165.842 54.9517 165.999 54.5937 166.311 54.2983C166.629 53.9972 167.01 53.8466 167.453 53.8466C167.896 53.8466 168.274 53.9972 168.587 54.2983C168.905 54.5937 169.064 54.9517 169.064 55.3722C169.064 55.7869 168.905 56.1449 168.587 56.446C168.274 56.7415 167.896 56.8892 167.453 56.8892ZM174.691 64.2273V72H172.143V58.9091H174.589V61.0398H174.751C175.052 60.3466 175.523 59.7898 176.165 59.3693C176.813 58.9489 177.629 58.7386 178.612 58.7386C179.504 58.7386 180.285 58.9261 180.955 59.3011C181.626 59.6705 182.146 60.2216 182.515 60.9545C182.884 61.6875 183.069 62.5937 183.069 63.6733V72H180.521V63.9801C180.521 63.0312 180.273 62.2898 179.779 61.7557C179.285 61.2159 178.606 60.946 177.742 60.946C177.151 60.946 176.626 61.0739 176.165 61.3295C175.711 61.5852 175.35 61.9602 175.083 62.4545C174.822 62.9432 174.691 63.5341 174.691 64.2273ZM191.975 77.1818C190.935 77.1818 190.04 77.0455 189.29 76.7727C188.546 76.5 187.938 76.1392 187.467 75.6903C186.995 75.2415 186.643 74.75 186.41 74.2159L188.6 73.3125C188.754 73.5625 188.958 73.8267 189.214 74.1051C189.475 74.3892 189.827 74.6307 190.271 74.8295C190.719 75.0284 191.296 75.1278 192.001 75.1278C192.967 75.1278 193.765 74.892 194.396 74.4205C195.026 73.9545 195.342 73.2102 195.342 72.1875V69.6136H195.18C195.026 69.892 194.805 70.2017 194.515 70.5426C194.231 70.8835 193.839 71.179 193.339 71.429C192.839 71.679 192.188 71.804 191.387 71.804C190.353 71.804 189.421 71.5625 188.592 71.0795C187.768 70.5909 187.114 69.8722 186.631 68.9233C186.154 67.9687 185.915 66.7955 185.915 65.4034C185.915 64.0114 186.151 62.8182 186.623 61.8239C187.1 60.8295 187.754 60.0682 188.583 59.5398C189.413 59.0057 190.353 58.7386 191.404 58.7386C192.217 58.7386 192.873 58.875 193.373 59.1477C193.873 59.4148 194.262 59.7273 194.54 60.0852C194.825 60.4432 195.043 60.7585 195.197 61.0312H195.384V58.9091H197.881V72.2898C197.881 73.4148 197.62 74.3381 197.097 75.0597C196.575 75.7813 195.867 76.3153 194.975 76.6619C194.089 77.0085 193.089 77.1818 191.975 77.1818ZM191.95 69.6903C192.683 69.6903 193.302 69.5199 193.808 69.179C194.319 68.8324 194.705 68.3381 194.967 67.696C195.234 67.0483 195.367 66.2727 195.367 65.3693C195.367 64.4886 195.237 63.7131 194.975 63.0426C194.714 62.3722 194.33 61.8494 193.825 61.4744C193.319 61.0937 192.694 60.9034 191.95 60.9034C191.183 60.9034 190.543 61.1023 190.032 61.5C189.521 61.892 189.134 62.4261 188.873 63.1023C188.617 63.7784 188.489 64.5341 188.489 65.3693C188.489 66.2273 188.62 66.9801 188.881 67.6278C189.143 68.2756 189.529 68.7812 190.04 69.1449C190.558 69.5085 191.194 69.6903 191.95 69.6903Z" fill="white"/>
<g clip-path="url(#clip0_53_386)">
<path d="M427.218 43.3732C427.863 43.3048 428.552 43.1457 428.72 43.9965C429.001 45.4221 429.151 46.871 429.351 48.3117L430.189 54.0942C430.879 58.9734 431.651 63.9059 432.191 68.794C432.42 70.8644 433.041 73.6295 433.08 75.6263C433.878 75.2274 434.908 74.4355 435.643 73.9177C437.027 72.9427 438.396 71.9314 439.767 70.9385C440.58 70.3501 441.466 69.8243 442.285 69.2446C446.882 65.9471 451.509 62.6932 456.164 59.4829C457.489 58.5849 459.011 57.4275 460.356 56.5905C461.142 56.101 462.418 58.1539 462.819 58.7552C464.571 61.3875 465.88 64.2115 466.878 67.2356C469.478 75.1543 468.92 83.8097 465.325 91.3059C461.82 98.468 456.09 104.222 449.044 107.656C447.643 108.344 446.004 108.965 444.535 109.476C436.484 112.103 427.181 112.143 419.235 109.035C418.421 108.716 416.756 108.103 416.079 107.633C415.683 107.888 415.307 108.168 414.925 108.436C407.845 113.388 397.717 111.607 392.851 104.25C389.004 98.4354 390.045 90.7894 394.983 86.0335C395.635 85.406 396.503 84.8237 397.248 84.2948C395.198 74.8909 397.262 64.7328 403.176 57.1775C409.085 49.4715 417.738 44.5039 427.218 43.3732ZM417.553 106.199C418.421 106.607 419.384 107.077 420.274 107.415C428.272 110.42 437.052 110.383 445.027 107.312C445.879 106.988 447.649 106.246 448.427 105.84C455.703 102.327 462.128 95.1086 464.827 87.4236C467.887 78.7108 466.663 68.5124 461.773 60.788C461.396 60.1919 460.745 59.3163 460.462 58.7492C459.954 59.2295 458.647 60.09 458.024 60.5289L452.563 64.347L439.664 73.3661C437.658 74.7675 435.62 76.1977 433.631 77.6325C433.243 77.9127 432.826 78.1038 432.373 78.2546C432.161 78.1455 431.819 77.9833 431.627 77.8609C431.303 76.9462 431.011 73.9845 430.837 72.8007L428.716 57.8636L427.293 47.3304C427.225 46.8149 427.17 46.2551 427.154 45.7362C427.132 45.0437 426.75 45.1911 426.248 45.2616C423.662 45.8766 421.06 46.5426 418.585 47.5665C406.175 52.6993 397.229 65.6999 398.476 79.6711C398.555 80.5598 398.641 81.6448 398.835 82.5075C398.9 82.7901 398.981 83.0686 399.077 83.3417C400.028 82.6653 401.254 82.4203 402.358 82.1492C412.41 79.6786 423.162 87.941 421.22 99.0285C420.794 101.46 419.322 104.506 417.553 106.199ZM406.655 109.368C407.336 109.271 408.339 109.242 408.954 109.087C415.474 107.445 420.412 101.635 419.294 94.4928C418.751 91.0236 416.977 88.4777 414.303 86.3227C412.226 84.6527 408 83.2831 405.357 83.5538C401.269 83.9538 397.856 85.3701 395.188 88.6952C393.165 91.2101 392.202 94.4513 392.513 97.6991C393.192 104.808 399.94 109.713 406.655 109.368Z" fill="#1EA84E"/>
<path d="M405.971 87.096C407.263 87.1119 406.946 88.4347 406.921 89.4401C409.369 89.7736 411.355 90.645 411.223 93.6489C410.311 94.1906 410.177 94.2254 409.302 93.6016C409.183 92.8391 409.164 92.1075 408.407 91.6668C407.61 91.2036 406.784 91.3025 405.898 91.2737C405.094 91.2475 404.418 91.3254 403.631 91.5278C403.511 91.6528 403.363 91.7821 403.241 91.9039C402.181 92.9415 402.439 95.0085 404.035 95.3379C406.259 95.7972 408.824 95.0725 410.454 97.171C411.083 97.9939 411.367 99.0413 411.242 100.08C411.119 101.087 410.614 102.003 409.837 102.628C409.086 103.222 407.881 103.6 406.929 103.48C406.95 104.159 406.942 104.618 406.899 105.297C406.709 105.575 406.618 105.716 406.331 105.876C406.259 105.885 406.186 105.89 406.113 105.89C404.73 105.895 405.016 104.573 405.03 103.528C403.029 103.531 401.025 102.428 400.751 100.19C400.692 99.7089 400.963 98.646 401.562 98.7156C402.833 98.8631 402.583 100.305 403.203 101.034C404.045 101.835 406.089 101.532 407.184 101.589C407.748 101.589 408.502 101.359 408.868 100.891C409.435 100.166 409.369 98.272 408.435 97.8563C406.364 96.9341 403.905 98.1981 402.041 96.4375C401.345 95.7796 400.796 95.0174 400.763 94.0156C400.605 90.8544 402.117 89.6733 405.025 89.5205C405.025 89.1789 405.023 88.814 405.022 88.4747C405.018 87.522 404.973 87.1668 405.971 87.096Z" fill="#1EA84E"/>
<path d="M433.828 38.6815C435.746 38.5805 437.877 38.7835 439.778 39.0257C447.222 40.0232 454.165 43.4287 459.604 48.7499C460.315 49.4571 461.072 50.145 461.687 50.9433C462.212 51.6243 462.354 52.1826 461.594 52.7388C458.509 54.9947 455.327 57.1244 452.233 59.372C451.497 59.907 450.708 60.3802 449.987 60.929C449.013 61.7173 447.952 62.324 446.963 63.035C445.822 63.8557 444.721 64.6131 443.571 65.411L439.892 67.9706C438.797 68.7451 437.123 70.1454 435.926 70.5274C435.674 70.4409 435.369 70.371 435.107 70.3037C434.8 69.4407 434.77 68.7007 434.637 67.7984L434.03 63.5066L431.834 47.2255C431.522 44.7869 430.97 42.2968 430.784 39.818C430.765 39.5639 430.733 39.3506 430.905 39.1717C431.421 38.635 433.078 38.7034 433.828 38.6815ZM436.555 68.0644C437.093 67.5866 437.806 67.1544 438.404 66.7412L441.819 64.3668C444.47 62.5074 447.266 60.3785 449.961 58.6409C453.127 56.3944 456.591 53.9029 459.838 51.8013C453.549 44.622 445.028 40.9546 435.707 40.459C434.962 40.4207 434.216 40.4269 433.471 40.4774C433.188 40.5414 432.971 40.5312 432.815 40.7261C432.853 41.3118 433.027 42.2845 433.112 42.8932L433.792 47.6844L435.395 59.7986C435.774 62.5102 436.288 65.35 436.555 68.0644Z" fill="#1EA84E"/>
</g>
<ellipse cx="429.5" cy="77.5" rx="54.5" ry="53.5" fill="#D9D9D9" fill-opacity="0.25"/>
<defs>
<clipPath id="clip0_53_386">
<rect width="79" height="74" fill="white" transform="translate(390 38)"/>
</clipPath>
</defs>
</svg>