<svg xmlns="http://www.w3.org/2000/svg" width="554" height="155" viewBox="0 0 554 155" fill="none">
<ellipse cx="456" cy="69" rx="54.5" ry="53.5" fill="#D9D9D9" fill-opacity="0.39"/>
<rect x="0.5" y="0.5" width="553" height="154" rx="16" fill="#164951" fill-opacity="0.09" stroke="black" stroke-opacity="0.2"/>
<path d="M33.9489 37.5V26.5909H40.261V27.4858H34.945V31.5927H39.7656V32.4876H34.945V37.5H33.9489ZM43.734 26.5909V37.5H42.7379V26.5909H43.734ZM46.8049 26.5909L49.8251 31.3263H49.8944L52.9146 26.5909H54.0918L50.5815 32.0455L54.0918 37.5H52.9146L49.8944 32.8178H49.8251L46.8049 37.5H45.6277L49.1912 32.0455L45.6277 26.5909H46.8049ZM55.9801 37.5V26.5909H62.3082V27.4858H56.9762V31.5927H61.9727V32.4876H56.9762V36.6051H62.4148V37.5H55.9801ZM68.0824 37.5H64.8864V26.5909H68.2741C69.3146 26.5909 70.2042 26.8075 70.9428 27.2408C71.685 27.674 72.2532 28.2955 72.6474 29.1051C73.0415 29.9148 73.2386 30.886 73.2386 32.0188C73.2386 33.1623 73.0362 34.1442 72.6314 34.9645C72.2301 35.7812 71.6442 36.408 70.8736 36.8448C70.1065 37.2816 69.1761 37.5 68.0824 37.5ZM65.8825 36.6051H68.0238C68.9613 36.6051 69.7461 36.4205 70.3782 36.0511C71.0103 35.6818 71.4844 35.1545 71.8004 34.4691C72.1165 33.7837 72.2745 32.967 72.2745 32.0188C72.271 31.0778 72.1147 30.2681 71.8058 29.5898C71.5004 28.9116 71.0458 28.3913 70.4421 28.0291C69.842 27.6669 69.0998 27.4858 68.2156 27.4858H65.8825V36.6051ZM80.8678 26.5909V37.5H79.8717V26.5909H80.8678ZM92.2643 26.5909V37.5H91.2948L84.8495 28.3647H84.7643V37.5H83.7682V26.5909H84.7323L91.199 35.7369H91.2842V26.5909H92.2643ZM103.709 30H102.707C102.633 29.6271 102.498 29.2827 102.302 28.9666C102.111 28.647 101.869 28.3683 101.578 28.1303C101.287 27.8924 100.957 27.7077 100.587 27.5763C100.218 27.445 99.8184 27.3793 99.3888 27.3793C98.6998 27.3793 98.0713 27.5586 97.5031 27.9173C96.9385 28.2759 96.4857 28.8033 96.1448 29.4993C95.8074 30.1918 95.6388 31.0405 95.6388 32.0455C95.6388 33.0575 95.8074 33.9098 96.1448 34.6023C96.4857 35.2947 96.9385 35.8203 97.5031 36.179C98.0713 36.5341 98.6998 36.7116 99.3888 36.7116C99.8184 36.7116 100.218 36.646 100.587 36.5146C100.957 36.3832 101.287 36.2003 101.578 35.9659C101.869 35.728 102.111 35.4492 102.302 35.1296C102.498 34.81 102.633 34.4638 102.707 34.0909H103.709C103.62 34.5916 103.453 35.0586 103.208 35.4918C102.967 35.9215 102.658 36.2979 102.281 36.6211C101.908 36.9442 101.479 37.1964 100.992 37.3775C100.506 37.5586 99.9711 37.6491 99.3888 37.6491C98.4726 37.6491 97.6594 37.4201 96.9491 36.962C96.2389 36.5004 95.6814 35.8505 95.2765 35.0124C94.8753 34.1744 94.6746 33.1854 94.6746 32.0455C94.6746 30.9055 94.8753 29.9165 95.2765 29.0785C95.6814 28.2404 96.2389 27.5923 96.9491 27.1342C97.6594 26.6726 98.4726 26.4418 99.3888 26.4418C99.9711 26.4418 100.506 26.5323 100.992 26.7134C101.479 26.891 101.908 27.1431 102.281 27.4698C102.658 27.793 102.967 28.1694 103.208 28.5991C103.453 29.0288 103.62 29.4957 103.709 30ZM114.992 32.0455C114.992 33.1818 114.79 34.1708 114.385 35.0124C113.98 35.8505 113.422 36.5004 112.712 36.962C112.006 37.4201 111.192 37.6491 110.273 37.6491C109.353 37.6491 108.538 37.4201 107.828 36.962C107.121 36.5004 106.565 35.8505 106.16 35.0124C105.759 34.1708 105.558 33.1818 105.558 32.0455C105.558 30.9091 105.759 29.9219 106.16 29.0838C106.565 28.2422 107.123 27.5923 107.833 27.1342C108.543 26.6726 109.356 26.4418 110.273 26.4418C111.192 26.4418 112.006 26.6726 112.712 27.1342C113.422 27.5923 113.98 28.2422 114.385 29.0838C114.79 29.9219 114.992 30.9091 114.992 32.0455ZM114.023 32.0455C114.023 31.0689 113.859 30.2326 113.532 29.5366C113.206 28.837 112.76 28.3026 112.195 27.9332C111.631 27.5639 110.99 27.3793 110.273 27.3793C109.559 27.3793 108.92 27.5639 108.355 27.9332C107.79 28.3026 107.343 28.8352 107.013 29.5312C106.686 30.2273 106.523 31.0653 106.523 32.0455C106.523 33.022 106.686 33.8583 107.013 34.5543C107.339 35.2504 107.785 35.7848 108.35 36.1577C108.914 36.527 109.555 36.7116 110.273 36.7116C110.99 36.7116 111.631 36.527 112.195 36.1577C112.764 35.7884 113.211 35.2557 113.538 34.5597C113.865 33.8601 114.026 33.022 114.023 32.0455ZM117.401 26.5909H118.552L122.509 36.0938H122.605L126.563 26.5909H127.714V37.5H126.776V28.695H126.691L123.01 37.5H122.104L118.424 28.695H118.339V37.5H117.401V26.5909ZM130.614 37.5V26.5909H136.942V27.4858H131.61V31.5927H136.606V32.4876H131.61V36.6051H137.049V37.5H130.614Z" fill="black"/>
<path d="M35.6591 98.5V89.7727H36.456V97.7841H40.6151V98.5H35.6591ZM44.7955 98.6364C44.2301 98.6364 43.7301 98.4929 43.2955 98.206C42.8636 97.919 42.5256 97.5227 42.2812 97.017C42.0369 96.5085 41.9148 95.9219 41.9148 95.2571C41.9148 94.5866 42.0369 93.9972 42.2812 93.4886C42.5256 92.9773 42.8636 92.5795 43.2955 92.2955C43.7301 92.0085 44.2301 91.8651 44.7955 91.8651C45.3608 91.8651 45.8594 92.0085 46.2912 92.2955C46.723 92.5824 47.0611 92.9801 47.3054 93.4886C47.5526 93.9972 47.6761 94.5866 47.6761 95.2571C47.6761 95.9219 47.554 96.5085 47.3097 97.017C47.0653 97.5227 46.7259 97.919 46.2912 98.206C45.8594 98.4929 45.3608 98.6364 44.7955 98.6364ZM44.7955 97.9418C45.25 97.9418 45.6349 97.8196 45.9503 97.5753C46.2656 97.331 46.5043 97.0057 46.6662 96.5994C46.831 96.1932 46.9134 95.7457 46.9134 95.2571C46.9134 94.7685 46.831 94.3196 46.6662 93.9105C46.5043 93.5014 46.2656 93.1733 45.9503 92.9261C45.6349 92.679 45.25 92.5554 44.7955 92.5554C44.3438 92.5554 43.9588 92.679 43.6406 92.9261C43.3253 93.1733 43.0852 93.5014 42.9205 93.9105C42.7585 94.3196 42.6776 94.7685 42.6776 95.2571C42.6776 95.7457 42.7585 96.1932 42.9205 96.5994C43.0852 97.0057 43.3253 97.331 43.6406 97.5753C43.956 97.8196 44.3409 97.9418 44.7955 97.9418ZM50.5717 98.5L48.5945 91.9545H49.3956L50.9467 97.3537H51.0021L52.549 91.9545H53.3544L54.8885 97.3409H54.9482L56.4993 91.9545H57.3004L55.3232 98.5H54.5391L52.9879 93.1349H52.907L51.3558 98.5H50.5717ZM62.1499 98.5V91.9545H62.8871V92.9602H62.9425C63.0732 92.6307 63.3004 92.3651 63.6243 92.1634C63.951 91.9588 64.3203 91.8565 64.7322 91.8565C64.7947 91.8565 64.8643 91.858 64.9411 91.8608C65.0178 91.8636 65.0817 91.8665 65.1328 91.8693V92.6406C65.0987 92.6349 65.0391 92.6264 64.9538 92.6151C64.8686 92.6037 64.7763 92.598 64.6768 92.598C64.3359 92.598 64.032 92.6705 63.7649 92.8153C63.5007 92.9574 63.2919 93.1548 63.1385 93.4077C62.9851 93.6605 62.9084 93.9489 62.9084 94.2727V98.5H62.1499ZM66.4357 98.5V91.9545H67.1985V98.5H66.4357ZM66.8235 90.8295C66.6673 90.8295 66.5337 90.777 66.4229 90.6719C66.3121 90.5639 66.2567 90.4347 66.2567 90.2841C66.2567 90.1335 66.3121 90.0057 66.4229 89.9006C66.5337 89.7926 66.6673 89.7386 66.8235 89.7386C66.9798 89.7386 67.1133 89.7926 67.2241 89.9006C67.3349 90.0057 67.3903 90.1335 67.3903 90.2841C67.3903 90.4347 67.3349 90.5639 67.2241 90.6719C67.1133 90.777 66.9798 90.8295 66.8235 90.8295ZM73.6023 93.3906L72.9077 93.5866C72.8395 93.3906 72.7429 93.2131 72.6179 93.054C72.4929 92.8949 72.3295 92.7685 72.1278 92.6747C71.929 92.581 71.6818 92.5341 71.3864 92.5341C70.9432 92.5341 70.5795 92.6392 70.2955 92.8494C70.0114 93.0597 69.8693 93.331 69.8693 93.6634C69.8693 93.9446 69.9659 94.1733 70.1591 94.3494C70.3551 94.5227 70.6562 94.6605 71.0625 94.7628L72.0511 95.0057C72.5994 95.1392 73.0099 95.3509 73.2827 95.6406C73.5582 95.9304 73.696 96.294 73.696 96.7315C73.696 97.1009 73.5938 97.429 73.3892 97.7159C73.1847 98.0028 72.8991 98.2287 72.5327 98.3935C72.169 98.5554 71.7472 98.6364 71.267 98.6364C70.6278 98.6364 70.1009 98.4929 69.6861 98.206C69.2713 97.9162 69.0057 97.4986 68.8892 96.9531L69.6179 96.7741C69.7116 97.1634 69.8949 97.4574 70.1676 97.6562C70.4432 97.8551 70.8054 97.9545 71.2543 97.9545C71.7571 97.9545 72.1591 97.8423 72.4602 97.6179C72.7614 97.3906 72.9119 97.1065 72.9119 96.7656C72.9119 96.5014 72.8239 96.2798 72.6477 96.1009C72.4716 95.919 72.2045 95.7855 71.8466 95.7003L70.777 95.4446C70.2088 95.3082 69.7884 95.0923 69.5156 94.7969C69.2429 94.5014 69.1065 94.1349 69.1065 93.6974C69.1065 93.3366 69.2045 93.0199 69.4006 92.7472C69.5966 92.4716 69.8665 92.2557 70.2102 92.0994C70.554 91.9432 70.946 91.8651 71.3864 91.8651C71.9858 91.8651 72.4645 92.0014 72.8224 92.2741C73.1832 92.544 73.4432 92.9162 73.6023 93.3906ZM76.0472 96.0284L76.0387 95.0355H76.2092L79.2773 91.9545H80.2362L77.2063 94.9886L77.1381 95.0014L76.0472 96.0284ZM75.3569 98.5V89.7727H76.1154V98.5H75.3569ZM79.435 98.5L76.7759 95.1378L77.3214 94.6136L80.4066 98.5H79.435ZM87.5337 101.091C87.0877 101.091 86.6971 101.033 86.3619 100.916C86.0266 100.803 85.744 100.646 85.5138 100.447C85.2837 100.249 85.1048 100.026 84.9769 99.7784L85.5991 99.3693C85.6928 99.5341 85.8178 99.696 85.9741 99.8551C86.1332 100.014 86.3391 100.146 86.592 100.251C86.8477 100.357 87.1616 100.409 87.5337 100.409C88.1133 100.409 88.5806 100.264 88.9357 99.9744C89.2937 99.6847 89.4727 99.2344 89.4727 98.6236V97.1491H89.4045C89.3164 97.348 89.19 97.5469 89.0252 97.7457C88.8604 97.9418 88.6445 98.1051 88.3775 98.2358C88.1133 98.3665 87.7852 98.4318 87.3931 98.4318C86.8704 98.4318 86.4059 98.3026 85.9996 98.044C85.5962 97.7855 85.2781 97.4162 85.0451 96.9361C84.815 96.4531 84.6999 95.8778 84.6999 95.2102C84.6999 94.5483 84.8121 93.9659 85.0366 93.4631C85.2638 92.9602 85.5806 92.5682 85.9869 92.2869C86.3931 92.0057 86.8661 91.8651 87.4059 91.8651C87.8065 91.8651 88.1388 91.9361 88.4031 92.0781C88.6673 92.2173 88.8789 92.3906 89.038 92.598C89.1999 92.8054 89.3263 93.0071 89.4173 93.2031H89.494V91.9545H90.2354V98.6705C90.2354 99.2244 90.1175 99.6804 89.8817 100.038C89.646 100.396 89.3249 100.661 88.9187 100.831C88.5124 101.004 88.0508 101.091 87.5337 101.091ZM87.4826 97.7372C87.9031 97.7372 88.2624 97.6364 88.5607 97.4347C88.859 97.2301 89.0877 96.9375 89.2468 96.5568C89.4059 96.1761 89.4854 95.723 89.4854 95.1974C89.4854 94.6861 89.4073 94.233 89.2511 93.8381C89.0948 93.4403 88.8675 93.1278 88.5692 92.9006C88.2738 92.6705 87.9116 92.5554 87.4826 92.5554C87.0451 92.5554 86.6758 92.6733 86.3746 92.9091C86.0735 93.1449 85.8462 93.4631 85.6928 93.8636C85.5394 94.2614 85.4627 94.706 85.4627 95.1974C85.4627 95.6974 85.5408 96.1392 85.6971 96.5227C85.8533 96.9034 86.082 97.2017 86.3832 97.4176C86.6843 97.6307 87.0508 97.7372 87.4826 97.7372ZM94.7876 98.6364C94.2223 98.6364 93.7223 98.4929 93.2876 98.206C92.8558 97.919 92.5178 97.5227 92.2734 97.017C92.0291 96.5085 91.907 95.9219 91.907 95.2571C91.907 94.5866 92.0291 93.9972 92.2734 93.4886C92.5178 92.9773 92.8558 92.5795 93.2876 92.2955C93.7223 92.0085 94.2223 91.8651 94.7876 91.8651C95.353 91.8651 95.8516 92.0085 96.2834 92.2955C96.7152 92.5824 97.0533 92.9801 97.2976 93.4886C97.5447 93.9972 97.6683 94.5866 97.6683 95.2571C97.6683 95.9219 97.5462 96.5085 97.3018 97.017C97.0575 97.5227 96.718 97.919 96.2834 98.206C95.8516 98.4929 95.353 98.6364 94.7876 98.6364ZM94.7876 97.9418C95.2422 97.9418 95.6271 97.8196 95.9425 97.5753C96.2578 97.331 96.4964 97.0057 96.6584 96.5994C96.8232 96.1932 96.9055 95.7457 96.9055 95.2571C96.9055 94.7685 96.8232 94.3196 96.6584 93.9105C96.4964 93.5014 96.2578 93.1733 95.9425 92.9261C95.6271 92.679 95.2422 92.5554 94.7876 92.5554C94.3359 92.5554 93.951 92.679 93.6328 92.9261C93.3175 93.1733 93.0774 93.5014 92.9126 93.9105C92.7507 94.3196 92.6697 94.7685 92.6697 95.2571C92.6697 95.7457 92.7507 96.1932 92.9126 96.5994C93.0774 97.0057 93.3175 97.331 93.6328 97.5753C93.9482 97.8196 94.3331 97.9418 94.7876 97.9418ZM104.166 91.9545L101.775 98.5H100.966L98.5749 91.9545H99.3974L101.341 97.4986H101.4L103.343 91.9545H104.166ZM108.062 98.6364C107.451 98.6364 106.923 98.4943 106.477 98.2102C106.031 97.9233 105.685 97.527 105.441 97.0213C105.2 96.5128 105.079 95.9276 105.079 95.2656C105.079 94.6065 105.2 94.0213 105.441 93.5099C105.685 92.9957 106.022 92.5937 106.451 92.304C106.883 92.0114 107.381 91.8651 107.947 91.8651C108.302 91.8651 108.644 91.9304 108.974 92.0611C109.303 92.1889 109.599 92.3864 109.86 92.6534C110.124 92.9176 110.333 93.2514 110.487 93.6548C110.64 94.0554 110.717 94.5298 110.717 95.0781V95.4531H105.603V94.7841H109.941C109.941 94.3636 109.856 93.9858 109.685 93.6506C109.518 93.3125 109.283 93.0455 108.982 92.8494C108.684 92.6534 108.339 92.5554 107.947 92.5554C107.532 92.5554 107.167 92.6662 106.852 92.8878C106.536 93.1094 106.289 93.402 106.11 93.7656C105.934 94.1293 105.844 94.527 105.842 94.9588V95.3594C105.842 95.8793 105.931 96.3338 106.11 96.723C106.292 97.1094 106.549 97.4091 106.881 97.6222C107.214 97.8352 107.607 97.9418 108.062 97.9418C108.371 97.9418 108.643 97.8935 108.876 97.7969C109.112 97.7003 109.309 97.571 109.468 97.4091C109.63 97.2443 109.752 97.0639 109.835 96.8679L110.555 97.1023C110.455 97.3778 110.292 97.6321 110.065 97.8651C109.84 98.098 109.559 98.2855 109.221 98.4276C108.886 98.5668 108.499 98.6364 108.062 98.6364ZM112.388 98.5V91.9545H113.125V92.9602H113.181C113.311 92.6307 113.539 92.3651 113.863 92.1634C114.189 91.9588 114.559 91.8565 114.971 91.8565C115.033 91.8565 115.103 91.858 115.179 91.8608C115.256 91.8636 115.32 91.8665 115.371 91.8693V92.6406C115.337 92.6349 115.277 92.6264 115.192 92.6151C115.107 92.6037 115.015 92.598 114.915 92.598C114.574 92.598 114.27 92.6705 114.003 92.8153C113.739 92.9574 113.53 93.1548 113.377 93.4077C113.223 93.6605 113.147 93.9489 113.147 94.2727V98.5H112.388ZM117.424 94.4091V98.5H116.665V91.9545H117.403V92.9815H117.471C117.624 92.6463 117.863 92.3778 118.187 92.1761C118.513 91.9716 118.917 91.8693 119.397 91.8693C119.837 91.8693 120.224 91.9616 120.556 92.1463C120.891 92.3281 121.151 92.5966 121.336 92.9517C121.523 93.3068 121.617 93.7429 121.617 94.2599V98.5H120.859V94.3068C120.859 93.7699 120.708 93.3452 120.407 93.0327C120.109 92.7202 119.708 92.5639 119.205 92.5639C118.862 92.5639 118.556 92.6378 118.289 92.7855C118.022 92.9332 117.81 93.1463 117.654 93.4247C117.501 93.7003 117.424 94.0284 117.424 94.4091ZM123.615 98.5V91.9545H124.352V92.9602H124.42C124.551 92.6222 124.768 92.3565 125.072 92.1634C125.379 91.9673 125.747 91.8693 126.176 91.8693C126.627 91.8693 126.998 91.9759 127.288 92.1889C127.581 92.3991 127.799 92.6889 127.944 93.0582H128C128.147 92.6946 128.387 92.4062 128.72 92.1932C129.055 91.9773 129.461 91.8693 129.939 91.8693C130.547 91.8693 131.027 92.0611 131.379 92.4446C131.731 92.8253 131.907 93.3821 131.907 94.1151V98.5H131.149V94.1151C131.149 93.598 131.017 93.2102 130.752 92.9517C130.488 92.6932 130.14 92.5639 129.708 92.5639C129.208 92.5639 128.824 92.7173 128.554 93.0241C128.284 93.331 128.149 93.7202 128.149 94.1918V98.5H127.373V94.0469C127.373 93.6037 127.25 93.2457 127.002 92.973C126.755 92.7003 126.407 92.5639 125.958 92.5639C125.657 92.5639 125.386 92.6378 125.145 92.7855C124.906 92.9332 124.717 93.1392 124.578 93.4034C124.441 93.6648 124.373 93.9659 124.373 94.3068V98.5H123.615ZM136.562 98.6364C135.951 98.6364 135.423 98.4943 134.977 98.2102C134.531 97.9233 134.185 97.527 133.941 97.0213C133.7 96.5128 133.579 95.9276 133.579 95.2656C133.579 94.6065 133.7 94.0213 133.941 93.5099C134.185 92.9957 134.522 92.5937 134.951 92.304C135.383 92.0114 135.881 91.8651 136.447 91.8651C136.802 91.8651 137.144 91.9304 137.474 92.0611C137.803 92.1889 138.099 92.3864 138.36 92.6534C138.624 92.9176 138.833 93.2514 138.987 93.6548C139.14 94.0554 139.217 94.5298 139.217 95.0781V95.4531H134.103V94.7841H138.441C138.441 94.3636 138.356 93.9858 138.185 93.6506C138.018 93.3125 137.783 93.0455 137.482 92.8494C137.184 92.6534 136.839 92.5554 136.447 92.5554C136.032 92.5554 135.667 92.6662 135.352 92.8878C135.036 93.1094 134.789 93.402 134.61 93.7656C134.434 94.1293 134.344 94.527 134.342 94.9588V95.3594C134.342 95.8793 134.431 96.3338 134.61 96.723C134.792 97.1094 135.049 97.4091 135.381 97.6222C135.714 97.8352 136.107 97.9418 136.562 97.9418C136.871 97.9418 137.143 97.8935 137.376 97.7969C137.612 97.7003 137.809 97.571 137.968 97.4091C138.13 97.2443 138.252 97.0639 138.335 96.8679L139.055 97.1023C138.955 97.3778 138.792 97.6321 138.565 97.8651C138.34 98.098 138.059 98.2855 137.721 98.4276C137.386 98.5668 136.999 98.6364 136.562 98.6364ZM141.647 94.4091V98.5H140.888V91.9545H141.625V92.9815H141.694C141.847 92.6463 142.086 92.3778 142.409 92.1761C142.736 91.9716 143.14 91.8693 143.62 91.8693C144.06 91.8693 144.446 91.9616 144.779 92.1463C145.114 92.3281 145.374 92.5966 145.559 92.9517C145.746 93.3068 145.84 93.7429 145.84 94.2599V98.5H145.081V94.3068C145.081 93.7699 144.931 93.3452 144.63 93.0327C144.331 92.7202 143.931 92.5639 143.428 92.5639C143.084 92.5639 142.779 92.6378 142.512 92.7855C142.245 92.9332 142.033 93.1463 141.877 93.4247C141.723 93.7003 141.647 94.0284 141.647 94.4091ZM150.415 91.9545V92.6151H147.292V91.9545H150.415ZM148.268 90.3864H149.031V96.7912C149.031 97.0639 149.077 97.2784 149.171 97.4347C149.265 97.5881 149.387 97.6974 149.538 97.7628C149.688 97.8253 149.849 97.8565 150.019 97.8565C150.119 97.8565 150.204 97.8509 150.275 97.8395C150.346 97.8253 150.408 97.8111 150.462 97.7969L150.624 98.483C150.55 98.5114 150.46 98.5369 150.352 98.5597C150.244 98.5852 150.11 98.598 149.951 98.598C149.673 98.598 149.404 98.5369 149.146 98.4148C148.89 98.2926 148.68 98.1108 148.515 97.8693C148.35 97.6278 148.268 97.3281 148.268 96.9702V90.3864ZM155.671 98.5V89.7727H156.434V93.2031H156.502C156.587 93.0071 156.709 92.8054 156.868 92.598C157.03 92.3906 157.242 92.2173 157.503 92.0781C157.767 91.9361 158.1 91.8651 158.5 91.8651C159.037 91.8651 159.509 92.0071 159.915 92.2912C160.321 92.5724 160.638 92.9673 160.865 93.4759C161.093 93.9815 161.206 94.571 161.206 95.2443C161.206 95.9205 161.093 96.5128 160.865 97.0213C160.641 97.5298 160.326 97.9261 159.919 98.2102C159.516 98.4943 159.047 98.6364 158.513 98.6364C158.115 98.6364 157.783 98.5653 157.516 98.4233C157.252 98.2812 157.039 98.1065 156.877 97.8991C156.715 97.6889 156.59 97.4844 156.502 97.2855H156.408V98.5H155.671ZM156.421 95.2315C156.421 95.7599 156.499 96.2287 156.655 96.6378C156.814 97.044 157.042 97.3636 157.337 97.5966C157.635 97.8267 157.996 97.9418 158.419 97.9418C158.854 97.9418 159.222 97.8224 159.523 97.5838C159.824 97.3423 160.053 97.017 160.209 96.608C160.365 96.1989 160.444 95.7401 160.444 95.2315C160.444 94.7287 160.365 94.2756 160.209 93.8722C160.056 93.4687 159.828 93.1491 159.527 92.9134C159.226 92.6747 158.857 92.5554 158.419 92.5554C157.993 92.5554 157.631 92.6705 157.333 92.9006C157.037 93.1278 156.811 93.4432 156.655 93.8466C156.499 94.2472 156.421 94.7088 156.421 95.2315ZM164.701 98.6491C164.306 98.6491 163.945 98.5724 163.618 98.419C163.292 98.2628 163.032 98.0384 162.838 97.7457C162.645 97.4503 162.549 97.0923 162.549 96.6719C162.549 96.348 162.61 96.0753 162.732 95.8537C162.854 95.6321 163.027 95.4503 163.252 95.3082C163.476 95.1662 163.742 95.054 164.049 94.9716C164.355 94.8892 164.694 94.8253 165.063 94.7798C165.429 94.7344 165.739 94.6946 165.992 94.6605C166.248 94.6264 166.442 94.5724 166.576 94.4986C166.709 94.4247 166.776 94.3054 166.776 94.1406V93.9872C166.776 93.5412 166.642 93.1903 166.375 92.9347C166.111 92.6761 165.73 92.5469 165.233 92.5469C164.762 92.5469 164.377 92.6506 164.078 92.858C163.783 93.0653 163.576 93.3097 163.456 93.5909L162.736 93.331C162.884 92.973 163.088 92.6875 163.35 92.4744C163.611 92.2585 163.904 92.1037 164.228 92.0099C164.551 91.9134 164.88 91.8651 165.212 91.8651C165.462 91.8651 165.722 91.8977 165.992 91.9631C166.265 92.0284 166.517 92.142 166.75 92.304C166.983 92.4631 167.172 92.6861 167.317 92.973C167.462 93.2571 167.534 93.6179 167.534 94.0554V98.5H166.776V97.4645H166.729C166.638 97.6577 166.503 97.8452 166.324 98.027C166.145 98.2088 165.921 98.358 165.651 98.4744C165.381 98.5909 165.064 98.6491 164.701 98.6491ZM164.803 97.9545C165.206 97.9545 165.556 97.8651 165.851 97.6861C166.147 97.5071 166.374 97.2699 166.533 96.9744C166.695 96.6761 166.776 96.348 166.776 95.9901V95.044C166.719 95.098 166.624 95.1463 166.49 95.1889C166.36 95.2315 166.208 95.2699 166.034 95.304C165.864 95.3352 165.694 95.3622 165.523 95.3849C165.353 95.4077 165.199 95.4276 165.063 95.4446C164.694 95.4901 164.378 95.5611 164.117 95.6577C163.855 95.7543 163.655 95.8878 163.516 96.0582C163.377 96.2259 163.307 96.4418 163.307 96.706C163.307 97.1037 163.449 97.4119 163.733 97.6307C164.017 97.8466 164.374 97.9545 164.803 97.9545ZM172.109 98.6364C171.524 98.6364 171.014 98.4901 170.579 98.1974C170.147 97.9048 169.812 97.5043 169.574 96.9957C169.335 96.4872 169.216 95.9077 169.216 95.2571C169.216 94.6009 169.336 94.017 169.578 93.5057C169.822 92.9943 170.16 92.5937 170.592 92.304C171.024 92.0114 171.525 91.8651 172.096 91.8651C172.534 91.8651 172.93 91.9503 173.285 92.1207C173.64 92.2884 173.933 92.5256 174.163 92.8324C174.396 93.1364 174.542 93.4915 174.602 93.8977H173.835C173.755 93.5284 173.564 93.2131 173.26 92.9517C172.958 92.6875 172.575 92.5554 172.109 92.5554C171.691 92.5554 171.322 92.669 171.001 92.8963C170.68 93.1207 170.429 93.4347 170.247 93.8381C170.068 94.2386 169.978 94.7031 169.978 95.2315C169.978 95.7628 170.066 96.233 170.243 96.642C170.419 97.0483 170.666 97.3665 170.984 97.5966C171.305 97.8267 171.68 97.9418 172.109 97.9418C172.399 97.9418 172.663 97.8878 172.902 97.7798C173.143 97.669 173.345 97.5128 173.507 97.3111C173.672 97.1094 173.782 96.8693 173.839 96.5909H174.606C174.549 96.9858 174.409 97.3381 174.184 97.6477C173.963 97.9545 173.674 98.196 173.319 98.3722C172.967 98.5483 172.564 98.6364 172.109 98.6364ZM176.922 96.0284L176.914 95.0355H177.084L180.152 91.9545H181.111L178.081 94.9886L178.013 95.0014L176.922 96.0284ZM176.232 98.5V89.7727H176.99V98.5H176.232ZM180.31 98.5L177.651 95.1378L178.196 94.6136L181.282 98.5H180.31ZM184.913 98.6364C184.303 98.6364 183.774 98.4943 183.328 98.2102C182.882 97.9233 182.537 97.527 182.293 97.0213C182.051 96.5128 181.93 95.9276 181.93 95.2656C181.93 94.6065 182.051 94.0213 182.293 93.5099C182.537 92.9957 182.874 92.5937 183.303 92.304C183.734 92.0114 184.233 91.8651 184.798 91.8651C185.153 91.8651 185.496 91.9304 185.825 92.0611C186.155 92.1889 186.45 92.3864 186.712 92.6534C186.976 92.9176 187.185 93.2514 187.338 93.6548C187.491 94.0554 187.568 94.5298 187.568 95.0781V95.4531H182.455V94.7841H186.793C186.793 94.3636 186.707 93.9858 186.537 93.6506C186.369 93.3125 186.135 93.0455 185.834 92.8494C185.536 92.6534 185.19 92.5554 184.798 92.5554C184.384 92.5554 184.018 92.6662 183.703 92.8878C183.388 93.1094 183.141 93.402 182.962 93.7656C182.786 94.1293 182.696 94.527 182.693 94.9588V95.3594C182.693 95.8793 182.783 96.3338 182.962 96.723C183.143 97.1094 183.401 97.4091 183.733 97.6222C184.065 97.8352 184.459 97.9418 184.913 97.9418C185.223 97.9418 185.494 97.8935 185.727 97.7969C185.963 97.7003 186.161 97.571 186.32 97.4091C186.482 97.2443 186.604 97.0639 186.686 96.8679L187.406 97.1023C187.307 97.3778 187.143 97.6321 186.916 97.8651C186.692 98.098 186.411 98.2855 186.072 98.4276C185.737 98.5668 185.351 98.6364 184.913 98.6364ZM191.596 98.6364C191.059 98.6364 190.589 98.4943 190.186 98.2102C189.782 97.9261 189.467 97.5298 189.24 97.0213C189.015 96.5128 188.903 95.9205 188.903 95.2443C188.903 94.571 189.015 93.9815 189.24 93.4759C189.467 92.9673 189.784 92.5724 190.19 92.2912C190.596 92.0071 191.069 91.8651 191.609 91.8651C192.007 91.8651 192.338 91.9361 192.602 92.0781C192.866 92.2173 193.078 92.3906 193.237 92.598C193.396 92.8054 193.52 93.0071 193.608 93.2031H193.676V89.7727H194.439V98.5H193.697V97.2855H193.608C193.52 97.4844 193.395 97.6889 193.233 97.8991C193.071 98.1065 192.856 98.2812 192.589 98.4233C192.325 98.5653 191.994 98.6364 191.596 98.6364ZM191.686 97.9418C192.109 97.9418 192.47 97.8267 192.768 97.5966C193.066 97.3636 193.294 97.044 193.45 96.6378C193.609 96.2287 193.689 95.7599 193.689 95.2315C193.689 94.7088 193.61 94.2472 193.454 93.8466C193.298 93.4432 193.071 93.1278 192.772 92.9006C192.474 92.6705 192.112 92.5554 191.686 92.5554C191.248 92.5554 190.879 92.6747 190.578 92.9134C190.279 93.1491 190.052 93.4687 189.896 93.8722C189.743 94.2756 189.666 94.7287 189.666 95.2315C189.666 95.7401 189.744 96.1989 189.9 96.608C190.056 97.017 190.284 97.3423 190.582 97.5838C190.883 97.8224 191.251 97.9418 191.686 97.9418ZM204.372 93.3906L203.677 93.5866C203.609 93.3906 203.512 93.2131 203.387 93.054C203.262 92.8949 203.099 92.7685 202.897 92.6747C202.699 92.581 202.451 92.5341 202.156 92.5341C201.713 92.5341 201.349 92.6392 201.065 92.8494C200.781 93.0597 200.639 93.331 200.639 93.6634C200.639 93.9446 200.735 94.1733 200.929 94.3494C201.125 94.5227 201.426 94.6605 201.832 94.7628L202.821 95.0057C203.369 95.1392 203.779 95.3509 204.052 95.6406C204.328 95.9304 204.466 96.294 204.466 96.7315C204.466 97.1009 204.363 97.429 204.159 97.7159C203.954 98.0028 203.669 98.2287 203.302 98.3935C202.939 98.5554 202.517 98.6364 202.037 98.6364C201.397 98.6364 200.87 98.4929 200.456 98.206C200.041 97.9162 199.775 97.4986 199.659 96.9531L200.387 96.7741C200.481 97.1634 200.664 97.4574 200.937 97.6562C201.213 97.8551 201.575 97.9545 202.024 97.9545C202.527 97.9545 202.929 97.8423 203.23 97.6179C203.531 97.3906 203.681 97.1065 203.681 96.7656C203.681 96.5014 203.593 96.2798 203.417 96.1009C203.241 95.919 202.974 95.7855 202.616 95.7003L201.547 95.4446C200.978 95.3082 200.558 95.0923 200.285 94.7969C200.012 94.5014 199.876 94.1349 199.876 93.6974C199.876 93.3366 199.974 93.0199 200.17 92.7472C200.366 92.4716 200.636 92.2557 200.98 92.0994C201.324 91.9432 201.716 91.8651 202.156 91.8651C202.755 91.8651 203.234 92.0014 203.592 92.2741C203.953 92.544 204.213 92.9162 204.372 93.3906ZM206.885 94.4091V98.5H206.126V89.7727H206.885V92.9815H206.953C207.107 92.6435 207.344 92.3736 207.665 92.1719C207.989 91.9702 208.398 91.8693 208.892 91.8693C209.335 91.8693 209.724 91.9602 210.06 92.142C210.395 92.3239 210.656 92.5923 210.844 92.9474C211.031 93.3026 211.125 93.7401 211.125 94.2599V98.5H210.362V94.3068C210.362 93.767 210.212 93.3423 209.911 93.0327C209.612 92.7202 209.209 92.5639 208.7 92.5639C208.351 92.5639 208.04 92.6378 207.767 92.7855C207.494 92.9332 207.278 93.1463 207.119 93.4247C206.963 93.7003 206.885 94.0284 206.885 94.4091ZM215.667 98.6364C215.101 98.6364 214.601 98.4929 214.167 98.206C213.735 97.919 213.397 97.5227 213.152 97.017C212.908 96.5085 212.786 95.9219 212.786 95.2571C212.786 94.5866 212.908 93.9972 213.152 93.4886C213.397 92.9773 213.735 92.5795 214.167 92.2955C214.601 92.0085 215.101 91.8651 215.667 91.8651C216.232 91.8651 216.73 92.0085 217.162 92.2955C217.594 92.5824 217.932 92.9801 218.176 93.4886C218.424 93.9972 218.547 94.5866 218.547 95.2571C218.547 95.9219 218.425 96.5085 218.181 97.017C217.936 97.5227 217.597 97.919 217.162 98.206C216.73 98.4929 216.232 98.6364 215.667 98.6364ZM215.667 97.9418C216.121 97.9418 216.506 97.8196 216.821 97.5753C217.137 97.331 217.375 97.0057 217.537 96.5994C217.702 96.1932 217.784 95.7457 217.784 95.2571C217.784 94.7685 217.702 94.3196 217.537 93.9105C217.375 93.5014 217.137 93.1733 216.821 92.9261C216.506 92.679 216.121 92.5554 215.667 92.5554C215.215 92.5554 214.83 92.679 214.512 92.9261C214.196 93.1733 213.956 93.5014 213.792 93.9105C213.63 94.3196 213.549 94.7685 213.549 95.2571C213.549 95.7457 213.63 96.1932 213.792 96.5994C213.956 97.0057 214.196 97.331 214.512 97.5753C214.827 97.8196 215.212 97.9418 215.667 97.9418ZM220.212 98.5V91.9545H220.95V92.9602H221.005C221.136 92.6307 221.363 92.3651 221.687 92.1634C222.013 91.9588 222.383 91.8565 222.795 91.8565C222.857 91.8565 222.927 91.858 223.004 91.8608C223.08 91.8636 223.144 91.8665 223.195 91.8693V92.6406C223.161 92.6349 223.102 92.6264 223.016 92.6151C222.931 92.6037 222.839 92.598 222.739 92.598C222.398 92.598 222.094 92.6705 221.827 92.8153C221.563 92.9574 221.354 93.1548 221.201 93.4077C221.048 93.6605 220.971 93.9489 220.971 94.2727V98.5H220.212ZM227.478 91.9545V92.6151H224.354V91.9545H227.478ZM225.33 90.3864H226.093V96.7912C226.093 97.0639 226.14 97.2784 226.234 97.4347C226.327 97.5881 226.45 97.6974 226.6 97.7628C226.751 97.8253 226.911 97.8565 227.082 97.8565C227.181 97.8565 227.266 97.8509 227.337 97.8395C227.408 97.8253 227.471 97.8111 227.525 97.7969L227.687 98.483C227.613 98.5114 227.522 98.5369 227.414 98.5597C227.306 98.5852 227.173 98.598 227.013 98.598C226.735 98.598 226.467 98.5369 226.208 98.4148C225.952 98.2926 225.742 98.1108 225.577 97.8693C225.413 97.6278 225.33 97.3281 225.33 96.9702V90.3864ZM38.0795 106.955V107.615H34.956V106.955H38.0795ZM35.9318 105.386H36.6946V111.791C36.6946 112.064 36.7415 112.278 36.8352 112.435C36.929 112.588 37.0511 112.697 37.2017 112.763C37.3523 112.825 37.5128 112.857 37.6832 112.857C37.7827 112.857 37.8679 112.851 37.9389 112.839C38.0099 112.825 38.0724 112.811 38.1264 112.797L38.2884 113.483C38.2145 113.511 38.1236 113.537 38.0156 113.56C37.9077 113.585 37.7741 113.598 37.6151 113.598C37.3366 113.598 37.0682 113.537 36.8097 113.415C36.554 113.293 36.3438 113.111 36.179 112.869C36.0142 112.628 35.9318 112.328 35.9318 111.97V105.386ZM42.3782 113.636C41.7674 113.636 41.239 113.494 40.793 113.21C40.3469 112.923 40.0018 112.527 39.7575 112.021C39.516 111.513 39.3952 110.928 39.3952 110.266C39.3952 109.607 39.516 109.021 39.7575 108.51C40.0018 107.996 40.3384 107.594 40.7674 107.304C41.1992 107.011 41.6978 106.865 42.2631 106.865C42.6183 106.865 42.9606 106.93 43.2901 107.061C43.6197 107.189 43.9151 107.386 44.1765 107.653C44.4407 107.918 44.6495 108.251 44.8029 108.655C44.9563 109.055 45.033 109.53 45.033 110.078V110.453H39.9194V109.784H44.2575C44.2575 109.364 44.1722 108.986 44.0018 108.651C43.8342 108.312 43.5998 108.045 43.2987 107.849C43.0004 107.653 42.6552 107.555 42.2631 107.555C41.8484 107.555 41.4833 107.666 41.168 107.888C40.8526 108.109 40.6055 108.402 40.4265 108.766C40.2504 109.129 40.1609 109.527 40.158 109.959V110.359C40.158 110.879 40.2475 111.334 40.4265 111.723C40.6083 112.109 40.8654 112.409 41.1978 112.622C41.5302 112.835 41.9237 112.942 42.3782 112.942C42.6879 112.942 42.9592 112.893 43.1921 112.797C43.4279 112.7 43.6254 112.571 43.7844 112.409C43.9464 112.244 44.0685 112.064 44.1509 111.868L44.8711 112.102C44.7717 112.378 44.6083 112.632 44.381 112.865C44.1566 113.098 43.8754 113.286 43.5373 113.428C43.2021 113.567 42.8157 113.636 42.3782 113.636ZM46.7045 113.5V106.955H47.4418V107.96H47.4972C47.6278 107.631 47.8551 107.365 48.179 107.163C48.5057 106.959 48.875 106.857 49.2869 106.857C49.3494 106.857 49.419 106.858 49.4957 106.861C49.5724 106.864 49.6364 106.866 49.6875 106.869V107.641C49.6534 107.635 49.5938 107.626 49.5085 107.615C49.4233 107.604 49.331 107.598 49.2315 107.598C48.8906 107.598 48.5866 107.67 48.3196 107.815C48.0554 107.957 47.8466 108.155 47.6932 108.408C47.5398 108.661 47.4631 108.949 47.4631 109.273V113.5H46.7045ZM50.9819 113.5V106.955H51.7191V107.96H51.7873C51.918 107.622 52.1353 107.357 52.4393 107.163C52.7461 106.967 53.114 106.869 53.543 106.869C53.9947 106.869 54.3654 106.976 54.6552 107.189C54.9478 107.399 55.1665 107.689 55.3114 108.058H55.3668C55.5146 107.695 55.7546 107.406 56.087 107.193C56.4222 106.977 56.8285 106.869 57.3058 106.869C57.9137 106.869 58.3938 107.061 58.7461 107.445C59.0984 107.825 59.2745 108.382 59.2745 109.115V113.5H58.516V109.115C58.516 108.598 58.3839 108.21 58.1197 107.952C57.8555 107.693 57.5075 107.564 57.0756 107.564C56.5756 107.564 56.1907 107.717 55.9208 108.024C55.6509 108.331 55.516 108.72 55.516 109.192V113.5H54.7404V109.047C54.7404 108.604 54.6168 108.246 54.3697 107.973C54.1225 107.7 53.7745 107.564 53.3256 107.564C53.0245 107.564 52.7532 107.638 52.5117 107.786C52.2731 107.933 52.0842 108.139 51.945 108.403C51.8086 108.665 51.7404 108.966 51.7404 109.307V113.5H50.9819ZM64.6662 113.5V106.955H65.429V113.5H64.6662ZM65.054 105.83C64.8977 105.83 64.7642 105.777 64.6534 105.672C64.5426 105.564 64.4872 105.435 64.4872 105.284C64.4872 105.134 64.5426 105.006 64.6534 104.901C64.7642 104.793 64.8977 104.739 65.054 104.739C65.2102 104.739 65.3438 104.793 65.4545 104.901C65.5653 105.006 65.6207 105.134 65.6207 105.284C65.6207 105.435 65.5653 105.564 65.4545 105.672C65.3438 105.777 65.2102 105.83 65.054 105.83ZM68.1935 109.409V113.5H67.435V106.955H68.1722V107.982H68.2404C68.3938 107.646 68.6325 107.378 68.9563 107.176C69.283 106.972 69.6864 106.869 70.1665 106.869C70.6069 106.869 70.9933 106.962 71.3256 107.146C71.6609 107.328 71.9208 107.597 72.1055 107.952C72.293 108.307 72.3867 108.743 72.3867 109.26V113.5H71.6282V109.307C71.6282 108.77 71.4776 108.345 71.1765 108.033C70.8782 107.72 70.4776 107.564 69.9748 107.564C69.631 107.564 69.3256 107.638 69.0586 107.786C68.7915 107.933 68.5799 108.146 68.4237 108.425C68.2702 108.7 68.1935 109.028 68.1935 109.409ZM79.2166 106.955L76.826 113.5H76.0163L73.6257 106.955H74.4482L76.3913 112.499H76.451L78.3942 106.955H79.2166ZM83.1126 113.636C82.5018 113.636 81.9734 113.494 81.5273 113.21C81.0813 112.923 80.7362 112.527 80.4918 112.021C80.2504 111.513 80.1296 110.928 80.1296 110.266C80.1296 109.607 80.2504 109.021 80.4918 108.51C80.7362 107.996 81.0728 107.594 81.5018 107.304C81.9336 107.011 82.4322 106.865 82.9975 106.865C83.3526 106.865 83.695 106.93 84.0245 107.061C84.354 107.189 84.6495 107.386 84.9109 107.653C85.1751 107.918 85.3839 108.251 85.5373 108.655C85.6907 109.055 85.7674 109.53 85.7674 110.078V110.453H80.6538V109.784H84.9918C84.9918 109.364 84.9066 108.986 84.7362 108.651C84.5685 108.312 84.3342 108.045 84.033 107.849C83.7347 107.653 83.3896 107.555 82.9975 107.555C82.5827 107.555 82.2177 107.666 81.9023 107.888C81.587 108.109 81.3398 108.402 81.1609 108.766C80.9847 109.129 80.8952 109.527 80.8924 109.959V110.359C80.8924 110.879 80.9819 111.334 81.1609 111.723C81.3427 112.109 81.5998 112.409 81.9322 112.622C82.2646 112.835 82.658 112.942 83.1126 112.942C83.4222 112.942 83.6935 112.893 83.9265 112.797C84.1623 112.7 84.3597 112.571 84.5188 112.409C84.6808 112.244 84.8029 112.064 84.8853 111.868L85.6055 112.102C85.506 112.378 85.3427 112.632 85.1154 112.865C84.891 113.098 84.6097 113.286 84.2717 113.428C83.9364 113.567 83.5501 113.636 83.1126 113.636ZM91.8366 108.391L91.142 108.587C91.0739 108.391 90.9773 108.213 90.8523 108.054C90.7273 107.895 90.5639 107.768 90.3622 107.675C90.1634 107.581 89.9162 107.534 89.6207 107.534C89.1776 107.534 88.8139 107.639 88.5298 107.849C88.2457 108.06 88.1037 108.331 88.1037 108.663C88.1037 108.945 88.2003 109.173 88.3935 109.349C88.5895 109.523 88.8906 109.661 89.2969 109.763L90.2855 110.006C90.8338 110.139 91.2443 110.351 91.517 110.641C91.7926 110.93 91.9304 111.294 91.9304 111.732C91.9304 112.101 91.8281 112.429 91.6236 112.716C91.419 113.003 91.1335 113.229 90.767 113.393C90.4034 113.555 89.9815 113.636 89.5014 113.636C88.8622 113.636 88.3352 113.493 87.9205 113.206C87.5057 112.916 87.2401 112.499 87.1236 111.953L87.8523 111.774C87.946 112.163 88.1293 112.457 88.402 112.656C88.6776 112.855 89.0398 112.955 89.4886 112.955C89.9915 112.955 90.3935 112.842 90.6946 112.618C90.9957 112.391 91.1463 112.107 91.1463 111.766C91.1463 111.501 91.0582 111.28 90.8821 111.101C90.706 110.919 90.4389 110.786 90.081 110.7L89.0114 110.445C88.4432 110.308 88.0227 110.092 87.75 109.797C87.4773 109.501 87.3409 109.135 87.3409 108.697C87.3409 108.337 87.4389 108.02 87.6349 107.747C87.831 107.472 88.1009 107.256 88.4446 107.099C88.7884 106.943 89.1804 106.865 89.6207 106.865C90.2202 106.865 90.6989 107.001 91.0568 107.274C91.4176 107.544 91.6776 107.916 91.8366 108.391ZM96.1694 106.955V107.615H93.0458V106.955H96.1694ZM94.0217 105.386H94.7844V111.791C94.7844 112.064 94.8313 112.278 94.9251 112.435C95.0188 112.588 95.141 112.697 95.2915 112.763C95.4421 112.825 95.6026 112.857 95.7731 112.857C95.8725 112.857 95.9577 112.851 96.0288 112.839C96.0998 112.825 96.1623 112.811 96.2163 112.797L96.3782 113.483C96.3043 113.511 96.2134 113.537 96.1055 113.56C95.9975 113.585 95.864 113.598 95.7049 113.598C95.4265 113.598 95.158 113.537 94.8995 113.415C94.6438 113.293 94.4336 113.111 94.2688 112.869C94.104 112.628 94.0217 112.328 94.0217 111.97V105.386ZM97.892 113.5V106.955H98.6293V107.96H98.6974C98.8281 107.622 99.0455 107.357 99.3494 107.163C99.6563 106.967 100.024 106.869 100.453 106.869C100.905 106.869 101.276 106.976 101.565 107.189C101.858 107.399 102.077 107.689 102.222 108.058H102.277C102.425 107.695 102.665 107.406 102.997 107.193C103.332 106.977 103.739 106.869 104.216 106.869C104.824 106.869 105.304 107.061 105.656 107.445C106.009 107.825 106.185 108.382 106.185 109.115V113.5H105.426V109.115C105.426 108.598 105.294 108.21 105.03 107.952C104.766 107.693 104.418 107.564 103.986 107.564C103.486 107.564 103.101 107.717 102.831 108.024C102.561 108.331 102.426 108.72 102.426 109.192V113.5H101.651V109.047C101.651 108.604 101.527 108.246 101.28 107.973C101.033 107.7 100.685 107.564 100.236 107.564C99.9347 107.564 99.6634 107.638 99.4219 107.786C99.1832 107.933 98.9943 108.139 98.8551 108.403C98.7188 108.665 98.6506 108.966 98.6506 109.307V113.5H97.892ZM110.839 113.636C110.228 113.636 109.7 113.494 109.254 113.21C108.808 112.923 108.463 112.527 108.218 112.021C107.977 111.513 107.856 110.928 107.856 110.266C107.856 109.607 107.977 109.021 108.218 108.51C108.463 107.996 108.799 107.594 109.228 107.304C109.66 107.011 110.159 106.865 110.724 106.865C111.079 106.865 111.422 106.93 111.751 107.061C112.081 107.189 112.376 107.386 112.637 107.653C112.902 107.918 113.11 108.251 113.264 108.655C113.417 109.055 113.494 109.53 113.494 110.078V110.453H108.38V109.784H112.718C112.718 109.364 112.633 108.986 112.463 108.651C112.295 108.312 112.061 108.045 111.76 107.849C111.461 107.653 111.116 107.555 110.724 107.555C110.309 107.555 109.944 107.666 109.629 107.888C109.314 108.109 109.066 108.402 108.887 108.766C108.711 109.129 108.622 109.527 108.619 109.959V110.359C108.619 110.879 108.708 111.334 108.887 111.723C109.069 112.109 109.326 112.409 109.659 112.622C109.991 112.835 110.385 112.942 110.839 112.942C111.149 112.942 111.42 112.893 111.653 112.797C111.889 112.7 112.086 112.571 112.245 112.409C112.407 112.244 112.529 112.064 112.612 111.868L113.332 112.102C113.233 112.378 113.069 112.632 112.842 112.865C112.618 113.098 112.336 113.286 111.998 113.428C111.663 113.567 111.277 113.636 110.839 113.636ZM115.924 109.409V113.5H115.165V106.955H115.903V107.982H115.971C116.124 107.646 116.363 107.378 116.687 107.176C117.013 106.972 117.417 106.869 117.897 106.869C118.337 106.869 118.724 106.962 119.056 107.146C119.391 107.328 119.651 107.597 119.836 107.952C120.023 108.307 120.117 108.743 120.117 109.26V113.5H119.359V109.307C119.359 108.77 119.208 108.345 118.907 108.033C118.609 107.72 118.208 107.564 117.705 107.564C117.362 107.564 117.056 107.638 116.789 107.786C116.522 107.933 116.31 108.146 116.154 108.425C116.001 108.7 115.924 109.028 115.924 109.409ZM124.693 106.955V107.615H121.569V106.955H124.693ZM122.545 105.386H123.308V111.791C123.308 112.064 123.355 112.278 123.449 112.435C123.542 112.588 123.664 112.697 123.815 112.763C123.966 112.825 124.126 112.857 124.297 112.857C124.396 112.857 124.481 112.851 124.552 112.839C124.623 112.825 124.686 112.811 124.74 112.797L124.902 113.483C124.828 113.511 124.737 113.537 124.629 113.56C124.521 113.585 124.387 113.598 124.228 113.598C123.95 113.598 123.681 113.537 123.423 113.415C123.167 113.293 122.957 113.111 122.792 112.869C122.627 112.628 122.545 112.328 122.545 111.97V105.386ZM130.696 108.391L130.001 108.587C129.933 108.391 129.837 108.213 129.712 108.054C129.587 107.895 129.423 107.768 129.222 107.675C129.023 107.581 128.776 107.534 128.48 107.534C128.037 107.534 127.673 107.639 127.389 107.849C127.105 108.06 126.963 108.331 126.963 108.663C126.963 108.945 127.06 109.173 127.253 109.349C127.449 109.523 127.75 109.661 128.156 109.763L129.145 110.006C129.693 110.139 130.104 110.351 130.376 110.641C130.652 110.93 130.79 111.294 130.79 111.732C130.79 112.101 130.688 112.429 130.483 112.716C130.278 113.003 129.993 113.229 129.626 113.393C129.263 113.555 128.841 113.636 128.361 113.636C127.722 113.636 127.195 113.493 126.78 113.206C126.365 112.916 126.099 112.499 125.983 111.953L126.712 111.774C126.805 112.163 126.989 112.457 127.261 112.656C127.537 112.855 127.899 112.955 128.348 112.955C128.851 112.955 129.253 112.842 129.554 112.618C129.855 112.391 130.006 112.107 130.006 111.766C130.006 111.501 129.918 111.28 129.741 111.101C129.565 110.919 129.298 110.786 128.94 110.7L127.871 110.445C127.303 110.308 126.882 110.092 126.609 109.797C126.337 109.501 126.2 109.135 126.2 108.697C126.2 108.337 126.298 108.02 126.494 107.747C126.69 107.472 126.96 107.256 127.304 107.099C127.648 106.943 128.04 106.865 128.48 106.865C129.08 106.865 129.558 107.001 129.916 107.274C130.277 107.544 130.537 107.916 130.696 108.391Z" fill="black" fill-opacity="0.78"/>
<path d="M33.5568 57.3125V55.0455H47.0653V57.3125H41.6193V72.5H38.9943V57.3125H33.5568ZM48.4865 72.5V59.4091H50.9496V61.4886H51.0859C51.3246 60.7841 51.745 60.2301 52.3473 59.8267C52.9553 59.4176 53.6428 59.2131 54.4098 59.2131C54.5689 59.2131 54.7564 59.2187 54.9723 59.2301C55.1939 59.2415 55.3672 59.2557 55.4922 59.2727V61.7102C55.3899 61.6818 55.2081 61.6506 54.9467 61.6165C54.6854 61.5767 54.424 61.5568 54.1626 61.5568C53.5604 61.5568 53.0234 61.6847 52.5518 61.9403C52.0859 62.1903 51.7166 62.5398 51.4439 62.9886C51.1712 63.4318 51.0348 63.9375 51.0348 64.5057V72.5H48.4865ZM62.8707 72.7642C61.581 72.7642 60.4702 72.4886 59.5384 71.9375C58.6122 71.3807 57.8963 70.5994 57.3906 69.5938C56.8906 68.5824 56.6406 67.3977 56.6406 66.0398C56.6406 64.6989 56.8906 63.517 57.3906 62.4943C57.8963 61.4716 58.6009 60.6733 59.5043 60.0994C60.4134 59.5256 61.4759 59.2386 62.6918 59.2386C63.4304 59.2386 64.1463 59.3608 64.8395 59.6051C65.5327 59.8494 66.1548 60.233 66.706 60.7557C67.2571 61.2784 67.6918 61.9574 68.0099 62.7926C68.3281 63.6222 68.4872 64.6307 68.4872 65.8182V66.7216H58.081V64.8125H65.9901C65.9901 64.142 65.8537 63.5483 65.581 63.0312C65.3082 62.5085 64.9247 62.0966 64.4304 61.7955C63.9418 61.4943 63.3679 61.3438 62.7088 61.3438C61.9929 61.3438 61.3679 61.5199 60.8338 61.8722C60.3054 62.2187 59.8963 62.6733 59.6065 63.2358C59.3224 63.7926 59.1804 64.3977 59.1804 65.0511V66.5426C59.1804 67.4176 59.3338 68.1619 59.6406 68.7756C59.9531 69.3892 60.3878 69.858 60.9446 70.1818C61.5014 70.5 62.152 70.6591 62.8963 70.6591C63.3793 70.6591 63.8196 70.5909 64.2173 70.4545C64.6151 70.3125 64.9588 70.1023 65.2486 69.8239C65.5384 69.5455 65.7599 69.2017 65.9134 68.7926L68.3253 69.2273C68.1321 69.9375 67.7855 70.5597 67.2855 71.0938C66.7912 71.6222 66.169 72.0341 65.419 72.3295C64.6747 72.6193 63.8253 72.7642 62.8707 72.7642ZM75.1243 72.7898C74.2947 72.7898 73.5447 72.6364 72.8743 72.3295C72.2038 72.017 71.6726 71.5653 71.2805 70.9744C70.8942 70.3835 70.701 69.6591 70.701 68.8011C70.701 68.0625 70.843 67.4545 71.1271 66.9773C71.4112 66.5 71.7947 66.1222 72.2777 65.8438C72.7607 65.5653 73.3004 65.3551 73.897 65.2131C74.4936 65.071 75.1016 64.9631 75.7209 64.8892C76.505 64.7983 77.1413 64.7244 77.63 64.6676C78.1186 64.6051 78.4737 64.5057 78.6953 64.3693C78.9169 64.233 79.0277 64.0114 79.0277 63.7045V63.6449C79.0277 62.9006 78.8175 62.3239 78.397 61.9148C77.9822 61.5057 77.3629 61.3011 76.5391 61.3011C75.6811 61.3011 75.005 61.4915 74.5107 61.8722C74.022 62.2472 73.6839 62.6648 73.4964 63.125L71.1016 62.5795C71.3857 61.7841 71.8004 61.142 72.3459 60.6534C72.897 60.1591 73.5305 59.8011 74.2464 59.5795C74.9624 59.3523 75.7152 59.2386 76.505 59.2386C77.0277 59.2386 77.5817 59.3011 78.1669 59.4261C78.7578 59.5455 79.3089 59.767 79.8203 60.0909C80.3374 60.4148 80.7607 60.8778 81.0902 61.4801C81.4197 62.0767 81.5845 62.8523 81.5845 63.8068V72.5H79.0959V70.7102H78.9936C78.8288 71.0398 78.5817 71.3636 78.2521 71.6818C77.9226 72 77.4993 72.2642 76.9822 72.4744C76.4652 72.6847 75.8459 72.7898 75.1243 72.7898ZM75.6783 70.7443C76.3828 70.7443 76.9851 70.6051 77.4851 70.3267C77.9908 70.0483 78.3743 69.6847 78.6357 69.2358C78.9027 68.7812 79.0362 68.2955 79.0362 67.7784V66.0909C78.9453 66.1818 78.7692 66.267 78.5078 66.3466C78.2521 66.4205 77.9595 66.4858 77.63 66.5426C77.3004 66.5937 76.9794 66.642 76.6669 66.6875C76.3544 66.7273 76.093 66.7614 75.8828 66.7898C75.3885 66.8523 74.9368 66.9574 74.5277 67.1051C74.1243 67.2528 73.8004 67.4659 73.5561 67.7443C73.3175 68.017 73.1982 68.3807 73.1982 68.8352C73.1982 69.4659 73.4311 69.9432 73.897 70.267C74.3629 70.5852 74.9567 70.7443 75.6783 70.7443ZM94.7884 62.6051L92.4787 63.0142C92.3821 62.7187 92.2287 62.4375 92.0185 62.1705C91.8139 61.9034 91.5355 61.6847 91.1832 61.5142C90.831 61.3437 90.3906 61.2585 89.8622 61.2585C89.1406 61.2585 88.5384 61.4205 88.0554 61.7443C87.5724 62.0625 87.331 62.4744 87.331 62.9801C87.331 63.4176 87.4929 63.7699 87.8168 64.0369C88.1406 64.304 88.6634 64.5227 89.3849 64.6932L91.4645 65.1705C92.669 65.4489 93.5668 65.8778 94.1577 66.4574C94.7486 67.0369 95.044 67.7898 95.044 68.7159C95.044 69.5 94.8168 70.1989 94.3622 70.8125C93.9134 71.4205 93.2855 71.8977 92.4787 72.2443C91.6776 72.5909 90.7486 72.7642 89.6918 72.7642C88.2259 72.7642 87.0298 72.4517 86.1037 71.8267C85.1776 71.196 84.6094 70.3011 84.3991 69.142L86.8622 68.767C87.0156 69.4091 87.331 69.8949 87.8082 70.2244C88.2855 70.5483 88.9077 70.7102 89.6747 70.7102C90.5099 70.7102 91.1776 70.5369 91.6776 70.1903C92.1776 69.8381 92.4276 69.4091 92.4276 68.9034C92.4276 68.4943 92.2741 68.1506 91.9673 67.8722C91.6662 67.5937 91.2031 67.3835 90.5781 67.2415L88.3622 66.7557C87.1406 66.4773 86.2372 66.0341 85.652 65.4261C85.0724 64.8182 84.7827 64.0483 84.7827 63.1165C84.7827 62.3437 84.9986 61.6676 85.4304 61.0881C85.8622 60.5085 86.4588 60.0568 87.2202 59.733C87.9815 59.4034 88.8537 59.2386 89.8366 59.2386C91.2514 59.2386 92.3651 59.5455 93.1776 60.1591C93.9901 60.767 94.527 61.5824 94.7884 62.6051ZM106.138 67.071V59.4091H108.695V72.5H106.19V70.233H106.053C105.752 70.9318 105.269 71.5142 104.604 71.9801C103.945 72.4403 103.124 72.6705 102.141 72.6705C101.3 72.6705 100.556 72.4858 99.9084 72.1165C99.2663 71.7415 98.7607 71.1875 98.3913 70.4545C98.0277 69.7216 97.8459 68.8153 97.8459 67.7358V59.4091H100.394V67.429C100.394 68.321 100.641 69.0312 101.136 69.5597C101.63 70.0881 102.272 70.3523 103.062 70.3523C103.539 70.3523 104.013 70.233 104.485 69.9943C104.962 69.7557 105.357 69.3949 105.67 68.9119C105.988 68.429 106.144 67.8153 106.138 67.071ZM112.119 72.5V59.4091H114.582V61.4886H114.719C114.957 60.7841 115.378 60.2301 115.98 59.8267C116.588 59.4176 117.276 59.2131 118.043 59.2131C118.202 59.2131 118.389 59.2187 118.605 59.2301C118.827 59.2415 119 59.2557 119.125 59.2727V61.7102C119.023 61.6818 118.841 61.6506 118.58 61.6165C118.318 61.5767 118.057 61.5568 117.795 61.5568C117.193 61.5568 116.656 61.6847 116.185 61.9403C115.719 62.1903 115.349 62.5398 115.077 62.9886C114.804 63.4318 114.668 63.9375 114.668 64.5057V72.5H112.119ZM123.339 77.4091C122.959 77.4091 122.612 77.3778 122.3 77.3153C121.987 77.2585 121.754 77.196 121.601 77.1278L122.214 75.0398C122.68 75.1648 123.095 75.2188 123.459 75.2017C123.822 75.1847 124.143 75.0483 124.422 74.7926C124.706 74.5369 124.956 74.1193 125.172 73.5398L125.487 72.6705L120.697 59.4091H123.425L126.74 69.5682H126.876L130.192 59.4091H132.928L127.533 74.2472C127.283 74.929 126.964 75.5057 126.578 75.9773C126.192 76.4545 125.732 76.8125 125.197 77.0511C124.663 77.2898 124.044 77.4091 123.339 77.4091ZM141.879 72.5V55.0455H148.271C149.509 55.0455 150.535 55.25 151.347 55.6591C152.16 56.0625 152.768 56.6108 153.171 57.304C153.575 57.9915 153.776 58.767 153.776 59.6307C153.776 60.358 153.643 60.9716 153.376 61.4716C153.109 61.9659 152.751 62.3636 152.302 62.6648C151.859 62.9602 151.37 63.1761 150.836 63.3125V63.483C151.415 63.5114 151.981 63.6989 152.532 64.0455C153.089 64.3864 153.549 64.8722 153.913 65.5028C154.276 66.1335 154.458 66.9006 154.458 67.804C154.458 68.696 154.248 69.4972 153.827 70.2074C153.413 70.9119 152.771 71.4716 151.901 71.8864C151.032 72.2955 149.921 72.5 148.569 72.5H141.879ZM144.512 70.2415H148.313C149.575 70.2415 150.478 69.9972 151.023 69.5085C151.569 69.0199 151.842 68.4091 151.842 67.6761C151.842 67.125 151.702 66.6193 151.424 66.1591C151.146 65.6989 150.748 65.3324 150.231 65.0597C149.719 64.7869 149.112 64.6506 148.407 64.6506H144.512V70.2415ZM144.512 62.5966H148.04C148.631 62.5966 149.163 62.483 149.634 62.2557C150.112 62.0284 150.489 61.7102 150.768 61.3011C151.052 60.8864 151.194 60.3977 151.194 59.8352C151.194 59.1136 150.941 58.5085 150.435 58.0199C149.93 57.5312 149.154 57.2869 148.109 57.2869H144.512V62.5966ZM157.377 72.5V59.4091H159.925V72.5H157.377ZM158.664 57.3892C158.221 57.3892 157.84 57.2415 157.522 56.946C157.21 56.6449 157.053 56.2869 157.053 55.8722C157.053 55.4517 157.21 55.0937 157.522 54.7983C157.84 54.4972 158.221 54.3466 158.664 54.3466C159.107 54.3466 159.485 54.4972 159.798 54.7983C160.116 55.0937 160.275 55.4517 160.275 55.8722C160.275 56.2869 160.116 56.6449 159.798 56.946C159.485 57.2415 159.107 57.3892 158.664 57.3892ZM165.902 55.0455V72.5H163.354V55.0455H165.902ZM171.879 55.0455V72.5H169.33V55.0455H171.879ZM185.116 62.6051L182.807 63.0142C182.71 62.7187 182.557 62.4375 182.347 62.1705C182.142 61.9034 181.864 61.6847 181.511 61.5142C181.159 61.3437 180.719 61.2585 180.19 61.2585C179.469 61.2585 178.866 61.4205 178.384 61.7443C177.901 62.0625 177.659 62.4744 177.659 62.9801C177.659 63.4176 177.821 63.7699 178.145 64.0369C178.469 64.304 178.991 64.5227 179.713 64.6932L181.793 65.1705C182.997 65.4489 183.895 65.8778 184.486 66.4574C185.077 67.0369 185.372 67.7898 185.372 68.7159C185.372 69.5 185.145 70.1989 184.69 70.8125C184.241 71.4205 183.614 71.8977 182.807 72.2443C182.006 72.5909 181.077 72.7642 180.02 72.7642C178.554 72.7642 177.358 72.4517 176.432 71.8267C175.506 71.196 174.938 70.3011 174.727 69.142L177.19 68.767C177.344 69.4091 177.659 69.8949 178.136 70.2244C178.614 70.5483 179.236 70.7102 180.003 70.7102C180.838 70.7102 181.506 70.5369 182.006 70.1903C182.506 69.8381 182.756 69.4091 182.756 68.9034C182.756 68.4943 182.602 68.1506 182.295 67.8722C181.994 67.5937 181.531 67.3835 180.906 67.2415L178.69 66.7557C177.469 66.4773 176.565 66.0341 175.98 65.4261C175.401 64.8182 175.111 64.0483 175.111 63.1165C175.111 62.3437 175.327 61.6676 175.759 61.0881C176.19 60.5085 176.787 60.0568 177.548 59.733C178.31 59.4034 179.182 59.2386 180.165 59.2386C181.58 59.2386 182.693 59.5455 183.506 60.1591C184.318 60.767 184.855 61.5824 185.116 62.6051Z" fill="black"/>
<path d="M453.792 29.9307C455.463 29.9283 459.806 31.7822 461.469 32.3858L479.636 39.1594L489.607 42.8629C491.28 43.4809 493.945 44.3598 495.569 45.221C495.807 45.3471 496.054 46.0145 496.051 46.3051C496.045 47.0734 495.88 47.5388 495.299 48.102C494.17 48.3991 493.69 48.4959 492.532 48.3358C492.56 49.5461 492.571 50.0701 492.14 51.2174C491.084 51.9149 490.444 51.8585 489.128 51.9555C488.203 52.5503 490.33 54.7864 486.778 55.433C486.881 56.9826 486.825 58.8571 486.823 60.4385L486.812 69.1073L486.816 79.7077C486.818 81.8985 486.859 84.2244 486.773 86.4067C490.195 86.2081 490.971 86.7576 490.553 89.8852C491.837 89.8587 492.225 89.8155 493.347 90.3904C493.587 91.2305 493.565 92.495 493.524 93.3534C495.307 93.3616 496.07 93.4598 496.04 95.3209C496.025 96.2652 496.259 97.6172 495.59 98.4273C495.375 98.6877 494.833 98.6728 494.503 98.7064C492.845 98.7774 491.151 98.7539 489.489 98.7548L480.945 98.7574L454.565 98.7554L426.453 98.7521L418.049 98.7586C416.675 98.7613 414.423 98.8254 413.126 98.6962C412.88 98.5396 412.436 98.2655 412.359 97.9884C412.042 96.8486 411.86 94.8032 412.686 93.8449C413.076 93.3932 414.25 93.3622 414.836 93.3384C414.765 90.9628 414.511 89.7944 417.637 89.9178C417.628 88.9118 417.544 88.1012 417.89 87.1389C419.166 86.1739 419.985 86.3753 421.63 86.4264C421.471 76.1607 421.685 65.7185 421.605 55.4259C420.932 55.332 420.455 55.0798 419.871 54.7945C419.405 53.756 419.516 52.9954 419.545 51.9024C418.12 51.9643 417.588 51.9034 416.369 51.2517C415.876 50.0365 415.903 49.6631 416 48.3873C414.738 48.441 413.955 48.4967 412.86 47.9115C411.314 45.4282 412.968 45.0405 415.288 44.1304C418.012 43.0617 420.817 42.1241 423.558 41.1111L441.938 34.2732C445.018 33.1218 448.162 31.8599 451.294 30.7997C452.058 30.5412 453.02 30.0264 453.792 29.9307ZM433.183 55.4363L433.174 76.6001L433.179 82.9919C433.179 83.8373 433.231 85.6268 433.124 86.4084C445.155 86.2972 457.471 86.3654 469.505 86.4097C471.046 86.4082 473.91 86.3371 475.345 86.4398C475.239 85.2569 475.296 83.5003 475.295 82.2804L475.295 74.8815C475.296 68.5037 475.176 61.7707 475.303 55.4179C474.583 55.2453 474.17 55.1051 473.517 54.7515C473.094 53.5408 473.095 53.189 473.187 51.921C471.781 51.9176 471.419 51.8931 470.085 51.3935C469.421 50.0285 469.479 49.8503 469.556 48.3984L448.937 48.3954L442.541 48.4039C441.451 48.4054 439.858 48.4471 438.811 48.3554C438.895 49.632 438.961 50.0458 438.382 51.2221C437.296 51.8829 436.536 52.0044 435.212 51.8821C435.261 52.8909 435.344 53.7574 434.944 54.7161C434.243 55.1156 434.006 55.2991 433.183 55.4363ZM454.531 46.7193L480.734 46.7239L489.438 46.7079C490.071 46.7074 493.993 46.8222 494.294 46.5783C494.171 46.2411 489.969 44.8048 489.337 44.5701L480.078 41.1474L461.195 34.1212C460.15 33.7322 454.891 31.6046 454.092 31.5965C453.322 31.7579 452.34 32.2232 451.557 32.4999C448.431 33.6039 445.309 34.8323 442.2 35.9816L428.439 41.1175C426.895 41.6873 414.46 46.1406 414.166 46.4829L414.241 46.6114C415.001 46.811 417.858 46.7054 418.848 46.7038L424.226 46.7213L454.531 46.7193ZM423.602 86.3974C425.747 86.4002 429.099 86.311 431.147 86.4319C430.978 80.1582 431.122 73.3692 431.123 67.0515L431.123 59.5774C431.124 58.3783 431.068 56.5265 431.176 55.3656C429.642 55.4355 425.116 55.4518 423.64 55.3458L423.601 55.3427C423.768 61.5538 423.64 68.1889 423.639 74.4393L423.641 82.074C423.642 83.3712 423.697 85.1304 423.602 86.3974ZM477.318 86.4089C479.441 86.3126 482.719 86.3721 484.904 86.4073C484.777 84.7076 484.863 82.1446 484.863 80.3976L484.864 69.2534L484.853 60.2333C484.848 58.9459 484.758 56.589 484.871 55.382C483.673 55.449 478.311 55.5321 477.379 55.3669C477.232 57.4087 477.368 60.7767 477.366 62.9423L477.376 79.3145C477.376 81.2625 477.475 84.5705 477.318 86.4089ZM436.838 48.4015L423.981 48.403C422.451 48.4038 419.178 48.4949 417.829 48.3852C417.864 49.0215 417.866 49.4815 417.838 50.1183C418.802 50.1998 419.778 50.2006 420.746 50.2158C426.06 50.2993 431.384 50.167 436.697 50.2223C436.912 49.9671 436.826 48.7894 436.838 48.4015ZM491.512 93.4064C491.481 92.7498 491.522 92.2424 491.572 91.5842C485.442 91.6634 478.997 91.5723 472.841 91.5729L434.454 91.5774L422.405 91.571C421.327 91.5741 417.741 91.7226 416.967 91.5284C416.927 92.157 416.907 92.7863 416.904 93.4158C419.262 93.259 423.534 93.389 426.018 93.3901L444.072 93.3904L474.905 93.3852C480.377 93.3847 486.054 93.3146 491.512 93.4064ZM490.359 50.2257C490.457 49.7169 490.471 48.9322 490.496 48.3961L477.551 48.4037C475.827 48.404 473.14 48.485 471.478 48.4113C471.475 48.722 471.421 49.8639 471.591 50.0693C472.409 50.2578 475.47 50.2262 476.45 50.2311L485.141 50.2303C486.839 50.2224 488.674 50.1682 490.359 50.2257ZM414.082 97.1185C421.358 97.0299 428.794 97.0964 436.083 97.0969L476.556 97.0985L489.155 97.0962C489.884 97.0982 493.638 97.1998 494.167 97.0731C494.129 96.3625 494.167 95.7925 494.212 95.0862C487.94 95.2095 481.329 95.1089 475.028 95.1069L440.388 95.1079L422.531 95.108L417.719 95.1252C416.509 95.1335 415.294 95.1884 414.1 95.0532C414.118 95.7679 414.108 96.4034 414.082 97.1185ZM433.214 53.671C433.221 53.0899 433.214 52.4537 433.24 51.8778L425.467 51.8958C424.625 51.8962 422.231 51.9526 421.55 51.8132C421.558 52.4684 421.575 53.0772 421.503 53.7318C422.976 53.7172 433.002 53.8152 433.214 53.671ZM488.747 88.0644C483.625 88.1951 477.747 88.0607 472.577 88.057L440.882 88.0578L426.277 88.0628C425.02 88.0644 420.671 88.1529 419.758 88.003C419.752 88.6459 419.731 89.2885 419.696 89.9307C424.55 89.8478 429.742 89.9203 434.62 89.9203L462.485 89.9235L479.817 89.9164C482.399 89.9143 485.974 89.8116 488.462 89.9214L488.648 89.8668C488.763 89.5728 488.722 88.4571 488.747 88.0644ZM486.877 53.6769C486.873 53.0805 486.868 52.5043 486.895 51.9084C484.247 51.8785 481.599 51.8742 478.951 51.8955C478.161 51.8977 475.954 51.9516 475.294 51.861C475.215 52.3964 475.221 53.1599 475.208 53.7173C476.614 53.6997 486.064 53.9053 486.877 53.6769Z" fill="#1EA84E"/>
<path d="M448.914 50.8452C452.376 50.7482 456.285 50.8246 459.759 50.9173C460.463 50.9361 461.922 52.1327 461.759 52.7532C461.398 54.1256 459.708 56.636 458.646 57.6829C459.311 57.8097 460.664 58.403 461.285 58.69C464.237 60.051 466.366 62.4522 467.34 65.2556C467.953 67.0194 467.782 68.9101 467.793 70.7367C467.81 73.7541 468.079 76.2409 466.433 79.0199C464.819 81.7444 462.039 83.6327 458.751 84.572C451.881 85.9236 444.992 84.4541 441.648 78.4293C440.266 76.1728 440.763 73.5544 440.601 71.205C440.251 66.1183 441.253 61.9244 446.455 59.0429C447.361 58.5406 448.781 58.068 449.823 57.6529C448.665 56.6025 447.649 54.9579 446.899 53.638C446.166 52.3484 447.417 50.9342 448.914 50.8452ZM455.824 83.3839C459.28 82.9151 461.731 81.8722 463.89 79.3442C466.599 76.1729 465.606 71.9693 465.763 68.2368C466.017 62.2039 459.066 58.0614 452.722 58.9241C446.736 59.5136 442.41 63.3857 442.61 68.792C442.782 73.4421 441.669 77.8894 446.519 81.1074C449.563 83.2058 451.984 83.6091 455.824 83.3839ZM456.695 57.2522L457.256 56.6278C457.579 56.0218 459.737 53.0483 459.715 52.7597C459.123 52.324 451.613 52.4936 450.35 52.5312C449.867 52.531 449.229 52.497 448.786 52.6301L448.673 52.7336C448.787 53.1734 451.286 56.873 451.661 57.2508C453.407 57.2414 454.93 57.2099 456.695 57.2522Z" fill="#1EA84E"/>
<path d="M453.969 63.3758C455.392 63.2063 455.175 64.6807 455.123 65.4251C456.678 65.4545 457.186 65.5996 458.444 66.3742C458.878 67.0992 459.531 68.1577 459.034 68.9785C458.77 69.4148 458.327 69.4817 457.881 69.1899C457.39 68.8682 457.415 68.4867 457.353 67.9941C456.069 66.6515 454.504 67.0387 452.738 67.0506C451.412 67.0596 450.841 68.1323 451.123 69.1532C451.631 70.9898 454.583 70.1228 456.176 70.5306C457.347 70.8302 457.469 70.8706 458.441 71.4851C458.986 72.4084 459.333 73.0935 459.214 74.174C459.003 76.1014 457.302 77.0821 455.207 76.87C455.199 77.109 455.195 77.3582 455.181 77.5962C455.129 78.5049 455.244 78.7574 454.219 79.0958L453.278 78.8373C453.195 78.2733 453.187 77.5916 453.165 77.013C451.258 76.8566 449.599 76.264 449.062 74.3552C448.829 73.5299 449.782 72.5167 450.71 73.2212C451.249 73.6304 450.996 74.4625 451.592 74.8721C452.705 75.6317 454.797 75.4175 456.142 75.3761C456.543 75.0894 457.053 74.7375 457.255 74.3157L457.276 74.2708C457.448 73.9138 457.378 73.4609 457.351 73.0668C455.458 71.1533 451.771 72.9475 450.08 71.0095C447.793 68.3889 449.418 65.5127 453.191 65.4501C453.166 64.507 452.863 63.7676 453.969 63.3758Z" fill="#1EA84E"/>
<path d="M458.696 34.4923C459.747 34.4656 460.273 34.6204 461.151 35.1361C461.811 36.1451 462.48 37.0521 461.434 38.0974C460.163 39.3679 458.636 40.5835 457.208 41.7258C455.607 42.957 454.209 44.3414 452.497 45.4493C450.769 46.5677 448.687 45.549 447.49 44.2949C447.084 43.7729 446.041 43.175 445.513 42.6677C445.117 42.2874 444.797 41.9028 444.429 41.5024C444.334 40.0035 444.891 38.7922 446.805 38.4572C448.423 38.1738 449.548 39.4894 450.762 40.2821C451.273 39.7644 452.53 38.7767 453.154 38.3041C454.888 36.9888 456.49 35.0703 458.696 34.4923ZM450.814 42.2328C449.008 41.7899 448.104 39.9235 446.799 40.1611C445.639 40.9346 447.361 41.7255 447.793 42.1644C448.209 42.7252 449.984 43.9389 450.673 44.378C452.953 43.2676 455.522 40.5614 457.598 39.0152C458.165 38.5935 458.874 37.8476 459.549 37.5483C459.946 36.8972 460.242 36.1461 458.983 36.1549C457.698 36.6196 457.596 37.0447 456.631 37.758C455.232 38.7912 452.34 41.6869 450.814 42.2328Z" fill="#1EA84E"/>
<path d="M427.277 57.7667C427.788 57.7878 428.023 58.0386 428.373 58.3426C428.5 59.292 428.459 60.7945 428.458 61.7783L428.451 67.3322C428.444 72.2379 428.462 77.1436 428.448 82.049C428.446 82.8235 428.582 83.5123 427.716 83.8197C427.21 83.8663 426.973 83.8097 426.575 83.5274C426.464 83.2489 426.42 82.4822 426.42 82.176C426.413 76.5409 426.422 70.8975 426.416 65.2632L426.411 60.6323C426.411 59.9623 426.384 59.1355 426.46 58.4696C426.496 58.1523 426.967 57.9393 427.277 57.7667Z" fill="#1EA84E"/>
<path d="M481.035 57.7614C481.7 57.9237 482.055 58.1713 482.074 58.7935C482.119 60.2627 482.105 61.733 482.105 63.203L482.105 71.3247L482.105 78.7817C482.104 80.2688 482.146 82.0413 482.029 83.5L481.197 83.884C480.282 83.7166 479.996 83.5183 479.992 82.6298C479.987 81.0582 480.009 79.4865 480.009 77.9148L480.015 67.465C480.019 64.7735 479.886 61.2039 480.12 58.4873C480.147 58.1672 480.721 57.9076 481.035 57.7614Z" fill="#1EA84E"/>
</svg>