<svg xmlns="http://www.w3.org/2000/svg" width="97" height="82" viewBox="0 0 97 82" fill="none">
<path d="M46.2918 6.43065C47.9626 6.42828 52.3058 8.28216 53.9693 8.88579L72.1364 15.6594L82.1073 19.3629C83.7796 19.9809 86.4452 20.8598 88.0689 21.721C88.3065 21.8471 88.5536 22.5145 88.5514 22.8051C88.5453 23.5734 88.3801 24.0388 87.7986 24.602C86.6705 24.8991 86.1903 24.9959 85.0317 24.8358C85.06 26.0461 85.0713 26.5701 84.6395 27.7174C83.5845 28.4149 82.944 28.3585 81.6278 28.4555C80.7028 29.0503 82.8296 31.2864 79.2777 31.933C79.3812 33.4826 79.3246 35.3571 79.3234 36.9385L79.3123 45.6073L79.3164 56.2077C79.3185 58.3985 79.3588 60.7244 79.273 62.9067C82.6955 62.7081 83.4708 63.2576 83.0533 66.3852C84.3369 66.3587 84.7251 66.3155 85.8472 66.8904C86.087 67.7305 86.0648 68.995 86.0243 69.8534C87.807 69.8616 88.5697 69.9598 88.5397 71.8209C88.5245 72.7652 88.7595 74.1172 88.0904 74.9273C87.8755 75.1877 87.3331 75.1728 87.003 75.2064C85.3453 75.2774 83.6512 75.2539 81.9895 75.2548L73.4449 75.2574L47.065 75.2554L18.9527 75.2521L10.5494 75.2586C9.17461 75.2613 6.92288 75.3254 5.62621 75.1962C5.38027 75.0396 4.93605 74.7655 4.85906 74.4884C4.54237 73.3486 4.35994 71.3032 5.18629 70.3449C5.57573 69.8932 6.7497 69.8622 7.33601 69.8384C7.26489 67.4628 7.01132 66.2944 10.1366 66.4178C10.1276 65.4118 10.0436 64.6012 10.3901 63.6389C11.6658 62.6739 12.4846 62.8753 14.1299 62.9264C13.9712 52.6607 14.1851 42.2185 14.1049 31.9259C13.4321 31.832 12.9546 31.5798 12.3711 31.2945C11.9052 30.256 12.016 29.4954 12.0451 28.4024C10.6202 28.4643 10.0882 28.4034 8.8692 27.7517C8.37598 26.5365 8.40272 26.1631 8.49992 24.8873C7.23819 24.941 6.45515 24.9967 5.36 24.4115C3.81444 21.9282 5.46835 21.5405 7.78765 20.6304C10.5115 19.5617 13.3166 18.6241 16.0579 17.6111L34.4382 10.7732C37.5179 9.62179 40.6619 8.35992 43.7942 7.29974C44.5581 7.04119 45.5201 6.52638 46.2918 6.43065ZM25.683 31.9363L25.6745 53.1001L25.6788 59.4919C25.6793 60.3373 25.7315 62.1268 25.6236 62.9084C37.6549 62.7972 49.9706 62.8654 62.0048 62.9097C63.5456 62.9082 66.4105 62.8371 67.8454 62.9398C67.7394 61.7569 67.7955 60.0003 67.7952 58.7804L67.7951 51.3815C67.7961 45.0037 67.6758 38.2707 67.803 31.9179C67.0828 31.7453 66.6704 31.6051 66.0174 31.2515C65.5935 30.0408 65.5955 29.689 65.6865 28.421C64.2809 28.4176 63.9194 28.3931 62.5853 27.8935C61.9208 26.5285 61.9788 26.3503 62.0564 24.8984L41.437 24.8954L35.0409 24.9039C33.9505 24.9054 32.3582 24.9471 31.3111 24.8554C31.3952 26.132 31.4615 26.5458 30.8819 27.7221C29.7964 28.3829 29.0355 28.5044 27.7125 28.3821C27.7606 29.3909 27.8436 30.2574 27.4445 31.2161C26.7432 31.6156 26.5064 31.7991 25.683 31.9363ZM47.0313 23.2193L73.2336 23.2239L81.9376 23.2079C82.5707 23.2074 86.4932 23.3222 86.7938 23.0783C86.671 22.7411 82.4686 21.3048 81.8368 21.0701L72.578 17.6474L53.6951 10.6212C52.65 10.2322 47.3906 8.10463 46.5922 8.09646C45.8224 8.2579 44.8402 8.72323 44.0567 8.9999C40.931 10.1039 37.8085 11.3323 34.7002 12.4816L20.9386 17.6175C19.395 18.1873 6.96028 22.6406 6.66597 22.9829L6.74059 23.1114C7.50079 23.311 10.358 23.2054 11.3476 23.2038L16.7259 23.2213L47.0313 23.2193ZM16.1017 62.8974C18.2467 62.9002 21.5994 62.811 23.6469 62.9319C23.4777 56.6582 23.6218 49.8692 23.6227 43.5515L23.6235 36.0774C23.6241 34.8783 23.5683 33.0265 23.6757 31.8656C22.1424 31.9355 17.6164 31.9518 16.1403 31.8458L16.1011 31.8427C16.2676 38.0538 16.1396 44.6889 16.1393 50.9393L16.1412 58.574C16.1417 59.8712 16.1965 61.6304 16.1017 62.8974ZM69.8178 62.9089C71.9414 62.8126 75.2194 62.8721 77.4036 62.9073C77.277 61.2076 77.3627 58.6446 77.3633 56.8976L77.3641 45.7534L77.3534 36.7333C77.3483 35.4459 77.258 33.089 77.3715 31.882C76.1731 31.949 70.8113 32.0321 69.879 31.8669C69.732 33.9087 69.8682 37.2767 69.8659 39.4423L69.8757 55.8145C69.8758 57.7625 69.9753 61.0705 69.8178 62.9089ZM29.3378 24.9015L16.481 24.903C14.9506 24.9038 11.6782 24.9949 10.3288 24.8852C10.3642 25.5215 10.3661 25.9815 10.3384 26.6183C11.3023 26.6998 12.2779 26.7006 13.2455 26.7158C18.5601 26.7993 23.8843 26.667 29.197 26.7223C29.4119 26.4671 29.3262 25.2894 29.3378 24.9015ZM84.0121 69.9064C83.9813 69.2498 84.0217 68.7424 84.0717 68.0842C77.9417 68.1634 71.4973 68.0723 65.3408 68.0729L26.9537 68.0774L14.9052 68.071C13.8266 68.0741 10.2411 68.2226 9.46652 68.0284C9.42743 68.657 9.40671 69.2863 9.40427 69.9158C11.7622 69.759 16.034 69.889 18.5185 69.8901L36.572 69.8904L67.405 69.8852C72.8767 69.8847 78.554 69.8146 84.0121 69.9064ZM82.8591 26.7257C82.9574 26.2169 82.9705 25.4322 82.9963 24.8961L70.0513 24.9037C68.3269 24.904 65.6404 24.985 63.9777 24.9113C63.9745 25.222 63.9212 26.3639 64.0911 26.5693C64.9093 26.7578 67.9701 26.7262 68.9497 26.7311L77.6408 26.7303C79.3394 26.7224 81.1744 26.6682 82.8591 26.7257ZM6.58233 73.6185C13.8579 73.5299 21.2939 73.5964 28.583 73.5969L69.0556 73.5985L81.6553 73.5962C82.3836 73.5982 86.1382 73.6998 86.6672 73.5731C86.6294 72.8625 86.6672 72.2925 86.712 71.5862C80.4398 71.7095 73.8292 71.6089 67.528 71.6069L32.8883 71.6079L15.031 71.608L10.2194 71.6252C9.00886 71.6335 7.79426 71.6884 6.5996 71.5532C6.61753 72.2679 6.60791 72.9034 6.58233 73.6185ZM25.7141 30.171C25.7211 29.5899 25.7137 28.9537 25.7399 28.3778L17.9672 28.3958C17.1248 28.3962 14.7314 28.4526 14.0501 28.3132C14.0577 28.9684 14.075 29.5772 14.0031 30.2318C15.4762 30.2172 25.502 30.3152 25.7141 30.171ZM81.2468 64.5644C76.1252 64.6951 70.2465 64.5607 65.0767 64.557L33.3821 64.5578L18.7768 64.5628C17.52 64.5644 13.1705 64.6529 12.2583 64.503C12.2519 65.1459 12.2312 65.7885 12.1962 66.4307C17.0502 66.3478 22.2422 66.4203 27.1196 66.4203L54.9852 66.4235L72.3168 66.4164C74.8987 66.4143 78.4743 66.3116 80.9617 66.4214L81.148 66.3668C81.2631 66.0728 81.2224 64.9571 81.2468 64.5644ZM79.3768 30.1769C79.373 29.5805 79.3679 29.0043 79.3955 28.4084C76.7473 28.3785 74.0988 28.3742 71.4506 28.3955C70.6607 28.3977 68.4538 28.4516 67.7944 28.361C67.7154 28.8964 67.7209 29.6599 67.7078 30.2173C69.1145 30.1997 78.564 30.4053 79.3768 30.1769Z" fill="#1EA84E"/>
<path d="M41.4141 27.3452C44.8765 27.2482 48.7849 27.3246 52.2586 27.4173C52.9635 27.4361 54.4223 28.6327 54.2591 29.2532C53.8982 30.6256 52.2078 33.136 51.1458 34.1829C51.8109 34.3097 53.1636 34.903 53.7853 35.19C56.7372 36.551 58.8656 38.9522 59.8399 41.7556C60.4528 43.5194 60.2824 45.4101 60.2927 47.2367C60.3097 50.2541 60.5786 52.7409 58.9325 55.5199C57.3186 58.2444 54.5392 60.1327 51.2509 61.072C44.3809 62.4236 37.4924 60.9541 34.1485 54.9293C32.7658 52.6728 33.2633 50.0544 33.1015 47.705C32.7511 42.6183 33.753 38.4244 38.9546 35.5429C39.8613 35.0406 41.2814 34.568 42.3233 34.1529C41.1654 33.1025 40.1491 31.4579 39.399 30.138C38.666 28.8484 39.9173 27.4342 41.4141 27.3452ZM48.324 59.8839C51.7805 59.4151 54.2312 58.3722 56.3904 55.8442C59.0992 52.6729 58.1059 48.4693 58.263 44.7368C58.5171 38.7039 51.5658 34.5614 45.2216 35.4241C39.2364 36.0136 34.91 39.8857 35.11 45.292C35.2819 49.9421 34.169 54.3894 39.0191 57.6074C42.0626 59.7058 44.4839 60.1091 48.324 59.8839ZM49.1954 33.7522L49.756 33.1278C50.0794 32.5218 52.2371 29.5483 52.2147 29.2597C51.6229 28.824 44.1127 28.9936 42.85 29.0312C42.3666 29.031 41.7292 28.997 41.286 29.1301L41.1733 29.2336C41.2873 29.6734 43.7859 33.373 44.1609 33.7508C45.9066 33.7414 47.4302 33.7099 49.1954 33.7522Z" fill="#1EA84E"/>
<path d="M46.4692 39.8758C47.8921 39.7063 47.6746 41.1807 47.6226 41.9251C49.1778 41.9545 49.6857 42.0996 50.9443 42.8742C51.3779 43.5992 52.0308 44.6577 51.5338 45.4785C51.2697 45.9148 50.8272 45.9817 50.3814 45.6899C49.89 45.3682 49.9153 44.9867 49.8528 44.4941C48.5694 43.1515 47.0035 43.5387 45.2382 43.5506C43.9122 43.5596 43.3412 44.6323 43.6233 45.6532C44.1307 47.4898 47.083 46.6228 48.6763 47.0306C49.8467 47.3302 49.9686 47.3706 50.9413 47.9851C51.4864 48.9084 51.8328 49.5935 51.7142 50.674C51.5025 52.6014 49.8021 53.5821 47.7068 53.37C47.699 53.609 47.6953 53.8582 47.6814 54.0962C47.6288 55.0049 47.7443 55.2574 46.7194 55.5958L45.7775 55.3373C45.6946 54.7733 45.687 54.0916 45.6648 53.513C43.7585 53.3566 42.099 52.764 41.5617 50.8552C41.3295 50.0299 42.2822 49.0167 43.2097 49.7212C43.7485 50.1304 43.4957 50.9625 44.0917 51.3721C45.205 52.1317 47.2966 51.9175 48.6422 51.8761C49.0431 51.5894 49.5528 51.2375 49.7554 50.8157L49.7764 50.7708C49.9477 50.4138 49.878 49.9609 49.8514 49.5668C47.9584 47.6533 44.2714 49.4475 42.58 47.5095C40.2928 44.8889 41.9177 42.0127 45.6911 41.9501C45.6661 41.007 45.3633 40.2676 46.4692 39.8758Z" fill="#1EA84E"/>
<path d="M51.1955 10.9923C52.2472 10.9656 52.7725 11.1204 53.6511 11.6361C54.3109 12.6451 54.9804 13.5521 53.9343 14.5974C52.6629 15.8679 51.136 17.0835 49.7079 18.2258C48.1069 19.457 46.709 20.8414 44.997 21.9493C43.2688 23.0677 41.1869 22.049 39.9901 20.7949C39.5836 20.2729 38.5412 19.675 38.0129 19.1677C37.6168 18.7874 37.2971 18.4028 36.9286 18.0024C36.8336 16.5035 37.391 15.2922 39.3045 14.9572C40.9226 14.6738 42.048 15.9894 43.262 16.7821C43.7731 16.2644 45.0303 15.2767 45.6536 14.8041C47.3884 13.4888 48.9896 11.5703 51.1955 10.9923ZM43.314 18.7328C41.5084 18.2899 40.6044 16.4235 39.2993 16.6611C38.1394 17.4346 39.861 18.2255 40.2927 18.6644C40.7093 19.2252 42.4838 20.4389 43.173 20.878C45.4528 19.7676 48.0221 17.0614 50.0985 15.5152C50.6648 15.0935 51.3743 14.3476 52.0486 14.0483C52.4456 13.3972 52.7417 12.6461 51.4827 12.6549C50.1978 13.1196 50.0963 13.5447 49.1307 14.258C47.7317 15.2912 44.8399 18.1869 43.314 18.7328Z" fill="#1EA84E"/>
<path d="M19.7772 34.2667C20.2882 34.2878 20.5233 34.5386 20.8731 34.8426C21.0003 35.792 20.9587 37.2945 20.9583 38.2783L20.9511 43.8322C20.9443 48.7379 20.9616 53.6436 20.9484 58.549C20.9464 59.3235 21.0821 60.0123 20.2163 60.3197C19.71 60.3663 19.4729 60.3097 19.0753 60.0274C18.9635 59.7489 18.9205 58.9822 18.9201 58.676C18.9131 53.0409 18.9222 47.3975 18.9158 41.7632L18.911 37.1323C18.9106 36.4623 18.8844 35.6355 18.9597 34.9696C18.9957 34.6523 19.4673 34.4393 19.7772 34.2667Z" fill="#1EA84E"/>
<path d="M73.5346 34.2614C74.2004 34.4237 74.5551 34.6713 74.5742 35.2935C74.6192 36.7627 74.6049 38.233 74.6055 39.703L74.6052 47.8247L74.605 55.2817C74.6039 56.7688 74.6456 58.5413 74.5288 60L73.6967 60.384C72.7816 60.2166 72.4956 60.0183 72.4924 59.1298C72.4867 57.5582 72.5091 55.9865 72.5089 54.4148L72.5146 43.965C72.519 41.2735 72.3862 37.7039 72.6198 34.9873C72.6473 34.6672 73.2214 34.4076 73.5346 34.2614Z" fill="#1EA84E"/>
</svg>